<svg xmlns="http://www.w3.org/2000/svg" xmlns:xlink="http://www.w3.org/1999/xlink" width="32.257" height="34.655" viewBox="0 0 32.257 34.655">
  <defs>
    <linearGradient id="linear-gradient" x1="-0.124" y1="0.604" x2="1.146" y2="0.583" gradientUnits="objectBoundingBox">
      <stop offset="0" stop-color="#cbd8fe"/>
      <stop offset="1" stop-color="#fff"/>
    </linearGradient>
    <clipPath id="clip-path">
      <rect id="Rectángulo_405042" data-name="Rectángulo 405042" width="29.75" height="25.807" fill="#d4f989"/>
    </clipPath>
  </defs>
  <g id="Grupo_1112380" data-name="Grupo 1112380" transform="translate(0 0)">
    <path id="Trazado_908106" data-name="Trazado 908106" d="M14.257,32c-30.577,0,0-7.163,0-16Z" transform="translate(18 2.655)" fill="url(#linear-gradient)"/>
    <path id="Trazado_907614" data-name="Trazado 907614" d="M194.255,59.293c.066,1.868-.412,3.934-2.114,4.974a4.154,4.154,0,0,1-3.656.3c-3.981-1.6-7.816-9.208-7.918-13.358-.207-8.46,11.342,1.8,12.771,4.452a8.5,8.5,0,0,1,.917,3.626" transform="translate(-174.509 -44.205)" fill="#166340"/>
    <path id="Trazado_907636" data-name="Trazado 907636" d="M32,0V32H0A32,32,0,0,1,32,0Z" transform="translate(0 2.655)" fill="#7d9ffb"/>
    <g id="Grupo_1111861" data-name="Grupo 1111861" transform="translate(0 29.75) rotate(-90)">
      <g id="Grupo_1111658" data-name="Grupo 1111658" clip-path="url(#clip-path)">
        <path id="Trazado_903772" data-name="Trazado 903772" d="M29.422,21.848h0a2.292,2.292,0,0,0-.814-.8.349.349,0,0,0-.291-.021.342.342,0,0,0-.09.05,11.308,11.308,0,0,1-2.7,1.369,5.874,5.874,0,0,1-.625.182c-1.485.091-4.754-.17-10.783-4.616C7.005,12.765,5.027,5.45,5.157,1.918A1.51,1.51,0,0,0,4.6.2,1.433,1.433,0,0,0,2.575.9L2.552.911C-1.1,8.956-1.772,16.353,6.907,22.452c7.741,5.439,15.592,2.877,18.184,1.834a14.189,14.189,0,0,0,4.442-1.091.335.335,0,0,0,.215-.278,1.874,1.874,0,0,0-.325-1.068" transform="translate(0 0)" fill="#d4f989"/>
      </g>
    </g>
    <g id="Grupo_1111862" data-name="Grupo 1111862" transform="translate(16.086 23.285)">
      <path id="Trazado_903774" data-name="Trazado 903774" d="M37.7,103.516c-.039-.035-.077-.072-.113-.109a3.706,3.706,0,0,1-.859-2.016,2.768,2.768,0,0,1,.6-2.546,1.1,1.1,0,0,1,.97-.286,1.133,1.133,0,0,1,.709.693,4.269,4.269,0,0,1,.219,1,15.94,15.94,0,0,1,.63,2.4,1.419,1.419,0,0,1-1.379,1.225,1.33,1.33,0,0,1-.778-.365" transform="translate(-36.667 -96.891)" fill="#166340"/>
      <path id="Trazado_903776" data-name="Trazado 903776" d="M180.707,133.866a3.047,3.047,0,0,1-.21,1.35,9.233,9.233,0,0,1-1.748,2.719,4.947,4.947,0,0,1-1.717,1.274,2.588,2.588,0,0,1-2.092-.005,1.77,1.77,0,0,1-1-1.75,2.362,2.362,0,0,1,1.046-1.478,16.145,16.145,0,0,0,1.519-1.07,11.234,11.234,0,0,0,1.085-1.331,2.9,2.9,0,0,1,1.332-1.045c1.2-.375,1.721.415,1.789,1.335" transform="translate(-166.875 -132.436)" fill="#166340"/>
    </g>
  </g>
</svg>
