<svg xmlns="http://www.w3.org/2000/svg" width="1135" height="101" viewBox="0 0 1135 101">
  <g id="Grupo_1113542" data-name="Grupo 1113542" transform="translate(-285.123 -5285.561)">
    <g id="Grupo_1113466" data-name="Grupo 1113466" transform="translate(0 11.561)">
      <rect id="Rectángulo_405920" data-name="Rectángulo 405920" width="400" height="101" rx="17" transform="translate(285.123 5274)" fill="#eefdd0"/>
      <rect id="Rectángulo_405921" data-name="Rectángulo 405921" width="680" height="101" rx="17" transform="translate(740.123 5274)" fill="#eefdd0"/>
      <text id="Lavar_los_mesones_con_un_cepillo_y_jabón_para_eliminar_residuos." data-name="Lavar los mesones con un cepillo y jabón para eliminar residuos." transform="translate(390.123 5306)" fill="#12263f" font-size="16" font-family="Roboto-Regular, Roboto"><tspan x="0" y="17">Lavar los mesones con un cepillo y </tspan><tspan x="0" y="44">jabón para eliminar residuos.</tspan></text>
      <text id="Desinfectarlos_con_una_solución_de_agua_y_cloro_dejándola_actuar_por_un_período_de_10_minutos_para_eliminar_cualquier_agente_contaminante." data-name="Desinfectarlos con una solución de agua y cloro, dejándola actuar por un período de 10 minutos para eliminar cualquier agente contaminante." transform="translate(778.123 5302)" fill="#12263f" font-size="16" font-family="Roboto-Regular, Roboto"><tspan x="0" y="17">Desinfectarlos con una solución de agua y cloro, dejándola actuar por </tspan><tspan x="0" y="44">un período de 10 minutos para eliminar cualquier agente contaminante.</tspan></text>
      <g id="arriba" transform="translate(755.123 5185.263) rotate(90)">
        <path id="Trazado_910913" data-name="Trazado 910913" d="M285.812,98.619H272.157V161.1l5.046,5.046a2.523,2.523,0,0,0,4.307-1.784V107.972h7.564a2.523,2.523,0,0,0,1.784-4.307Z" transform="translate(-129.278 -82.031)" fill="#cbd8fe"/>
        <path id="Trazado_910914" data-name="Trazado 910914" d="M162.794,22.827,148.207,8.239a2.523,2.523,0,0,0-3.568,0L125.006,27.873a2.523,2.523,0,0,0,1.784,4.307h7.564V88.568a2.523,2.523,0,0,0,4.307,1.784l7.761-7.761,2.715,2.715a2.523,2.523,0,0,0,4.307-1.784V29.657a2.523,2.523,0,0,1,2.523-2.523h5.041a2.523,2.523,0,0,0,1.784-4.307Z" transform="translate(-6.26 -6.239)" fill="#7d9ffb"/>
        <path id="Trazado_910915" data-name="Trazado 910915" d="M128.1,67.522a1.262,1.262,0,0,1-1.262-1.262V27.2h-6.3a3.785,3.785,0,0,1-2.676-6.461L137.487,1.108a3.785,3.785,0,0,1,5.352,0l19.632,19.633A3.785,3.785,0,0,1,159.8,27.2h-6.3v8.831a1.261,1.261,0,1,1-2.523,0V25.941a1.262,1.262,0,0,1,1.262-1.262H159.8a1.262,1.262,0,0,0,.892-2.154L141.055,2.893a1.263,1.263,0,0,0-1.784,0L119.639,22.526a1.262,1.262,0,0,0,.892,2.154H128.1a1.262,1.262,0,0,1,1.262,1.262V66.26A1.262,1.262,0,0,1,128.1,67.522Z"/>
        <path id="Trazado_910916" data-name="Trazado 910916" d="M199.615,283.032a3.733,3.733,0,0,1-2.652-1.118l-6.869-6.869-6.869,6.869a3.785,3.785,0,0,1-6.461-2.676V268.214a1.262,1.262,0,1,1,2.523,0v11.023a1.262,1.262,0,0,0,2.153.892l7.761-7.761a1.261,1.261,0,0,1,1.784,0l7.761,7.761a1.262,1.262,0,0,0,2.153-.892v-41.25a1.262,1.262,0,1,1,2.523,0v41.25a3.726,3.726,0,0,1-2.336,3.5A3.841,3.841,0,0,1,199.615,283.032Z" transform="translate(-49.93 -196.908)"/>
      </g>
      <g id="cloro" transform="translate(1326 5295.313)">
        <path id="Trazado_910917" data-name="Trazado 910917" d="M57.233,342h-4.56a1.14,1.14,0,0,0-1.14,1.14v1.2a5.463,5.463,0,0,0-6.053.96c-.1.08-.532.428-.652.528a3.25,3.25,0,0,1-4.549,0c-.12-.1-.629-.505-.761-.615a5.013,5.013,0,0,0-3.647-1.389,5.089,5.089,0,0,0-3.658,1.4c-.129.107-.63.506-.75.606a3.091,3.091,0,0,1-2.274.928,3.437,3.437,0,0,1-2.438-.988c-.1-.084-.531-.423-.652-.522a5.139,5.139,0,0,0-3.689-1.421,5.463,5.463,0,0,0-3.77,1.485c-.1.081-.518.418-.638.518a3.25,3.25,0,0,1-4.549,0c-.12-.1-.6-.482-.718-.581a5.2,5.2,0,0,0-3.691-1.422,5.375,5.375,0,0,0-2.2.506v-1.19A1.14,1.14,0,0,0,5.7,342H1.14A1.14,1.14,0,0,0,0,343.14v17.1a1.14,1.14,0,0,0,1.14,1.14H57.233a1.14,1.14,0,0,0,1.14-1.14v-17.1A1.14,1.14,0,0,0,57.233,342ZM2.28,344.28H4.56V359.1H2.28Zm4.56,2.682a3.915,3.915,0,0,1,2.2-.857,2.961,2.961,0,0,1,2.236.9c.131.108.607.488.715.578a5.513,5.513,0,0,0,7.464,0c.108-.09.532-.429.642-.521a3.222,3.222,0,0,1,2.309-.956,2.959,2.959,0,0,1,2.235.9c.131.108.584.468.673.54a5.665,5.665,0,0,0,3.87,1.494,5.334,5.334,0,0,0,3.732-1.455c.108-.09.606-.487.745-.6a3.217,3.217,0,0,1,4.4-.008c.142.117.647.519.755.609a5.513,5.513,0,0,0,7.464,0c.108-.09.536-.431.647-.523a3.243,3.243,0,0,1,2.352-.954,4.035,4.035,0,0,1,2.249.863V359.1H6.841ZM56.093,359.1h-2.28V344.28h2.28Z" transform="translate(0 -303.009)" fill="#93ad5f"/>
        <ellipse id="Elipse_12730" data-name="Elipse 12730" cx="1.14" cy="1.14" rx="1.14" ry="1.14" transform="translate(28.351 9.976)" fill="#93ad5f"/>
        <path id="Trazado_910918" data-name="Trazado 910918" d="M4.73,29.643A4.733,4.733,0,0,0,7.113,29l16-9.332H35.367a3.42,3.42,0,0,0,6.817-.4V10.147a3.42,3.42,0,0,0-6.836-.171h-.726a1.14,1.14,0,1,0,0,2.28h.722v5.13H23.682c-.9-2.6-3.278-3.3-5.231-3.867a17.03,17.03,0,0,1-1.819-.6,12.456,12.456,0,0,1-2.779-2.048C12.1,9.343,9.921,7.446,7.007,6.863A10.981,10.981,0,0,0,2.28,6.78V5.571a3.289,3.289,0,0,1,5.034-2.79l14.884,9.3a1.155,1.155,0,0,0,.6.173H24.36a1.14,1.14,0,1,0,0-2.28H23.129L8.522.847A5.568,5.568,0,0,0,0,5.571V24.912a4.729,4.729,0,0,0,4.73,4.73Zm32.893-19.5a1.14,1.14,0,1,1,2.28,0v9.121a1.14,1.14,0,1,1-2.28,0ZM6.56,9.1c2.321.464,4.168,2.071,5.8,3.49a13.8,13.8,0,0,0,3.389,2.428,18.934,18.934,0,0,0,2.066.692c1.917.56,3.136.981,3.66,2.274L5.964,27.028A2.449,2.449,0,0,1,2.28,24.912V9.181A7.375,7.375,0,0,1,6.56,9.1Z" transform="translate(0 0)" fill="#93ad5f"/>
        <path id="Trazado_910919" data-name="Trazado 910919" d="M324.56,230a1.14,1.14,0,0,0-.849.379c-.62.691-3.712,4.249-3.712,6.462a4.56,4.56,0,0,0,9.121,0c0-2.213-3.092-5.771-3.712-6.462A1.14,1.14,0,0,0,324.56,230Zm0,9.121a2.283,2.283,0,0,1-2.28-2.28c0-.727,1.071-2.424,2.28-3.935,1.212,1.519,2.281,3.228,2.281,3.935A2.283,2.283,0,0,1,324.56,239.121Z" transform="translate(-283.517 -203.778)" fill="#93ad5f"/>
      </g>
      <g id="lavarse-las-manos" transform="translate(304.778 5301.368)">
        <path id="Trazado_910920" data-name="Trazado 910920" d="M199.161,163.368a1.084,1.084,0,0,1-.212-.02,1.076,1.076,0,0,1-.387-.161,1.182,1.182,0,0,1-.165-.135,1.12,1.12,0,0,1-.134-.164,1.1,1.1,0,0,1-.1-.186,1.132,1.132,0,0,1-.061-.2,1.056,1.056,0,0,1-.021-.212,1.04,1.04,0,0,1,.021-.21,1.082,1.082,0,0,1,.161-.389,1.144,1.144,0,0,1,.134-.164,1.094,1.094,0,0,1,.975-.295,1.116,1.116,0,0,1,.2.062,1.134,1.134,0,0,1,.187.1,1.067,1.067,0,0,1,.164.134,1.042,1.042,0,0,1,.134.164,1.088,1.088,0,0,1,.1.187,1.116,1.116,0,0,1,.062.2,1.075,1.075,0,0,1,.021.21,1.091,1.091,0,0,1-.021.212,1.17,1.17,0,0,1-.062.2,1.108,1.108,0,0,1-.1.186,1.023,1.023,0,0,1-.134.164,1.068,1.068,0,0,1-.351.234,1.114,1.114,0,0,1-.2.062A1.072,1.072,0,0,1,199.161,163.368Zm0,0" transform="translate(-176.755 -143.809)" fill="#93ad5f"/>
        <path id="Trazado_910921" data-name="Trazado 910921" d="M54.652,60.878l-12.921-12.9.005-4.085a15.7,15.7,0,0,0-.125-1.994A5.828,5.828,0,0,0,36.5,31.456l-3.976-5.691a4.114,4.114,0,0,0-5.789-1.056,4.167,4.167,0,0,0-1.169,5.436l-7.719-7.719a4.1,4.1,0,0,0-5.758-.07,4.019,4.019,0,0,0-1.041,1.751,4.074,4.074,0,0,0-5.1.422A3.975,3.975,0,0,0,4.732,27.38a4.2,4.2,0,0,0,.7,2.349,4.023,4.023,0,0,0-1.766,1.046,4.086,4.086,0,0,0-.283,5.356,4.045,4.045,0,0,0-1.7,6.735l.033.032,2.2,2.019A6.646,6.646,0,0,0,4.627,50.5,8.57,8.57,0,0,0,2.3,56.261,8.128,8.128,0,0,0,5.9,63a6.644,6.644,0,0,0,12.144,3.713,9.144,9.144,0,0,0,6.731,2.917,9.245,9.245,0,0,0,8-4.651l8.886,8.888a1.079,1.079,0,0,0,1.527,0L54.652,62.4a1.079,1.079,0,0,0,0-1.526Zm-12.3-24.019a3.67,3.67,0,1,1-3.67-3.67A3.674,3.674,0,0,1,42.352,36.859ZM5.2,32.292a1.89,1.89,0,0,1,2.559-.116l8.6,8.6a1.08,1.08,0,0,0,1.527-1.527L7.473,28.836A2.013,2.013,0,0,1,6.891,27.4a1.832,1.832,0,0,1,.553-1.317,1.9,1.9,0,0,1,2.646.026l9.239,9.239a1.079,1.079,0,1,0,1.527-1.526l-7.375-7.375a1.89,1.89,0,0,1,.12-2.556,1.932,1.932,0,0,1,2.714.061l12.59,12.59a1.516,1.516,0,0,0,2.369-1.859c-.011-.017-.021-.034-.032-.051l-3.78-5.512a2,2,0,0,1,.516-2.65,1.955,1.955,0,0,1,2.754.506l.012.017,3.936,5.632a5.828,5.828,0,0,0,4.84,10c.039.42.058.841.057,1.261l-.006,4.533a1.078,1.078,0,0,0,.316.764l4.942,4.942L34.9,64.052l-.976-.976a7.627,7.627,0,0,0,3.4-6.365A7.857,7.857,0,0,0,32.31,49.45a10.417,10.417,0,0,0-10.258-9.14,10.69,10.69,0,0,0-6.7,2.4,6.626,6.626,0,0,0-4.78-2.391L5.261,35.007A1.932,1.932,0,0,1,5.2,32.292Zm-2,9.033a1.888,1.888,0,0,1,2.562-2.767l2.168,2.167a6.676,6.676,0,0,0-2.974,2.212ZM24.774,67.471a7.013,7.013,0,0,1-6.013-3.366,1.079,1.079,0,0,0-1.948.239A4.482,4.482,0,0,1,8.058,62.99a4.511,4.511,0,0,1,.024-.465,1.08,1.08,0,0,0-.549-1.054,5.969,5.969,0,0,1-3.071-5.21,6.528,6.528,0,0,1,2.3-4.823A1.079,1.079,0,0,0,6.872,49.9,4.481,4.481,0,1,1,14.2,44.855a1.08,1.08,0,0,0,1.731.243,8.55,8.55,0,0,1,6.117-2.631,8.269,8.269,0,0,1,8.173,7.855,1.079,1.079,0,0,0,.8.981,5.646,5.646,0,0,1,4.137,5.407,5.488,5.488,0,0,1-3.04,4.923,1.08,1.08,0,0,0-.555.676,7.07,7.07,0,0,1-6.8,5.162Zm17.653,4.105-6-6,9.935-9.935,6,6Zm0,0" transform="translate(-0.5 -18.918)" fill="#93ad5f"/>
        <path id="Trazado_910922" data-name="Trazado 910922" d="M304.486,8.48a4.24,4.24,0,1,1,4.24-4.24A4.245,4.245,0,0,1,304.486,8.48Zm0-6.321a2.081,2.081,0,1,0,2.081,2.081A2.084,2.084,0,0,0,304.486,2.159Zm0,0" transform="translate(-267.892 0)" fill="#93ad5f"/>
        <path id="Trazado_910923" data-name="Trazado 910923" d="M403.975,59.8a4.24,4.24,0,1,1,4.24-4.24A4.245,4.245,0,0,1,403.975,59.8Zm0-6.322a2.081,2.081,0,1,0,2.082,2.081A2.084,2.084,0,0,0,403.975,53.483Zm0,0" transform="translate(-356.642 -45.785)" fill="#93ad5f"/>
      </g>
    </g>
  </g>
</svg>
