<svg xmlns="http://www.w3.org/2000/svg" xmlns:xlink="http://www.w3.org/1999/xlink" width="1240" height="373.179" viewBox="0 0 1240 373.179">
  <defs>
    <linearGradient id="linear-gradient" x1="0.069" y1="0.135" x2="0.983" y2="0.909" gradientUnits="objectBoundingBox">
      <stop offset="0" stop-color="#166340"/>
      <stop offset="1" stop-color="#98e465"/>
    </linearGradient>
    <clipPath id="clip-path">
      <path id="Trazado_882370" data-name="Trazado 882370" d="M17.848,0h1204.3C1232.009,0,1240,6.261,1240,13.985V359.194c0,7.724-7.991,13.985-17.849,13.985H17.848C7.991,373.179,0,366.917,0,359.194V13.985C0,6.261,7.991,0,17.848,0Z" transform="translate(-1020.074 -6653.646)" fill="url(#linear-gradient)"/>
    </clipPath>
    <linearGradient id="linear-gradient-2" x1="0.961" y1="0.073" x2="0.02" y2="0.815" gradientUnits="objectBoundingBox">
      <stop offset="0" stop-color="#f7fee7"/>
      <stop offset="1" stop-color="#d4f989"/>
    </linearGradient>
    <clipPath id="clip-path-2">
      <rect id="Rectángulo_405141" data-name="Rectángulo 405141" width="148.504" height="128.821" fill="#d4f989"/>
    </clipPath>
    <clipPath id="clip-path-3">
      <rect id="Rectángulo_405142" data-name="Rectángulo 405142" width="329.455" height="285.789" fill="#d4f989"/>
    </clipPath>
    <clipPath id="clip-path-4">
      <rect id="Rectángulo_405143" data-name="Rectángulo 405143" width="148.504" height="128.821" fill="#98e465"/>
    </clipPath>
    <clipPath id="clip-path-5">
      <rect id="Rectángulo_405144" data-name="Rectángulo 405144" width="322.504" height="968.036" fill="#98e465"/>
    </clipPath>
  </defs>
  <g id="Grupo_1112306" data-name="Grupo 1112306" transform="translate(1311.074 9166.512)">
    <path id="Trazado_908996" data-name="Trazado 908996" d="M20,0H1220c11.046,0,20,7.263,20,16.223V356.956c0,8.96-8.954,16.223-20,16.223H20c-11.046,0-20-7.263-20-16.223V16.223C0,7.263,8.954,0,20,0Z" transform="translate(-1311.074 -9166.512)" fill="#fff"/>
    <g id="Enmascarar_grupo_1101787" data-name="Enmascarar grupo 1101787" transform="translate(-291 -2512.866)" opacity="0.2" clip-path="url(#clip-path)">
      <path id="Trazado_882371" data-name="Trazado 882371" d="M19,0H1301a19,19,0,0,1,19,19V488a19,19,0,0,1-19,19H19A19,19,0,0,1,0,488V19A19,19,0,0,1,19,0Z" transform="translate(-1060.074 -6680.375)" fill="url(#linear-gradient-2)"/>
      <path id="Trazado_882376" data-name="Trazado 882376" d="M3535.239,1056.236a.054.054,0,0,0,.011.017l.051-.036c-.011-.018-.021-.037-.031-.056a.058.058,0,0,0-.031.075" transform="translate(-3851.429 -7293.13)" fill="#040504"/>
      <path id="Trazado_882377" data-name="Trazado 882377" d="M3474.321,999.222a.108.108,0,0,0-.2-.081c-.024.059-.086.072-.154.083-.144.023-.318.013-.448.046l.059.219c.151-.041.361-.021.51-.067a.339.339,0,0,0,.233-.2" transform="translate(-3796.56 -7242.375)" fill="#040504"/>
      <path id="Trazado_882378" data-name="Trazado 882378" d="M3472.762,1000.983a.113.113,0,0,0,.136.081l-.056-.22a.114.114,0,0,0-.08.139" transform="translate(-3795.885 -7243.949)" fill="#040504"/>
      <path id="Trazado_882379" data-name="Trazado 882379" d="M3536.094,1057.1h0Z" transform="translate(-3852.193 -7293.964)" fill="#040504"/>
      <path id="Trazado_882380" data-name="Trazado 882380" d="M3232.191,901.047c-.015-.027-.027-.054-.044-.08l-.224.148c.009.02.021.038.031.057.04-.023.078-.045.117-.065s.079-.04.12-.06" transform="translate(-3581.767 -7155.153)" fill="#040504"/>
      <path id="Trazado_882381" data-name="Trazado 882381" d="M3231.754,900.9c0,.01.006.019.01.029l0,.008.219-.15-.006-.007c-.039.019-.078.038-.115.058l-.113.062" transform="translate(-3581.615 -7154.983)" fill="#040504"/>
      <path id="Trazado_882382" data-name="Trazado 882382" d="M3279.074,1007.293c.1-.016.2-.032.3-.046,0-.007,0-.014,0-.02a.211.211,0,0,0-.06-.027.218.218,0,0,0-.238.093" transform="translate(-3623.687 -7249.594)" fill="#040504"/>
      <circle id="Elipse_12629" data-name="Elipse 12629" cx="284" cy="284" r="284" transform="matrix(0.966, -0.259, 0.259, 0.966, -757.388, -6337.021)" fill="#98e465" opacity="0.27" style="mix-blend-mode: multiply;isolation: isolate"/>
      <g id="Grupo_1111888" data-name="Grupo 1111888" transform="translate(94.397 -6303.537) rotate(-59)">
        <g id="Grupo_1111887" data-name="Grupo 1111887" transform="translate(146.549 -29.077)" clip-path="url(#clip-path-2)">
          <path id="Trazado_907659" data-name="Trazado 907659" d="M146.868,109.056l.01-.006a11.442,11.442,0,0,0-4.064-3.995,1.743,1.743,0,0,0-1.454-.1,1.708,1.708,0,0,0-.451.25,56.446,56.446,0,0,1-13.487,6.834,29.325,29.325,0,0,1-3.12.906c-7.41.456-23.729-.851-53.826-23.042C34.967,63.718,25.1,27.206,25.742,9.572c.727-2.25.552-6.646-2.779-8.569-4.316-2.49-8.183.027-10.109,3.483-.038.02-.076.038-.113.058C-5.485,44.707-8.844,81.629,34.478,112.072c38.639,27.152,77.829,14.361,90.767,9.152,1.446-.045,9.6-.518,22.172-5.448a1.674,1.674,0,0,0,1.072-1.389,9.355,9.355,0,0,0-1.62-5.331" transform="translate(0 0)" fill="#d4f989"/>
        </g>
      </g>
      <g id="Grupo_1111890" data-name="Grupo 1111890" transform="translate(-115.682 -6514.527) rotate(7)">
        <g id="Grupo_1111889" data-name="Grupo 1111889" transform="translate(146.549 -29.077)" clip-path="url(#clip-path-3)">
          <path id="Trazado_907660" data-name="Trazado 907660" d="M325.824,241.941l.022-.013a25.384,25.384,0,0,0-9.017-8.862,3.866,3.866,0,0,0-3.225-.229,3.79,3.79,0,0,0-1,.554c-6.037,4.667-19.133,11.435-29.922,15.162a65.058,65.058,0,0,1-6.921,2.01c-16.44,1.011-52.642-1.888-119.412-51.119C77.574,141.358,55.675,60.358,57.108,21.236c1.614-4.992,1.226-14.744-6.166-19.01C41.367-3.3,32.787,2.285,28.515,9.953c-.083.044-.169.083-.251.13-40.432,89.1-47.885,171.01,48.224,238.549,85.72,60.237,172.664,31.859,201.365,20.3,3.207-.1,21.3-1.149,49.188-12.087a3.714,3.714,0,0,0,2.377-3.082c.287-3.417-1.094-7.812-3.595-11.827" transform="translate(0 0)" fill="#d4f989"/>
        </g>
      </g>
      <g id="Grupo_1111892" data-name="Grupo 1111892" transform="translate(-116.177 -6288.262) rotate(-85)">
        <g id="Grupo_1111891" data-name="Grupo 1111891" transform="translate(146.549 -29.077)" clip-path="url(#clip-path-4)">
          <path id="Trazado_907661" data-name="Trazado 907661" d="M146.868,109.056l.01-.006a11.442,11.442,0,0,0-4.064-3.995,1.743,1.743,0,0,0-1.454-.1,1.708,1.708,0,0,0-.451.25,56.446,56.446,0,0,1-13.487,6.834,29.325,29.325,0,0,1-3.12.906c-7.41.456-23.729-.851-53.826-23.042C34.967,63.718,25.1,27.206,25.742,9.572c.727-2.25.552-6.646-2.779-8.569-4.316-2.49-8.183.027-10.109,3.483-.038.02-.076.038-.113.058C-5.485,44.707-8.844,81.629,34.478,112.072c38.639,27.152,77.829,14.361,90.767,9.152,1.446-.045,9.6-.518,22.172-5.448a1.674,1.674,0,0,0,1.072-1.389,9.355,9.355,0,0,0-1.62-5.331" transform="translate(0 0)" fill="#98e465"/>
        </g>
      </g>
      <path id="Trazado_903697" data-name="Trazado 903697" d="M257.959,43.387a38.441,38.441,0,0,1,21.832,6.829,37.827,37.827,0,0,1,14.284,18.861l30.489,88.008A37.854,37.854,0,0,0,334.9,172.719l69.05,62.505a38.536,38.536,0,0,1,5.765,6.542,37.84,37.84,0,0,1,6.245,15.292,38.5,38.5,0,0,1-.714,16.2,37.842,37.842,0,0,1-7.566,14.684,38.537,38.537,0,0,1-6.318,6.01L327.087,350.15a37.878,37.878,0,0,0-11.674,14.662L277.306,449.8a37.949,37.949,0,0,1-14.454,16.673,38.47,38.47,0,0,1-20.435,5.888,37.892,37.892,0,0,1-21.77-6.873l-76.4-53.278a37.861,37.861,0,0,0-17.553-6.571l-92.6-9.981a38.536,38.536,0,0,1-8.509-1.9,37.844,37.844,0,0,1-14.041-8.7A38.5,38.5,0,0,1,2.6,371.522,37.842,37.842,0,0,1,.087,355.2a38.536,38.536,0,0,1,1.579-8.576L28.729,257.5a37.85,37.85,0,0,0,.826-18.724L10.431,147.62a38.534,38.534,0,0,1-.818-8.682A37.843,37.843,0,0,1,13.549,122.9a38.5,38.5,0,0,1,10.1-12.69A37.841,37.841,0,0,1,38.4,102.773a38.531,38.531,0,0,1,8.643-1.148l93.122-1.8a37.867,37.867,0,0,0,18.064-5l80.783-46.355a38.394,38.394,0,0,1,9.333-3.837A37.786,37.786,0,0,1,257.959,43.387ZM242.417,471.954a37.865,37.865,0,0,0,34.518-22.321l38.108-84.987a38.286,38.286,0,0,1,11.8-14.82l74.279-56.193a37.758,37.758,0,0,0,2.56-58.107L334.63,173.02a38.263,38.263,0,0,1-10.45-15.8L293.691,69.21a37.725,37.725,0,0,0-54.473-20.39L158.435,95.175a38.274,38.274,0,0,1-18.258,5.055l-93.122,1.8a37.759,37.759,0,0,0-36.225,45.5l19.124,91.156a38.258,38.258,0,0,1-.835,18.926L2.055,346.739a37.761,37.761,0,0,0,32.084,48.515l92.6,9.981a38.267,38.267,0,0,1,17.742,6.642l76.4,53.278A37.487,37.487,0,0,0,242.417,471.954Z" transform="translate(-94.939 -6675.68)" fill="#fff" stroke="#fff" stroke-width="1"/>
      <g id="Grupo_1111894" data-name="Grupo 1111894" transform="matrix(-0.839, 0.545, -0.545, -0.839, -477.018, -6229.479)" opacity="0.35">
        <g id="Grupo_1111893" data-name="Grupo 1111893" transform="matrix(0.883, 0.469, -0.469, 0.883, 324.886, -83.126)" opacity="0.82" clip-path="url(#clip-path-5)" style="mix-blend-mode: multiply;isolation: isolate">
          <path id="Trazado_907663" data-name="Trazado 907663" d="M186.8,959.625c-.1-15.693-1.872-50.555-4.186-89.979,54.688-.323,129.853-66.606,126.6-182.351.57-22.257-83.465-19.659-83.465-19.659s20.987-8.223,54.553-23.369c34.461-15.545,39.358-48.793-5.276-47.185,22.652-9.576,47.08-31.478,47.08-31.478s6.09-75.3-29.469-148.764c-25.125-7.678-79.685-4.335-79.685-4.335s52.024-24.755,75.772-35.445c19.249-21.43,3.965-152.815-59.7-242.762-27.961-2.034-66.952,2.411-66.952,2.411S178.8,104.82,203.408,88.2C168.533,8.476,99.713-45.891,54.889,54.586S10.761,233.873,10.761,233.873s38.39,13.634,62.084,31.195C39.528,258.222,2.8,260.979,2.8,260.979S-7.765,320,12.153,391.5,47.26,497.5,31.025,567.8,20.618,675.716,38.973,694.084c25.343,25.359,73.806,41.214,73.806,41.214s-40.037,3.581-73.6-.82C64.079,790.526,110.7,851.444,163,866.631c2.923,59.665,1.626,66.043,4.617,94.586,1.127,10.748,19.245,7.7,19.187-1.593" transform="translate(0 0)" fill="#98e465"/>
        </g>
      </g>
      <g id="Grupo_1111896" data-name="Grupo 1111896" transform="translate(89.766 -6797.115) rotate(112)">
        <g id="Grupo_1111895" data-name="Grupo 1111895" transform="translate(146.549 -29.077)" clip-path="url(#clip-path-3)">
          <path id="Trazado_907666" data-name="Trazado 907666" d="M325.824,241.941l.022-.013a25.384,25.384,0,0,0-9.017-8.862,3.866,3.866,0,0,0-3.225-.229,3.79,3.79,0,0,0-1,.554c-6.037,4.667-19.133,11.435-29.922,15.162a65.058,65.058,0,0,1-6.921,2.01c-16.44,1.011-52.642-1.888-119.412-51.119C77.574,141.358,55.675,60.358,57.108,21.236c1.614-4.992,1.226-14.744-6.166-19.01C41.367-3.3,32.787,2.285,28.515,9.953c-.083.044-.169.083-.251.13-40.432,89.1-47.885,171.01,48.224,238.549,85.72,60.237,172.664,31.859,201.365,20.3,3.207-.1,21.3-1.149,49.188-12.087a3.714,3.714,0,0,0,2.377-3.082c.287-3.417-1.094-7.812-3.595-11.827" transform="translate(0 0)" fill="#d4f989"/>
        </g>
      </g>
    </g>
  </g>
</svg>
