<svg id="cloro" xmlns="http://www.w3.org/2000/svg" width="58.373" height="58.373" viewBox="0 0 58.373 58.373">
  <path id="Trazado_910917" data-name="Trazado 910917" d="M57.233,342h-4.56a1.14,1.14,0,0,0-1.14,1.14v1.2a5.463,5.463,0,0,0-6.053.96c-.1.08-.532.428-.652.528a3.25,3.25,0,0,1-4.549,0c-.12-.1-.629-.505-.761-.615a5.013,5.013,0,0,0-3.647-1.389,5.089,5.089,0,0,0-3.658,1.4c-.129.107-.63.506-.75.606a3.091,3.091,0,0,1-2.274.928,3.437,3.437,0,0,1-2.438-.988c-.1-.084-.531-.423-.652-.522a5.139,5.139,0,0,0-3.689-1.421,5.463,5.463,0,0,0-3.77,1.485c-.1.081-.518.418-.638.518a3.25,3.25,0,0,1-4.549,0c-.12-.1-.6-.482-.718-.581a5.2,5.2,0,0,0-3.691-1.422,5.375,5.375,0,0,0-2.2.506v-1.19A1.14,1.14,0,0,0,5.7,342H1.14A1.14,1.14,0,0,0,0,343.14v17.1a1.14,1.14,0,0,0,1.14,1.14H57.233a1.14,1.14,0,0,0,1.14-1.14v-17.1A1.14,1.14,0,0,0,57.233,342ZM2.28,344.28H4.56V359.1H2.28Zm4.56,2.682a3.915,3.915,0,0,1,2.2-.857,2.961,2.961,0,0,1,2.236.9c.131.108.607.488.715.578a5.513,5.513,0,0,0,7.464,0c.108-.09.532-.429.642-.521a3.222,3.222,0,0,1,2.309-.956,2.959,2.959,0,0,1,2.235.9c.131.108.584.468.673.54a5.665,5.665,0,0,0,3.87,1.494,5.334,5.334,0,0,0,3.732-1.455c.108-.09.606-.487.745-.6a3.217,3.217,0,0,1,4.4-.008c.142.117.647.519.755.609a5.513,5.513,0,0,0,7.464,0c.108-.09.536-.431.647-.523a3.243,3.243,0,0,1,2.352-.954,4.035,4.035,0,0,1,2.249.863V359.1H6.841ZM56.093,359.1h-2.28V344.28h2.28Z" transform="translate(0 -303.009)" fill="#93ad5f"/>
  <ellipse id="Elipse_12730" data-name="Elipse 12730" cx="1.14" cy="1.14" rx="1.14" ry="1.14" transform="translate(28.351 9.976)" fill="#93ad5f"/>
  <path id="Trazado_910918" data-name="Trazado 910918" d="M4.73,29.643A4.733,4.733,0,0,0,7.113,29l16-9.332H35.367a3.42,3.42,0,0,0,6.817-.4V10.147a3.42,3.42,0,0,0-6.836-.171h-.726a1.14,1.14,0,1,0,0,2.28h.722v5.13H23.682c-.9-2.6-3.278-3.3-5.231-3.867a17.03,17.03,0,0,1-1.819-.6,12.456,12.456,0,0,1-2.779-2.048C12.1,9.343,9.921,7.446,7.007,6.863A10.981,10.981,0,0,0,2.28,6.78V5.571a3.289,3.289,0,0,1,5.034-2.79l14.884,9.3a1.155,1.155,0,0,0,.6.173H24.36a1.14,1.14,0,1,0,0-2.28H23.129L8.522.847A5.568,5.568,0,0,0,0,5.571V24.912a4.729,4.729,0,0,0,4.73,4.73Zm32.893-19.5a1.14,1.14,0,1,1,2.28,0v9.121a1.14,1.14,0,1,1-2.28,0ZM6.56,9.1c2.321.464,4.168,2.071,5.8,3.49a13.8,13.8,0,0,0,3.389,2.428,18.934,18.934,0,0,0,2.066.692c1.917.56,3.136.981,3.66,2.274L5.964,27.028A2.449,2.449,0,0,1,2.28,24.912V9.181A7.375,7.375,0,0,1,6.56,9.1Z" transform="translate(0 0)" fill="#93ad5f"/>
  <path id="Trazado_910919" data-name="Trazado 910919" d="M324.56,230a1.14,1.14,0,0,0-.849.379c-.62.691-3.712,4.249-3.712,6.462a4.56,4.56,0,0,0,9.121,0c0-2.213-3.092-5.771-3.712-6.462A1.14,1.14,0,0,0,324.56,230Zm0,9.121a2.283,2.283,0,0,1-2.28-2.28c0-.727,1.071-2.424,2.28-3.935,1.212,1.519,2.281,3.228,2.281,3.935A2.283,2.283,0,0,1,324.56,239.121Z" transform="translate(-283.517 -203.778)" fill="#93ad5f"/>
</svg>
