<svg xmlns="http://www.w3.org/2000/svg" width="54.469" height="55.265" viewBox="0 0 54.469 55.265">
  <g id="lavarse-las-manos" transform="translate(0)">
    <path id="Trazado_910920" data-name="Trazado 910920" d="M199.161,163.368a1.084,1.084,0,0,1-.212-.02,1.076,1.076,0,0,1-.387-.161,1.182,1.182,0,0,1-.165-.135,1.12,1.12,0,0,1-.134-.164,1.1,1.1,0,0,1-.1-.186,1.132,1.132,0,0,1-.061-.2,1.056,1.056,0,0,1-.021-.212,1.04,1.04,0,0,1,.021-.21,1.082,1.082,0,0,1,.161-.389,1.144,1.144,0,0,1,.134-.164,1.094,1.094,0,0,1,.975-.295,1.116,1.116,0,0,1,.2.062,1.134,1.134,0,0,1,.187.1,1.067,1.067,0,0,1,.164.134,1.042,1.042,0,0,1,.134.164,1.088,1.088,0,0,1,.1.187,1.116,1.116,0,0,1,.062.2,1.075,1.075,0,0,1,.021.21,1.091,1.091,0,0,1-.021.212,1.17,1.17,0,0,1-.062.2,1.108,1.108,0,0,1-.1.186,1.023,1.023,0,0,1-.134.164,1.068,1.068,0,0,1-.351.234,1.114,1.114,0,0,1-.2.062A1.072,1.072,0,0,1,199.161,163.368Zm0,0" transform="translate(-176.755 -143.809)" fill="#93ad5f"/>
    <path id="Trazado_910921" data-name="Trazado 910921" d="M54.652,60.878l-12.921-12.9.005-4.085a15.7,15.7,0,0,0-.125-1.994A5.828,5.828,0,0,0,36.5,31.456l-3.976-5.691a4.114,4.114,0,0,0-5.789-1.056,4.167,4.167,0,0,0-1.169,5.436l-7.719-7.719a4.1,4.1,0,0,0-5.758-.07,4.019,4.019,0,0,0-1.041,1.751,4.074,4.074,0,0,0-5.1.422A3.975,3.975,0,0,0,4.732,27.38a4.2,4.2,0,0,0,.7,2.349,4.023,4.023,0,0,0-1.766,1.046,4.086,4.086,0,0,0-.283,5.356,4.045,4.045,0,0,0-1.7,6.735l.033.032,2.2,2.019A6.646,6.646,0,0,0,4.627,50.5,8.57,8.57,0,0,0,2.3,56.261,8.128,8.128,0,0,0,5.9,63a6.644,6.644,0,0,0,12.144,3.713,9.144,9.144,0,0,0,6.731,2.917,9.245,9.245,0,0,0,8-4.651l8.886,8.888a1.079,1.079,0,0,0,1.527,0L54.652,62.4a1.079,1.079,0,0,0,0-1.526Zm-12.3-24.019a3.67,3.67,0,1,1-3.67-3.67A3.674,3.674,0,0,1,42.352,36.859ZM5.2,32.292a1.89,1.89,0,0,1,2.559-.116l8.6,8.6a1.08,1.08,0,0,0,1.527-1.527L7.473,28.836A2.013,2.013,0,0,1,6.891,27.4a1.832,1.832,0,0,1,.553-1.317,1.9,1.9,0,0,1,2.646.026l9.239,9.239a1.079,1.079,0,1,0,1.527-1.526l-7.375-7.375a1.89,1.89,0,0,1,.12-2.556,1.932,1.932,0,0,1,2.714.061l12.59,12.59a1.516,1.516,0,0,0,2.369-1.859c-.011-.017-.021-.034-.032-.051l-3.78-5.512a2,2,0,0,1,.516-2.65,1.955,1.955,0,0,1,2.754.506l.012.017,3.936,5.632a5.828,5.828,0,0,0,4.84,10c.039.42.058.841.057,1.261l-.006,4.533a1.078,1.078,0,0,0,.316.764l4.942,4.942L34.9,64.052l-.976-.976a7.627,7.627,0,0,0,3.4-6.365A7.857,7.857,0,0,0,32.31,49.45a10.417,10.417,0,0,0-10.258-9.14,10.69,10.69,0,0,0-6.7,2.4,6.626,6.626,0,0,0-4.78-2.391L5.261,35.007A1.932,1.932,0,0,1,5.2,32.292Zm-2,9.033a1.888,1.888,0,0,1,2.562-2.767l2.168,2.167a6.676,6.676,0,0,0-2.974,2.212ZM24.774,67.471a7.013,7.013,0,0,1-6.013-3.366,1.079,1.079,0,0,0-1.948.239A4.482,4.482,0,0,1,8.058,62.99a4.511,4.511,0,0,1,.024-.465,1.08,1.08,0,0,0-.549-1.054,5.969,5.969,0,0,1-3.071-5.21,6.528,6.528,0,0,1,2.3-4.823A1.079,1.079,0,0,0,6.872,49.9,4.481,4.481,0,1,1,14.2,44.855a1.08,1.08,0,0,0,1.731.243,8.55,8.55,0,0,1,6.117-2.631,8.269,8.269,0,0,1,8.173,7.855,1.079,1.079,0,0,0,.8.981,5.646,5.646,0,0,1,4.137,5.407,5.488,5.488,0,0,1-3.04,4.923,1.08,1.08,0,0,0-.555.676,7.07,7.07,0,0,1-6.8,5.162Zm17.653,4.105-6-6,9.935-9.935,6,6Zm0,0" transform="translate(-0.5 -18.918)" fill="#93ad5f"/>
    <path id="Trazado_910922" data-name="Trazado 910922" d="M304.486,8.48a4.24,4.24,0,1,1,4.24-4.24A4.245,4.245,0,0,1,304.486,8.48Zm0-6.321a2.081,2.081,0,1,0,2.081,2.081A2.084,2.084,0,0,0,304.486,2.159Zm0,0" transform="translate(-267.892 0)" fill="#93ad5f"/>
    <path id="Trazado_910923" data-name="Trazado 910923" d="M403.975,59.8a4.24,4.24,0,1,1,4.24-4.24A4.245,4.245,0,0,1,403.975,59.8Zm0-6.322a2.081,2.081,0,1,0,2.082,2.081A2.084,2.084,0,0,0,403.975,53.483Zm0,0" transform="translate(-356.642 -45.785)" fill="#93ad5f"/>
  </g>
</svg>
