<svg xmlns="http://www.w3.org/2000/svg" xmlns:xlink="http://www.w3.org/1999/xlink" width="295" height="405" viewBox="0 0 295 405">
  <defs>
    <clipPath id="clip-path">
      <rect id="Rectángulo_405627" data-name="Rectángulo 405627" width="246.834" height="349" fill="none"/>
    </clipPath>
  </defs>
  <g id="Grupo_1113373" data-name="Grupo 1113373" transform="translate(-180.074 -684)">
    <rect id="Rectángulo_405625" data-name="Rectángulo 405625" width="295" height="405" rx="17" transform="translate(180.074 684)" fill="#f7fee7"/>
    <g id="Grupo_1112624" data-name="Grupo 1112624" transform="translate(203 705.886)">
      <rect id="Rectángulo_405626" data-name="Rectángulo 405626" width="6.191" height="225.355" transform="translate(50.117 39.881)" fill="#c67422"/>
      <g id="Grupo_1112623" data-name="Grupo 1112623" transform="translate(0 -0.001)">
        <g id="Grupo_1112622" data-name="Grupo 1112622" clip-path="url(#clip-path)">
          <path id="Trazado_909313" data-name="Trazado 909313" d="M20.031,79.967S-11.129,84.52,4.279,90.12s17.153,3.5,11.9,7.7-1.749,5.251,10.5,5.251,51.466-4.2,58.469-1.051-20.305,7.706-1.4,9.455,38.16-3.5,27.654-7.7,25.719-4.013,35.36-4.9c14.729-1.352,22.058-7-2.451-8.753S20.031,79.967,20.031,79.967" transform="translate(0.001 237.176)" fill="#62d8f4"/>
          <path id="Trazado_909314" data-name="Trazado 909314" d="M26.451,74.169A45.27,45.27,0,0,0,10.7,87.947c-4.489,6.234-7.864,18.668-4.47,25.556,2.479,5.029,7.48,6.06,12.735,8,13.611,5.033,29.645,2.38,43.855,1.8,13.52-.551,26.921.765,40.444.48,5.957-.127,12.639-5.6,14.329-11.311-5.517,3.661-13.226,1.717-18.418-2.4s-8.63-9.97-12.7-15.193S77.123,84.73,70.56,83.874c-3.855-.5-8.051.4-11.465-1.463-1.967-1.071-3.363-2.923-4.938-4.517-8.463-8.566-18.707-8.265-27.706-3.724" transform="translate(14.382 210.672)" fill="#ffd67b"/>
          <path id="Trazado_909315" data-name="Trazado 909315" d="M96.671,119.673c-4.628,0-10.387-2.122-20.413-6.556-15.852-7.008-31.4-.833-40.69,2.859-1.725.686-3.216,1.277-4.485,1.7-4.731,1.578-11.66,3.335-17.176.409-3.538-1.876-6.076-5.473-7.535-10.692-1.781-6.337,2.2-14.321,11.814-23.728a119.068,119.068,0,0,1,14.9-12.187.408.408,0,0,1,.567.111.413.413,0,0,1-.111.571c-.305.2-30.442,20.555-26.389,35.015,1.4,4.989,3.8,8.42,7.135,10.188,5.235,2.78,11.945,1.067,16.534-.464,1.245-.416,2.725-1,4.438-1.686,9.411-3.74,25.164-10,41.325-2.848,18.485,8.178,21.971,8.4,31.065,2.038a.412.412,0,0,1,.571.1.408.408,0,0,1-.1.567c-4.315,3.022-7.464,4.6-11.45,4.6" transform="translate(17.67 211.795)" fill="#dba646"/>
          <path id="Trazado_909316" data-name="Trazado 909316" d="M14.012,88.853a.409.409,0,0,1-.2-.765c.23-.131,23.109-12.79,46.5-.551a.409.409,0,0,1-.377.726c-23-12.037-45.493.408-45.715.539a.415.415,0,0,1-.2.052" transform="translate(40.341 243.825)" fill="#dba646"/>
          <path id="Trazado_909317" data-name="Trazado 909317" d="M8.674,102.693a.346.346,0,0,1-.1-.012.408.408,0,0,1-.309-.492C13.163,81.725,26.842,71.5,26.98,71.4a.406.406,0,0,1,.571.087.4.4,0,0,1-.087.571c-.131.1-13.579,10.165-18.4,30.323a.4.4,0,0,1-.393.313" transform="translate(24.493 211.524)" fill="#dba646"/>
          <path id="Trazado_909318" data-name="Trazado 909318" d="M24.815,71.94c-1.21.785-2.249,2.427-3.177,3.542-1.079,1.3-2.126,2.617-3.129,3.974a60.221,60.221,0,0,0-5.33,8.554,38.4,38.4,0,0,0-4.454,19.409c.147,2.459.686,5.084,2.487,6.762a7.81,7.81,0,0,0,6.683,1.59,23.161,23.161,0,0,0,6.583-2.649c8.991-4.747,18.747-9.617,28.824-8.253,5.033.678,9.716,2.887,14.265,5.144s9.122,4.628,14.091,5.671,10.494.611,14.606-2.372c-8.162,2.447-16.871-.92-24.426-4.858s-15.17-8.622-23.68-8.991c-8.2-.357-15.991,3.379-23.145,7.4-2.324,1.309-5.429,2.6-7.412.817-1.737-1.563-1.261-4.355-.639-6.607q2-7.293,4.013-14.587,1.023-3.7,2.038-7.4.512-1.85,1.019-3.7c.21-.757,1.138-2.808.781-3.446" transform="translate(25.715 213.369)" fill="#f4ba5d"/>
          <path id="Trazado_909319" data-name="Trazado 909319" d="M34.519,71.33S-3.4,84.152,6.964,113.753c0,0-5.683-22.78,27.555-42.423" transform="translate(15.332 211.56)" fill="#f4ba5d"/>
          <path id="Trazado_909320" data-name="Trazado 909320" d="M17.141,71.536S5.683,107.82,18.779,103.184,41.15,92.135,49.062,98.135,67.067,111.1,67.067,111.1L52.881,96.5S48.106,87.9,33.1,95.133s-17.006,1.182-17.006-5.5,1.047-18.1,1.047-18.1" transform="translate(37.077 212.171)" fill="#ffe98d"/>
          <path id="Trazado_909321" data-name="Trazado 909321" d="M14.187,87.564s21.281-11.275,42.923.365c0,0-13.821-4.91-42.923-.365" transform="translate(42.077 245.161)" fill="#f4ba5d"/>
          <path id="Trazado_909322" data-name="Trazado 909322" d="M14.922,71.743s-3.546,23.6,9.685,20.325,20.19-8.186,25.782.274,11.184,16.776,17.323,16.367c0,0-6.683-4.775-15.685-17.049s-10.641-1.5-25.239-1.773S14.922,71.743,14.922,71.743" transform="translate(42.976 212.785)" fill="#f4ba5d"/>
          <path id="Trazado_909323" data-name="Trazado 909323" d="M80.519,116.2c-6.694,0-13.143-5.16-22.384-12.552-9.828-7.86-18.116-3.994-29.586,1.356-3.1,1.448-6.31,2.947-9.839,4.343-2.927,1.158-5.06.9-6.338-.781-5.306-6.948,7.139-36.712,7.313-36.946a.409.409,0,0,1,.662.48c-.722,1.21-12.29,30.085-7.226,36.1,1.055,1.249,2.784,1.38,5.287.389,3.506-1.388,6.7-2.879,9.8-4.323,11.295-5.271,20.218-9.431,30.442-1.253,13.195,10.557,19.389,15.051,27.936,10.863a.411.411,0,0,1,.361.738,14.418,14.418,0,0,1-6.425,1.59" transform="translate(32.795 211.935)" fill="#dba646"/>
          <path id="Trazado_909324" data-name="Trazado 909324" d="M72.8,112.556c-6.306,0-8.19-2.126-13.766-8.42-1.325-1.491-2.82-3.181-4.64-5.144-7.492-8.083-9.681-7.48-17.827-5.243-2.887.793-6.472,1.781-11.263,2.637-4.192.753-7.317-.036-9.284-2.336-5.413-6.334-.131-21.824.1-22.479a.409.409,0,0,1,.773.266c-.052.159-5.354,15.7-.246,21.682,1.765,2.062,4.628,2.76,8.515,2.062,4.751-.853,8.324-1.832,11.192-2.621C44.437,90.739,47.166,89.986,55,98.433c1.828,1.975,3.323,3.664,4.644,5.16,6.1,6.881,7.555,8.523,15.217,8.079a.42.42,0,0,1,.436.385.411.411,0,0,1-.385.432c-.757.044-1.459.067-2.11.067" transform="translate(40.306 211.457)" fill="#dba646"/>
          <path id="Trazado_909325" data-name="Trazado 909325" d="M54.311,96.057a.41.41,0,0,1-.337-.174c-.944-1.34-1.721-2.534-2.407-3.589-4.3-6.611-4.965-7.626-21.2-5.152-5.989.912-10.292-.063-12.794-2.891-3.954-4.474-1.935-11.862-1.848-12.175a.408.408,0,0,1,.785.222c-.02.071-1.983,7.273,1.678,11.414,2.308,2.606,6.365,3.486,12.056,2.621C47,83.778,47.8,85.008,52.253,91.845c.682,1.047,1.455,2.237,2.391,3.565a.408.408,0,0,1-.1.571.4.4,0,0,1-.234.075" transform="translate(44.876 212.885)" fill="#dba646"/>
          <path id="Trazado_909326" data-name="Trazado 909326" d="M18.065,74.678s-22.372,18.913-4.549,31.83c0,0-8.729-11.461,4.549-31.83" transform="translate(19.646 221.49)" fill="#ffe98d"/>
          <path id="Trazado_909327" data-name="Trazado 909327" d="M12.1,80.575s-19.369,3.546-6.139,5.866,13.369,6.548,9.958,8.594,1.229,5.183,20.325,2.863c0,0-20.873-.543-16.232-3.411S9.924,86.441,8.829,85.211,12.1,80.575,12.1,80.575" transform="translate(3.981 238.98)" fill="#83edff"/>
          <path id="Trazado_909328" data-name="Trazado 909328" d="M36.967,82.742s51.834,3.819-4.5,7.638c0,0,34.511-3.545,4.5-7.638" transform="translate(96.291 245.407)" fill="#83edff"/>
          <path id="Trazado_909329" data-name="Trazado 909329" d="M25.856,86.434c1.293.274,2.5.817,2.871,1.777.44,1.138-.547,2.344-1.785,3.042s-2.733,1.079-4.01,1.741c-.329.175-.682.424-.627.734.071.424.793.527,1.344.524a138.315,138.315,0,0,0,23.367-2.185,1.86,1.86,0,0,0,1.059-.428c.46-.531-.293-1.218-1.059-1.459s-1.705-.377-2.1-.94c-.452-.654.167-1.483,1-1.852a18.985,18.985,0,0,1,2.713-.69c.432-.119.932-.409.781-.746-.119-.258-.535-.333-.884-.365-5.723-.527-11.481-.789-17.24-.789q-4.378-.006-8.745.2c-.833.04-3.375.052-1.475.738a16.128,16.128,0,0,0,3.68.527,10.935,10.935,0,0,1,1.11.175" transform="translate(60.434 251.499)" fill="#83edff"/>
          <path id="Trazado_909330" data-name="Trazado 909330" d="M25.5,69.542S5.551,75.019,10.049,79.715c2.78,2.9,28.757,2.542,29.931,1.174S38.286,72.8,25.5,69.542" transform="translate(27.845 206.257)" fill="#9da52d"/>
          <path id="Trazado_909331" data-name="Trazado 909331" d="M21.267,93.483h-9V67.466a4.5,4.5,0,1,1,9,0Z" transform="translate(36.386 186.75)" fill="#9da52d"/>
          <path id="Trazado_909332" data-name="Trazado 909332" d="M19.555,64.942V88.273s-7.043,3-9.13,5.477S25.686,97.4,25.032,95.444s-3-6.782-3-6.782V64.926a.955.955,0,0,0-.976-.952l-.575.016a.955.955,0,0,0-.928.952" transform="translate(30.404 189.743)" fill="#b2b535"/>
          <path id="Trazado_909333" data-name="Trazado 909333" d="M21.9,6.2H14.289a2.457,2.457,0,0,0-2.455,2.455V24.679a2.454,2.454,0,0,0,2.455,2.455H21.9a2.457,2.457,0,0,0,2.455-2.455V8.657A2.459,2.459,0,0,0,21.9,6.2m-.317,9.066a.39.39,0,0,1-.393.389H14.995a.393.393,0,0,1-.393-.389V10.7a.394.394,0,0,1,.393-.393H21.19a.391.391,0,0,1,.393.393Z" transform="translate(35.099 18.397)" fill="#9da52d"/>
          <path id="Trazado_909334" data-name="Trazado 909334" d="M14.3,205.908h0a1.339,1.339,0,0,1-1.34-1.34V14.307a1.34,1.34,0,1,1,2.681,0v190.26a1.339,1.339,0,0,1-1.34,1.34" transform="translate(38.435 38.461)" fill="#ea8b3d"/>
          <path id="Trazado_909335" data-name="Trazado 909335" d="M60.27,212.1l-8.34-.1L54.155,17.931a4.172,4.172,0,1,1,8.344.1Z" transform="translate(154.019 40.949)" fill="#c67422"/>
          <path id="Trazado_909336" data-name="Trazado 909336" d="M54.185,196.666h0a1.859,1.859,0,0,1-1.836-1.876L54.376,18.327a1.856,1.856,0,0,1,3.712.044L56.061,194.83a1.856,1.856,0,0,1-1.876,1.836" transform="translate(155.262 48.924)" fill="#ea8b3d"/>
          <path id="Trazado_909337" data-name="Trazado 909337" d="M97.649,78.334c-.1-13.976-12.338-15.471-12.338-15.471l-6.932-.079s-11.061.393-12.691,15.185c0,0-23.01,15.063-22.411,72l3.129.036,2.368-1.927,2.479,1.987,5.632.063,2.848-2.784,3.014,3.085,8.158.1,1.237-.928,1.686.829,4.652-1.225,5.564,1.344,3.811.044,1.626-2.51,1.289,2.673,8.162.1,3.062-1.452,2.8,1.281,5.421.063,2.276-.833,3.744.9,2.165.024c1.9-56.915-20.754-72.5-20.754-72.5" transform="translate(128.32 186.213)" fill="#ffd67b"/>
          <path id="Trazado_909338" data-name="Trazado 909338" d="M70.8,63a18.2,18.2,0,0,0-9.443,14.257S44.038,96.351,46.053,138.921c0,0,4.549-51.255,18.85-61.622A21.921,21.921,0,0,1,70.8,63" transform="translate(136.105 186.86)" fill="#f4ba5d"/>
          <path id="Trazado_909339" data-name="Trazado 909339" d="M45.094,145a.314.314,0,0,1-.309-.305c-.98-45.3,18.251-65.707,19.707-67.182a18.422,18.422,0,0,1,9.724-14.579.309.309,0,0,1,.412.151.315.315,0,0,1-.151.416A17.8,17.8,0,0,0,65.106,77.68l-.012.119-.083.079c-.206.2-20.607,20.254-19.6,66.806a.313.313,0,0,1-.305.317Z" transform="translate(132.721 186.57)" fill="#dda03e"/>
          <path id="Trazado_909340" data-name="Trazado 909340" d="M48.066,145.013a.311.311,0,0,1-.309-.29c-1.678-22.915,2.387-40,6.1-50.3,3.768-10.462,7.944-16.244,8.5-16.986C62.8,67.5,67.111,63.176,67.3,62.994a.313.313,0,0,1,.436.448c-.044.044-4.347,4.378-4.763,14.127l0,.1-.059.079c-.178.226-17.724,23.323-14.523,66.929a.315.315,0,0,1-.29.337h-.028" transform="translate(140.489 186.574)" fill="#dda03e"/>
          <path id="Trazado_909341" data-name="Trazado 909341" d="M52.871,148.166a.31.31,0,0,1-.309-.3c-1.146-26.008,1.531-69.344,1.559-69.78l.171-14.947a.314.314,0,0,1,.317-.309.319.319,0,0,1,.309.317l-.175,14.963c-.024.448-2.7,43.752-1.555,69.729a.317.317,0,0,1-.3.325h-.016" transform="translate(155.046 186.356)" fill="#dda03e"/>
          <path id="Trazado_909342" data-name="Trazado 909342" d="M51.272,126.736a.308.308,0,0,1-.305-.27c-4-29.808,5.175-58.2,5.271-58.477a.308.308,0,0,1,.393-.2.312.312,0,0,1,.2.393c-.1.282-9.225,28.539-5.247,58.2a.307.307,0,0,1-.27.349l-.044,0" transform="translate(148.173 201.016)" fill="#dda03e"/>
          <path id="Trazado_909343" data-name="Trazado 909343" d="M71.853,147.1h-.008a.314.314,0,0,1-.3-.325c.825-24.938-2.808-42.427-6-52.7-3.454-11.112-7.135-16.4-7.17-16.447l-.056-.075,0-.1a24.456,24.456,0,0,0-4.767-13.94.31.31,0,0,1,.04-.44.3.3,0,0,1,.436.036,25.076,25.076,0,0,1,4.914,14.234c.476.71,3.954,6.076,7.2,16.542,3.208,10.323,6.857,27.884,6.032,52.913a.312.312,0,0,1-.317.3" transform="translate(158.594 186.848)" fill="#dda03e"/>
          <path id="Trazado_909344" data-name="Trazado 909344" d="M58.426,119.656a.314.314,0,0,1-.309-.305c-.666-31.517-3.593-47.178-3.621-47.333a.312.312,0,0,1,.25-.365.316.316,0,0,1,.365.246c.028.159,2.963,15.86,3.633,47.44a.314.314,0,0,1-.309.317Z" transform="translate(161.614 212.502)" fill="#dda03e"/>
          <path id="Trazado_909345" data-name="Trazado 909345" d="M55.75,79.834a.307.307,0,0,1-.305-.282C54.75,72.6,53.87,67.718,53.862,67.671a.309.309,0,0,1,.25-.361.3.3,0,0,1,.365.25c.008.048.892,4.949,1.586,11.929a.307.307,0,0,1-.278.341l-.036,0" transform="translate(159.734 199.61)" fill="#dda03e"/>
          <path id="Trazado_909346" data-name="Trazado 909346" d="M81.014,147.815H81a.317.317,0,0,1-.3-.329A124.583,124.583,0,0,0,73.15,96.365c-4.462-11.672-9.264-18.045-9.312-18.108l-.052-.067-.008-.083c-1.59-11.66-9.554-14.531-9.637-14.559a.314.314,0,0,1,.2-.595,13.108,13.108,0,0,1,4.426,2.978c2.086,2.035,4.743,5.77,5.616,12.013a81.774,81.774,0,0,1,9.348,18.2,125.154,125.154,0,0,1,7.595,51.378.308.308,0,0,1-.313.3" transform="translate(159.962 186.668)" fill="#dda03e"/>
          <path id="Trazado_909347" data-name="Trazado 909347" d="M60.265,67.219s-14.472,16-11.6,65.771c0,0,.654-38.993,11.6-65.771" transform="translate(143.217 199.367)" fill="#f4ba5d"/>
          <path id="Trazado_909348" data-name="Trazado 909348" d="M54.782,62.948a16.875,16.875,0,0,0-2.451,13.738,69.919,69.919,0,0,0,2.451-13.738" transform="translate(153.797 186.7)" fill="#f4ba5d"/>
          <path id="Trazado_909349" data-name="Trazado 909349" d="M53.654,67.135s-2.245,36.681,1.8,65.925c0,0,3.327-44.386-1.8-65.925" transform="translate(157.289 199.118)" fill="#f4ba5d"/>
          <path id="Trazado_909350" data-name="Trazado 909350" d="M55.634,67.163S72.12,98.01,69.225,132.39c0,0,9.693-35.971-13.591-65.227" transform="translate(165.005 199.201)" fill="#f4ba5d"/>
          <path id="Trazado_909351" data-name="Trazado 909351" d="M53.077,63.111s2.15,7.952,1.055,12.631c0,0,4.315-3.395-1.055-12.631" transform="translate(157.421 187.183)" fill="#ffe98d"/>
          <path id="Trazado_909352" data-name="Trazado 909352" d="M53.16,63.281s3.561,7.424,3.335,12.227c0,0,3.625-4.121-3.335-12.227" transform="translate(157.667 187.687)" fill="#ffe98d"/>
          <path id="Trazado_909353" data-name="Trazado 909353" d="M54.36,67.1S69.5,92.922,64.866,133.12c0,0-.408-37.335-10.506-66.024" transform="translate(161.227 199.002)" fill="#ffe98d"/>
          <path id="Trazado_909354" data-name="Trazado 909354" d="M53.891,63.225s5.624,5.279,6.068,11.957c0,0,3.2-6.219-6.068-11.957" transform="translate(159.836 187.521)" fill="#ffe98d"/>
          <path id="Trazado_909355" data-name="Trazado 909355" d="M55.158,67.594s-7.825,27.65-2.387,62.749c0,0,3.288-50.434,2.387-62.749" transform="translate(150.811 200.479)" fill="#ffe98d"/>
          <path id="Trazado_909356" data-name="Trazado 909356" d="M82.016,68.106l-32.739-.377a.625.625,0,1,1,.012-1.249l32.742.377a.625.625,0,1,1-.016,1.249" transform="translate(144.318 197.175)" fill="#c67422"/>
          <path id="Trazado_909357" data-name="Trazado 909357" d="M56.668,44.767H26.693a3.69,3.69,0,0,1-3.672-3.308L19.166,4.588H64.742l-4.41,36.923a3.691,3.691,0,0,1-3.664,3.256" transform="translate(56.845 13.61)" fill="#f24040"/>
          <path id="Trazado_909358" data-name="Trazado 909358" d="M19.541,8.074l44.624.016.416-3.3-45.39.27Z" transform="translate(56.923 14.221)" fill="#d82b2b"/>
          <path id="Trazado_909359" data-name="Trazado 909359" d="M27.645,12.43h0a3.651,3.651,0,0,1-3.653-3.653V8.449a3.653,3.653,0,1,1,7.305,0v.329a3.651,3.651,0,0,1-3.653,3.653" transform="translate(71.158 14.226)" fill="#d82b2b"/>
          <path id="Trazado_909360" data-name="Trazado 909360" d="M66.96,8.482H20.123a1.226,1.226,0,0,1-1.214-1.059l-.266-1.951a1.225,1.225,0,0,1,1.214-1.388H67.226a1.225,1.225,0,0,1,1.214,1.388l-.266,1.951A1.226,1.226,0,0,1,66.96,8.482" transform="translate(55.261 12.115)" fill="#ff7f52"/>
          <path id="Trazado_909361" data-name="Trazado 909361" d="M27.416,11.685h0a3.348,3.348,0,0,1-3.347-3.347v-.3a3.347,3.347,0,0,1,6.694,0v.3a3.348,3.348,0,0,1-3.347,3.347" transform="translate(71.386 13.909)" fill="#ff7f52"/>
          <path id="Trazado_909362" data-name="Trazado 909362" d="M20.465,6.5l2.947,27.654a2.1,2.1,0,0,0,2.09,1.88h3.363a2.1,2.1,0,0,0,2.1-2.094l.071-27.515Z" transform="translate(60.697 19.046)" fill="#ff5556"/>
          <path id="Trazado_909363" data-name="Trazado 909363" d="M27.408,6.831a1.424,1.424,0,1,1-1.424-1.424,1.425,1.425,0,0,1,1.424,1.424" transform="translate(72.843 16.039)" fill="#d82b2b"/>
          <path id="Trazado_909364" data-name="Trazado 909364" d="M65.154,5.534H19.681a.6.6,0,1,1,0-1.2H65.154a.6.6,0,1,1,0,1.2" transform="translate(56.584 12.862)" fill="#f96"/>
          <path id="Trazado_909365" data-name="Trazado 909365" d="M25.4,7.009,43.37,23.2l.147-1.237L26.467,6.43Z" transform="translate(75.346 19.074)" fill="#d82b2b"/>
          <path id="Trazado_909366" data-name="Trazado 909366" d="M34.912,12.177a2.5,2.5,0,1,1-2.5-2.5,2.5,2.5,0,0,1,2.5,2.5" transform="translate(88.725 28.706)" fill="#ff7f52"/>
          <path id="Trazado_909367" data-name="Trazado 909367" d="M47.629,24.878a.586.586,0,0,1-.377-.135L24.988,6.679a.6.6,0,0,1,.757-.932L48.006,23.812a.6.6,0,0,1,.087.845.588.588,0,0,1-.464.222" transform="translate(73.458 16.655)" fill="#5e6b68"/>
          <path id="Trazado_909368" data-name="Trazado 909368" d="M74.612,46.986H46.962a4.223,4.223,0,0,1-4.323-3.553L38.451,7.01H83.123L78.935,43.433a4.223,4.223,0,0,1-4.323,3.553" transform="translate(114.042 20.793)" fill="#f7cd00"/>
          <path id="Trazado_909369" data-name="Trazado 909369" d="M38.495,7.476l.349,2.55H82.484l.262-2.245Z" transform="translate(114.171 22.174)" fill="#e2ac01"/>
          <path id="Trazado_909370" data-name="Trazado 909370" d="M84.167,11.574h-44.7a1,1,0,0,1-.987-.88l-.365-3.105a.994.994,0,0,1,.988-1.11H84.532a.994.994,0,0,1,.988,1.11l-.365,3.105a1,1,0,0,1-.987.88" transform="translate(113.013 19.215)" fill="#ffe05f"/>
          <path id="Trazado_909371" data-name="Trazado 909371" d="M38.223,6.478a1.01,1.01,0,0,0-1.011,1.011v3.082a1.01,1.01,0,0,0,1.011,1.011h7.583v-5.1Zm1.638,3.6a1.049,1.049,0,1,1,1.051-1.051,1.05,1.05,0,0,1-1.051,1.051" transform="translate(110.367 19.215)" fill="#ffe05f"/>
          <path id="Trazado_909372" data-name="Trazado 909372" d="M48.876,6.478v5.1h7.587a1.009,1.009,0,0,0,1.007-1.007V7.485a1.009,1.009,0,0,0-1.007-1.007Zm4.9,2.55a1.049,1.049,0,1,1,1.051,1.051,1.05,1.05,0,0,1-1.051-1.051" transform="translate(144.962 19.215)" fill="#ffe05f"/>
          <path id="Trazado_909373" data-name="Trazado 909373" d="M39.326,8.647l3.264,27.7a2.244,2.244,0,0,0,2.233,1.983h5.346a2.246,2.246,0,0,0,2.249-2.245L52.394,8.75Z" transform="translate(116.637 25.648)" fill="#ffe05f"/>
          <path id="Trazado_909374" data-name="Trazado 909374" d="M87.823,28.027a.6.6,0,0,1-.6-.6v-1.86a24.14,24.14,0,0,0-48.281,0v1.86a.6.6,0,0,1-1.2,0v-1.86a25.338,25.338,0,1,1,50.676,0v1.86a.6.6,0,0,1-.6.6" transform="translate(111.951 0.684)" fill="#5e6b68"/>
          <path id="Trazado_909375" data-name="Trazado 909375" d="M41.982,5.453l-.9-1.63a.566.566,0,0,1,.218-.769l.813-.452a25.875,25.875,0,0,1,22.554-.048l.849.4a.57.57,0,0,1,.27.754l-.793,1.689a.567.567,0,0,1-.754.274l-.845-.4a23.267,23.267,0,0,0-19.826-.048l-.817.452a.566.566,0,0,1-.765-.222" transform="translate(121.62 0.002)" fill="#f7cd00"/>
          <path id="Trazado_909376" data-name="Trazado 909376" d="M41.916,3.52a.593.593,0,0,1-.547-.349.6.6,0,0,1,.3-.793c.448-.2,11.089-4.878,21.634,0a.6.6,0,1,1-.5,1.083c-10.054-4.648-20.535-.04-20.639.008a.661.661,0,0,1-.246.048" transform="translate(122.542 0.492)" fill="#ffe05f"/>
          <path id="Trazado_909377" data-name="Trazado 909377" d="M35.647,37.925a5.869,5.869,0,0,0-5.87,5.87V82.006H41.516V43.795a5.869,5.869,0,0,0-5.87-5.87m0,9.911a2.869,2.869,0,1,1,2.867-2.867,2.866,2.866,0,0,1-2.867,2.867" transform="translate(88.316 112.484)" fill="#f24040"/>
          <path id="Trazado_909378" data-name="Trazado 909378" d="M98.105,121.348H23.84a2.6,2.6,0,0,1-2.586-2.887l4.025-36.593c2-18.2,17.379-33.552,35.693-33.552s33.694,15.348,35.7,33.552l4.021,36.593a2.6,2.6,0,0,1-2.586,2.887" transform="translate(62.99 143.303)" fill="#f24040"/>
          <path id="Trazado_909379" data-name="Trazado 909379" d="M96.84,115.952,93.1,84.173C91.184,65.367,76.844,50.126,59.283,50.126S27.452,65.415,25.537,84.221L21.8,115.952ZM27.373,84.471C29.17,66.811,42.9,53.493,59.3,53.493S89.439,66.811,91.236,84.471l2.506,24.474c-10.807.024-58.2.123-68.916.143Z" transform="translate(64.66 148.671)" fill="#d32a2a"/>
          <path id="Trazado_909380" data-name="Trazado 909380" d="M22.563,65.9l68.916-.143-.111-1.071H22.714Z" transform="translate(66.921 191.859)" fill="#ff5556"/>
          <path id="Trazado_909381" data-name="Trazado 909381" d="M57.543,54.663a.781.781,0,0,1-.361-.087c-14.567-7.535-28.6-.083-28.741-.008A.781.781,0,0,1,27.7,53.2c.147-.079,14.8-10.01,30.208-.012a.816.816,0,0,1,.333,1.055.781.781,0,0,1-.694.424" transform="translate(80.93 144.518)" fill="#ff5556"/>
          <path id="Trazado_909382" data-name="Trazado 909382" d="M31.053,40.783a4.494,4.494,0,0,0,2.915,1.348.479.479,0,0,1,.492.468V70.182a.958.958,0,0,1-.873.956l-2.38.218a.959.959,0,0,1-1.047-.96l.091-29.276a.471.471,0,0,1,.8-.337" transform="translate(89.455 120.56)" fill="#ff5556"/>
          <path id="Trazado_909383" data-name="Trazado 909383" d="M59.129,24.159,40.351,19.987v9.649l1.368,3.1-1.368,5.12V55.2l1.174,2.38L40.351,61.2V72.412l1.432,3.26-1.432,4.434v9.26l19.171-4.7Z" transform="translate(119.677 59.281)" fill="#eae2b0"/>
          <path id="Trazado_909384" data-name="Trazado 909384" d="M40.351,22.42l21.126,4.565-.389,1.368L41.719,25.517Z" transform="translate(119.676 66.497)" fill="#d8cd95"/>
          <path id="Trazado_909385" data-name="Trazado 909385" d="M40.351,28.865l20.833.718-.781,2.15-18.878-.488Z" transform="translate(119.676 85.613)" fill="#d8cd95"/>
          <path id="Trazado_909386" data-name="Trazado 909386" d="M40.351,33.206l20.833,1.5-19.4,1.761Z" transform="translate(119.676 98.488)" fill="#d8cd95"/>
          <path id="Trazado_909387" data-name="Trazado 909387" d="M40.351,28.32l1.368-5.12,19.857,2.74-2.153.98Z" transform="translate(119.676 68.812)" fill="#f9f2c0"/>
          <path id="Trazado_909388" data-name="Trazado 909388" d="M40.351,33.086l1.174-3.621,18.878.492-.194,1.563Z" transform="translate(119.676 87.392)" fill="#f9f2c0"/>
          <path id="Trazado_909389" data-name="Trazado 909389" d="M40.351,39.731,41.786,35.3l19.952-1.7v2.61Z" transform="translate(119.676 99.656)" fill="#f9f2c0"/>
          <path id="Trazado_909390" data-name="Trazado 909390" d="M41.814,39.174a.391.391,0,0,1-.079-.773c.5-.1,16.121-3.641,16.276-3.676a.393.393,0,0,1,.174.765c-.642.147-15.788,3.573-16.3,3.676l-.075.008" transform="translate(122.851 102.962)" fill="#bfb27f"/>
          <path id="Trazado_909391" data-name="Trazado 909391" d="M56.161,25.533l-.087-.008L41.658,22.254a.388.388,0,0,1-.293-.468.384.384,0,0,1,.464-.293l14.42,3.268a.392.392,0,0,1-.087.773" transform="translate(122.65 63.713)" fill="#bfb27f"/>
          <path id="Trazado_909392" data-name="Trazado 909392" d="M41.508,27.028a.391.391,0,0,1-.032-.781l15.78-1.17a.39.39,0,1,1,.063.777L41.54,27.028h-.032" transform="translate(121.942 74.374)" fill="#bfb27f"/>
          <path id="Trazado_909393" data-name="Trazado 909393" d="M41.414,33.026a.391.391,0,0,1-.028-.781l15.649-1.174a.392.392,0,0,1,.059.781L41.446,33.026h-.032" transform="translate(121.675 92.148)" fill="#bfb27f"/>
          <path id="Trazado_909394" data-name="Trazado 909394" d="M41.61,33.133a.391.391,0,0,1-.012-.781L57.287,31.9a.374.374,0,0,1,.4.381.388.388,0,0,1-.381.4l-15.685.452Z" transform="translate(122.246 94.61)" fill="#bfb27f"/>
          <path id="Trazado_909395" data-name="Trazado 909395" d="M58.972,28.791h-17.6a.391.391,0,1,1,0-.781h17.6a.391.391,0,1,1,0,.781" transform="translate(121.528 83.077)" fill="#bfb27f"/>
          <path id="Trazado_909396" data-name="Trazado 909396" d="M41.334,29.367a.39.39,0,0,1-.052-.777l16.431-2.217a.383.383,0,0,1,.44.333.387.387,0,0,1-.333.44L41.386,29.363l-.052,0" transform="translate(121.431 78.199)" fill="#bfb27f"/>
          <path id="Trazado_909397" data-name="Trazado 909397" d="M48.519,149.228h0a3.543,3.543,0,0,1-3.542-3.542V23.66a3.542,3.542,0,0,1,7.083,0V145.686a3.543,3.543,0,0,1-3.542,3.542" transform="translate(133.397 59.67)" fill="#ff8d06"/>
          <path id="Trazado_909398" data-name="Trazado 909398" d="M46.952,144.606h0a.915.915,0,0,1-.912-.912V21.885a.912.912,0,1,1,1.824,0V143.694a.915.915,0,0,1-.912.912" transform="translate(136.55 62.206)" fill="#ffaf57"/>
          <path id="Trazado_909399" data-name="Trazado 909399" d="M22.943,27.769,18.981,45.6h9.161l2.943-1.3,4.858,1.3h16.47l2.261-1.114L58.113,45.6H68.761l3.093-1.36,4.212,1.36h8.792L80.4,27.4Z" transform="translate(56.296 81.256)" fill="#eae2b0"/>
          <path id="Trazado_909400" data-name="Trazado 909400" d="M21.291,46.988l4.335-20.06,1.3.369-2.693,18.39Z" transform="translate(63.148 79.869)" fill="#d8cd95"/>
          <path id="Trazado_909401" data-name="Trazado 909401" d="M27.411,46.78,28.093,27l2.042.742-.464,17.926Z" transform="translate(81.299 80.076)" fill="#d8cd95"/>
          <path id="Trazado_909402" data-name="Trazado 909402" d="M31.533,46.78,32.957,27l1.67,18.422Z" transform="translate(93.524 80.076)" fill="#d8cd95"/>
          <path id="Trazado_909403" data-name="Trazado 909403" d="M26.892,47.059l-4.858-1.3,2.6-18.854.932,2.046Z" transform="translate(65.349 79.798)" fill="#f9f2c0"/>
          <path id="Trazado_909404" data-name="Trazado 909404" d="M31.419,46.226l-3.438-1.114.468-17.926,1.483.186Z" transform="translate(82.988 80.631)" fill="#f9f2c0"/>
          <path id="Trazado_909405" data-name="Trazado 909405" d="M37.729,47.175l-4.212-1.36-1.61-18.949h2.479Z" transform="translate(94.633 79.682)" fill="#f9f2c0"/>
          <path id="Trazado_909406" data-name="Trazado 909406" d="M37.2,42.72a.372.372,0,0,1-.738.071c-.091-.476-3.454-15.3-3.486-15.455a.367.367,0,0,1,.282-.444.371.371,0,0,1,.444.282c.139.611,3.395,14.987,3.49,15.471l.008.075" transform="translate(97.772 79.733)" fill="#bfb27f"/>
          <path id="Trazado_909407" data-name="Trazado 909407" d="M24.249,27.766l-.008.083L21.136,41.536a.371.371,0,0,1-.444.282.367.367,0,0,1-.282-.444l3.105-13.69a.372.372,0,0,1,.734.083" transform="translate(60.506 81.254)" fill="#bfb27f"/>
          <path id="Trazado_909408" data-name="Trazado 909408" d="M25.67,42.652a.371.371,0,0,1-.742.028L23.814,27.7a.372.372,0,1,1,.742-.056L25.67,42.624v.028" transform="translate(70.626 80.956)" fill="#bfb27f"/>
          <path id="Trazado_909409" data-name="Trazado 909409" d="M31.362,42.646a.371.371,0,0,1-.742.028l-1.114-14.86a.372.372,0,0,1,.341-.4.376.376,0,0,1,.4.345l1.114,14.86v.028" transform="translate(87.504 81.303)" fill="#bfb27f"/>
          <path id="Trazado_909410" data-name="Trazado 909410" d="M31.464,42.486a.371.371,0,0,1-.742.012l-.428-14.9a.353.353,0,0,1,.361-.381.368.368,0,0,1,.381.357l.428,14.9Z" transform="translate(89.845 80.737)" fill="#bfb27f"/>
          <path id="Trazado_909411" data-name="Trazado 909411" d="M27.342,27.363V44.079a.371.371,0,1,1-.742,0V27.363a.371.371,0,1,1,.742,0" transform="translate(78.893 80.052)" fill="#bfb27f"/>
          <path id="Trazado_909412" data-name="Trazado 909412" d="M27.888,43.277a.375.375,0,0,1-.321.369.368.368,0,0,1-.416-.321l-2.106-15.6a.364.364,0,0,1,.317-.416.368.368,0,0,1,.416.317l2.106,15.6,0,.052" transform="translate(74.258 80.98)" fill="#bfb27f"/>
          <path id="Trazado_909413" data-name="Trazado 909413" d="M86.431,32.424h-65.2a2.9,2.9,0,0,1,0-5.8h65.2a2.9,2.9,0,1,1,0,5.8" transform="translate(54.383 78.96)" fill="#f24040"/>
          <path id="Trazado_909414" data-name="Trazado 909414" d="M74.42,21.5H31.485A2.971,2.971,0,0,0,28.8,23.187L19.54,42.615c-.94,1.947,2.364-.012,4.525.044l54.357,1.463c1.963.052,4.125.563,3.657-1.344l-4.763-19a2.982,2.982,0,0,0-2.9-2.272M36.625,32.51l1.142-3.879A2.984,2.984,0,0,1,40.627,26.5H69.514a2.979,2.979,0,0,1,2.911,2.356l.825,3.879a2.975,2.975,0,0,1-2.911,3.6H39.48a2.977,2.977,0,0,1-2.855-3.819" transform="translate(57.466 63.772)" fill="#f24040"/>
          <path id="Trazado_909415" data-name="Trazado 909415" d="M19.509,27.949H81.432l-.424-1.761H20.365Z" transform="translate(57.861 77.673)" fill="#d32a2a"/>
          <path id="Trazado_909416" data-name="Trazado 909416" d="M21.258,32.317l4.224-9.407a1.751,1.751,0,0,1,1.606-1.043H51.332v1.689H29.15a1.756,1.756,0,0,0-1.67,1.206l-2.947,8.832a1.76,1.76,0,1,1-3.276-1.277" transform="translate(62.585 64.857)" fill="#ff5556"/>
        </g>
      </g>
    </g>
  </g>
</svg>
