<svg xmlns="http://www.w3.org/2000/svg" xmlns:xlink="http://www.w3.org/1999/xlink" width="136" height="136" viewBox="0 0 136 136">
  <defs>
    <filter id="Elipse_12721" x="0" y="0" width="136" height="136" filterUnits="userSpaceOnUse">
      <feOffset dy="3" input="SourceAlpha"/>
      <feGaussianBlur stdDeviation="3" result="blur"/>
      <feFlood flood-opacity="0.161"/>
      <feComposite operator="in" in2="blur"/>
      <feComposite in="SourceGraphic"/>
    </filter>
  </defs>
  <g id="Grupo_1113546" data-name="Grupo 1113546" transform="translate(-3917.377 9509.83)">
    <g transform="matrix(1, 0, 0, 1, 3917.38, -9509.83)" filter="url(#Elipse_12721)">
      <circle id="Elipse_12721-2" data-name="Elipse 12721" cx="59" cy="59" r="59" transform="translate(9 6)" fill="#fff"/>
    </g>
    <g id="gestion-de-crisis" transform="translate(3944.576 -9477.802)">
      <g id="Grupo_1113447" data-name="Grupo 1113447" transform="translate(1.029 1.03)">
        <g id="Grupo_1113441" data-name="Grupo 1113441" transform="translate(42.543 55.479)">
          <path id="Trazado_910800" data-name="Trazado 910800" d="M339.425,438.753h19.09a1.132,1.132,0,0,1,1.129,1.129v6.146a1.132,1.132,0,0,1-1.129,1.129h-19.09a1.132,1.132,0,0,1-1.129-1.129v-6.146A1.132,1.132,0,0,1,339.425,438.753Z" transform="translate(-338.296 -438.753)" fill="#fe646f" fill-rule="evenodd"/>
          <path id="Trazado_910801" data-name="Trazado 910801" d="M358.356,438.753h.159a1.132,1.132,0,0,1,1.129,1.129v6.146a1.132,1.132,0,0,1-1.129,1.129h-19.09a1.132,1.132,0,0,1-1.129-1.129v-.159h18.931a1.132,1.132,0,0,0,1.129-1.129Z" transform="translate(-338.296 -438.753)" fill="#fd4755" fill-rule="evenodd"/>
        </g>
        <g id="Grupo_1113442" data-name="Grupo 1113442" transform="translate(42.543 41.609)">
          <path id="Trazado_910802" data-name="Trazado 910802" d="M339.425,331.065h19.09a1.132,1.132,0,0,1,1.129,1.129v6.146a1.132,1.132,0,0,1-1.129,1.129h-19.09a1.132,1.132,0,0,1-1.129-1.129v-6.146A1.132,1.132,0,0,1,339.425,331.065Z" transform="translate(-338.296 -331.065)" fill="#f2d1a5" fill-rule="evenodd"/>
          <path id="Trazado_910803" data-name="Trazado 910803" d="M358.356,331.065h.159a1.132,1.132,0,0,1,1.129,1.129v6.146a1.132,1.132,0,0,1-1.129,1.129h-19.09a1.132,1.132,0,0,1-1.129-1.129v-.159h18.931a1.132,1.132,0,0,0,1.129-1.129Z" transform="translate(-338.296 -331.065)" fill="#ecba78" fill-rule="evenodd"/>
        </g>
        <g id="Grupo_1113443" data-name="Grupo 1113443" transform="translate(42.543 27.74)">
          <path id="Trazado_910804" data-name="Trazado 910804" d="M339.425,223.378h19.09a1.132,1.132,0,0,1,1.129,1.129v6.146a1.132,1.132,0,0,1-1.129,1.129h-19.09a1.132,1.132,0,0,1-1.129-1.129v-6.146A1.132,1.132,0,0,1,339.425,223.378Z" transform="translate(-338.296 -223.378)" fill="#6cf5c2" fill-rule="evenodd"/>
          <path id="Trazado_910805" data-name="Trazado 910805" d="M358.356,223.378h.159a1.132,1.132,0,0,1,1.129,1.129v6.146a1.132,1.132,0,0,1-1.129,1.129h-19.09a1.132,1.132,0,0,1-1.129-1.129v-.159h18.931a1.132,1.132,0,0,0,1.129-1.129Z" transform="translate(-338.296 -223.378)" fill="#00e499" fill-rule="evenodd"/>
        </g>
        <g id="Grupo_1113444" data-name="Grupo 1113444" transform="translate(42.543 13.87)">
          <path id="Trazado_910806" data-name="Trazado 910806" d="M339.425,115.69h19.09a1.132,1.132,0,0,1,1.129,1.129v6.146a1.132,1.132,0,0,1-1.129,1.129h-19.09a1.132,1.132,0,0,1-1.129-1.129v-6.146A1.132,1.132,0,0,1,339.425,115.69Z" transform="translate(-338.296 -115.69)" fill="#ffe177" fill-rule="evenodd"/>
          <path id="Trazado_910807" data-name="Trazado 910807" d="M358.356,115.69h.159a1.132,1.132,0,0,1,1.129,1.129v6.146a1.132,1.132,0,0,1-1.129,1.129h-19.09a1.132,1.132,0,0,1-1.129-1.129v-.159h18.931a1.132,1.132,0,0,0,1.129-1.129Z" transform="translate(-338.296 -115.69)" fill="#ffd064" fill-rule="evenodd"/>
        </g>
        <g id="Grupo_1113445" data-name="Grupo 1113445" transform="translate(42.543)">
          <path id="Trazado_910808" data-name="Trazado 910808" d="M339.425,8h19.09a1.132,1.132,0,0,1,1.129,1.129v6.146a1.132,1.132,0,0,1-1.129,1.129h-19.09a1.132,1.132,0,0,1-1.129-1.129V9.131A1.132,1.132,0,0,1,339.425,8Z" transform="translate(-338.296 -8.002)" fill="#8ac9fe" fill-rule="evenodd"/>
          <path id="Trazado_910809" data-name="Trazado 910809" d="M358.356,8h.159a1.132,1.132,0,0,1,1.129,1.129v6.146a1.132,1.132,0,0,1-1.129,1.129h-19.09a1.132,1.132,0,0,1-1.129-1.129v-.159h18.931a1.132,1.132,0,0,0,1.129-1.129Z" transform="translate(-338.296 -8.002)" fill="#60b7ff" fill-rule="evenodd"/>
        </g>
        <g id="Grupo_1113446" data-name="Grupo 1113446" transform="translate(0 14.829)">
          <path id="Trazado_910810" data-name="Trazado 910810" d="M28.125,125.622,39,144.453a4.965,4.965,0,0,1-4.3,7.447H12.953a4.965,4.965,0,0,1-4.3-7.447l10.872-18.831a4.965,4.965,0,0,1,8.6,0Z" transform="translate(-7.983 -123.14)" fill="#fe646f" fill-rule="evenodd"/>
          <path id="Trazado_910811" data-name="Trazado 910811" d="M130.914,125.623l10.872,18.831a4.965,4.965,0,0,1-4.3,7.447H136.2a4.965,4.965,0,0,0,4.3-7.447l-10.872-18.831a4.925,4.925,0,0,0-3.654-2.441,5.081,5.081,0,0,1,.646-.041A4.931,4.931,0,0,1,130.914,125.623Z" transform="translate(-110.773 -123.141)" fill="#fd4755" fill-rule="evenodd"/>
          <path id="Trazado_910812" data-name="Trazado 910812" d="M43.389,144.423l10.872,18.831a2.377,2.377,0,0,1-2.058,3.565H30.459a2.377,2.377,0,0,1-2.058-3.565l10.872-18.831a2.377,2.377,0,0,1,4.117,0Z" transform="translate(-25.489 -140.647)" fill="#ffe177" fill-rule="evenodd"/>
          <path id="Trazado_910813" data-name="Trazado 910813" d="M31.75,166.819H30.459a2.377,2.377,0,0,1-2.058-3.565l10.872-18.831a2.343,2.343,0,0,1,2.058-1.188,2.43,2.43,0,0,1,.646.086,2.341,2.341,0,0,0-1.412,1.1L29.692,163.254a2.377,2.377,0,0,0,2.058,3.565Z" transform="translate(-25.489 -140.647)" fill="#ffd064" fill-rule="evenodd"/>
          <path id="Trazado_910814" data-name="Trazado 910814" d="M119.505,187.735a1.355,1.355,0,0,1-1.354-1.305l-.342-9.48a1.354,1.354,0,0,1,1.353-1.4h.685a1.354,1.354,0,0,1,1.353,1.4l-.342,9.48A1.354,1.354,0,0,1,119.505,187.735Z" transform="translate(-103.663 -168.796)" fill="#fe646f" fill-rule="evenodd"/>
          <path id="Trazado_910815" data-name="Trazado 910815" d="M128.2,187.735a1.35,1.35,0,0,1-.412-.064,1.355,1.355,0,0,0,.941-1.241l.342-9.48a1.355,1.355,0,0,0-1.284-1.4l.07,0h.685a1.354,1.354,0,0,1,1.353,1.4l-.342,9.48a1.354,1.354,0,0,1-1.353,1.305Z" transform="translate(-112.353 -168.796)" fill="#fd4755" fill-rule="evenodd"/>
          <path id="Trazado_910816" data-name="Trazado 910816" d="M119.746,285.8a1.661,1.661,0,1,1-1.661,1.661A1.661,1.661,0,0,1,119.746,285.8Z" transform="translate(-103.904 -264.847)" fill="#fe646f" fill-rule="evenodd"/>
          <path id="Trazado_910817" data-name="Trazado 910817" d="M128.314,285.8a1.661,1.661,0,1,1-.395,3.275,1.661,1.661,0,0,0,0-3.228A1.666,1.666,0,0,1,128.314,285.8Z" transform="translate(-112.472 -264.847)" fill="#fd4755" fill-rule="evenodd"/>
        </g>
      </g>
      <path id="Trazado_910818" data-name="Trazado 910818" d="M17.191,24.057h-.662a.218.218,0,0,0-.188.081.244.244,0,0,0-.079.2l.328,9.093a.271.271,0,0,0,.541,0l.328-9.093a.244.244,0,0,0-.079-.2A.225.225,0,0,0,17.191,24.057ZM16.528,22h.662a2.272,2.272,0,0,1,1.671.711,2.3,2.3,0,0,1,.656,1.7L19.19,33.5a2.332,2.332,0,0,1-4.66,0L14.2,24.409A2.336,2.336,0,0,1,16.528,22Zm.966,17.356a.635.635,0,1,0-.632.634A.635.635,0,0,0,17.494,39.353Zm2.06,0a2.695,2.695,0,1,1-2.692-2.695A2.7,2.7,0,0,1,19.554,39.353ZM44.589,8.308a.1.1,0,0,0,.1.1H63.778a.1.1,0,0,0,.1-.1V2.161a.1.1,0,0,0-.1-.1H44.692a.1.1,0,0,0-.1.1ZM16.862,16.9a3.894,3.894,0,0,1,3.4,1.966L31.13,37.687a3.932,3.932,0,0,1-3.4,5.9H5.992a3.932,3.932,0,0,1-3.4-5.9L13.454,18.866A3.9,3.9,0,0,1,16.862,16.9Zm27.726,5.277a.105.105,0,0,0,.1.1H63.778a.1.1,0,0,0,.1-.1V16.032a.1.1,0,0,0-.1-.1H44.692a.1.1,0,0,0-.1.1Zm0,13.87a.105.105,0,0,0,.1.1H63.778a.1.1,0,0,0,.1-.1V29.9a.1.1,0,0,0-.1-.1H44.692a.1.1,0,0,0-.1.1Zm0,13.87a.1.1,0,0,0,.1.1H63.778a.1.1,0,0,0,.1-.1V43.772a.1.1,0,0,0-.1-.1H44.692a.1.1,0,0,0-.1.1Zm0,13.87a.1.1,0,0,0,.1.1H63.778a.1.1,0,0,0,.1-.1V57.641a.1.1,0,0,0-.1-.1H44.692a.105.105,0,0,0-.1.1Zm-2.06-55.48V6.266H17.889v8.663a5.939,5.939,0,0,1,4.162,2.907l3.561,6.176,2.88-5.392a1.026,1.026,0,0,1,.905-.546H42.529V16.032a2.165,2.165,0,0,1,2.163-2.159H63.778a2.165,2.165,0,0,1,2.163,2.159v6.146a2.165,2.165,0,0,1-2.163,2.16H44.692a2.165,2.165,0,0,1-2.163-2.16V20.135H30.018l-3.19,5.979,3.366,5.83H42.529V29.9a2.165,2.165,0,0,1,2.163-2.159H63.778A2.165,2.165,0,0,1,65.941,29.9v6.146a2.166,2.166,0,0,1-2.163,2.16H44.692a2.166,2.166,0,0,1-2.163-2.16V34H31.385l1.531,2.652a6,6,0,0,1-3.5,8.748l.413.41h12.7V43.771a2.164,2.164,0,0,1,2.163-2.16H63.778a2.164,2.164,0,0,1,2.163,2.16v6.146a2.164,2.164,0,0,1-2.163,2.158H44.692a2.164,2.164,0,0,1-2.163-2.158V47.875H29.4a1.02,1.02,0,0,1-.723-.3l-1.932-1.927H17.889V59.684H42.529V57.641a2.165,2.165,0,0,1,2.163-2.16H63.778a2.165,2.165,0,0,1,2.163,2.16v6.146a2.165,2.165,0,0,1-2.163,2.159H44.692a2.165,2.165,0,0,1-2.163-2.159V61.745H16.862a1.032,1.032,0,0,1-1.033-1.03V45.645H5.992A5.992,5.992,0,0,1,.8,36.657L11.667,17.836a5.927,5.927,0,0,1,4.162-2.907V5.236a1.031,1.031,0,0,1,1.033-1.03H42.529V2.161A2.164,2.164,0,0,1,44.692,0H63.778a2.164,2.164,0,0,1,2.163,2.158V8.308a2.165,2.165,0,0,1-2.163,2.16H44.692a2.165,2.165,0,0,1-2.163-2.16Zm6.2,53.438a1.031,1.031,0,0,1,0-2.061h11.01a1.03,1.03,0,1,1,0,2.061Zm0-13.87a1.03,1.03,0,0,1,0-2.06h11.01a1.03,1.03,0,1,1,0,2.06Zm0-13.87a1.031,1.031,0,0,1,0-2.061h11.01a1.031,1.031,0,1,1,0,2.061Zm0-13.87a1.031,1.031,0,0,1,0-2.061h11.01a1.031,1.031,0,1,1,0,2.061ZM47.7,5.236a1.03,1.03,0,0,1,1.027-1.03h11.01a1.03,1.03,0,1,1,0,2.06H48.727A1.03,1.03,0,0,1,47.7,5.236Z" transform="translate(0.009 -0.003)" fill-rule="evenodd"/>
    </g>
  </g>
</svg>
