<svg xmlns="http://www.w3.org/2000/svg" xmlns:xlink="http://www.w3.org/1999/xlink" width="136" height="136" viewBox="0 0 136 136">
  <defs>
    <filter id="Elipse_12719" x="0" y="0" width="136" height="136" filterUnits="userSpaceOnUse">
      <feOffset dy="3" input="SourceAlpha"/>
      <feGaussianBlur stdDeviation="3" result="blur"/>
      <feFlood flood-opacity="0.161"/>
      <feComposite operator="in" in2="blur"/>
      <feComposite in="SourceGraphic"/>
    </filter>
  </defs>
  <g id="Grupo_1113544" data-name="Grupo 1113544" transform="translate(-1046.5 -2294.17)">
    <g transform="matrix(1, 0, 0, 1, 1046.5, 2294.17)" filter="url(#Elipse_12719)">
      <circle id="Elipse_12719-2" data-name="Elipse 12719" cx="59" cy="59" r="59" transform="translate(9 6)" fill="#fff"/>
    </g>
    <g id="microorganismo_1_" data-name="microorganismo (1)" transform="translate(1080.5 2323.232)">
      <g id="Grupo_1113448" data-name="Grupo 1113448" transform="translate(2.566 36.124)">
        <path id="Trazado_910832" data-name="Trazado 910832" d="M19.283,278.269h1.283v4.491h3.208v-1.017L21.4,279.364l.907-.907,1.471,1.471V274.97a2.56,2.56,0,1,1,3.1-3.174,25.721,25.721,0,0,1,4.56-6.658,23.033,23.033,0,0,1-3.37-5.7A31.972,31.972,0,0,0,18,282.759h1.283Z" transform="translate(-18 -258.581)" fill="#c7d95d"/>
        <path id="Trazado_910833" data-name="Trazado 910833" d="M376.3,274.563l.182.181v-4.958a2.566,2.566,0,1,1,1.283,0v4.958l1.471-1.471.907.907-2.378,2.378v1.017h3.208v-3.208h1.283v3.208h.642A31.991,31.991,0,0,0,371.887,253.4a23.036,23.036,0,0,1-3.137,5.825A25.581,25.581,0,0,1,376.3,274.563Z" transform="translate(-318.748 -253.398)" fill="#c7d95d"/>
        <path id="Trazado_910834" data-name="Trazado 910834" d="M67.5,366.658v2.1q.274-1.213.662-2.38A2.557,2.557,0,0,1,67.5,366.658Z" transform="translate(-60.443 -350.269)" fill="#c7d95d"/>
      </g>
      <g id="Grupo_1113449" data-name="Grupo 1113449" transform="translate(9.623 41.949)">
        <path id="Trazado_910835" data-name="Trazado 910835" d="M68.162,308.94q-.386,1.166-.662,2.38v2.861l1.471-1.471.907.906L67.5,315.995v1.017h3.849V303.541h1.283v13.472h.642a19.286,19.286,0,0,1,.642-4.935V307.39H75.2v1.227a19.254,19.254,0,0,1,3.042-4.505l-4.125-4.42c-.082-.1-.159-.2-.239-.3a25.712,25.712,0,0,0-4.56,6.658,2.483,2.483,0,0,1-1.154,2.891Z" transform="translate(-67.5 -298.659)" fill="#a7c23b"/>
        <path id="Trazado_910836" data-name="Trazado 910836" d="M342.761,305.7v-2.713h1.283v9.623h1.283V299.14h1.283v13.472h3.849c0-.35-.012-.7-.026-1.044l-2.352-2.352.906-.906,1.289,1.289a25.58,25.58,0,0,0-7.552-15.34c-.259.35-.525.7-.805,1.032L338.4,299A19.268,19.268,0,0,1,342.761,305.7Zm0-7.845h1.283v3.208h-1.283Z" transform="translate(-299.779 -294.259)" fill="#a7c23b"/>
      </g>
      <g id="Grupo_1113450" data-name="Grupo 1113450" transform="translate(15.396 46.685)">
        <path id="Trazado_910837" data-name="Trazado 910837" d="M121.5,345.4h1.283v-8.34h1.283v8.34h1.283v-4.491h1.283v.5a12.8,12.8,0,0,1,2.432-4.328l-4.523-4.581a19.254,19.254,0,0,0-3.042,4.505Z" transform="translate(-119.575 -331.788)" fill="#89a320"/>
        <path id="Trazado_910838" data-name="Trazado 910838" d="M310.612,336.607H311.9V341.1h1.283v-8.34h1.283v8.34h1.283v-6.91a19.268,19.268,0,0,0-4.363-6.707l-4.492,4.585a12.784,12.784,0,0,1,3.722,9.032v-4.49Z" transform="translate(-278.537 -327.48)" fill="#89a320"/>
        <path id="Trazado_910839" data-name="Trazado 910839" d="M108,393.314h.642v-4.935A19.286,19.286,0,0,0,108,393.314Z" transform="translate(-108 -379.697)" fill="#89a320"/>
      </g>
      <g id="Grupo_1113451" data-name="Grupo 1113451" transform="translate(22.453 51.27)">
        <path id="Trazado_910840" data-name="Trazado 910840" d="M157.5,372.961h10.646l-8.213-8.32a12.8,12.8,0,0,0-2.432,4.328v3.992Z" transform="translate(-157.5 -363.928)" fill="#6b8014"/>
        <path id="Trazado_910841" data-name="Trazado 910841" d="M253.652,359.641l-8.851,9.032h12.573A12.784,12.784,0,0,0,253.652,359.641Z" transform="translate(-232.356 -359.641)" fill="#6b8014"/>
      </g>
      <path id="Trazado_910842" data-name="Trazado 910842" d="M62.868,423H61.585v1.283H6.415V423H5.132v1.283H0V430.7H68v-6.415H62.868Zm-51.962,3.849H6.415v-1.283h4.491Zm4.491,2.566H12.189v-1.283H15.4Zm2.566-2.566H14.755v-1.283h3.208Zm34,0H48.113v-1.283h3.849Zm6.415,2.566H52.6v-1.283h5.774Zm5.774-3.849v1.283H59.66v-1.283Z" transform="translate(0 -362.698)" fill="#f5ce5a"/>
      <path id="Trazado_910843" data-name="Trazado 910843" d="M421.066,343.283a1.283,1.283,0,1,0-1.283,1.283A1.284,1.284,0,0,0,421.066,343.283Z" transform="translate(-358.84 -293.245)" fill="#ff5c5c"/>
      <path id="Trazado_910844" data-name="Trazado 910844" d="M412.708,338.041a2.3,2.3,0,1,0-.642.091A2.564,2.564,0,0,0,412.708,338.041Zm-1.925-2.475a1.283,1.283,0,1,1,1.283,1.283A1.284,1.284,0,0,1,410.783,335.566Z" transform="translate(-351.123 -285.528)" fill="#fff"/>
      <g id="Grupo_1113452" data-name="Grupo 1113452" transform="translate(55.17 46.83)">
        <path id="Trazado_910845" data-name="Trazado 910845" d="M412.36,372.754l-.907-.907-1.471,1.471V368.36a2.3,2.3,0,0,1-1.283,0v4.958l-.182-.181-1.289-1.289-.907.907,2.352,2.352.026.026v1.017h1.283v-1.017Z" transform="translate(-403.567 -362.678)" fill="#5f7000"/>
        <rect id="Rectángulo_405899" data-name="Rectángulo 405899" width="1.283" height="13.472" fill="#5f7000"/>
      </g>
      <path id="Trazado_910846" data-name="Trazado 910846" d="M369,355.5v9.623h1.283V355.5Z" transform="translate(-316.396 -304.821)" fill="#ffff3d"/>
      <rect id="Rectángulo_405900" data-name="Rectángulo 405900" width="1.283" height="8.34" transform="translate(50.038 51.962)" fill="#5f7000"/>
      <g id="Grupo_1113453" data-name="Grupo 1113453" transform="translate(47.472 55.811)">
        <rect id="Rectángulo_405901" data-name="Rectángulo 405901" width="1.283" height="4.491" fill="#ffff3d"/>
        <rect id="Rectángulo_405902" data-name="Rectángulo 405902" width="1.283" height="3.208" transform="translate(17.321 1.283)" fill="#ffff3d"/>
      </g>
      <path id="Trazado_910847" data-name="Trazado 910847" d="M56.566,343.283a1.283,1.283,0,1,0-1.283,1.283A1.284,1.284,0,0,0,56.566,343.283Z" transform="translate(-46.302 -293.245)" fill="#ff5c5c"/>
      <path id="Trazado_910848" data-name="Trazado 910848" d="M48.208,338.041a2.611,2.611,0,0,0,1.925-2.475,2.528,2.528,0,0,0-.109-.7,2.588,2.588,0,1,0-1.815,3.174Zm-1.925-2.475a1.283,1.283,0,1,1,1.283,1.283A1.284,1.284,0,0,1,46.283,335.566Z" transform="translate(-38.585 -285.528)" fill="#fff"/>
      <g id="Grupo_1113454" data-name="Grupo 1113454" transform="translate(5.962 46.83)">
        <path id="Trazado_910849" data-name="Trazado 910849" d="M45.482,376.148v-1.017l2.378-2.378-.907-.907-1.471,1.471v-4.958a2.3,2.3,0,0,1-1.283,0v4.958l-1.471-1.471-.907.907,2.378,2.378v1.017Z" transform="translate(-41.821 -362.677)" fill="#5f7000"/>
        <rect id="Rectángulo_405903" data-name="Rectángulo 405903" width="1.283" height="13.472" transform="translate(7.51)" fill="#5f7000"/>
      </g>
      <path id="Trazado_910850" data-name="Trazado 910850" d="M113.783,355.5H112.5v9.623h1.283V355.5Z" transform="translate(-96.462 -304.821)" fill="#ffff3d"/>
      <rect id="Rectángulo_405904" data-name="Rectángulo 405904" width="1.283" height="8.34" transform="translate(18.604 51.962)" fill="#5f7000"/>
      <path id="Trazado_910851" data-name="Trazado 910851" d="M149.783,391.5H148.5v4.491h1.283V391.5Z" transform="translate(-127.33 -335.689)" fill="#ffff3d"/>
      <rect id="Rectángulo_405905" data-name="Rectángulo 405905" width="1.283" height="4.491" transform="translate(3.849 55.811)" fill="#5f7000"/>
      <path id="Trazado_910852" data-name="Trazado 910852" d="M175.726,344.938a23.127,23.127,0,0,1-10.437-2.5L175.724,353,186,342.518A23.118,23.118,0,0,1,175.726,344.938Z" transform="translate(-141.726 -293.617)" fill="#ffd130"/>
      <path id="Trazado_910853" data-name="Trazado 910853" d="M81.831,73.85l4.125,4.42,4.523,4.581,8.213,8.32h1.8l8.851-9.032,4.492-4.585,3.522-3.7c.28-.336.546-.682.805-1.032a23.113,23.113,0,1,0-36.57.732C81.672,73.649,81.749,73.751,81.831,73.85ZM99.593,90.256,89.158,79.685a23.01,23.01,0,0,0,20.71.085ZM77.783,59.1A21.811,21.811,0,1,1,83.6,73.923,21.836,21.836,0,0,1,77.783,59.1Z" transform="translate(-65.594 -30.869)"/>
      <path id="Trazado_910854" data-name="Trazado 910854" d="M132.973,193.848c2.22,2.22,5.83,4.459,8.891,4.459a4.646,4.646,0,0,0,3.415-1.343,4.932,4.932,0,0,0,1.672-3.117,3.169,3.169,0,0,0-1.023-2.42,19.258,19.258,0,0,0-3.236-2.366,11.241,11.241,0,0,1-4.932-4.932,19.264,19.264,0,0,0-2.366-3.237,3,3,0,0,0-2.173-.847,4.861,4.861,0,0,0-3.364,1.5c-1.763,1.763-1.467,4.212-.908,5.956A16.805,16.805,0,0,0,132.973,193.848Zm8.014-.978a1.283,1.283,0,1,1-1.283-1.283A1.283,1.283,0,0,1,140.987,192.87Zm-5.132,1.283a.642.642,0,1,1,.642-.642A.641.641,0,0,1,135.855,194.153Zm6.415,3.208a.642.642,0,1,1,.641-.642A.641.641,0,0,1,142.27,197.36Zm1.283-5.132a.642.642,0,1,1-.642.641A.641.641,0,0,1,143.553,192.228Zm-10.906-10.264a1.283,1.283,0,1,1-1.283,1.283A1.283,1.283,0,0,1,132.647,181.964Zm3.208,6.415a1.925,1.925,0,1,1-1.925-1.925A1.925,1.925,0,0,1,135.855,188.379Zm-.642-3.208a.642.642,0,1,1,.642.642A.641.641,0,0,1,135.213,185.172Zm3.208,3.208a.642.642,0,1,1-.642.641A.641.641,0,0,1,138.421,188.379Z" transform="translate(-110.195 -154.379)" fill="#ccc600"/>
      <g id="Grupo_1113455" data-name="Grupo 1113455" transform="translate(21.17 27.585)">
        <ellipse id="Elipse_12722" data-name="Elipse 12722" cx="1.624" cy="1.218" rx="1.624" ry="1.218" transform="translate(6.736 9.767)" fill="#5f7000"/>
        <ellipse id="Elipse_12723" data-name="Elipse 12723" cx="1.283" cy="1.283" rx="1.283" ry="1.283" fill="#5f7000"/>
        <ellipse id="Elipse_12724" data-name="Elipse 12724" cx="2.03" cy="1.624" rx="2.03" ry="1.624" transform="translate(0.24 4.895)" fill="#5f7000"/>
        <path id="Trazado_910855" data-name="Trazado 910855" d="M176.141,212.783a.642.642,0,1,0-.642-.641A.641.641,0,0,0,176.141,212.783Z" transform="translate(-171.651 -208.934)" fill="#5f7000"/>
        <path id="Trazado_910856" data-name="Trazado 910856" d="M194.141,239.783a.642.642,0,1,0-.641-.642A.641.641,0,0,0,194.141,239.783Z" transform="translate(-187.085 -232.085)" fill="#5f7000"/>
        <path id="Trazado_910857" data-name="Trazado 910857" d="M176.141,270a.642.642,0,1,0,.642.642A.641.641,0,0,0,176.141,270Z" transform="translate(-171.651 -259.094)" fill="#5f7000"/>
        <path id="Trazado_910858" data-name="Trazado 910858" d="M221.141,292.5a.642.642,0,1,0,.642.642A.641.641,0,0,0,221.141,292.5Z" transform="translate(-210.236 -278.387)" fill="#5f7000"/>
        <path id="Trazado_910859" data-name="Trazado 910859" d="M230.142,266.783a.642.642,0,1,0-.642-.642A.641.641,0,0,0,230.142,266.783Z" transform="translate(-217.953 -255.236)" fill="#5f7000"/>
      </g>
      <path id="Trazado_910860" data-name="Trazado 910860" d="M110.524,174.536l-1.495.914.669,1.094,1.72-1.052a18.248,18.248,0,0,0,6.794,4.268l-.491,1.962,1.244.311.488-1.952a8.757,8.757,0,0,0,1.691.178,6.568,6.568,0,0,0,1.945-.283l1.095,2.189,1.147-.574-1.065-2.131a5.841,5.841,0,0,0,1.2-.92,9.32,9.32,0,0,0,.757-.856l2,1.5.77-1.026-2.063-1.547a4.913,4.913,0,0,0,.583-2.029,4.416,4.416,0,0,0-1.4-3.392,11.029,11.029,0,0,0-1.048-.9l1.427-1.428-.907-.907-1.576,1.575c-.447-.3-.9-.595-1.354-.882a16.535,16.535,0,0,1-2.638-1.9,16.508,16.508,0,0,1-1.9-2.638c-.128-.2-.258-.4-.388-.606l1.7-1.7-.907-.907-1.521,1.52a12.964,12.964,0,0,0-1.429-1.761,4.125,4.125,0,0,0-1.729-1.024V157.5h-1.283v1.934l-.069,0a5.967,5.967,0,0,0-3.543,1.248l-2.35-2.349-.907.907,2.314,2.315a5.716,5.716,0,0,0-1.4,2.839l-2.029-.384-.238,1.261,2.168.41a9.652,9.652,0,0,0,.488,2.88A17.755,17.755,0,0,0,110.524,174.536Zm-1.386-12.327a4.861,4.861,0,0,1,3.364-1.5,3,3,0,0,1,2.173.847,19.27,19.27,0,0,1,2.366,3.237,17.182,17.182,0,0,0,2.074,2.858,17.107,17.107,0,0,0,2.858,2.074,19.258,19.258,0,0,1,3.236,2.366,3.169,3.169,0,0,1,1.023,2.42,4.931,4.931,0,0,1-1.672,3.117,4.646,4.646,0,0,1-3.415,1.343c-3.062,0-6.672-2.24-8.891-4.459a16.8,16.8,0,0,1-4.024-6.351C107.671,166.422,107.375,163.972,109.138,162.209Z" transform="translate(-89.477 -135.047)"/>
      <rect id="Rectángulo_405906" data-name="Rectángulo 405906" width="1.283" height="3.208" transform="translate(52.604 45.547)" fill="#ffff3d"/>
      <path id="Trazado_910861" data-name="Trazado 910861" d="M297,256.5v.962a2.248,2.248,0,0,0,2.245,2.245.963.963,0,0,1,.962.962v.962h1.283v-.962a2.248,2.248,0,0,0-2.245-2.245.963.963,0,0,1-.962-.962V256.5Z" transform="translate(-254.66 -219.934)" fill="#de6e52"/>
      <path id="Trazado_910862" data-name="Trazado 910862" d="M321.745,195.745a.963.963,0,0,1-.962.962H319.5v1.283h1.283a2.248,2.248,0,0,0,2.245-2.245.963.963,0,0,1,.962-.962h.641V193.5h-.641A2.248,2.248,0,0,0,321.745,195.745Z" transform="translate(-273.953 -165.915)" fill="#4f7bd6"/>
      <path id="Trazado_910863" data-name="Trazado 910863" d="M138.528,110.245a.963.963,0,0,1,.962-.962h.642V108h-.642a2.248,2.248,0,0,0-2.245,2.245.963.963,0,0,1-.962.962H135v1.283h1.283A2.248,2.248,0,0,0,138.528,110.245Z" transform="translate(-115.755 -92.604)"/>
      <g id="Grupo_1113456" data-name="Grupo 1113456" transform="translate(7.057)">
        <path id="Trazado_910864" data-name="Trazado 910864" d="M52.066,5.774h7.7V4.491h-7.7a1.284,1.284,0,0,1-1.283-1.283V2.566a1.284,1.284,0,0,1,1.283-1.283h.642a1.284,1.284,0,0,1,1.283,1.283h1.283A2.569,2.569,0,0,0,52.708,0h-.642A2.569,2.569,0,0,0,49.5,2.566v.642A2.569,2.569,0,0,0,52.066,5.774Z" transform="translate(-49.5)" fill="#7bcad4"/>
        <rect id="Rectángulo_405907" data-name="Rectángulo 405907" width="2.566" height="1.283" transform="translate(11.547 4.491)" fill="#7bcad4"/>
        <rect id="Rectángulo_405908" data-name="Rectángulo 405908" width="5.132" height="1.283" transform="translate(48.755 8.981)" fill="#7bcad4"/>
        <rect id="Rectángulo_405909" data-name="Rectángulo 405909" width="2.566" height="1.283" transform="translate(44.906 8.981)" fill="#7bcad4"/>
      </g>
      <g id="Grupo_1113457" data-name="Grupo 1113457" transform="translate(0 60.299)">
        <path id="Trazado_910865" data-name="Trazado 910865" d="M95.038,422.984H45v1.283h55.17v-1.283H95.038Z" transform="translate(-38.585 -422.981)" fill="#d18947"/>
        <path id="Trazado_910866" data-name="Trazado 910866" d="M444.849,423H441v1.283h5.132V423Z" transform="translate(-378.132 -422.997)" fill="#d18947"/>
        <rect id="Rectángulo_405910" data-name="Rectángulo 405910" width="4.491" height="1.283" transform="translate(6.415 2.569)" fill="#d18947"/>
        <rect id="Rectángulo_405911" data-name="Rectángulo 405911" width="3.208" height="1.283" transform="translate(12.189 5.135)" fill="#d18947"/>
        <rect id="Rectángulo_405912" data-name="Rectángulo 405912" width="3.208" height="1.283" transform="translate(14.755 2.569)" fill="#d18947"/>
        <rect id="Rectángulo_405913" data-name="Rectángulo 405913" width="4.491" height="1.283" transform="translate(59.66 2.569)" fill="#d18947"/>
        <rect id="Rectángulo_405914" data-name="Rectángulo 405914" width="5.774" height="1.283" transform="translate(52.604 5.135)" fill="#d18947"/>
        <rect id="Rectángulo_405915" data-name="Rectángulo 405915" width="3.849" height="1.283" transform="translate(48.113 2.569)" fill="#d18947"/>
        <path id="Trazado_910867" data-name="Trazado 910867" d="M5.132,423H0v1.283H5.132Z" transform="translate(0 -422.997)" fill="#d18947"/>
      </g>
      <path id="Trazado_910868" data-name="Trazado 910868" d="M107.311,45a21.812,21.812,0,1,0,21.811,21.811A21.836,21.836,0,0,0,107.311,45ZM92.557,57.189H93.84a.963.963,0,0,0,.962-.962,2.248,2.248,0,0,1,2.245-2.245h.642v1.283h-.642a.963.963,0,0,0-.962.962,2.248,2.248,0,0,1-2.245,2.245H92.557Zm19.5,25.532-2-1.5a9.276,9.276,0,0,1-.757.856,5.842,5.842,0,0,1-1.2.92l1.065,2.131-1.147.574-1.095-2.189a6.562,6.562,0,0,1-1.945.283,8.757,8.757,0,0,1-1.691-.178L102.8,85.57l-1.244-.311.491-1.962a18.246,18.246,0,0,1-6.794-4.268l-1.72,1.052-.669-1.094,1.495-.914a17.759,17.759,0,0,1-3.515-5.979,9.652,9.652,0,0,1-.488-2.88l-2.168-.41.238-1.261,2.029.384a5.715,5.715,0,0,1,1.4-2.839l-2.314-2.315.907-.907,2.35,2.349a5.967,5.967,0,0,1,3.543-1.248l.069,0V61.038h1.283v2.131a4.123,4.123,0,0,1,1.729,1.024,12.965,12.965,0,0,1,1.429,1.761l1.521-1.52.907.907-1.7,1.7c.13.2.26.4.388.606a16.5,16.5,0,0,0,1.9,2.638,16.545,16.545,0,0,0,2.638,1.9c.453.287.907.581,1.354.882l1.576-1.575.907.907L108.9,73.824a11.107,11.107,0,0,1,1.048.9,4.416,4.416,0,0,1,1.4,3.392,4.912,4.912,0,0,1-.583,2.029l2.063,1.547Zm2.832-15.392-1.259.248-.542-2.752c-.219.02-.436.033-.645.033a6.841,6.841,0,0,1-3.438-.889l-1.547,2.308-1.066-.715,1.565-2.334a7.392,7.392,0,0,1-1.883-2.427,7.305,7.305,0,0,1-.388-1.064l-2.741.541-.248-1.258,2.761-.545c-.02-.209-.041-.416-.041-.644a7,7,0,0,1,.422-2.4,6.839,6.839,0,0,1,.474-1.029L104,52.845l.714-1.066,2.328,1.56a6.933,6.933,0,0,1,2.435-1.879,6.768,6.768,0,0,1,1.064-.384L110,48.332l1.259-.248.544,2.758c.212-.02.424-.037.644-.037a6.823,6.823,0,0,1,3.44.883l1.545-2.3,1.066.714-1.563,2.332a7.575,7.575,0,0,1,1.881,2.43,7.352,7.352,0,0,1,.387,1.064l2.741-.541.248,1.258-2.761.545c.02.209.041.416.041.644a7,7,0,0,1-.422,2.4,6.84,6.84,0,0,1-.474,1.029l2.316,1.553-.714,1.066-2.328-1.56a6.933,6.933,0,0,1-2.435,1.879,6.827,6.827,0,0,1-1.064.384Zm5.251,12.954h-1.283v-.962a.963.963,0,0,0-.962-.962,2.248,2.248,0,0,1-2.245-2.245v-.962h1.283v.962a.963.963,0,0,0,.962.962,2.248,2.248,0,0,1,2.245,2.245Zm3.208-12.83a.963.963,0,0,0-.962.962,2.248,2.248,0,0,1-2.245,2.245h-1.283V69.377h1.283a.963.963,0,0,0,.962-.962,2.248,2.248,0,0,1,2.245-2.245h.642v1.283Z" transform="translate(-73.311 -38.585)" fill="#fff"/>
      <path id="Trazado_910869" data-name="Trazado 910869" d="M245.162,102.879a5.728,5.728,0,1,0-3.242,2.971A5.714,5.714,0,0,0,245.162,102.879Zm-6.651,1.341a.775.775,0,1,1,.775-.776A.776.776,0,0,1,238.511,104.22Zm0-3.876a1.55,1.55,0,1,1,1.55-1.55A1.55,1.55,0,0,1,238.511,100.344Zm4.2,1.417a1.1,1.1,0,1,1,1.1-1.1A1.1,1.1,0,0,1,242.708,101.761Z" transform="translate(-200.822 -81.206)" fill="#de6e52"/>
      <path id="Trazado_910870" data-name="Trazado 910870" d="M221.281,80.869l2.328,1.56.714-1.066-2.316-1.553a6.835,6.835,0,0,0,.474-1.029,7,7,0,0,0,.422-2.4c0-.228-.022-.434-.041-.644l2.761-.545-.248-1.258-2.741.541a7.317,7.317,0,0,0-.387-1.064,7.575,7.575,0,0,0-1.881-2.43l1.563-2.332-1.066-.714-1.545,2.3a6.823,6.823,0,0,0-3.44-.883c-.22,0-.433.018-.644.037l-.544-2.758-1.259.248.541,2.744a6.767,6.767,0,0,0-1.064.384,6.931,6.931,0,0,0-2.435,1.879l-2.328-1.56-.714,1.066,2.316,1.553a6.833,6.833,0,0,0-.474,1.029,7,7,0,0,0-.422,2.4c0,.228.022.434.041.644l-2.761.545.248,1.258,2.741-.541a7.269,7.269,0,0,0,.388,1.064,7.389,7.389,0,0,0,1.883,2.427l-1.565,2.334,1.066.715,1.547-2.308a6.841,6.841,0,0,0,3.438.889c.21,0,.427-.013.645-.033l.542,2.752,1.259-.248-.541-2.744a6.832,6.832,0,0,0,1.064-.384A6.935,6.935,0,0,0,221.281,80.869Zm-5.4,1.251a5.77,5.77,0,0,1-5.4-3.778,5.746,5.746,0,0,1,7.827-7.171,5.77,5.77,0,0,1,2.971,3.242,5.746,5.746,0,0,1-3.434,7.364A5.767,5.767,0,0,1,215.876,82.121Z" transform="translate(-176.745 -57.133)"/>
      <g id="Grupo_1113458" data-name="Grupo 1113458" transform="translate(36.138 16.037)">
        <ellipse id="Elipse_12725" data-name="Elipse 12725" cx="1.55" cy="1.55" rx="1.55" ry="1.55" fill="#fff"/>
        <ellipse id="Elipse_12726" data-name="Elipse 12726" cx="0.775" cy="0.775" rx="0.775" ry="0.775" transform="translate(0.775 5.427)" fill="#fff"/>
        <path id="Trazado_910871" data-name="Trazado 910871" d="M287.221,128.813a1.1,1.1,0,1,0,1.1,1.1A1.1,1.1,0,0,0,287.221,128.813Z" transform="translate(-281.473 -126.487)" fill="#fff"/>
      </g>
    </g>
  </g>
</svg>
