<svg xmlns="http://www.w3.org/2000/svg" xmlns:xlink="http://www.w3.org/1999/xlink" width="190" height="154" viewBox="0 0 190 154">
  <defs>
    <clipPath id="clip-path">
      <rect id="Rect치ngulo_405102" data-name="Rect치ngulo 405102" width="30" height="154" transform="translate(8)" fill="#fff" stroke="#707070" stroke-width="1"/>
    </clipPath>
  </defs>
  <g id="Grupo_1112887" data-name="Grupo 1112887" transform="translate(-1125.074 -2501)">
    <g id="Grupo_1112885" data-name="Grupo 1112885" transform="translate(840 1293)">
      <g id="Grupo_1112114" data-name="Grupo 1112114" transform="translate(285.074 1208)">
        <g id="Grupo_1111712" data-name="Grupo 1111712">
          <g id="Grupo_1111655" data-name="Grupo 1111655">
            <rect id="Rect치ngulo_405035" data-name="Rect치ngulo 405035" width="160" height="154" fill="#e6f8db"/>
          </g>
        </g>
        <g id="Enmascarar_grupo_1101780" data-name="Enmascarar grupo 1101780" transform="translate(152)" clip-path="url(#clip-path)">
          <g id="Grupo_1111713" data-name="Grupo 1111713" transform="translate(-0.148)">
            <path id="Trazado_903846" data-name="Trazado 903846" d="M0,1C4.721,1,4.721,11.922,9.442,11.922S14.164,1,18.886,1s4.722,10.922,9.443,10.922S33.051,1,37.773,1s4.721,10.922,9.442,10.922S51.938,1,56.661,1,61.381,11.922,66.1,11.922,70.827,1,75.552,1,80.276,11.922,85,11.922" transform="translate(0.5 -1)" fill="none" stroke="#98e465" stroke-miterlimit="10" stroke-width="2"/>
            <path id="Trazado_903847" data-name="Trazado 903847" d="M0,13.79c4.721,0,4.721,10.922,9.442,10.922S14.164,13.79,18.886,13.79s4.722,10.922,9.443,10.922S33.051,13.79,37.773,13.79s4.721,10.922,9.442,10.922S51.938,13.79,56.661,13.79,61.381,24.712,66.1,24.712,70.827,13.79,75.552,13.79,80.276,24.712,85,24.712" transform="translate(0 0.541)" fill="none" stroke="#98e465" stroke-miterlimit="10" stroke-width="2"/>
            <path id="Trazado_903848" data-name="Trazado 903848" d="M0,26.58C4.721,26.58,4.721,37.5,9.442,37.5S14.164,26.58,18.886,26.58,23.607,37.5,28.329,37.5,33.051,26.58,37.773,26.58,42.494,37.5,47.215,37.5,51.938,26.58,56.661,26.58,61.381,37.5,66.1,37.5,70.827,26.58,75.552,26.58,80.276,37.5,85,37.5" transform="translate(0 1.911)" fill="none" stroke="#98e465" stroke-miterlimit="10" stroke-width="2"/>
            <path id="Trazado_903849" data-name="Trazado 903849" d="M0,1C4.721,1,4.721,11.922,9.442,11.922S14.164,1,18.886,1s4.722,10.922,9.443,10.922S33.051,1,37.773,1s4.721,10.922,9.442,10.922S51.938,1,56.661,1,61.381,11.922,66.1,11.922,70.827,1,75.552,1,80.276,11.922,85,11.922" transform="translate(0 43.429)" fill="none" stroke="#98e465" stroke-miterlimit="10" stroke-width="2"/>
            <path id="Trazado_903850" data-name="Trazado 903850" d="M0,13.79c4.721,0,4.721,10.922,9.442,10.922S14.164,13.79,18.886,13.79s4.722,10.922,9.443,10.922S33.051,13.79,37.773,13.79s4.721,10.922,9.442,10.922S51.938,13.79,56.661,13.79,61.381,24.712,66.1,24.712,70.827,13.79,75.552,13.79,80.276,24.712,85,24.712" transform="translate(0.5 46.44)" fill="none" stroke="#98e465" stroke-miterlimit="10" stroke-width="2"/>
            <path id="Trazado_903851" data-name="Trazado 903851" d="M0,26.58C4.721,26.58,4.721,37.5,9.442,37.5S14.164,26.58,18.886,26.58,23.607,37.5,28.329,37.5,33.051,26.58,37.773,26.58,42.494,37.5,47.215,37.5,51.938,26.58,56.661,26.58,61.381,37.5,66.1,37.5,70.827,26.58,75.552,26.58,80.276,37.5,85,37.5" transform="translate(0.5 49.587)" fill="none" stroke="#98e465" stroke-miterlimit="10" stroke-width="2"/>
          </g>
          <g id="Grupo_1112886" data-name="Grupo 1112886" transform="translate(1.852 92.4)">
            <path id="Trazado_903846-2" data-name="Trazado 903846" d="M0,1C4.721,1,4.721,11.922,9.442,11.922S14.164,1,18.886,1s4.722,10.922,9.443,10.922S33.051,1,37.773,1s4.721,10.922,9.442,10.922S51.938,1,56.661,1,61.381,11.922,66.1,11.922,70.827,1,75.552,1,80.276,11.922,85,11.922" transform="translate(0.5 -1)" fill="none" stroke="#98e465" stroke-miterlimit="10" stroke-width="2"/>
            <path id="Trazado_903847-2" data-name="Trazado 903847" d="M0,13.79c4.721,0,4.721,10.922,9.442,10.922S14.164,13.79,18.886,13.79s4.722,10.922,9.443,10.922S33.051,13.79,37.773,13.79s4.721,10.922,9.442,10.922S51.938,13.79,56.661,13.79,61.381,24.712,66.1,24.712,70.827,13.79,75.552,13.79,80.276,24.712,85,24.712" transform="translate(0 0.541)" fill="none" stroke="#98e465" stroke-miterlimit="10" stroke-width="2"/>
            <path id="Trazado_903848-2" data-name="Trazado 903848" d="M0,26.58C4.721,26.58,4.721,37.5,9.442,37.5S14.164,26.58,18.886,26.58,23.607,37.5,28.329,37.5,33.051,26.58,37.773,26.58,42.494,37.5,47.215,37.5,51.938,26.58,56.661,26.58,61.381,37.5,66.1,37.5,70.827,26.58,75.552,26.58,80.276,37.5,85,37.5" transform="translate(0 1.911)" fill="none" stroke="#98e465" stroke-miterlimit="10" stroke-width="2"/>
            <path id="Trazado_903849-2" data-name="Trazado 903849" d="M0,1C4.721,1,4.721,11.922,9.442,11.922S14.164,1,18.886,1s4.722,10.922,9.443,10.922S33.051,1,37.773,1s4.721,10.922,9.442,10.922S51.938,1,56.661,1,61.381,11.922,66.1,11.922,70.827,1,75.552,1,80.276,11.922,85,11.922" transform="translate(0 43.429)" fill="none" stroke="#98e465" stroke-miterlimit="10" stroke-width="2"/>
            <path id="Trazado_903850-2" data-name="Trazado 903850" d="M0,13.79c4.721,0,4.721,10.922,9.442,10.922S14.164,13.79,18.886,13.79s4.722,10.922,9.443,10.922S33.051,13.79,37.773,13.79s4.721,10.922,9.442,10.922S51.938,13.79,56.661,13.79,61.381,24.712,66.1,24.712,70.827,13.79,75.552,13.79,80.276,24.712,85,24.712" transform="translate(0.5 46.44)" fill="none" stroke="#98e465" stroke-miterlimit="10" stroke-width="2"/>
            <path id="Trazado_903851-2" data-name="Trazado 903851" d="M0,26.58C4.721,26.58,4.721,37.5,9.442,37.5S14.164,26.58,18.886,26.58,23.607,37.5,28.329,37.5,33.051,26.58,37.773,26.58,42.494,37.5,47.215,37.5,51.938,26.58,56.661,26.58,61.381,37.5,66.1,37.5,70.827,26.58,75.552,26.58,80.276,37.5,85,37.5" transform="translate(0.5 49.587)" fill="none" stroke="#98e465" stroke-miterlimit="10" stroke-width="2"/>
          </g>
        </g>
      </g>
    </g>
    <g id="Layer_8" data-name="Layer 8" transform="translate(1169.996 2536.465)">
      <path id="Trazado_909941" data-name="Trazado 909941" d="M25.145,29.585a5.192,5.192,0,0,0-10.384,0A5.139,5.139,0,0,0,14.977,31a5.266,5.266,0,1,0,6.054,3.658A5.192,5.192,0,0,0,25.145,29.585Z" transform="translate(3.195 7.27)" fill="#bbcff2"/>
      <path id="Trazado_909942" data-name="Trazado 909942" d="M16.507,18.961l9.237,12.316a2.19,2.19,0,0,0,1.752.876h0a2.191,2.191,0,0,0,2.127-2.717L24.215,7.555A2.584,2.584,0,0,1,25.84,4.5l.042-.016a2.586,2.586,0,0,1,3.383,1.763l5.789,21.677a2.19,2.19,0,0,0,2.121,1.628h.212a2.191,2.191,0,0,0,2.182-1.992L41.774,3.351A2.587,2.587,0,0,1,44.338,1h0a2.586,2.586,0,0,1,2.571,2.819L44.79,27.167a2.191,2.191,0,0,0,2.182,2.39h.095a2.19,2.19,0,0,0,1.989-1.271l9.259-20.01a2.587,2.587,0,0,1,3.231-1.343l.13.047a2.584,2.584,0,0,1,1.511,3.4L55.339,29.686a5.192,5.192,0,0,0-.382,1.955v2.373a2.6,2.6,0,0,0,3.558,2.412L62,35.036a5.279,5.279,0,0,1,7.235,4.9h0L65.76,41.325A20.768,20.768,0,0,0,52.984,57.094l-.492,2.856q-.13.762-.319,1.512l-5,20.015H21.209l3.716-19.819a10.4,10.4,0,0,0,.178-1.915V48.5A23.367,23.367,0,0,0,20.99,35.253L12.043,22.242a2.586,2.586,0,0,1,.3-3.293l.26-.26a2.586,2.586,0,0,1,3.9.271Z" transform="translate(3.454 0.299)" fill="#f9b995"/>
      <path id="Trazado_909943" data-name="Trazado 909943" d="M52.278,44.192a5.192,5.192,0,0,0-10.384,0,5.139,5.139,0,0,0,.219,1.414,5.192,5.192,0,1,0,6.271,5.077,5.139,5.139,0,0,0-.219-1.414A5.192,5.192,0,0,0,52.278,44.192Z" transform="translate(11.324 11.623)" fill="#dbe6fd"/>
      <path id="Trazado_909944" data-name="Trazado 909944" d="M48.382,46.207c-.049,1.233-.689,2.627-2.714,4.335a2.142,2.142,0,0,1-.685.389A5.212,5.212,0,0,1,38.387,48a5.392,5.392,0,0,0,.968,5.55,2.8,2.8,0,0,0,.787.7,5.273,5.273,0,0,0,8.24-4.312,5.139,5.139,0,0,0-.219-1.414,5.175,5.175,0,0,0,3.725-7.031,5.217,5.217,0,0,1-2.144,2.514A2.71,2.71,0,0,0,48.382,46.207Z" transform="translate(11.327 12.367)" fill="#bbcff2"/>
      <path id="Trazado_909945" data-name="Trazado 909945" d="M50.791,31.49a2.579,2.579,0,0,0-.445-1.454,2.588,2.588,0,1,0-2.8-4.141,2.6,2.6,0,1,0-1.947,4.3,2.437,2.437,0,0,0,.38-.039,2.6,2.6,0,1,0,4.812,1.337Z" transform="translate(12.811 7.451)" fill="#bbcff2"/>
      <circle id="Elipse_12671" data-name="Elipse 12671" cx="3.894" cy="3.894" r="3.894" transform="translate(24.662 58.411)" fill="#bbcff2"/>
      <path id="Trazado_909946" data-name="Trazado 909946" d="M60,19.4l-7.48,14.015a1.4,1.4,0,0,1-1.232.739h0a1.4,1.4,0,0,1-1.36-1.712L55.676,7.8a2.552,2.552,0,0,0-1.613-2.985l-.091-.034a2.553,2.553,0,0,0-3.35,1.777L44.76,29.9a2.187,2.187,0,0,1-2.121,1.655h0a2.188,2.188,0,0,1-2.188-2.188V5.553A2.553,2.553,0,0,0,37.9,3h-.086a2.553,2.553,0,0,0-2.553,2.553V29.368a2.188,2.188,0,0,1-2.188,2.188h-.178a2.186,2.186,0,0,1-2.047-1.428L22.695,7.916a2.554,2.554,0,0,0-3.272-1.521l-.193.07a2.554,2.554,0,0,0-1.558,3.163l7.2,23v.453a2.6,2.6,0,0,1-3.741,2.336L14.991,32.4A4.852,4.852,0,0,0,8,36.748H8l5.688,2.793a23.364,23.364,0,0,1,12.85,17.844l3.528,23.5H53.43L51.224,65.824a10.394,10.394,0,0,1,1.016-5.932l.093-.188a10.376,10.376,0,0,0,1.1-4.639V48.919a23.371,23.371,0,0,1,2.607-10.726l8.487-16.42a2.554,2.554,0,0,0-.628-3.128h0A2.553,2.553,0,0,0,60,19.4Z" transform="translate(2.384 0.895)" fill="#ffd3b6"/>
      <path id="Trazado_909947" data-name="Trazado 909947" d="M52.859,70.335a21.946,21.946,0,0,1-21.7-18.69l-.721-4.8A23.364,23.364,0,0,0,17.586,29L11.894,26.2a4.888,4.888,0,0,1,.088-.881A4.849,4.849,0,0,0,8,30.1l5.688,2.793a23.364,23.364,0,0,1,12.85,17.844l3.528,23.5H53.43Z" transform="translate(2.384 7.547)" fill="#f9b995"/>
      <path id="Trazado_909948" data-name="Trazado 909948" d="M40.791,39.49a2.579,2.579,0,0,0-.445-1.454,2.588,2.588,0,1,0-2.8-4.141,2.6,2.6,0,1,0-1.947,4.3,2.438,2.438,0,0,0,.38-.039,2.6,2.6,0,1,0,4.812,1.337Z" transform="translate(9.831 9.835)" fill="#dbe6fd"/>
      <path id="Trazado_909949" data-name="Trazado 909949" d="M10.791,52.205a2.6,2.6,0,0,0-.445-1.454,2.588,2.588,0,1,0-2.8-4.141,2.6,2.6,0,1,0-1.947,4.3,2.452,2.452,0,0,0,.38-.039,2.6,2.6,0,1,0,4.812,1.337Z" transform="translate(0.891 13.625)" fill="#dbe6fd"/>
      <path id="Trazado_909950" data-name="Trazado 909950" d="M8.192,50.907a2.58,2.58,0,0,1,.38-1.337,2.451,2.451,0,0,1-.38.039,2.579,2.579,0,0,1-2.257-3.856,2.416,2.416,0,0,0-.339-.038,2.6,2.6,0,1,0,0,5.192,2.452,2.452,0,0,0,.38-.039,2.586,2.586,0,1,0,4.47,2.6,2.588,2.588,0,0,1-2.255-2.557Z" transform="translate(0.894 13.625)" fill="#bbcff2"/>
      <circle id="Elipse_12672" data-name="Elipse 12672" cx="3.894" cy="3.894" r="3.894" transform="translate(28.556 40.239)" fill="#dbe6fd"/>
      <circle id="Elipse_12673" data-name="Elipse 12673" cx="3.894" cy="3.894" r="3.894" transform="translate(1.298 23.365)" fill="#dbe6fd"/>
      <path id="Trazado_909951" data-name="Trazado 909951" d="M62.49,4.3a2.579,2.579,0,0,0-1.454.445,2.588,2.588,0,1,0-4.141,2.8,2.6,2.6,0,1,0,4.3,1.947,2.437,2.437,0,0,0-.039-.38A2.6,2.6,0,1,0,62.49,4.3Z" transform="translate(16.689 0.894)" fill="#dbe6fd"/>
      <circle id="Elipse_12674" data-name="Elipse 12674" cx="3.894" cy="3.894" r="3.894" transform="translate(41.129 27.259)" fill="#dbe6fd"/>
      <path id="Trazado_909952" data-name="Trazado 909952" d="M38.588,26.177a3.85,3.85,0,0,1-3.677-5.125,3.894,3.894,0,1,0,4.35,5.062,3.961,3.961,0,0,1-.672.062Z" transform="translate(9.438 6.275)" fill="#bbcff2"/>
      <path id="Trazado_909953" data-name="Trazado 909953" d="M38.192,38.192a2.58,2.58,0,0,1,.38-1.337,2.436,2.436,0,0,1-.38.039,2.579,2.579,0,0,1-2.257-3.856A2.625,2.625,0,0,0,35.6,33a2.6,2.6,0,1,0,0,5.192,2.437,2.437,0,0,0,.38-.039,2.586,2.586,0,1,0,4.47,2.6A2.587,2.587,0,0,1,38.192,38.192Z" transform="translate(9.834 9.835)" fill="#bbcff2"/>
      <path id="Trazado_909954" data-name="Trazado 909954" d="M58.6,8.192a2.577,2.577,0,0,1,.9-1.947,2.543,2.543,0,0,1-.565-3.192A2.548,2.548,0,0,0,58.6,3a2.586,2.586,0,0,0-1.7,4.543,2.587,2.587,0,1,0,3.955,3.21A2.587,2.587,0,0,1,58.6,8.192Z" transform="translate(16.689 0.895)" fill="#bbcff2"/>
      <path id="Trazado_909955" data-name="Trazado 909955" d="M4.9,19.3a3.845,3.845,0,0,1,.231-1.275C5.051,18.018,4.977,18,4.9,18a3.894,3.894,0,1,0,3.663,5.169A3.884,3.884,0,0,1,4.9,19.3Z" transform="translate(0.294 5.365)" fill="#bbcff2"/>
      <path id="Trazado_909956" data-name="Trazado 909956" d="M25.9,32.3a3.845,3.845,0,0,1,.231-1.275c-.078,0-.152-.023-.231-.023a3.894,3.894,0,1,0,3.663,5.169A3.884,3.884,0,0,1,25.9,32.3Z" transform="translate(6.552 9.239)" fill="#bbcff2"/>
      <path id="Trazado_909957" data-name="Trazado 909957" d="M41.786,36.16a1.353,1.353,0,0,1-.286-.031,1.3,1.3,0,0,1-.981-1.558c.192-.854.426-1.707.7-2.535a1.3,1.3,0,1,1,2.466.807c-.245.75-.458,1.523-.632,2.3A1.3,1.3,0,0,1,41.786,36.16Z" transform="translate(12.066 9.271)" fill="#fff"/>
      <path id="Trazado_909958" data-name="Trazado 909958" d="M69.014,34.794a6.55,6.55,0,0,0-5.115-.966,3.9,3.9,0,0,0-2.16-2.366l4.237-8.2a3.811,3.811,0,0,0-2.88-5.559l2.657-6.542A3.884,3.884,0,0,0,63.48,6.051l-.13-.045A3.864,3.864,0,0,0,58.5,8.025l-2.091,4.534.832-3.57A3.9,3.9,0,0,0,49.66,7.14l-4.82,19.194a5.167,5.167,0,0,0-1.9-.373,4.869,4.869,0,0,0-.536.055L44.424,3.765a1.286,1.286,0,0,1,2.231-.752A1.267,1.267,0,0,1,46.988,4l-.1,1.038a1.3,1.3,0,1,0,2.586.235l.1-1.038a3.884,3.884,0,0,0-7.736-.7L41.714,4.9a3.91,3.91,0,0,0-3.6-2.3,3.855,3.855,0,0,0-3.851,3.851V15.1L31.886,6.216a3.912,3.912,0,0,0-7.512-.108,1.3,1.3,0,0,0,2.484.754,1.312,1.312,0,0,1,2.523.023S34.24,25,34.262,25.058v5.21a.892.892,0,0,1-.89.89h-.178a.893.893,0,0,1-.835-.583L24.21,8.363A3.859,3.859,0,0,0,19.278,6.07l-.192.07A3.845,3.845,0,0,0,16.727,10.9l2.505,8-.319-.427a3.884,3.884,0,0,0-5.853-.415l-.266.266a3.882,3.882,0,0,0-.454,4.945l7.388,10.746-3.867-1.9A6.149,6.149,0,0,0,7,37.643a1.3,1.3,0,0,0,.726,1.168l3.589,1.763a6.48,6.48,0,0,0,10.093,7.683,22.055,22.055,0,0,1,3.943,8.986,5.167,5.167,0,0,0-1.3,9.629L21.3,81.539a1.3,1.3,0,0,0,1.273,1.534H53.728a1.3,1.3,0,0,0,1.284-1.486L53.127,68.725a6.477,6.477,0,0,0,5.793-6.42,5.3,5.3,0,0,0-.026-.533,6.49,6.49,0,0,0-.075-11.942,19.549,19.549,0,0,1,8.789-6.995l3.475-1.385a1.3,1.3,0,0,0,.818-1.211A6.574,6.574,0,0,0,69.014,34.794Zm-7.5.253a1.3,1.3,0,0,1-.874,1.216,1.3,1.3,0,0,0-.649,1.947,1.3,1.3,0,1,1-2.308,1.084l2.835-5.487a1.28,1.28,0,0,1,1,1.24ZM53.56,24.9l7.3-15.777a1.281,1.281,0,0,1,1.611-.667l.123.044a1.29,1.29,0,0,1,.753,1.7L59.862,18.77a3.84,3.84,0,0,0-.706.909l-7.562,14.07S53.548,24.923,53.56,24.9Zm-8.027,6.256a2.6,2.6,0,1,1-2.6-2.6A2.6,2.6,0,0,1,45.533,31.153ZM14.63,20.167,14.9,19.9a1.286,1.286,0,0,1,1.941.139l4.725,6.3,2.313,7.382v.26a1.233,1.233,0,0,1-.389.924l-.051-.077L14.48,21.807a1.289,1.289,0,0,1,.149-1.641Zm2.538,27.073a3.894,3.894,0,0,1-3.894-3.894,3.852,3.852,0,0,1,.365-1.624,22.043,22.043,0,0,1,6.093,4.543A3.894,3.894,0,0,1,17.167,47.239Zm8.594,12.6.759,5.062H26.47a2.6,2.6,0,0,1-2.6-2.6A2.57,2.57,0,0,1,25.761,59.839Zm.814,7.648c.112,0,.219-.021.33-.03l1.952,13.02H24.134Zm4.906,12.991-3.355-22.37A24.618,24.618,0,0,0,14.558,39.272l-4.881-2.4a3.558,3.558,0,0,1,5.039-2.422l6.142,3.018a3.894,3.894,0,0,0,5.611-3.5,7.822,7.822,0,0,0-.06-.841l-7.209-23a1.255,1.255,0,0,1,.779-1.555l.192-.07a1.255,1.255,0,0,1,1.607.748l8.139,22.208a3.5,3.5,0,0,0,3.272,2.284h.178a3.49,3.49,0,0,0,3.486-3.486V6.448A1.279,1.279,0,0,1,38.2,5.193,1.256,1.256,0,0,1,39.45,6.448V27.332a5.192,5.192,0,1,0,7.632.729l5.1-20.284a1.24,1.24,0,0,1,.63-.8,1.306,1.306,0,0,1,1.109-.038A1.258,1.258,0,0,1,54.71,8.4L48.969,33.041a2.695,2.695,0,0,0,5,1.877L61.446,20.9a1.255,1.255,0,0,1,2.222,1.168L55.184,38.491A24.76,24.76,0,0,0,52.43,49.813V55.96a9.126,9.126,0,0,1-.959,4.064l-.095.187a11.682,11.682,0,0,0-1.138,6.7l1.989,13.567ZM60.219,55.815a3.908,3.908,0,0,1-3.084,3.807,1.3,1.3,0,0,0-.98,1.625,3.837,3.837,0,0,1,.17,1.058,3.885,3.885,0,0,1-3.534,3.858,9.038,9.038,0,0,1,.909-4.791l.093-.188a11.747,11.747,0,0,0,1.234-5.225v-3.79a3.834,3.834,0,0,1,5.192,3.646Zm6.429-15.4a22.147,22.147,0,0,0-10.593,8.923,6.62,6.62,0,0,0-1.018.119,22.171,22.171,0,0,1,1.437-7.493A3.894,3.894,0,0,0,62.7,38.03a3.894,3.894,0,0,0,1.08-1.465l.061-.025a3.989,3.989,0,0,1,5.37,2.856Z" transform="translate(2.086 0)"/>
      <path id="Trazado_909959" data-name="Trazado 909959" d="M43.683,35.894A3.894,3.894,0,0,0,39.789,32a3.854,3.854,0,0,0-1.947.531A3.854,3.854,0,0,0,35.895,32,3.894,3.894,0,0,0,34.6,39.569c0,.073-.006.145-.006.219a3.894,3.894,0,1,0,7.68-.909A3.88,3.88,0,0,0,43.683,35.894Zm-3.47,1.216a1.3,1.3,0,0,0-.649,1.947,1.3,1.3,0,1,1-2.371.731,1.278,1.278,0,0,1,.193-.666,1.3,1.3,0,0,0-1.123-1.966,1.438,1.438,0,0,0-.2.014,1.294,1.294,0,1,1,.8-2.122,1.34,1.34,0,0,0,1.955,0,1.284,1.284,0,1,1,1.394,2.063Z" transform="translate(9.536 9.537)"/>
      <path id="Trazado_909960" data-name="Trazado 909960" d="M9.789,44.715a3.845,3.845,0,0,0-1.947.531A3.834,3.834,0,0,0,5.9,44.715a3.894,3.894,0,0,0-1.3,7.567V52.5a3.894,3.894,0,1,0,7.682-.909,3.886,3.886,0,0,0-2.49-6.879Zm.426,5.109a1.3,1.3,0,0,0-.649,1.947,1.3,1.3,0,1,1-2.181.06,1.3,1.3,0,0,0-1.12-1.968,1.259,1.259,0,0,0-.2.016A1.3,1.3,0,1,1,5.9,47.311a1.286,1.286,0,0,1,.97.45,1.3,1.3,0,0,0,.977.445h0a1.3,1.3,0,0,0,.977-.444,1.29,1.29,0,1,1,1.4,2.061Z" transform="translate(0.595 13.327)"/>
      <path id="Trazado_909961" data-name="Trazado 909961" d="M26.192,30a5.192,5.192,0,1,0,5.192,5.192A5.192,5.192,0,0,0,26.192,30Zm0,7.788a2.6,2.6,0,1,1,2.6-2.6A2.6,2.6,0,0,1,26.192,37.788Z" transform="translate(6.258 8.941)"/>
      <path id="Trazado_909962" data-name="Trazado 909962" d="M10.384,22.192a5.192,5.192,0,1,0-5.192,5.192A5.192,5.192,0,0,0,10.384,22.192Zm-7.788,0a2.6,2.6,0,1,1,2.6,2.6A2.6,2.6,0,0,1,2.6,22.192Z" transform="translate(0 5.067)"/>
      <path id="Trazado_909963" data-name="Trazado 909963" d="M62.79,3.3a3.894,3.894,0,0,0-.909.108,3.884,3.884,0,0,0-6.349,4.435A3.854,3.854,0,0,0,55,9.792a3.894,3.894,0,0,0,7.569,1.292A3.894,3.894,0,1,0,62.79,3.3Zm-.666,5a1.3,1.3,0,0,0-1.952,1.319,1.083,1.083,0,0,1,.022.173,1.3,1.3,0,1,1-2.144-.97,1.3,1.3,0,0,0,0-1.955,1.284,1.284,0,1,1,2.063-1.394,1.3,1.3,0,0,0,1.947.649A1.289,1.289,0,1,1,62.124,8.3Z" transform="translate(16.389 0.593)"/>
      <path id="Trazado_909964" data-name="Trazado 909964" d="M13.3,40A1.3,1.3,0,0,0,12,41.3V46.49a1.3,1.3,0,0,0,2.6,0V41.3A1.3,1.3,0,0,0,13.3,40Z" transform="translate(3.576 11.921)"/>
      <path id="Trazado_909965" data-name="Trazado 909965" d="M16.3,40A1.3,1.3,0,0,0,15,41.3V46.49a1.3,1.3,0,0,0,2.6,0V41.3A1.3,1.3,0,0,0,16.3,40Z" transform="translate(4.47 11.921)"/>
      <path id="Trazado_909966" data-name="Trazado 909966" d="M49.3,50A1.3,1.3,0,0,0,48,51.3V56.49a1.3,1.3,0,0,0,2.6,0V51.3A1.3,1.3,0,0,0,49.3,50Z" transform="translate(14.305 14.902)"/>
      <path id="Trazado_909967" data-name="Trazado 909967" d="M52.3,50A1.3,1.3,0,0,0,51,51.3V56.49a1.3,1.3,0,0,0,2.6,0V51.3A1.3,1.3,0,0,0,52.3,50Z" transform="translate(15.199 14.902)"/>
    </g>
  </g>
</svg>
