<svg xmlns="http://www.w3.org/2000/svg" width="113" height="113" viewBox="0 0 113 113">
  <g id="cultivos_2_" data-name="cultivos (2)" transform="translate(0)">
    <path id="Trazado_910993" data-name="Trazado 910993" d="M113.879,481.121H10.811a3.311,3.311,0,0,1,0-6.621H113.879a3.311,3.311,0,0,1,0,6.621Zm0,0" transform="translate(-5.845 -369.776)" fill="#6fe036"/>
    <path id="Trazado_910994" data-name="Trazado 910994" d="M466.121,474.5H459.5a3.311,3.311,0,0,1,0,6.621h6.621a3.311,3.311,0,0,0,0-6.621Zm0,0" transform="translate(-358.087 -369.776)" fill="#66cf32"/>
    <path id="Trazado_910995" data-name="Trazado 910995" d="M222.484,427.742H196v-5.4a7.845,7.845,0,0,1,7.844-7.844h10.795a7.845,7.845,0,0,1,7.845,7.844Zm0,0" transform="translate(-152.743 -323.019)" fill="#bf6724"/>
    <path id="Trazado_910996" data-name="Trazado 910996" d="M257.078,414.5h-6.621a7.845,7.845,0,0,1,7.844,7.844v5.4h6.621v-5.4A7.845,7.845,0,0,0,257.078,414.5Zm0,0" transform="translate(-195.181 -323.019)" fill="#a35418"/>
    <path id="Trazado_910997" data-name="Trazado 910997" d="M50.484,427.742H24v-5.4a7.845,7.845,0,0,1,7.844-7.844H42.639a7.845,7.845,0,0,1,7.845,7.844Zm0,0" transform="translate(-18.703 -323.019)" fill="#bf6724"/>
    <path id="Trazado_910998" data-name="Trazado 910998" d="M85.078,414.5H78.457a7.845,7.845,0,0,1,7.844,7.844v5.4h6.621v-5.4A7.845,7.845,0,0,0,85.078,414.5Zm0,0" transform="translate(-61.142 -323.019)" fill="#a35418"/>
    <path id="Trazado_910999" data-name="Trazado 910999" d="M394.484,427.742H368v-5.4a7.845,7.845,0,0,1,7.844-7.844h10.795a7.845,7.845,0,0,1,7.845,7.844Zm0,0" transform="translate(-286.782 -323.019)" fill="#bf6724"/>
    <path id="Trazado_911000" data-name="Trazado 911000" d="M429.078,414.5h-6.621a7.845,7.845,0,0,1,7.844,7.844v5.4h6.621v-5.4A7.845,7.845,0,0,0,429.078,414.5Zm0,0" transform="translate(-329.22 -323.019)" fill="#a35418"/>
    <path id="Trazado_911001" data-name="Trazado 911001" d="M203.008,241.254h-5.1A9.913,9.913,0,0,1,188,231.341v-4.273a.822.822,0,0,1,.822-.822H193.1a9.914,9.914,0,0,1,9.913,9.914Zm0,0" transform="translate(-146.508 -176.313)" fill="#6fe036"/>
    <path id="Trazado_911002" data-name="Trazado 911002" d="M194.221,226.246h-4.273a.821.821,0,0,0-.5.172,9.915,9.915,0,0,1,8.068,9.741v4.978a10,10,0,0,0,1.526.117h5.1v-5.1A9.914,9.914,0,0,0,194.221,226.246Zm0,0" transform="translate(-147.635 -176.313)" fill="#5cba2d"/>
    <path id="Trazado_911003" data-name="Trazado 911003" d="M256,241.254h5.1a9.913,9.913,0,0,0,9.913-9.913v-4.273a.822.822,0,0,0-.822-.822h-4.273A9.914,9.914,0,0,0,256,236.159Zm0,0" transform="translate(-199.5 -176.313)" fill="#6fe036"/>
    <path id="Trazado_911004" data-name="Trazado 911004" d="M270.185,226.246h-4.273a9.931,9.931,0,0,0-1.845.172.82.82,0,0,1,.319.65v4.273a9.916,9.916,0,0,1-8.387,9.8v.116h5.1a9.913,9.913,0,0,0,9.913-9.913v-4.273A.822.822,0,0,0,270.185,226.246Zm0,0" transform="translate(-199.5 -176.313)" fill="#5cba2d"/>
    <path id="Trazado_911005" data-name="Trazado 911005" d="M376.008,241.254h-5.1A9.913,9.913,0,0,1,361,231.341v-4.273a.822.822,0,0,1,.822-.822H366.1a9.914,9.914,0,0,1,9.913,9.914Zm0,0" transform="translate(-281.327 -176.313)" fill="#6fe036"/>
    <path id="Trazado_911006" data-name="Trazado 911006" d="M367.221,226.246h-4.273a.821.821,0,0,0-.5.172,9.915,9.915,0,0,1,8.068,9.741v4.978a10,10,0,0,0,1.526.117h5.1v-5.1a9.914,9.914,0,0,0-9.913-9.914Zm0,0" transform="translate(-282.453 -176.313)" fill="#5cba2d"/>
    <path id="Trazado_911007" data-name="Trazado 911007" d="M429,241.254h5.1a9.913,9.913,0,0,0,9.913-9.913v-4.273a.822.822,0,0,0-.822-.822h-4.273A9.914,9.914,0,0,0,429,236.159Zm0,0" transform="translate(-334.319 -176.313)" fill="#6fe036"/>
    <path id="Trazado_911008" data-name="Trazado 911008" d="M443.185,226.246h-4.273a9.931,9.931,0,0,0-1.845.172.82.82,0,0,1,.319.65v4.273a9.916,9.916,0,0,1-8.387,9.8v.116h5.1a9.913,9.913,0,0,0,9.913-9.913v-4.273A.822.822,0,0,0,443.185,226.246Zm0,0" transform="translate(-334.318 -176.313)" fill="#5cba2d"/>
    <path id="Trazado_911009" data-name="Trazado 911009" d="M30.008,241.254h-5.1A9.913,9.913,0,0,1,15,231.341v-4.273a.822.822,0,0,1,.822-.822H20.1a9.914,9.914,0,0,1,9.913,9.914Zm0,0" transform="translate(-11.69 -176.313)" fill="#6fe036"/>
    <path id="Trazado_911010" data-name="Trazado 911010" d="M21.221,226.246H16.949a.821.821,0,0,0-.5.172,9.915,9.915,0,0,1,8.068,9.741v4.978a10.005,10.005,0,0,0,1.526.117h5.1v-5.1a9.914,9.914,0,0,0-9.913-9.914Zm0,0" transform="translate(-12.816 -176.313)" fill="#5cba2d"/>
    <path id="Trazado_911011" data-name="Trazado 911011" d="M83,241.254h5.1a9.913,9.913,0,0,0,9.913-9.913v-4.273a.822.822,0,0,0-.822-.822H92.913A9.914,9.914,0,0,0,83,236.159Zm0,0" transform="translate(-64.682 -176.313)" fill="#6fe036"/>
    <path id="Trazado_911012" data-name="Trazado 911012" d="M97.185,226.246H92.912a9.931,9.931,0,0,0-1.845.172.82.82,0,0,1,.319.65v4.273a9.916,9.916,0,0,1-8.387,9.8v.116h5.1a9.913,9.913,0,0,0,9.913-9.913v-4.273A.822.822,0,0,0,97.185,226.246Zm0,0" transform="translate(-64.682 -176.313)" fill="#5cba2d"/>
    <path id="Trazado_911013" data-name="Trazado 911013" d="M225.742,282.168a6.621,6.621,0,1,1-6.621-6.621A6.621,6.621,0,0,1,225.742,282.168Zm0,0" transform="translate(-165.601 -214.733)" fill="#ff5622"/>
    <path id="Trazado_911014" data-name="Trazado 911014" d="M230.811,275.547a6.588,6.588,0,0,0-3.311.888,6.619,6.619,0,0,1,0,11.466,6.621,6.621,0,1,0,3.311-12.354Zm0,0" transform="translate(-177.29 -214.733)" fill="#e8491d"/>
    <path id="Trazado_911015" data-name="Trazado 911015" d="M398.742,282.168a6.621,6.621,0,1,1-6.621-6.621A6.621,6.621,0,0,1,398.742,282.168Zm0,0" transform="translate(-300.419 -214.733)" fill="#ff5622"/>
    <path id="Trazado_911016" data-name="Trazado 911016" d="M403.811,275.547a6.588,6.588,0,0,0-3.311.888,6.619,6.619,0,0,1,0,11.466,6.621,6.621,0,1,0,3.311-12.354Zm0,0" transform="translate(-312.109 -214.733)" fill="#e8491d"/>
    <path id="Trazado_911017" data-name="Trazado 911017" d="M51.742,282.168a6.621,6.621,0,1,1-6.621-6.621A6.621,6.621,0,0,1,51.742,282.168Zm0,0" transform="translate(-30.003 -214.733)" fill="#ff5622"/>
    <path id="Trazado_911018" data-name="Trazado 911018" d="M56.811,275.547a6.588,6.588,0,0,0-3.311.888,6.619,6.619,0,0,1,0,11.466,6.621,6.621,0,1,0,3.311-12.354Zm0,0" transform="translate(-41.693 -214.733)" fill="#e8491d"/>
    <path id="Trazado_911019" data-name="Trazado 911019" d="M156.066,37.957H89.414A4.414,4.414,0,0,1,85,33.543V11.914A4.414,4.414,0,0,1,89.414,7.5h66.652a4.414,4.414,0,0,1,4.414,4.414V33.543A4.414,4.414,0,0,1,156.066,37.957Zm0,0" transform="translate(-66.241 -5.845)" fill="#bdf9ff"/>
    <path id="Trazado_911020" data-name="Trazado 911020" d="M383.621,7.5H377a4.414,4.414,0,0,1,4.414,4.414V33.543A4.414,4.414,0,0,1,377,37.957h6.621a4.414,4.414,0,0,0,4.414-4.414V11.914A4.414,4.414,0,0,0,383.621,7.5Zm0,0" transform="translate(-293.795 -5.845)" fill="#8cf2ff"/>
    <path id="Trazado_911021" data-name="Trazado 911021" d="M142.3,39.593a.469.469,0,0,0,.728,0,5.5,5.5,0,0,1,4.216-2.093c2.711,0,4.58,2.661,4.58,5.762,0,3.546-2.487,7.733-8.928,11.393a.47.47,0,0,1-.462,0c-6.441-3.66-8.928-7.847-8.928-11.393,0-3.1,1.868-5.762,4.58-5.762a5.5,5.5,0,0,1,4.216,2.093Zm0,0" transform="translate(-104.037 -29.224)" fill="#ff5622"/>
    <path id="Trazado_911022" data-name="Trazado 911022" d="M167.89,37.5a5.283,5.283,0,0,0-3.567,1.416,6.533,6.533,0,0,1,1.525,4.345c0,2.912-1.68,6.257-5.849,9.388a29.065,29.065,0,0,0,3.079,2.005.47.47,0,0,0,.462,0c6.441-3.66,8.928-7.847,8.928-11.393,0-3.1-1.868-5.762-4.58-5.762Zm0,0" transform="translate(-124.688 -29.224)" fill="#e8491d"/>
    <path id="Trazado_911023" data-name="Trazado 911023" d="M109.358,273.72V269.8a9.51,9.51,0,0,0-9.5-9.5H96.337V244.76a8.275,8.275,0,0,0,3.642-6.854c0-.285-.015-.566-.042-.842A11.58,11.58,0,0,0,111.344,225.5v-4.273a2.481,2.481,0,0,0-2.479-2.477H104.6a11.573,11.573,0,0,0-9.914,5.612,11.573,11.573,0,0,0-9.914-5.612H80.5a2.481,2.481,0,0,0-2.479,2.477V225.5a11.5,11.5,0,0,0,5.762,10.008,8.275,8.275,0,0,0,9.245,10.568V260.3H89.063a9.443,9.443,0,0,0-3.783.784,1.655,1.655,0,0,0,1.319,3.036,6.149,6.149,0,0,1,2.464-.51H99.857a6.2,6.2,0,0,1,6.19,6.189v3.742H82.874V269.8a6.246,6.246,0,0,1,.194-1.546,1.655,1.655,0,1,0-3.206-.823,9.516,9.516,0,0,0-.3,2.369v3.742H71.4V269.8a9.511,9.511,0,0,0-9.5-9.5H58.155V244.76a8.275,8.275,0,0,0,3.642-6.854c0-.285-.015-.566-.042-.842A11.58,11.58,0,0,0,73.163,225.5v-4.273a2.481,2.481,0,0,0-2.479-2.477h-4.27a11.573,11.573,0,0,0-9.914,5.612,11.573,11.573,0,0,0-9.914-5.612h-4.27a2.481,2.481,0,0,0-2.479,2.477V225.5A11.5,11.5,0,0,0,45.6,235.508a8.275,8.275,0,0,0,9.245,10.568V260.3H51.1a9.51,9.51,0,0,0-9.5,9.5v3.742H33.436V269.8a9.51,9.51,0,0,0-9.5-9.5H19.973V244.6a8.268,8.268,0,0,0,3.421-6.7c0-.283-.015-.562-.042-.838h.059a11.553,11.553,0,0,0,3.44-.521,1.655,1.655,0,1,0-.983-3.161,8.279,8.279,0,0,1-2.457.371H22.275a8.347,8.347,0,0,0-2.3-2.548v-.893a8.267,8.267,0,0,1,8.259-8.257H31.67V225.5a8.247,8.247,0,0,1-1.147,4.2,1.655,1.655,0,0,0,2.848,1.687,11.558,11.558,0,0,0,1.609-5.889v-4.273A2.48,2.48,0,0,0,32.5,218.75h-4.27a11.574,11.574,0,0,0-9.914,5.612A11.574,11.574,0,0,0,8.4,218.75H4.133a2.48,2.48,0,0,0-2.479,2.476V225.5a11.554,11.554,0,0,0,5.576,9.9,8.272,8.272,0,0,0,9.432,10.639V260.3H13.141a9.51,9.51,0,0,0-9.5,9.5v3.923a4.965,4.965,0,0,0,1.324,9.751H108.034a4.965,4.965,0,0,0,1.324-9.751ZM104.6,222.06h3.438V225.5a8.268,8.268,0,0,1-8.259,8.259h-.916a8.349,8.349,0,0,0-2.523-2.705v-.735a8.267,8.267,0,0,1,8.259-8.257ZM81.329,225.5V222.06h3.438A8.266,8.266,0,0,1,93,229.733,8.259,8.259,0,0,0,85.36,232.6,8.211,8.211,0,0,1,81.329,225.5Zm5.407,12.408a4.966,4.966,0,1,1,4.966,4.966A4.972,4.972,0,0,1,86.736,237.906ZM66.414,222.06h3.438V225.5a8.268,8.268,0,0,1-8.259,8.259h-.916a8.349,8.349,0,0,0-2.523-2.705v-.735a8.267,8.267,0,0,1,8.259-8.257ZM43.147,225.5V222.06h3.438a8.266,8.266,0,0,1,8.236,7.673,8.259,8.259,0,0,0-7.643,2.862,8.211,8.211,0,0,1-4.031-7.1Zm5.407,12.408a4.966,4.966,0,1,1,4.966,4.966A4.972,4.972,0,0,1,48.554,237.906ZM4.965,225.5V222.06H8.4a8.267,8.267,0,0,1,8.239,7.713,8.248,8.248,0,0,0-7.789,2.734A8.249,8.249,0,0,1,4.965,225.5Zm5.187,12.408a4.966,4.966,0,1,1,4.966,4.966A4.972,4.972,0,0,1,10.152,237.906ZM44.913,269.8a6.2,6.2,0,0,1,6.189-6.189H61.9a6.2,6.2,0,0,1,6.189,6.189v3.742H44.913Zm-37.961,0a6.2,6.2,0,0,1,6.189-6.189h10.8a6.2,6.2,0,0,1,6.189,6.189v3.742H6.952ZM108.034,280.16H4.965a1.655,1.655,0,0,1,0-3.311H108.034a1.655,1.655,0,0,1,0,3.311Zm0,0" transform="translate(0 -170.471)"/>
    <path id="Trazado_911024" data-name="Trazado 911024" d="M83.569,33.768H115.24v8.514a1.655,1.655,0,0,0,3.311,0V33.768h16.874a1.655,1.655,0,1,0,0-3.311H83.569A2.761,2.761,0,0,1,80.811,27.7V6.069a2.761,2.761,0,0,1,2.759-2.759h66.652a2.761,2.761,0,0,1,2.759,2.759V27.7a2.761,2.761,0,0,1-2.759,2.759h-7.713a1.655,1.655,0,1,0,0,3.311h7.713a6.076,6.076,0,0,0,6.069-6.069V6.069A6.076,6.076,0,0,0,150.222,0H83.569A6.076,6.076,0,0,0,77.5,6.069V27.7A6.076,6.076,0,0,0,83.569,33.768Zm0,0" transform="translate(-60.396)"/>
    <path id="Trazado_911025" data-name="Trazado 911025" d="M136.814,31.755A6.87,6.87,0,0,0,132.235,30c-3.5,0-6.235,3.258-6.235,7.417,0,2.72,1.268,8,9.766,12.832a2.134,2.134,0,0,0,2.1,0c8.5-4.828,9.765-10.112,9.765-12.832,0-4.159-2.739-7.417-6.235-7.417a6.872,6.872,0,0,0-4.58,1.755Zm7.5,5.662c0,3.323-2.659,6.719-7.5,9.612-4.845-2.892-7.5-6.289-7.5-9.612,0-2.018,1.094-4.106,2.924-4.106a3.857,3.857,0,0,1,2.937,1.489v0a2.123,2.123,0,0,0,3.284,0,3.857,3.857,0,0,1,2.937-1.489C143.224,33.31,144.318,35.4,144.318,37.417Zm0,0" transform="translate(-98.192 -23.379)"/>
    <path id="Trazado_911026" data-name="Trazado 911026" d="M301.039,38.811a1.655,1.655,0,1,0,0-3.311H284.155a1.655,1.655,0,1,0,0,3.311Zm0,0" transform="translate(-220.152 -27.665)"/>
    <path id="Trazado_911027" data-name="Trazado 911027" d="M260,67.155a1.655,1.655,0,0,0,1.655,1.655H283.5a1.655,1.655,0,0,0,0-3.311h-21.85A1.655,1.655,0,0,0,260,67.155Zm0,0" transform="translate(-202.618 -51.044)"/>
    <path id="Trazado_911028" data-name="Trazado 911028" d="M261.655,98.811H283.5a1.655,1.655,0,0,0,0-3.311h-21.85a1.655,1.655,0,0,0,0,3.311Zm0,0" transform="translate(-202.618 -74.423)"/>
  </g>
</svg>
