<svg id="platanos" xmlns="http://www.w3.org/2000/svg" width="107.505" height="107.508" viewBox="0 0 107.505 107.508">
  <g id="Grupo_1113541" data-name="Grupo 1113541" transform="translate(1.584 1.575)">
    <g id="Grupo_1113537" data-name="Grupo 1113537" transform="translate(16.777 13.835)">
      <g id="Grupo_1113536" data-name="Grupo 1113536">
        <path id="Trazado_911095" data-name="Trazado 911095" d="M91.783,73.527a4.235,4.235,0,0,1,5.07,2.8c2.366,7.269,8.789,21.9,24.584,31.115,22.179,12.935,44.962,4.753,50.433,2.451a1.231,1.231,0,0,1,1.581.59L174.9,113.4a1.233,1.233,0,0,1-.088,1.245,47.814,47.814,0,0,1-17.7,15.689c-14.86,7.519-34.981,7.353-50.426-4.135A48.607,48.607,0,0,1,88.623,76.735a4.236,4.236,0,0,1,3.095-3.192l.065-.017Z" transform="translate(-87.458 -73.395)" fill="#ffc344"/>
        <path id="Trazado_911096" data-name="Trazado 911096" d="M176.992,113.4l-1.448-2.926a1.231,1.231,0,0,0-1.581-.59c-5.472,2.3-28.254,10.484-50.433-2.451-15.794-9.212-22.218-23.846-24.584-31.115a4.235,4.235,0,0,0-5.07-2.8l-.065.017a4.237,4.237,0,0,0-3.095,3.192q-.362,1.641-.609,3.289a4.248,4.248,0,0,1,.554-.182l.065-.017a4.235,4.235,0,0,1,5.07,2.8c2.366,7.27,8.789,21.9,24.584,31.115,22.179,12.935,44.962,4.753,50.433,2.451a1.231,1.231,0,0,1,1.581.59l1.125,2.271a50.685,50.685,0,0,0,3.385-4.4,1.232,1.232,0,0,0,.088-1.245Z" transform="translate(-89.551 -73.395)" fill="#feb237"/>
        <path id="Trazado_911097" data-name="Trazado 911097" d="M475.664,250.365l-1.448-2.926a1.231,1.231,0,0,0-1.581-.59c-.977.411-2.507,1.009-4.485,1.641h0a10.917,10.917,0,0,0,1.38,4.986,10.786,10.786,0,0,0,2.357,2.881,50.61,50.61,0,0,0,3.688-4.748,1.232,1.232,0,0,0,.088-1.245Z" transform="translate(-388.223 -210.356)" fill="#685e69"/>
        <path id="Trazado_911098" data-name="Trazado 911098" d="M475.576,251.609a1.232,1.232,0,0,0,.088-1.245l-1.448-2.926a1.231,1.231,0,0,0-1.581-.59c-.977.411-2.507,1.009-4.485,1.641h0a10.947,10.947,0,0,0,1.227,4.7l.108-.045a1.231,1.231,0,0,1,1.581.59l1.124,2.271a50.616,50.616,0,0,0,3.385-4.4Z" transform="translate(-388.223 -210.356)" fill="#564e57"/>
      </g>
    </g>
    <path id="Trazado_911099" data-name="Trazado 911099" d="M85.386,22.787A44.6,44.6,0,0,1,90.253,7.944a.84.84,0,0,1,.957-.415l6.545,1.743A.839.839,0,0,1,98.2,10.6a39.6,39.6,0,0,0-7.521,16.295l-5.295-4.106Z" transform="translate(-69.044 -7.5)" fill="#46da9f"/>
    <path id="Trazado_911100" data-name="Trazado 911100" d="M101.311,9.271,94.765,7.528a.84.84,0,0,0-.957.415c-.592,1.1-1.192,2.333-1.766,3.686l2.97.791a.839.839,0,0,1,.446,1.326,39.458,39.458,0,0,0-5.573,9.772l4.35,3.373A39.6,39.6,0,0,1,101.757,10.6a.839.839,0,0,0-.446-1.326Z" transform="translate(-72.6 -7.499)" fill="#00c6a2"/>
    <g id="Grupo_1113539" data-name="Grupo 1113539" transform="translate(12.216 12.033)">
      <g id="Grupo_1113538" data-name="Grupo 1113538">
        <path id="Trazado_911101" data-name="Trazado 911101" d="M74.434,64.823a4.762,4.762,0,0,1,5.009,4.159c1.077,8.529,5.081,26.05,20.581,39.561,21.765,18.973,48.658,14.748,55.188,13.361a1.385,1.385,0,0,1,1.622.986l.982,3.537a1.386,1.386,0,0,1-.361,1.356,53.769,53.769,0,0,1-22.862,13.591c-18,5.165-40.191.732-54.823-15.22-14.346-15.64-18.022-38.64-9.5-58.455a4.764,4.764,0,0,1,4.093-2.872l.075,0Z" transform="translate(-65.735 -64.814)" fill="#ffe177"/>
        <path id="Trazado_911102" data-name="Trazado 911102" d="M168.555,126.427l-.982-3.537a1.385,1.385,0,0,0-1.622-.986c-6.53,1.387-33.422,5.611-55.188-13.361-15.5-13.511-19.5-31.032-20.581-39.561a4.762,4.762,0,0,0-5.009-4.159l-.075,0A4.764,4.764,0,0,0,81.007,67.7q-.938,2.18-1.677,4.408a4.763,4.763,0,0,1,2.62-.982l.075,0a4.762,4.762,0,0,1,5.009,4.159c1.077,8.529,5.081,26.05,20.581,39.561,21.765,18.973,48.658,14.748,55.188,13.361a1.385,1.385,0,0,1,1.622.986l.453,1.633c1.288-1.09,2.4-2.124,3.317-3.037a1.386,1.386,0,0,0,.361-1.356Z" transform="translate(-76.476 -64.814)" fill="#ffd15b"/>
        <path id="Trazado_911103" data-name="Trazado 911103" d="M473.012,337.6a1.385,1.385,0,0,0-1.622-.986c-1.165.247-2.982.585-5.3.865h0a12.276,12.276,0,0,0,.471,5.8,12.129,12.129,0,0,0,2,3.68,56.948,56.948,0,0,0,5.077-4.466,1.386,1.386,0,0,0,.361-1.356Z" transform="translate(-381.914 -279.529)" fill="#685e69"/>
        <path id="Trazado_911104" data-name="Trazado 911104" d="M473.013,337.6a1.385,1.385,0,0,0-1.622-.986c-1.165.248-2.982.585-5.3.865h0a12.283,12.283,0,0,0,.459,5.761c.659-.118,1.228-.231,1.691-.329a1.385,1.385,0,0,1,1.622.986l.453,1.633c1.288-1.09,2.4-2.124,3.317-3.037a1.386,1.386,0,0,0,.361-1.356Z" transform="translate(-381.915 -279.529)" fill="#564e57"/>
      </g>
    </g>
    <g id="Grupo_1113540" data-name="Grupo 1113540" transform="translate(0 8.952)">
      <path id="Trazado_911105" data-name="Trazado 911105" d="M25.616,50.267a5.049,5.049,0,0,1,3.938,5.669c-1.318,9.019-2.2,28.053,9.807,46.251,16.855,25.554,45.527,28.864,52.591,29.3a1.468,1.468,0,0,1,1.377,1.467v3.892a1.47,1.47,0,0,1-.753,1.283,57.008,57.008,0,0,1-27.21,7.4c-19.855.173-41.267-10.648-51.692-31.094C3.453,94.39,6.219,69.851,20.542,52.024a5.051,5.051,0,0,1,5-1.774l.079.017Z" transform="translate(-7.551 -50.138)" fill="#ffc344"/>
      <path id="Trazado_911106" data-name="Trazado 911106" d="M136.682,131.486c-7.064-.435-35.736-3.744-52.591-29.3-12-18.2-11.125-37.232-9.807-46.251a5.049,5.049,0,0,0-3.938-5.669l-.078-.017a5.051,5.051,0,0,0-5,1.774q-.565.7-1.1,1.421a5.048,5.048,0,0,1,3.817,5.64c-1.318,9.019-2.2,28.053,9.807,46.251,16.855,25.554,45.527,28.864,52.591,29.3a1.468,1.468,0,0,1,1.378,1.467v3.892a1.467,1.467,0,0,1-.47,1.075,60.434,60.434,0,0,0,6.016-2.941,1.47,1.47,0,0,0,.753-1.283v-3.892a1.468,1.468,0,0,0-1.378-1.467Z" transform="translate(-52.281 -50.138)" fill="#feb237"/>
      <path id="Trazado_911107" data-name="Trazado 911107" d="M385.188,440.631v-3.892a1.468,1.468,0,0,0-1.378-1.466c-1.26-.078-3.211-.248-5.657-.619h0a13.015,13.015,0,0,0-1.163,6.057,12.864,12.864,0,0,0,.995,4.326,60.348,60.348,0,0,0,6.453-3.123,1.47,1.47,0,0,0,.753-1.283Z" transform="translate(-299.41 -353.924)" fill="#685e69"/>
      <path id="Trazado_911108" data-name="Trazado 911108" d="M384.219,435.273c-1.26-.078-3.211-.248-5.657-.619h0a13.177,13.177,0,0,0-1.072,3.739l.434.029a1.468,1.468,0,0,1,1.377,1.466v3.892a1.467,1.467,0,0,1-.47,1.075,60.429,60.429,0,0,0,6.016-2.941,1.47,1.47,0,0,0,.753-1.283v-3.892A1.469,1.469,0,0,0,384.219,435.273Z" transform="translate(-299.818 -353.924)" fill="#564e57"/>
    </g>
  </g>
  <path id="Trazado_911109" data-name="Trazado 911109" d="M107.4,74.8l-.982-3.536a2.963,2.963,0,0,0-3.466-2.107,63.921,63.921,0,0,1-8.5,1.162A51.025,51.025,0,0,0,107.021,57.55a2.819,2.819,0,0,0,.2-2.831l-1.449-2.928a2.813,2.813,0,0,0-3.6-1.341A61.725,61.725,0,0,1,83.7,54.82a51.52,51.52,0,0,1-30.565-6.73c-1.243-.725-2.467-1.51-3.64-2.334a1.575,1.575,0,1,0-1.81,2.577c1.245.874,2.545,1.708,3.864,2.477a54.617,54.617,0,0,0,32.4,7.149,66.132,66.132,0,0,0,13-2.368A12.417,12.417,0,0,0,98.3,59.3a12.272,12.272,0,0,0,1.549,2.169A45.317,45.317,0,0,1,88.168,70.5c-2.075-.032-4.285-.155-6.592-.412A58.141,58.141,0,0,1,49.129,56.147,58.684,58.684,0,0,1,32.981,32.96a56.544,56.544,0,0,0,8.813,10.578,2.688,2.688,0,0,0,2.226-.072,1.575,1.575,0,0,0-.072-2.226A55.864,55.864,0,0,1,29.259,17.85a8.716,8.716,0,0,0-2.108-4.062c.442-1.014.929-2.014,1.457-2.984a38.124,38.124,0,0,1,3.385-5.167,2.414,2.414,0,0,0-1.286-3.813Q27.434.951,24.162.08a2.411,2.411,0,0,0-2.751,1.191,46.455,46.455,0,0,0-2.8,6.305c-.162.455-.318.917-.467,1.383a6.58,6.58,0,0,0-4.789,2.465C-1.412,29.8-4.177,54.971,6.311,75.539A57.944,57.944,0,0,0,29.24,99.468a59.8,59.8,0,0,0,29.683,8.026,58.111,58.111,0,0,0,28.46-7.6,3.048,3.048,0,0,0,1.559-2.658V93.34a3.048,3.048,0,0,0-2.1-2.892,55.326,55.326,0,0,0,19.8-12.755A2.966,2.966,0,0,0,107.4,74.8Zm-4.312-21.322,1.217,2.46q-1.123,1.623-2.366,3.135a9.143,9.143,0,0,1-.9-1.313,9.257,9.257,0,0,1-1.07-3.116C101.275,54.2,102.328,53.791,103.091,53.476ZM21.576,8.637a43.234,43.234,0,0,1,2.34-5.363l4.923,1.311a41.351,41.351,0,0,0-3,4.713c-.521.958-1,1.944-1.448,2.943l-.108-.027a6.632,6.632,0,0,0-3.015-2.683c.1-.3.2-.6.3-.9ZM85.794,97.171q-2.3,1.286-4.693,2.349a11.189,11.189,0,0,1-.36-2.29,11.37,11.37,0,0,1,.6-4.238c1.792.239,3.3.373,4.458.446Zm-3.566-8.518c-1.024.294-2.088.561-3.166.8a75.857,75.857,0,0,1-12.4-3.242,1.575,1.575,0,1,0-1.055,2.967A78.732,78.732,0,0,0,78.188,92.5a14.525,14.525,0,0,0-.593,4.891,14.352,14.352,0,0,0,.575,3.335,56.507,56.507,0,0,1-19.223,3.616,57.471,57.471,0,0,1-28.141-7.608A54.8,54.8,0,0,1,9.116,74.108c-9.925-19.466-7.3-43.3,6.692-60.711a3.529,3.529,0,0,1,6.226,2.7C20.6,25.913,20,45.117,32.085,63.442A64.285,64.285,0,0,0,58.659,86.3a1.575,1.575,0,1,0,1.35-2.845,61.178,61.178,0,0,1-25.295-21.75C23.2,44.255,23.781,25.924,25.15,16.551c.013-.093.024-.185.034-.277a3.182,3.182,0,0,1,.766,1.7c0,.009,0,.017,0,.026,1.181,9.3,5.494,26.915,21.106,40.524A61.23,61.23,0,0,0,81.227,73.215a72.247,72.247,0,0,0,7.269.435c.018,0,.036,0,.055,0s.036,0,.054,0a75.368,75.368,0,0,0,7.652-.325,13.785,13.785,0,0,0,.7,4.533,13.59,13.59,0,0,0,1.329,2.835,50.994,50.994,0,0,1-16.06,7.958Zm18.563-9.911a10.47,10.47,0,0,1-.845-1.881,10.628,10.628,0,0,1-.527-3.9c1.7-.236,3.065-.489,4.014-.687l.906,3.261Q102.627,77.224,100.791,78.742Z" transform="translate(-0.006 0.002)"/>
</svg>
