<svg xmlns="http://www.w3.org/2000/svg" width="99.167" height="97.631" viewBox="0 0 99.167 97.631">
  <g id="rio" transform="translate(0 -3.966)">
    <path id="Trazado_911055" data-name="Trazado 911055" d="M186.494,165.641H110.105v-9.229h67.16A9.229,9.229,0,0,1,186.494,165.641Z" transform="translate(-88.779 -122.919)" fill="#8cc951"/>
    <path id="Trazado_911056" data-name="Trazado 911056" d="M99.966,261.485H11.3a3.8,3.8,0,0,1-3.8-3.8V204.062h96.262v53.627a3.8,3.8,0,0,1-3.8,3.8Z" transform="translate(-6.047 -161.34)" fill="#b2e5fb"/>
    <path id="Trazado_911057" data-name="Trazado 911057" d="M47.246,127.22H7.5V111.389a2.627,2.627,0,0,1,2.627-2.627H28.788A18.458,18.458,0,0,1,47.246,127.22Z" transform="translate(-6.047 -84.498)" fill="#acd980"/>
    <path id="Trazado_911058" data-name="Trazado 911058" d="M432.661,156.412H426.85a9.229,9.229,0,0,1,9.229,9.229h5.811A9.229,9.229,0,0,0,432.661,156.412Z" transform="translate(-344.175 -122.919)" fill="#7dc03a"/>
    <path id="Trazado_911059" data-name="Trazado 911059" d="M470.121,204.062v56.371a1.052,1.052,0,0,1-1.052,1.052h3.067a3.8,3.8,0,0,0,3.8-3.8V204.062Z" transform="translate(-378.217 -161.34)" fill="#91dafa"/>
    <path id="Trazado_911060" data-name="Trazado 911060" d="M93.221,108.762H87.41a18.458,18.458,0,0,1,18.458,18.458h5.811A18.458,18.458,0,0,0,93.221,108.762Z" transform="translate(-70.48 -84.498)" fill="#9cd169"/>
    <path id="Trazado_911061" data-name="Trazado 911061" d="M193.7,384.156h56.4a3.8,3.8,0,0,0,3.8-3.8V356.2H221.659A27.956,27.956,0,0,0,193.7,384.156Z" transform="translate(-156.185 -284.011)" fill="#acd980"/>
    <path id="Trazado_911062" data-name="Trazado 911062" d="M470.121,356.2v26.9a1.052,1.052,0,0,1-1.052,1.052h3.067a3.8,3.8,0,0,0,3.8-3.8V356.2Z" transform="translate(-378.217 -284.011)" fill="#9cd169"/>
    <path id="Trazado_911063" data-name="Trazado 911063" d="M389.822,296.724c0,8.94-3.517,10.249-7.855,10.249s-7.856-1.309-7.856-10.249,3.517-18.412,7.856-18.412,7.855,9.472,7.855,18.412Z" transform="translate(-301.651 -221.209)" fill="#9cd169"/>
    <path id="Trazado_911064" data-name="Trazado 911064" d="M267.084,296.724c0,8.94-3.517,10.249-7.855,10.249s-7.855-1.309-7.855-10.249,3.517-18.412,7.855-18.412,7.855,9.472,7.855,18.412Z" transform="translate(-202.686 -221.209)" fill="#9cd169"/>
    <path id="Trazado_911065" data-name="Trazado 911065" d="M375.989,26.449c0,7.275-2.862,8.34-6.393,8.34s-6.393-1.065-6.393-8.34,2.862-14.983,6.393-14.983,6.393,7.708,6.393,14.983Z" transform="translate(-292.856 -6.047)" fill="#9cd169"/>
    <g id="Grupo_1113530" data-name="Grupo 1113530" transform="translate(9.323 5.418)">
      <path id="Trazado_911066" data-name="Trazado 911066" d="M60.919,43.928c0,7.275-2.862,8.34-6.393,8.34s-6.393-1.065-6.393-8.34S51,28.945,54.527,28.945,60.919,36.653,60.919,43.928Z" transform="translate(-48.134 -25.559)" fill="#8cc951"/>
      <path id="Trazado_911067" data-name="Trazado 911067" d="M402.574,278.311a4.123,4.123,0,0,0-2.905,1.458c2.9,2.994,4.95,10.129,4.95,16.954s-2.05,9.2-4.95,9.945a11.779,11.779,0,0,0,2.905.3c4.338,0,7.855-1.309,7.855-10.248S406.913,278.311,402.574,278.311Z" transform="translate(-331.582 -226.627)" fill="#8cc951"/>
      <path id="Trazado_911068" data-name="Trazado 911068" d="M279.837,278.311a4.123,4.123,0,0,0-2.905,1.458c2.9,2.994,4.95,10.129,4.95,16.954s-2.05,9.2-4.95,9.945a11.784,11.784,0,0,0,2.905.3c4.338,0,7.856-1.309,7.856-10.248S284.176,278.311,279.837,278.311Z" transform="translate(-232.617 -226.627)" fill="#8cc951"/>
      <path id="Trazado_911069" data-name="Trazado 911069" d="M384.115,11.465a3.859,3.859,0,0,0-2.905,1.819C383.28,16,384.7,21.329,384.7,26.448s-1.418,7.161-3.487,7.923a8.436,8.436,0,0,0,2.905.417c3.53,0,6.393-1.065,6.393-8.34s-2.862-14.983-6.393-14.983Z" transform="translate(-316.698 -11.465)" fill="#8cc951"/>
    </g>
    <path id="Trazado_911070" data-name="Trazado 911070" d="M69.044,28.944a3.859,3.859,0,0,0-2.905,1.819c2.07,2.712,3.487,8.045,3.487,13.165s-1.418,7.161-3.487,7.923a8.436,8.436,0,0,0,2.905.417c3.531,0,6.393-1.065,6.393-8.34s-2.862-14.984-6.393-14.984Z" transform="translate(-53.329 -20.14)" fill="#7dc03a"/>
    <g id="Grupo_1113531" data-name="Grupo 1113531" transform="translate(0 3.966)">
      <path id="Trazado_911071" data-name="Trazado 911071" d="M88.485,32.04H78.193V30.125a6.492,6.492,0,0,0,4.1-1.807c1.562-1.587,2.29-4.1,2.29-7.917,0-6.891-2.726-16.436-7.845-16.436S68.9,13.511,68.9,20.4c0,3.814.727,6.33,2.29,7.917a6.493,6.493,0,0,0,4.1,1.807V32.04H58.814a1.453,1.453,0,0,0,0,2.905H88.485a7.788,7.788,0,0,1,7.638,6.324H42.6a19.763,19.763,0,0,0-1.529-6.324H53a1.453,1.453,0,0,0,0-2.905H39.537a19.919,19.919,0,0,0-15.993-9.212C23.307,16.045,20.6,7.351,15.715,7.351S8.129,16.03,7.888,22.811H4.079A4.084,4.084,0,0,0,0,26.89V96.349A5.254,5.254,0,0,0,5.249,101.6H23.157a1.453,1.453,0,0,0,0-2.905H5.249a2.346,2.346,0,0,1-2.343-2.343V61.271c.038,0,.076.006.115.006H30.84a1.453,1.453,0,1,0,0-2.905H3.02c-.039,0-.077,0-.115.006v-14.2H96.262V70.736H89.314a33.7,33.7,0,0,0-2.1-8.328c-1.777-4.358-4.228-6.758-6.9-6.758s-5.122,2.4-6.9,6.758a33.707,33.707,0,0,0-2.1,8.328H65.542a33.7,33.7,0,0,0-2.1-8.328c-1.777-4.358-4.228-6.758-6.9-6.758s-5.122,2.4-6.9,6.758a36.065,36.065,0,0,0-2.408,13.107c0,.533.013,1.044.038,1.537a1.408,1.408,0,0,0-.122.087A29.266,29.266,0,0,0,36.1,98.692H28.967a1.453,1.453,0,1,0,0,2.905H93.918a5.255,5.255,0,0,0,5.249-5.248V42.722A10.694,10.694,0,0,0,88.485,32.04ZM71.8,20.4a27.01,27.01,0,0,1,1.765-9.671c.956-2.345,2.2-3.86,3.175-3.86s2.219,1.515,3.175,3.86A27.01,27.01,0,0,1,81.68,20.4c0,5.22-1.433,6.508-3.487,6.8V23.638a1.453,1.453,0,0,0-2.905,0v3.567C73.234,26.91,71.8,25.622,71.8,20.4ZM12.54,14.116c.956-2.344,2.2-3.859,3.175-3.859s2.219,1.515,3.175,3.859a27.014,27.014,0,0,1,1.765,9.671c0,5.22-1.433,6.508-3.487,6.8V26.96a1.453,1.453,0,0,0-2.905,0v3.632c-2.054-.3-3.487-1.584-3.487-6.8a27.013,27.013,0,0,1,1.765-9.671ZM2.905,41.269V26.89a1.175,1.175,0,0,1,1.174-1.174H7.942c.217,2.757.936,4.686,2.218,5.988a6.493,6.493,0,0,0,4.1,1.807v2.4a1.453,1.453,0,1,0,2.905,0v-2.4a6.492,6.492,0,0,0,4.1-1.807c1.279-1.3,2-3.223,2.217-5.97a17.031,17.031,0,0,1,16.2,15.535H2.905Zm73.2,22.236c1.245-3.053,2.858-4.95,4.209-4.95s2.964,1.9,4.21,4.95a33.545,33.545,0,0,1,2.193,12.01c0,6.975-2.133,8.454-4.95,8.735V79.175a1.453,1.453,0,1,0-2.905,0V84.25c-2.817-.28-4.95-1.759-4.95-8.735a33.541,33.541,0,0,1,2.193-12.01Zm-23.773,0c1.245-3.053,2.858-4.95,4.21-4.95s2.964,1.9,4.21,4.95a33.545,33.545,0,0,1,2.193,12.01c0,6.975-2.133,8.454-4.95,8.735V79.175a1.453,1.453,0,1,0-2.905,0V84.25c-2.817-.28-4.95-1.759-4.95-8.735a33.541,33.541,0,0,1,2.193-12.01ZM96.262,96.349a2.346,2.346,0,0,1-2.343,2.343H39.009a26.35,26.35,0,0,1,8.7-18.216,9.141,9.141,0,0,0,2.242,4.535,7.833,7.833,0,0,0,5.137,2.15v5.631a1.453,1.453,0,1,0,2.905,0V87.161a7.833,7.833,0,0,0,5.138-2.15c1.829-1.859,2.718-4.965,2.718-9.5,0-.622-.018-1.248-.049-1.874h5.255c-.032.626-.049,1.252-.049,1.874,0,4.531.889,7.637,2.718,9.5a7.832,7.832,0,0,0,5.137,2.15v5.631a1.453,1.453,0,1,0,2.905,0V87.161a7.833,7.833,0,0,0,5.138-2.15c1.829-1.859,2.718-4.965,2.718-9.5,0-.622-.018-1.248-.049-1.874h6.688Z" transform="translate(0 -3.966)"/>
      <path id="Trazado_911072" data-name="Trazado 911072" d="M316.539,250.716a1.453,1.453,0,1,0,0-2.905H301.256a1.453,1.453,0,0,0,0,2.905Z" transform="translate(-241.735 -200.582)"/>
      <path id="Trazado_911073" data-name="Trazado 911073" d="M91.827,394a1.453,1.453,0,0,0-1.453-1.453H75.092a1.453,1.453,0,0,0,0,2.905H90.375A1.453,1.453,0,0,0,91.827,394Z" transform="translate(-59.376 -317.284)"/>
    </g>
  </g>
</svg>
