<svg xmlns="http://www.w3.org/2000/svg" xmlns:xlink="http://www.w3.org/1999/xlink" width="1318" height="506" viewBox="0 0 1318 506">
  <defs>
    <clipPath id="clip-path">
      <rect id="Rectángulo_405019" data-name="Rectángulo 405019" width="1318" height="506" rx="24" transform="translate(-10916 -13274)" fill="#fff" stroke="#707070" stroke-width="1"/>
    </clipPath>
    <clipPath id="clip-path-2">
      <rect id="Rectángulo_405017" data-name="Rectángulo 405017" width="378.78" height="328.576" fill="#125436"/>
    </clipPath>
    <clipPath id="clip-path-4">
      <rect id="Rectángulo_405018" data-name="Rectángulo 405018" width="459.005" height="1377.76" fill="#0f442c"/>
    </clipPath>
  </defs>
  <g id="Enmascarar_grupo_1101763" data-name="Enmascarar grupo 1101763" transform="translate(10916 13274)" clip-path="url(#clip-path)">
    <g id="Grupo_1111579" data-name="Grupo 1111579" transform="translate(-38.338 -195.034)">
      <g id="Grupo_1098717" data-name="Grupo 1098717" transform="translate(-11021 -13149.822)">
        <path id="Trazado_870126" data-name="Trazado 870126" d="M19,0H1301a19,19,0,0,1,19,19V488a19,19,0,0,1-19,19H19A19,19,0,0,1,0,488V19A19,19,0,0,1,19,0Z" transform="translate(144.333 70)" fill="#166340"/>
      </g>
      <circle id="Elipse_11486" data-name="Elipse 11486" cx="284" cy="284" r="284" transform="matrix(0.966, -0.259, 0.259, 0.966, -10978.935, -12622.047)" fill="#166340" opacity="0.27" style="mix-blend-mode: multiply;isolation: isolate"/>
      <circle id="Elipse_12591" data-name="Elipse 12591" cx="284" cy="284" r="284" transform="matrix(0.966, -0.259, 0.259, 0.966, -10564.494, -13387.921)" fill="#166340" opacity="0.27" style="mix-blend-mode: color-dodge;isolation: isolate"/>
      <circle id="Elipse_12592" data-name="Elipse 12592" cx="284" cy="284" r="284" transform="matrix(0.966, -0.259, 0.259, 0.966, -10541.662, -12647.874)" fill="#166340" opacity="0.27" style="mix-blend-mode: color-dodge;isolation: isolate"/>
      <circle id="Elipse_12589" data-name="Elipse 12589" cx="284" cy="284" r="284" transform="matrix(0.966, -0.259, 0.259, 0.966, -11064.328, -13447.641)" fill="#166340" opacity="0.27" style="mix-blend-mode: multiply;isolation: isolate"/>
      <circle id="Elipse_12590" data-name="Elipse 12590" cx="284" cy="284" r="284" transform="matrix(0.966, -0.259, 0.259, 0.966, -10283.279, -13163.641)" fill="#166340" opacity="0.27" style="mix-blend-mode: multiply;isolation: isolate"/>
      <g id="Grupo_1111569" data-name="Grupo 1111569" transform="matrix(-0.454, 0.891, -0.891, -0.454, -10110.279, -13080.985)" opacity="0.35">
        <g id="Grupo_1111567" data-name="Grupo 1111567" clip-path="url(#clip-path-2)">
          <path id="Trazado_903701" data-name="Trazado 903701" d="M374.605,278.163l.025-.015a29.185,29.185,0,0,0-10.367-10.189,4.445,4.445,0,0,0-3.708-.263,4.357,4.357,0,0,0-1.15.637c-6.941,5.366-22,13.147-34.4,17.432a74.8,74.8,0,0,1-7.957,2.311c-18.9,1.163-60.524-2.171-137.29-58.773C89.188,162.521,64.01,69.394,65.658,24.415c1.855-5.739,1.409-16.951-7.089-21.857C47.561-3.793,37.7,2.627,32.784,11.444c-.1.051-.194.1-.289.149C-13.99,114.033-22.559,208.206,87.939,285.856c98.553,69.255,198.515,36.629,231.513,23.344,3.688-.115,24.493-1.321,56.553-13.9a4.27,4.27,0,0,0,2.733-3.543c.33-3.929-1.257-8.982-4.133-13.6" transform="translate(0 0)" fill="#125436"/>
        </g>
      </g>
      <g id="Grupo_1111580" data-name="Grupo 1111580" transform="translate(-9867.6 -12899.279) rotate(7)" opacity="0.35">
        <g id="Grupo_1111567-2" data-name="Grupo 1111567" transform="translate(146.549 -29.077)" clip-path="url(#clip-path-2)">
          <path id="Trazado_903701-2" data-name="Trazado 903701" d="M374.605,278.163l.025-.015a29.185,29.185,0,0,0-10.367-10.189,4.445,4.445,0,0,0-3.708-.263,4.357,4.357,0,0,0-1.15.637c-6.941,5.366-22,13.147-34.4,17.432a74.8,74.8,0,0,1-7.957,2.311c-18.9,1.163-60.524-2.171-137.29-58.773C89.188,162.521,64.01,69.394,65.658,24.415c1.855-5.739,1.409-16.951-7.089-21.857C47.561-3.793,37.7,2.627,32.784,11.444c-.1.051-.194.1-.289.149C-13.99,114.033-22.559,208.206,87.939,285.856c98.553,69.255,198.515,36.629,231.513,23.344,3.688-.115,24.493-1.321,56.553-13.9a4.27,4.27,0,0,0,2.733-3.543c.33-3.929-1.257-8.982-4.133-13.6" transform="translate(0 0)" fill="#125436"/>
        </g>
      </g>
      <path id="Trazado_903697" data-name="Trazado 903697" d="M347.792,43.387a51.828,51.828,0,0,1,29.435,9.207,51,51,0,0,1,19.258,25.429l41.107,118.656a51.036,51.036,0,0,0,13.939,21.079l93.1,84.272a51.958,51.958,0,0,1,7.773,8.82,51.019,51.019,0,0,1,8.42,20.618,51.906,51.906,0,0,1-.962,21.848,51.022,51.022,0,0,1-10.2,19.8,51.958,51.958,0,0,1-8.519,8.1L440.993,456.979a51.07,51.07,0,0,0-15.739,19.769L373.876,591.331a51.164,51.164,0,0,1-19.487,22.479,51.867,51.867,0,0,1-27.551,7.939,51.087,51.087,0,0,1-29.351-9.266l-103-71.831a51.044,51.044,0,0,0-23.666-8.859L45.968,518.335A51.955,51.955,0,0,1,34.5,515.767a51.024,51.024,0,0,1-18.93-11.732A51.907,51.907,0,0,1,3.5,485.794,51.021,51.021,0,0,1,.117,463.782,51.955,51.955,0,0,1,2.245,452.22L38.733,332.064a51.032,51.032,0,0,0,1.114-25.245l-25.784-122.9a51.953,51.953,0,0,1-1.1-11.7,51.021,51.021,0,0,1,5.308-21.63,51.906,51.906,0,0,1,13.621-17.109,51.019,51.019,0,0,1,19.888-10.02,51.95,51.95,0,0,1,11.653-1.548l125.552-2.429a51.054,51.054,0,0,0,24.354-6.743l108.916-62.5a51.766,51.766,0,0,1,12.584-5.174A50.945,50.945,0,0,1,347.792,43.387ZM326.837,621.2a51.052,51.052,0,0,0,46.538-30.094l51.379-114.584a51.62,51.62,0,0,1,15.908-19.982l100.146-75.762a50.907,50.907,0,0,0,3.451-78.343l-93.1-84.272a51.588,51.588,0,0,1-14.089-21.306L395.967,78.2a50.862,50.862,0,0,0-73.443-27.491l-108.916,62.5a51.6,51.6,0,0,1-24.617,6.816L63.441,122.454A50.909,50.909,0,0,0,14.6,183.806l25.784,122.9a51.582,51.582,0,0,1-1.126,25.517L2.77,452.379a50.911,50.911,0,0,0,43.257,65.41l124.852,13.457A51.593,51.593,0,0,1,194.8,540.2l103,71.831A50.541,50.541,0,0,0,326.837,621.2Z" transform="translate(-10176.879 -13148.715)" fill="#fff"/>
      <path id="Trazado_903699" data-name="Trazado 903699" d="M318.892,12.747,343.4,0c11.188,21.516,14.282,41.6,9.191,59.69-7.6,27.023-31.808,43.756-57.182,54.724,24.138-4.484,54.009-14.744,68.523-38.164,4.725-7.628,7.265-15.909,9.507-23.217,3.489-11.383,7.83-25.545,22.621-27.033,15.771-1.588,25.505,13.717,28.706,18.745,5.553,8.733,10.786,20.219,15.846,31.325,4.26,9.358,8.665,19.032,13.007,26.483,3.556,6.107,6.04,8.917,7.411,10.172,3.183-3.286,12.243-16.371,22.788-64.835l26.991,5.873c-6.406,29.449-13.078,50.51-20.4,64.391-2.9,5.51-11.742,22.269-28.294,22.933-21.85.874-33.89-25.569-46.641-53.565C411.425,78.634,407.6,70.242,403.8,63.5c-1.172-2.082-2.206-3.755-3.105-5.1-.295.941-.583,1.876-.845,2.732-2.594,8.47-5.827,19.011-12.438,29.676-15.16,24.461-43.518,41.678-82.013,49.789-29.946,6.31-60.589,5.859-77.675,2.615-5.635-1.069-18.826-3.574-20.94-15.234-.878-4.832.618-11.554,7.45-15.941a34.136,34.136,0,0,1,7.223-3.322c4.288-1.5,10.086-3.02,16.794-4.786C265.877,96.657,317.3,83.128,326,52.208c3.126-11.11.735-24.386-7.106-39.461" transform="translate(-9779.932 -13362.269) rotate(50)" fill="#98e465"/>
      <rect id="Rectángulo_405016" data-name="Rectángulo 405016" width="553.535" height="609.993" transform="translate(-10201.339 -13111.229)" fill="none"/>
      <g id="Grupo_1111575" data-name="Grupo 1111575" transform="matrix(0.602, -0.799, 0.799, 0.602, -11366.362, -12732.525)" opacity="0.15">
        <g id="Grupo_1111573" data-name="Grupo 1111573" clip-path="url(#clip-path-4)">
          <path id="Trazado_903702" data-name="Trazado 903702" d="M265.864,1365.788c-.136-22.334-2.665-71.953-5.958-128.063,77.834-.46,184.813-94.8,180.187-259.531.811-31.677-118.791-27.98-118.791-27.98s29.87-11.7,77.643-33.26c49.047-22.125,56.016-69.444-7.509-67.156,32.24-13.629,67.006-44.8,67.006-44.8s8.667-107.164-41.942-211.729c-35.76-10.928-113.411-6.17-113.411-6.17s74.043-35.232,107.842-50.447c27.4-30.5,5.643-217.495-84.971-345.511-39.8-2.895-95.29,3.432-95.29,3.432s23.808-45.385,58.831-69.037C239.865,12.064,141.916-65.314,78.121,77.69S15.316,332.861,15.316,332.861s54.639,19.4,88.362,44.4c-47.419-9.743-99.694-5.819-99.694-5.819s-15.035,84,13.313,185.765,49.966,150.857,26.86,250.92S29.345,961.714,55.468,987.857c36.069,36.093,105.045,58.657,105.045,58.657s-56.983,5.1-104.753-1.167c35.441,79.771,101.8,166.473,176.225,188.088,4.16,84.919,2.314,94,6.571,134.62,1.6,15.3,27.39,10.958,27.308-2.267" transform="translate(-0.001 0)" fill="#0f442c"/>
        </g>
      </g>
    </g>
    <g id="Grupo_1111702" data-name="Grupo 1111702" transform="translate(-10856.604 -13496.593)">
      <g id="Grupo_1111704" data-name="Grupo 1111704" transform="translate(-1194.133 19.001)">
        <path id="Trazado_903693" data-name="Trazado 903693" d="M57.852,200.527c-.8-.718-1.575-1.468-2.312-2.24-10.492-10.979-15.2-26.266-17.573-41.266-2.916-18.418-1.763-39.827,12.272-52.1,5.4-4.726,12.9-7.652,19.85-5.845,6.786,1.767,11.827,7.7,14.514,14.18s3.428,13.561,4.488,20.493c2.319,15.145,13.446,34.535,12.9,49.176-.491,13.124-15.519,25.946-28.215,25.067-5.964-.413-11.43-3.442-15.922-7.462" transform="translate(1939.071 356.576)" fill="#7d9ffb"/>
        <path id="Trazado_903695" data-name="Trazado 903695" d="M176.383,114.888q.042,1.465,0,2.938c-.4,15.913-9.3,32.357-24.228,37.891-35.8,13.27-56.082-29.651-63.4-56.383-3.453-12.611-6.427-25.7-4.744-38.665,7.257-55.9,60.669-14.712,77.67,12.448,7.925,12.66,14.279,26.916,14.7,41.771" transform="translate(2051.121 434.113) rotate(-112)" fill="#7d9ffb"/>
        <path id="Trazado_903694" data-name="Trazado 903694" d="M264.469,151.522a40.663,40.663,0,0,1-2.8,18.013,123.217,123.217,0,0,1-23.329,36.29c-6.52,7.031-14.031,13.4-22.916,17s-19.32,4.181-27.916-.067-14.733-13.858-13.4-23.353c1.154-8.2,7.287-14.827,13.964-19.718s14.207-8.656,20.276-14.283c5.608-5.2,9.726-11.763,14.474-17.758S233.3,135.992,240.6,133.71c16.01-5.007,22.96,5.54,23.871,17.812" transform="matrix(0.719, -0.695, 0.695, 0.719, 1968.631, 598.38)" fill="#7d9ffb"/>
        <path id="Trazado_903696" data-name="Trazado 903696" d="M294.8,142.719c.548,15.586-3.437,32.824-17.635,41.5a34.663,34.663,0,0,1-30.507,2.545c-33.217-13.36-65.219-76.827-66.066-111.455-1.725-70.586,94.638,15.016,106.555,37.15,4.5,8.348,7.266,19.278,7.653,30.257" transform="translate(2106.543 465.882) rotate(171)" fill="#7d9ffb"/>
      </g>
    </g>
    <path id="Trazado_903905" data-name="Trazado 903905" d="M215.819,398.2,192.19,415.543c-15.224-20.742-21.726-41.295-19.326-61.092,3.587-29.569,26.25-51.045,51.076-66.665-24.584,8.621-54.236,24.225-65.652,51.139-3.72,8.766-5.037,17.863-6.2,25.888-1.812,12.5-4.066,28.056-19.331,32.018-16.281,4.225-28.973-10.242-33.142-15-7.241-8.254-14.592-19.449-21.7-30.274-5.987-9.118-12.176-18.548-17.936-25.656-4.722-5.825-7.785-8.371-9.425-9.461-2.806,3.962-10.18,19.154-13.368,71.68L7.928,386.346c1.939-31.916,5.518-55.085,10.94-70.829,2.15-6.247,8.7-25.256,25.948-28.637,22.765-4.461,39.686,21.31,57.6,48.6,5.685,8.657,11.054,16.835,16.138,23.293,1.57,1.994,2.926,3.582,4.087,4.846.156-1.036.3-2.061.442-3,1.346-9.3,3.025-20.878,8.225-33.135,11.924-28.108,38.866-50.764,77.912-65.519,30.375-11.476,62.581-15.979,81.022-15.349,6.08.206,20.321.692,24.431,12.575,1.7,4.922,1.226,12.215-5.227,17.923a36.06,36.06,0,0,1-7.036,4.657c-4.253,2.264-10.081,4.8-16.83,7.743-27.791,12.106-79.515,34.636-83.617,68.471-1.473,12.155,3.188,25.688,13.858,40.222" transform="translate(-10320.019 -13126.09) rotate(8)" fill="#f59f7c"/>
  </g>
</svg>
