<svg xmlns="http://www.w3.org/2000/svg" xmlns:xlink="http://www.w3.org/1999/xlink" width="190" height="71" viewBox="0 0 190 71">
  <defs>
    <clipPath id="clip-path">
      <rect id="Rect치ngulo_405102" data-name="Rect치ngulo 405102" width="30" height="71" fill="#fff" stroke="#707070" stroke-width="1"/>
    </clipPath>
  </defs>
  <g id="Grupo_1112626" data-name="Grupo 1112626" transform="translate(-285.074 -1208)">
    <g id="Grupo_1112114" data-name="Grupo 1112114" transform="translate(285.074 1208)">
      <g id="Grupo_1111712" data-name="Grupo 1111712">
        <g id="Grupo_1111655" data-name="Grupo 1111655">
          <rect id="Rect치ngulo_405035" data-name="Rect치ngulo 405035" width="160" height="70.355" fill="#e6f8db"/>
        </g>
      </g>
      <g id="Enmascarar_grupo_1101780" data-name="Enmascarar grupo 1101780" transform="translate(160)" clip-path="url(#clip-path)">
        <g id="Grupo_1111713" data-name="Grupo 1111713" transform="translate(-0.074)">
          <path id="Trazado_903846" data-name="Trazado 903846" d="M0,1C4.721,1,4.721,7.739,9.442,7.739S14.164,1,18.886,1s4.722,6.739,9.443,6.739S33.051,1,37.773,1s4.721,6.739,9.442,6.739S51.938,1,56.661,1,61.381,7.739,66.1,7.739,70.827,1,75.552,1,80.276,7.739,85,7.739" transform="translate(0.5 -1)" fill="none" stroke="#98e465" stroke-miterlimit="10" stroke-width="2"/>
          <path id="Trazado_903847" data-name="Trazado 903847" d="M0,13.79c4.721,0,4.721,6.739,9.442,6.739s4.722-6.739,9.443-6.739,4.722,6.739,9.443,6.739,4.722-6.739,9.444-6.739,4.721,6.739,9.442,6.739,4.723-6.739,9.446-6.739,4.721,6.739,9.442,6.739,4.724-6.739,9.449-6.739S80.276,20.529,85,20.529" transform="translate(0 0.968)" fill="none" stroke="#98e465" stroke-miterlimit="10" stroke-width="2"/>
          <path id="Trazado_903848" data-name="Trazado 903848" d="M0,26.58c4.721,0,4.721,6.739,9.442,6.739s4.722-6.739,9.443-6.739,4.722,6.739,9.443,6.739,4.722-6.739,9.444-6.739,4.721,6.739,9.442,6.739,4.723-6.739,9.446-6.739,4.721,6.739,9.442,6.739,4.724-6.739,9.449-6.739S80.276,33.319,85,33.319" transform="translate(0 2.759)" fill="none" stroke="#98e465" stroke-miterlimit="10" stroke-width="2"/>
          <path id="Trazado_903849" data-name="Trazado 903849" d="M0,1C4.721,1,4.721,7.739,9.442,7.739S14.164,1,18.886,1s4.722,6.739,9.443,6.739S33.051,1,37.773,1s4.721,6.739,9.442,6.739S51.938,1,56.661,1,61.381,7.739,66.1,7.739,70.827,1,75.552,1,80.276,7.739,85,7.739" transform="translate(0 44.751)" fill="none" stroke="#98e465" stroke-miterlimit="10" stroke-width="2"/>
          <path id="Trazado_903850" data-name="Trazado 903850" d="M0,13.79c4.721,0,4.721,6.739,9.442,6.739s4.722-6.739,9.443-6.739,4.722,6.739,9.443,6.739,4.722-6.739,9.444-6.739,4.721,6.739,9.442,6.739,4.723-6.739,9.446-6.739,4.721,6.739,9.442,6.739,4.724-6.739,9.449-6.739S80.276,20.529,85,20.529" transform="translate(0.5 48.232)" fill="none" stroke="#98e465" stroke-miterlimit="10" stroke-width="2"/>
        </g>
      </g>
    </g>
    <g id="Page-1" transform="translate(351.458 1218)">
      <g id="_035---Biohazard" data-name="035---Biohazard">
        <circle id="Oval" cx="22.293" cy="22.293" r="22.293" transform="translate(0.769 0.769)" fill="#ffdc00"/>
        <path id="Shape" d="M29.653,1q-.58,0-1.153.029a22.293,22.293,0,0,1,0,44.527q.573.029,1.153.029A22.293,22.293,0,0,0,29.653,1Z" transform="translate(-6.591 -0.231)" fill="#fec108"/>
        <path id="Shape-2" data-name="Shape" d="M25.957,32.653V39.01a9.434,9.434,0,0,1-13.437,4.7,6.749,6.749,0,0,0,7.587-9.893l-.046-.069,3.9-2.252a2.306,2.306,0,0,0,2,1.153Z" transform="translate(-2.896 -7.285)" fill="#37474f"/>
        <path id="Shape-3" data-name="Shape" d="M43.437,43.74A9.434,9.434,0,0,1,30,39.036V32.679a2.286,2.286,0,0,0,1.945-1.069l3.9,2.252a6.748,6.748,0,0,0,7.595,9.878Z" transform="translate(-6.938 -7.311)" fill="#607d8b"/>
        <path id="Shape-4" data-name="Shape" d="M48.8,33.817a6.749,6.749,0,0,0-12.361-1.63c0,.008-.008.008-.008.015l-3.9-2.252a2.268,2.268,0,0,0,.361-1.238,2.326,2.326,0,0,0-.307-1.153l5.143-2.983a9.439,9.439,0,0,1,11.07,9.24Z" transform="translate(-7.523 -5.651)" fill="#37474f"/>
        <path id="Shape-5" data-name="Shape" d="M39.448,14.141a9.415,9.415,0,0,1-2.306,6.173L32,23.3a2.306,2.306,0,0,0-2-1.153V17.515A6.74,6.74,0,0,0,34.766,6,9.412,9.412,0,0,1,39.448,14.141Z" transform="translate(-6.938 -1.388)" fill="#607d8b"/>
        <path id="Shape-6" data-name="Shape" d="M27.158,17.515v4.628a2.306,2.306,0,0,0-2,1.153l-5.143-2.983A9.417,9.417,0,0,1,22.391,6a6.74,6.74,0,0,0,4.766,11.515Z" transform="translate(-4.096 -1.388)" fill="#37474f"/>
        <path id="Shape-7" data-name="Shape" d="M22.215,28.713a2.326,2.326,0,0,0,.307,1.153l-3.9,2.252a6.745,6.745,0,0,0-12.315,1.7,9.439,9.439,0,0,1,11.07-9.24l5.143,2.983A2.326,2.326,0,0,0,22.215,28.713Z" transform="translate(-1.459 -5.651)" fill="#607d8b"/>
        <path id="Shape-8" data-name="Shape" d="M5.457,21.636a.769.769,0,0,1-.748-.949,20.141,20.141,0,0,1,6.568-10.615.769.769,0,0,1,.991,1.175,18.6,18.6,0,0,0-6.064,9.8.769.769,0,0,1-.747.588Z" transform="translate(-1.084 -2.291)" fill="#f5f5f5"/>
        <g id="Grupo_1112625" data-name="Grupo 1112625">
          <path id="Shape-9" data-name="Shape" d="M23.062,0A23.062,23.062,0,1,0,46.123,23.062,23.062,23.062,0,0,0,23.062,0Zm0,44.586A21.524,21.524,0,1,1,44.586,23.062,21.524,21.524,0,0,1,23.062,44.586Z"/>
          <path id="Shape-10" data-name="Shape" d="M33.044,19.169A10.2,10.2,0,0,0,29.448,5.1a.769.769,0,0,0-.929,1.21,5.978,5.978,0,1,1-8.456,0A.769.769,0,0,0,19.132,5.1a10.2,10.2,0,0,0-3.6,14.068h-.029A10.2,10.2,0,0,0,5.314,29.314a.769.769,0,0,0,1.511.208,5.978,5.978,0,1,1,4.228,7.323.769.769,0,0,0-.579,1.411,10.193,10.193,0,0,0,13.816-3.644,10.224,10.224,0,0,0,13.819,3.64.769.769,0,0,0-.578-1.411,5.977,5.977,0,1,1,4.228-7.323.769.769,0,0,0,1.511-.2,10.237,10.237,0,0,0-5.1-8.776,10.12,10.12,0,0,0-5.126-1.368Zm-1.238-8.631a7.584,7.584,0,0,0-.077-1.076,8.637,8.637,0,0,1-.8,10.025l-4.446,2.578a3.1,3.1,0,0,0-1.424-.823V18.013a7.526,7.526,0,0,0,6.746-7.476ZM24.291,25.754a1.537,1.537,0,1,1,1.537-1.537A1.537,1.537,0,0,1,24.291,25.754Zm-7.439-16.3a7.527,7.527,0,0,0,6.67,8.556v3.229a3.1,3.1,0,0,0-1.423.823l-4.447-2.578a8.637,8.637,0,0,1-.8-10.029Zm-8.012,15.1a7.652,7.652,0,0,0-.894.6A8.635,8.635,0,0,1,16.9,20.825L21.328,23.4a2.872,2.872,0,0,0,.009,1.637l-2.7,1.563a7.525,7.525,0,0,0-9.794-2.038ZM19.859,36.9a8.793,8.793,0,0,1-4.472,1.153,7.517,7.517,0,0,0,4.034-10.129L22.1,26.369a3.065,3.065,0,0,0,1.422.813v5.535A8.594,8.594,0,0,1,19.859,36.9Zm12.366.676a7.528,7.528,0,0,0,.97.473A8.726,8.726,0,0,1,28.724,36.9a8.594,8.594,0,0,1-3.664-4.182V27.184a3.064,3.064,0,0,0,1.344-.743l2.714,1.568a7.517,7.517,0,0,0,3.106,9.565Zm8.409-12.416a7.652,7.652,0,0,0-.894-.6,7.526,7.526,0,0,0-9.856,2.119l-2.672-1.546a3.026,3.026,0,0,0,.154-.914,3.069,3.069,0,0,0-.115-.822l4.431-2.57a8.632,8.632,0,0,1,8.952,4.336Z" transform="translate(-1.229 -1.155)"/>
        </g>
      </g>
    </g>
  </g>
</svg>
