<svg xmlns="http://www.w3.org/2000/svg" xmlns:xlink="http://www.w3.org/1999/xlink" width="505" height="325" viewBox="0 0 505 325">
  <defs>
    <clipPath id="clip-path">
      <rect id="Rectángulo_405700" data-name="Rectángulo 405700" width="505" height="325" transform="translate(600 1486)" fill="#f1f4fe"/>
    </clipPath>
    <clipPath id="clip-path-2">
      <rect id="Rectángulo_405696" data-name="Rectángulo 405696" width="603" height="576" transform="translate(0 0)" fill="none"/>
    </clipPath>
    <clipPath id="clip-path-3">
      <path id="Trazado_909830" data-name="Trazado 909830" d="M222.1,154.691s3.056,10.719,13.258,11.849a21.349,21.349,0,0,0,16.709-5.582c-4.41-8.3-10.462-10.69-15.974-10.69-7.5,0-13.993,4.423-13.993,4.423" transform="translate(-222.097 -150.268)" fill="none"/>
    </clipPath>
    <clipPath id="clip-path-5">
      <path id="Trazado_909833" data-name="Trazado 909833" d="M262.978,150.294c14.139,1.057,19.5,4.634,19.5,4.634.906-12.352.912-14.452.912-14.452-6.482-2.176-11.157-3.039-14.5-3.039-12.891,0-5.91,12.858-5.91,12.858" transform="translate(-261.091 -137.436)" fill="none"/>
    </clipPath>
    <clipPath id="clip-path-6">
      <path id="Trazado_909835" data-name="Trazado 909835" d="M252.586,158.768c-.6,6.309-.539,10.637,1.75,13.2,4.955,5.545,27.325,6.625,27.325,6.625a240.139,240.139,0,0,0,2.638-24.282,34.946,34.946,0,0,0-12.267-2.3,30.753,30.753,0,0,0-19.445,6.754" transform="translate(-252.265 -152.014)" fill="none"/>
    </clipPath>
    <clipPath id="clip-path-7">
      <path id="Trazado_909837" data-name="Trazado 909837" d="M258.32,162.079a18.51,18.51,0,0,0,12.927,10.714,15.6,15.6,0,0,0,10.176-1.151c.555-4.288.947-8.4,1.207-11.569a18.149,18.149,0,0,0-10.508-3.553c-4.026,0-8.67,1.472-13.8,5.56" transform="translate(-258.32 -156.519)" fill="none"/>
    </clipPath>
  </defs>
  <g id="Enmascarar_grupo_1101848" data-name="Enmascarar grupo 1101848" transform="translate(-600 -1486)" clip-path="url(#clip-path)">
    <rect id="Rectángulo_405635" data-name="Rectángulo 405635" width="637.563" height="289.735" transform="translate(600 1513.265)" fill="#f1f4fe"/>
    <g id="Grupo_1112884" data-name="Grupo 1112884" transform="translate(568.156 1392)">
      <g id="Grupo_1112869" data-name="Grupo 1112869" transform="translate(-0.082 0)">
        <g id="Grupo_1112868" data-name="Grupo 1112868" transform="translate(0 0)" clip-path="url(#clip-path-2)">
          <path id="Trazado_909817" data-name="Trazado 909817" d="M383.865,794.983s-63.3-82.875-10.1-166.17S318.846,520.7,440.977,413.854c0,0,44.7-38.491,65.2-85.437,0,0,5.864,51.066,34.111,77.9,52.038,49.44,1.4,105.182-17.55,151.646-43.651,107.02,33.944,152.654-138.87,237.02" transform="translate(25.424 -36.073)" fill="#78ba90"/>
          <path id="Trazado_909818" data-name="Trazado 909818" d="M501.2,328.417s8.7,223.5-124.613,465.4" transform="translate(77.12 49.81)" fill="none" stroke="#0d2933" stroke-linecap="round" stroke-linejoin="round" stroke-width="0.75"/>
          <line id="Línea_247" data-name="Línea 247" x1="50.914" y2="50.551" transform="translate(567.245 462.079)" fill="none" stroke="#0d2933" stroke-linecap="round" stroke-linejoin="round" stroke-width="0.75"/>
          <line id="Línea_248" data-name="Línea 248" x2="85.192" y2="73.355" transform="translate(467.019 514.622)" fill="none" stroke="#0d2933" stroke-linecap="round" stroke-linejoin="round" stroke-width="0.75"/>
          <path id="Trazado_909819" data-name="Trazado 909819" d="M493.591,424.115a28.2,28.2,0,0,0-31.855,7.811c-5.693,6.635-11.353,16.685-12.836,31.172-3.231,31.573-23.1,31.552-12.5,65.517s-37.345,70.245,6.281,87.61,65.569-36.523,57.9-49.848-4.931-29.886-1.02-36.334,5.35-22.743-5.983-41.091c-9.759-15.8,26.82-53.705.01-64.838" transform="translate(7.913 -92.746)" fill="#5899a5"/>
          <path id="Trazado_909820" data-name="Trazado 909820" d="M450.816,618.409s26.81-142.846,25.35-196.305" transform="translate(49.156 -92.783)" fill="none" stroke="#0d2933" stroke-linecap="round" stroke-linejoin="round" stroke-width="0.75"/>
          <line id="Línea_249" data-name="Línea 249" x1="30.944" y1="48.408" transform="translate(525.38 557.281)" fill="none" stroke="#0d2933" stroke-linecap="round" stroke-linejoin="round" stroke-width="0.75"/>
          <line id="Línea_250" data-name="Línea 250" y1="24.984" x2="20.12" transform="translate(560.379 553.235)" fill="none" stroke="#0d2933" stroke-linecap="round" stroke-linejoin="round" stroke-width="0.75"/>
          <line id="Línea_251" data-name="Línea 251" x1="22.647" y1="39.065" transform="translate(542 506.095)" fill="none" stroke="#0d2933" stroke-linecap="round" stroke-linejoin="round" stroke-width="0.75"/>
          <line id="Línea_252" data-name="Línea 252" x1="21.42" y2="26.347" transform="translate(567.106 494.829)" fill="none" stroke="#0d2933" stroke-linecap="round" stroke-linejoin="round" stroke-width="0.75"/>
          <path id="Trazado_909821" data-name="Trazado 909821" d="M194.9,129.7s3.87-17.5,4.117-22,8.669-23.939,27.99-21.094,39.881-17.54,57.715,9.954,12.138,28.205,12.138,28.205Z" transform="translate(39.59 11.729)" fill="#f1af43"/>
          <path id="Trazado_909822" data-name="Trazado 909822" d="M369.577,131.653c3.019,21.867-44.04,45.85-105.108,53.568S151.448,181.469,148.43,159.6s44.04-45.85,105.108-53.568,113.021,3.751,116.039,25.618" transform="translate(29.962 15.075)" fill="#d19d3d"/>
          <path id="Trazado_909823" data-name="Trazado 909823" d="M264.79,103.59s48.541,12.711,45.973,67.925c-3.184,68.454,32.877,61.4,51.693,126.725,13.213,45.876-28.535,155.111-128.711,88.889S264.79,103.59,264.79,103.59" transform="translate(39.829 15.068)" fill="#0d2933"/>
          <path id="Trazado_909824" data-name="Trazado 909824" d="M295.469,185.708c-2.408,18.513-15.731,39.329-44.543,29.879l-11.445,18.019s-9.784,8.986-27.136,3.8a35.637,35.637,0,0,1-24.953-25.5l16.875-41.516a6.724,6.724,0,0,1-3.66-1s-9.893-5.421-4.653-20.631c5.462-15.854,13.918-9.726,13.918-9.726l3-7.489s6.88-27.815,51.017-20.59c34.187,5.6,34.724,34.13,34.724,34.13s-1.114,25.046-3.141,40.627" transform="translate(38.039 16.021)" fill="#a54b28"/>
          <path id="Trazado_909825" data-name="Trazado 909825" d="M194.489,148.756c5.462-15.854,13.919-9.725,13.919-9.725l2.995-7.489s6.88-27.816,51.017-20.591c34.187,5.6,34.725,34.13,34.725,34.13s-44.942,8.684-102.656,3.675" transform="translate(39.505 16.021)" fill="#8c361c"/>
          <path id="Trazado_909826" data-name="Trazado 909826" d="M243.792,205.421c28.812,9.45,42.136-11.367,44.543-29.879,0,0-10.077,44.45-66.4,17.678,0,0,10.111,9.9,21.862,12.2" transform="translate(45.173 26.187)" fill="#8c361c"/>
          <path id="Trazado_909827" data-name="Trazado 909827" d="M208.963,177.775c7.05,8.283,15.947,19.987,37.507,27.3l-11.033,17.05s-20.027-10.791-26.475-44.351" transform="translate(42.495 26.532)" fill="#8c361c"/>
          <path id="Trazado_909828" data-name="Trazado 909828" d="M222.1,155.168s19.5-14.764,29.966,6.942c0,0-6.508,7.434-16.709,6.183S222.1,155.168,222.1,155.168" transform="translate(45.208 22.281)" fill="#fff"/>
        </g>
      </g>
      <g id="Grupo_1112871" data-name="Grupo 1112871" transform="translate(267.223 173.096)">
        <g id="Grupo_1112870" data-name="Grupo 1112870" clip-path="url(#clip-path-3)">
          <path id="Trazado_909829" data-name="Trazado 909829" d="M227.178,159.728c-1.023,5.164,2.995,10.068,8.974,10.951s11.654-2.587,12.677-7.751-2.995-10.068-8.974-10.952-11.654,2.588-12.677,7.752" transform="translate(-221.08 -150.202)" fill="#0d2933"/>
        </g>
      </g>
      <g id="Grupo_1112873" data-name="Grupo 1112873" transform="translate(-0.082 0)">
        <g id="Grupo_1112872" data-name="Grupo 1112872" transform="translate(0 0)" clip-path="url(#clip-path-2)">
          <path id="Trazado_909831" data-name="Trazado 909831" d="M252.061,162.492a20.548,20.548,0,0,0-5.141-7.071c-6.525-5.631-17.4-4.8-23.691.688a1.024,1.024,0,0,1-1.838-.338c-.291-1.688-.592-3.374-.76-5.095a.32.32,0,0,1,.6-.164c.811,1.545,1.49,3.125,2.179,4.7l-1.838-.339c6.076-8.288,20.588-9.135,27.346-1.271a15.4,15.4,0,0,1,3.756,8.772.317.317,0,0,1-.612.114" transform="translate(44.905 21.955)" fill="#0d2933"/>
        </g>
      </g>
      <g id="Grupo_1112875" data-name="Grupo 1112875" transform="translate(314.272 158.269)">
        <g id="Grupo_1112874" data-name="Grupo 1112874" clip-path="url(#clip-path-5)">
          <path id="Trazado_909832" data-name="Trazado 909832" d="M280.844,146.682s8.748,1.953,10.22,4.676-.566,2.768-2.974,2.036a74.937,74.937,0,0,0-15.938-3.246c-7.534-.7-9.572-2.764-9.083-4.489a2.118,2.118,0,0,1,2-1.17c2.189-.165,7.057-.075,15.779,2.194" transform="translate(-260.696 -137.14)" fill="#0d2933"/>
        </g>
      </g>
      <g id="Grupo_1112877" data-name="Grupo 1112877" transform="translate(303.622 175.48)">
        <g id="Grupo_1112876" data-name="Grupo 1112876" clip-path="url(#clip-path-6)">
          <path id="Trazado_909834" data-name="Trazado 909834" d="M288.768,166.272s-12.044-18.789-30.448-4.194a18.514,18.514,0,0,0,12.928,10.714c9.917,2.353,17.519-6.519,17.519-6.519" transform="translate(-251.014 -151.823)" fill="#fff"/>
        </g>
      </g>
      <g id="Grupo_1112879" data-name="Grupo 1112879" transform="translate(310.929 180.346)">
        <g id="Grupo_1112878" data-name="Grupo 1112878" clip-path="url(#clip-path-7)">
          <path id="Trazado_909836" data-name="Trazado 909836" d="M283.675,169.526c-1.361,5.106-7.255,8.293-13.167,7.118s-9.6-6.267-8.24-11.373,7.256-8.293,13.167-7.119,9.6,6.268,8.24,11.374" transform="translate(-257.563 -156.46)" fill="#0d2933"/>
        </g>
      </g>
      <g id="Grupo_1112881" data-name="Grupo 1112881" transform="translate(303.622 175.48)">
        <g id="Grupo_1112880" data-name="Grupo 1112880" clip-path="url(#clip-path-6)">
          <path id="Trazado_909838" data-name="Trazado 909838" d="M258.111,162.019c2.916-5.345,10.405-8.7,17.22-7.321,6.617,1.054,12.937,5.673,13.787,11.594.043.3-.463.421-.6.141-4.365-6.53-13.752-10.74-22.268-8.245a23.5,23.5,0,0,0-7.619,4.131c-.226.233-.685-.029-.518-.3" transform="translate(-251.065 -151.914)" fill="#0d2933"/>
        </g>
      </g>
      <g id="Grupo_1112883" data-name="Grupo 1112883" transform="translate(-0.082 0)">
        <g id="Grupo_1112882" data-name="Grupo 1112882" transform="translate(0 0)" clip-path="url(#clip-path-2)">
          <path id="Trazado_909840" data-name="Trazado 909840" d="M254.482,176.106a3.256,3.256,0,0,1-1.214-.222.428.428,0,0,1-.241-.568.463.463,0,0,1,.592-.231c1.306.528,3.506-.342,4.625-1.817a2.189,2.189,0,0,0,.016-2.817l-.216-.246c-1.4-1.586-3.527-3.984-1.692-11.52a.452.452,0,0,1,.543-.323.432.432,0,0,1,.338.52c-1.73,7.112.214,9.31,1.5,10.762l.217.248a3.022,3.022,0,0,1,.027,3.885,6.169,6.169,0,0,1-4.5,2.329" transform="translate(51.59 23.53)" fill="#0d2933"/>
          <path id="Trazado_909841" data-name="Trazado 909841" d="M250.358,171.042a.465.465,0,0,1-.273-.087,1.676,1.676,0,0,0-1.68.007.461.461,0,0,1-.6-.224.427.427,0,0,1,.233-.57,2.537,2.537,0,0,1,2.588.095.423.423,0,0,1,.089.607.462.462,0,0,1-.362.172" transform="translate(50.512 25.311)" fill="#0d2933"/>
          <path id="Trazado_909842" data-name="Trazado 909842" d="M250.557,171.7a.452.452,0,0,1-.425-.284,1.277,1.277,0,0,0-.41-.5.42.42,0,0,1-.092-.6.464.464,0,0,1,.633-.087,2.1,2.1,0,0,1,.719.9.429.429,0,0,1-.273.554.474.474,0,0,1-.153.025" transform="translate(50.877 25.351)" fill="#0d2933"/>
          <path id="Trazado_909843" data-name="Trazado 909843" d="M245.537,168.656a.457.457,0,0,1-.14-.021.428.428,0,0,1-.29-.545c.679-2,3.349-2.856,3.463-2.892a.458.458,0,0,1,.569.277.43.43,0,0,1-.288.547c-.023.007-2.347.755-2.885,2.336a.45.45,0,0,1-.43.3" transform="translate(49.957 24.585)" fill="#0d2933"/>
          <path id="Trazado_909844" data-name="Trazado 909844" d="M246.429,171.539a.462.462,0,0,1-.363-.174,3.828,3.828,0,0,1-.935-3.625.453.453,0,0,1,.569-.277.428.428,0,0,1,.291.545,3.054,3.054,0,0,0,.8,2.84.421.421,0,0,1-.093.606.467.467,0,0,1-.27.085" transform="translate(49.934 24.935)" fill="#0d2933"/>
          <path id="Trazado_909845" data-name="Trazado 909845" d="M241.19,214.437c-29.515-8.713-34.289-39.114-34.289-39.114,10.376,11.025,20.874,23.635,39.994,30.132Z" transform="translate(42.069 26.153)" fill="#0d2933"/>
          <path id="Trazado_909846" data-name="Trazado 909846" d="M201.26,163a.434.434,0,1,1-.012-.866h.012a16.7,16.7,0,0,0,4-.585.458.458,0,0,1,.565.29.432.432,0,0,1-.3.54,17.541,17.541,0,0,1-4.263.621" transform="translate(40.808 24.021)" fill="#0d2933"/>
          <path id="Trazado_909847" data-name="Trazado 909847" d="M203.315,157.44h-.029a.44.44,0,0,1-.424-.459c.163-2.431.758-4.076,1.766-4.886a2.623,2.623,0,0,1,1.941-.558c.286.05.645-.262.713-.73,1.1-7.665-4.369-10.645-4.424-10.674a.423.423,0,0,1-.177-.588.457.457,0,0,1,.614-.17c.062.031,6.063,3.3,4.884,11.548a1.658,1.658,0,0,1-1.709,1.474,1.645,1.645,0,0,0-1.26.359c-.559.449-1.263,1.556-1.445,4.279a.445.445,0,0,1-.451.405" transform="translate(41.186 20.59)" fill="#0d2933"/>
          <path id="Trazado_909848" data-name="Trazado 909848" d="M197.873,152.748a.446.446,0,0,1-.451-.4c-.562-7.119,3.587-9.586,3.765-9.688a.461.461,0,0,1,.619.148.423.423,0,0,1-.152.593c-.158.091-3.847,2.325-3.328,8.882a.441.441,0,0,1-.417.464h-.035" transform="translate(40.1 21.096)" fill="#0d2933"/>
          <path id="Trazado_909849" data-name="Trazado 909849" d="M238.175,140.075s-9.021-.475-11.379,1.972-.433,3.086,2.12,3.011a69.263,69.263,0,0,1,16.327,1.2c7.426,1.443,10.091-.142,10.231-2.1a2.039,2.039,0,0,0-1.491-1.815c-2.028-.808-6.7-2.124-15.807-2.259" transform="translate(45.958 20.701)" fill="#0d2933"/>
          <path id="Trazado_909850" data-name="Trazado 909850" d="M207.027,140.814s3.45,1.957,3.164,9.075,3.108,10.325,8.185-.442c8.043-17.055,40.559-2.964,56.44-22.949,0,0,17.856.813,20.948,20.366l-.3,6.321s16.935-48.35-25.533-51.955c-37.843-11.112-69.185,9.916-68.756,38.732,0,0,3.6-.77,5.857.852" transform="translate(40.884 14.237)" fill="#0d2933"/>
          <path id="Trazado_909851" data-name="Trazado 909851" d="M202.516,166l-8.549,50.478a21.16,21.16,0,0,1-6.576-13.269Z" transform="translate(38.039 24.713)" fill="#8c361c"/>
          <path id="Trazado_909852" data-name="Trazado 909852" d="M247.569,186.816c10.085,2.164,14.1-5.013,14.1-5.013C255.411,176.752,251,179,251,179s-2.6-5.061-13.96-4.827c0,0,.448,10.481,10.532,12.644" transform="translate(48.294 25.974)" fill="#e57676"/>
          <path id="Trazado_909853" data-name="Trazado 909853" d="M254.448,183.619c-4.83,0-11.33-1.695-17.4-8.782a.421.421,0,0,1,.064-.61.464.464,0,0,1,.636.061c11.117,12.987,23.614,7.193,23.738,7.134a.459.459,0,0,1,.607.193.424.424,0,0,1-.2.581,19.038,19.038,0,0,1-7.447,1.424" transform="translate(48.276 25.969)" fill="#0d2933"/>
          <rect id="Rectángulo_405698" data-name="Rectángulo 405698" width="28.553" height="18.922" transform="translate(298.282 471.464)" fill="#8c361c"/>
          <path id="Trazado_909854" data-name="Trazado 909854" d="M146.96,331.766,86.032,587.588H273.764l18.593-252.333s-16.582-22.241-145.4-3.489" transform="translate(17.101 49.166)" fill="#0d2933"/>
          <path id="Trazado_909855" data-name="Trazado 909855" d="M266.855,234.214s20.262,23.2,20.262,202H195.525s14.445-153.42,71.33-202" transform="translate(39.719 35.253)" fill="#fdfdfd"/>
          <path id="Trazado_909856" data-name="Trazado 909856" d="M113.622,248.127c11.026,7.656,17.671,31.813,40.484,42.017l-15.94,74.294s74.071,20.514,144.267,18.849l4.386-99.466V254.739c0-19.73-17.1-32.315-24.6-35.8-1.511-.7-3.26-1.512-5.216-2.4,0,0-12.5,26.087-54.375-18.106-10.4-2.887-29.665-2.11-42.172,6.042,0,0-16.666,10.694-46.837,43.651" transform="translate(22.8 29.488)" fill="#fdfdfd"/>
          <path id="Trazado_909857" data-name="Trazado 909857" d="M191.354,197.131s32.47,18.887,0,103.87C167.2,364.222,116.073,459.73,91.472,504.5c-6.2,11.276,2.353,24.809,15.667,24.809H293.011l-1.048-230.7s-18.656-59.972-19.3-76.355c0,0-6.4-5.924-10.66-5.574,0,0,8.521,26.449,8.234,44.788,0,0-17.081-3.262-36.582-6.93,0,0-2.313-37.756-26.026-55.964,0,0-5.845-4.6-16.277-1.44" transform="translate(17.8 29.352)" fill="#f1af43"/>
          <path id="Trazado_909858" data-name="Trazado 909858" d="M292.4,368.462l.611,134.2H107.141c-13.314,0-21.864-13.532-15.667-24.808,4.492-8.175,9.869-18.042,15.8-29.1,0,0,117.323-25.559,185.125-80.3" transform="translate(17.8 55.998)" fill="#d19d3d"/>
          <path id="Trazado_909859" data-name="Trazado 909859" d="M258.165,419.542V296.56s-1.779-42.654-3.9-51.7" transform="translate(51.853 36.898)" fill="none" stroke="#0d2933" stroke-linecap="round" stroke-linejoin="round" stroke-width="0.75"/>
          <path id="Trazado_909860" data-name="Trazado 909860" d="M154.585,343.453s75.622-31.53,118.063-64.553l-3.815-19.271-87.064,20.822s-10.693,24.511-27.184,63" transform="translate(31.262 39.181)" fill="#d19d3d"/>
          <path id="Trazado_909861" data-name="Trazado 909861" d="M237.882,145.656s4,52.833-17.207,66.995-38.662-21.524-88.651,29.221c0,0-16.818,16.765-23.095,25.231,0,0-18.981-62.78,55.012-77.477,0,0,40.11-8.451,52.6-64.069l21.639-2.818Z" transform="translate(21.38 18.027)" fill="#0d2933"/>
          <path id="Trazado_909862" data-name="Trazado 909862" d="M303.225,126.357s-53.593-8.773-109.566,16.322c0,0,1.28-19.592,6.729-27.74,0,0,48.7-13.24,87.029-11.219,0,0,17.507,7.592,15.809,22.637" transform="translate(39.334 15.056)" fill="#d19d3d"/>
          <path id="Trazado_909863" data-name="Trazado 909863" d="M195.9,138.592S247.054,114.9,307.61,124.17" transform="translate(39.796 17.916)" fill="none" stroke="#0d2933" stroke-linecap="round" stroke-linejoin="round" stroke-width="0.75"/>
          <path id="Trazado_909864" data-name="Trazado 909864" d="M284.681,105.064S256.7,103.218,206.9,113.8c0,0,4.515-17.406,34.9-18.859s42.875,10.125,42.875,10.125" transform="translate(42.069 13.712)" fill="#f1af43"/>
          <path id="Trazado_909865" data-name="Trazado 909865" d="M179.968,122.823s27.6-12.312,74.392-17.56" transform="translate(36.505 15.327)" fill="none" stroke="#0d2933" stroke-linecap="round" stroke-linejoin="round" stroke-width="0.75"/>
          <path id="Trazado_909866" data-name="Trazado 909866" d="M306.436,291.323l-15,17.328h21.815l7.09-8.718c6.543,25.308-3.818,31.31-3.818,31.31l-5.181-10.176-33.266,3.653-29.177,40.7c-46.354-19.047-47.719-44.617-47.719-44.617l14.725-10.959s-4.363-52.443,25.36-57.4,22.359,24.265,22.359,24.265l16.361-11.742s19.632,9.024,26.449,26.353M223.9,305.517l34.076-25.6s6.315-27.758-16.045-18.626S223.9,305.517,223.9,305.517" transform="translate(40.888 37.983)" fill="#e57676"/>
          <line id="Línea_253" data-name="Línea 253" x1="11.216" y2="0.986" transform="translate(315.619 361.839)" fill="none" stroke="#0d2933" stroke-linecap="round" stroke-linejoin="round" stroke-width="0.75"/>
          <line id="Línea_254" data-name="Línea 254" x1="7.358" transform="translate(326.836 346.635)" fill="none" stroke="#0d2933" stroke-linecap="round" stroke-linejoin="round" stroke-width="0.75"/>
          <path id="Trazado_909867" data-name="Trazado 909867" d="M256.56,271.82s13.147-3.7,25.04,0a51.025,51.025,0,0,0-13.054-8.6Z" transform="translate(52.327 39.735)" fill="#e89ea4"/>
          <path id="Trazado_909868" data-name="Trazado 909868" d="M296.2,315.51s5.286-1.174,6.511,1.788,4.967.757,5.255-1.653-5.677-6.753-11.765-8.164a31.641,31.641,0,0,0,0,8.029" transform="translate(60.46 46.575)" fill="#faf3e0"/>
          <path id="Trazado_909869" data-name="Trazado 909869" d="M299.7,296s-6.246,7.392-2.63,25.165" transform="translate(60.463 44.801)" fill="none" stroke="#0d2933" stroke-linecap="round" stroke-linejoin="round" stroke-width="0.75"/>
          <line id="Línea_255" data-name="Línea 255" y1="17.984" x2="26.301" transform="translate(242.07 340.806)" fill="none" stroke="#0d2933" stroke-linecap="round" stroke-linejoin="round" stroke-width="0.75"/>
          <path id="Trazado_909870" data-name="Trazado 909870" d="M223.509,257.384s-12.095,11.075-14.725,13.186-7.266,17.323-.454,22.232a12.8,12.8,0,0,0,15.816,0s13.213,2.6,12.451-4.76c0,0,10.714-2.039,8.515-10.478,0,0,6.473,1.966,7.387-6.142a5.561,5.561,0,0,0,6.479-3.957c1.606-5.019-2.02-14.37-13.037-14.619-10.5-.238-18.948-.658-22.431,4.541" transform="translate(41.632 38.113)" fill="#a54b28"/>
          <path id="Trazado_909871" data-name="Trazado 909871" d="M233.567,284.647s-7.756-5.589-14.118-9.975" transform="translate(44.661 41.505)" fill="none" stroke="#0d2933" stroke-linecap="round" stroke-linejoin="round" stroke-width="0.75"/>
          <path id="Trazado_909872" data-name="Trazado 909872" d="M240.745,275.514s-7.537-4.928-14.821-9.548" transform="translate(45.999 40.16)" fill="none" stroke="#0d2933" stroke-linecap="round" stroke-linejoin="round" stroke-width="0.75"/>
          <path id="Trazado_909873" data-name="Trazado 909873" d="M247,270.547s-2.148-10.341-15.568-12.188" transform="translate(47.135 38.984)" fill="none" stroke="#0d2933" stroke-linecap="round" stroke-linejoin="round" stroke-width="0.75"/>
          <path id="Trazado_909874" data-name="Trazado 909874" d="M237.817,253.074l-61.3,11.186-1.255,41.072s20.816-4.962,39.2-16.14Z" transform="translate(35.532 38.168)" fill="#a54b28"/>
          <path id="Trazado_909875" data-name="Trazado 909875" d="M241.673,287.684s-12.5-5-15.466-8.221-6.073-6.126-22.056.405c-17.407,7.112-24.353,8.492-24.353,8.492l-4.072,16.735s26.788-13.608,35.809-17.109c0,0,9.487,8.368,18.614,1.226,0,0,6.933,2.188,11.525-1.527" transform="translate(35.629 41.702)" fill="#8c361c"/>
          <path id="Trazado_909876" data-name="Trazado 909876" d="M120.631,241.271S53.521,317.584,91.143,356.235c0,0,23.483,30.394,127.246-52.5,0,0-8.749-24.408-8.749-39.948l-48.883,6.987s-20.644-23.094-40.126-29.506" transform="translate(15.791 36.344)" fill="#fdfdfd"/>
          <path id="Trazado_909877" data-name="Trazado 909877" d="M212.16,281.535S136.9,332.59,86.3,345.938c0,0,15.9,44.422,130.727-48.422Z" transform="translate(17.156 42.566)" fill="#faf3e0"/>
          <path id="Trazado_909878" data-name="Trazado 909878" d="M200.723,299.325s-31.345,26.478-62.138,40.257" transform="translate(27.957 45.314)" fill="none" stroke="#0d2933" stroke-linecap="round" stroke-linejoin="round" stroke-width="0.75"/>
          <path id="Trazado_909879" data-name="Trazado 909879" d="M130.652,275.03s39.6-23.57,66.219-43.229c0,0,.29,18.275-4.34,34.612Z" transform="translate(26.318 34.88)" fill="#faf3e0"/>
          <path id="Trazado_909880" data-name="Trazado 909880" d="M203.192,260.776s-68.771,9.826-92.286,13.174" transform="translate(22.239 39.358)" fill="none" stroke="#0d2933" stroke-linecap="round" stroke-linejoin="round" stroke-width="0.75"/>
          <path id="Trazado_909881" data-name="Trazado 909881" d="M313.959,360.788s9.9-29.2,37.408-40.288c0,0-26.16,30.493-31.127,63.34,0,0-9.4-10.109-6.281-23.051" transform="translate(64.053 48.587)" fill="#78ba90"/>
          <path id="Trazado_909882" data-name="Trazado 909882" d="M318.468,373.471s-11.733-33.746-36.844-48.281c0,0,43.091,11.569,44.952,44.792Z" transform="translate(57.504 49.311)" fill="#3a848e"/>
          <path id="Trazado_909883" data-name="Trazado 909883" d="M312.579,341.745s9.9-29.2,37.408-40.288c0,0-26.161,30.493-31.127,63.34,0,0-9.4-10.109-6.281-23.051" transform="translate(63.768 45.644)" fill="#78ba90"/>
          <path id="Trazado_909884" data-name="Trazado 909884" d="M317.088,354.427s-11.733-33.746-36.844-48.281c0,0,43.091,11.57,44.952,44.792Z" transform="translate(57.219 46.369)" fill="#3a848e"/>
          <path id="Trazado_909885" data-name="Trazado 909885" d="M253.458,375.427c.243,2.167.559,4.94.934,8.145.1.816,8.641,1.661,8.745,2.532,2.122,17.867,5.8,46.321,9.2,60.167A4.747,4.747,0,0,0,277,449.807h92.4a4.725,4.725,0,0,0,4.716-3.795c1.445-8.027,5-28.736,9.432-61.573.1-.769,9.861-1.545,9.965-2.327q.433-3.221.874-6.594a4.663,4.663,0,0,0-4.749-5.157H258.218a4.659,4.659,0,0,0-4.76,5.066" transform="translate(51.68 56.291)" fill="#8c361c"/>
          <path id="Trazado_909886" data-name="Trazado 909886" d="M367.462,382.977a666.9,666.9,0,0,1-81.644,1.867" transform="translate(58.371 58.241)" fill="none" stroke="#0d2933" stroke-linecap="round" stroke-linejoin="round" stroke-width="0.75"/>
          <path id="Trazado_909887" data-name="Trazado 909887" d="M378.892,372.974s-22.322-19.464-51.972-11.425c0,0-26.33-24.343-56.765,11.425Z" transform="translate(55.135 53.68)" fill="#a54b28"/>
          <line id="Línea_256" data-name="Línea 256" x2="79.348" transform="translate(319.354 426.653)" fill="none" stroke="#0d2933" stroke-linecap="round" stroke-linejoin="round" stroke-width="0.75"/>
          <path id="Trazado_909888" data-name="Trazado 909888" d="M287.206,365.408s9.852-13.025,18.448,0" transform="translate(58.657 54.631)" fill="none" stroke="#0d2933" stroke-linecap="round" stroke-linejoin="round" stroke-width="0.75"/>
          <path id="Trazado_909889" data-name="Trazado 909889" d="M309.473,364.7s13.873-9.178,34.162-4.932" transform="translate(63.257 54.481)" fill="none" stroke="#0d2933" stroke-linecap="round" stroke-linejoin="round" stroke-width="0.75"/>
          <path id="Trazado_909890" data-name="Trazado 909890" d="M329.652,366.913a6.908,6.908,0,0,1,9.814-.244s1.375-2.109,4.936-1.3" transform="translate(67.425 55.417)" fill="none" stroke="#0d2933" stroke-linecap="round" stroke-linejoin="round" stroke-width="0.75"/>
          <path id="Trazado_909891" data-name="Trazado 909891" d="M144.266,573.665s-67.339-18.683-72.689-69.482S-1.508,472.227,20.385,392.292c0,0,8.261-28.99.185-55.021,0,0,23.809,20.6,49.748,24.522,47.787,7.232,43.346,45.35,52.051,70.747,20.052,58.5,79.935,57.07,21.9,141.125" transform="translate(-4.117 -4.722)" fill="#78ba90"/>
          <path id="Trazado_909892" data-name="Trazado 909892" d="M19.8,337.271s210.681,209.886,93.492,471.953" transform="translate(3.419 51.178)" fill="none" stroke="#0d2933" stroke-linecap="round" stroke-linejoin="round" stroke-width="0.75"/>
          <line id="Línea_257" data-name="Línea 257" x1="6.693" y2="35.937" transform="translate(71.738 413.988)" fill="none" stroke="#0d2933" stroke-linecap="round" stroke-linejoin="round" stroke-width="0.75"/>
          <line id="Línea_258" data-name="Línea 258" x2="75.163" y2="8.542" transform="translate(19.07 478.264)" fill="none" stroke="#0d2933" stroke-linecap="round" stroke-linejoin="round" stroke-width="0.75"/>
          <line id="Línea_259" data-name="Línea 259" x1="7.365" y2="50.517" transform="translate(119.591 488.907)" fill="none" stroke="#0d2933" stroke-linecap="round" stroke-linejoin="round" stroke-width="0.75"/>
          <line id="Línea_260" data-name="Línea 260" x2="60.975" y2="25.778" transform="translate(77.398 569.197)" fill="none" stroke="#0d2933" stroke-linecap="round" stroke-linejoin="round" stroke-width="0.75"/>
          <path id="Trazado_909893" data-name="Trazado 909893" d="M155.391,914.968S6.671,707.07,273.42,421.441c0,0,53.134-48.155,97.383,2.121S307.079,568.621,227.558,660.3s-50.9,252.077-50.9,252.077Z" transform="translate(22.89 60.972)" fill="#578d73"/>
          <path id="Trazado_909894" data-name="Trazado 909894" d="M159.642,912.2S102.068,774.848,174.1,641.8c85.723-158.338,180.629-230.443,180.629-230.443" transform="translate(27.806 62.627)" fill="none" stroke="#0d2933" stroke-linecap="round" stroke-linejoin="round" stroke-width="0.75"/>
          <path id="Trazado_909895" data-name="Trazado 909895" d="M254.066,411.068l16.652,58.208,79.43-4.932" transform="translate(51.812 62.582)" fill="none" stroke="#0d2933" stroke-linecap="round" stroke-linejoin="round" stroke-width="0.75"/>
          <path id="Trazado_909896" data-name="Trazado 909896" d="M203.378,471.264l18.4,62.909,101.408-13.529" transform="translate(41.341 71.884)" fill="none" stroke="#0d2933" stroke-linecap="round" stroke-linejoin="round" stroke-width="0.75"/>
          <path id="Trazado_909897" data-name="Trazado 909897" d="M72.061,419.287s-9.615-2.668-5.8-9.493,16.508-5.5,16.689,0-10.884,9.493-10.884,9.493" transform="translate(12.832 61.669)" fill="#f1bcbe"/>
          <path id="Trazado_909898" data-name="Trazado 909898" d="M72.061,419.287s-9.615-2.668-5.8-9.493c1.816-3.255,5.654-4.655,9.193-4.634" transform="translate(12.832 61.669)" fill="none" stroke="#0d2933" stroke-linecap="round" stroke-linejoin="round" stroke-width="0.75"/>
          <path id="Trazado_909899" data-name="Trazado 909899" d="M152.113,373.492s-.939-9.536,7.095-8.653,11.409,12.671,6.131,14.853-13.225-6.2-13.225-6.2" transform="translate(30.744 55.429)" fill="#e57676"/>
          <path id="Trazado_909900" data-name="Trazado 909900" d="M152.113,373.492s-.939-9.536,7.095-8.653c3.83.421,6.6,3.323,7.881,6.479" transform="translate(30.744 55.429)" fill="none" stroke="#0d2933" stroke-linecap="round" stroke-linejoin="round" stroke-width="0.75"/>
          <path id="Trazado_909901" data-name="Trazado 909901" d="M157.025,372.8s-4.543-8.61-11.569-3.813-3.488,16.554,2.7,15.759,8.868-11.946,8.868-11.946" transform="translate(28.577 55.855)" fill="#e57676"/>
          <path id="Trazado_909902" data-name="Trazado 909902" d="M157.025,372.8s-4.543-8.61-11.569-3.813a9.283,9.283,0,0,0-3.7,9.495" transform="translate(28.577 55.855)" fill="none" stroke="#0d2933" stroke-linecap="round" stroke-linejoin="round" stroke-width="0.75"/>
          <path id="Trazado_909903" data-name="Trazado 909903" d="M240.723,459.42A24.23,24.23,0,0,0,237,456.111s35.769-63.783-16.728-66.851-22.822,64.409-22.822,64.409C168.066,472.938,152.1,549.66,152.1,549.66l79.442-3.681c8.475-23.488,15.627-45.2,16.246-62.077,0,0,51.826-6.448,43.009-37.892s-50.077,13.409-50.077,13.409" transform="translate(30.749 59.196)" fill="#5899a5"/>
          <path id="Trazado_909904" data-name="Trazado 909904" d="M220.271,389.261c-52.5-3.066-22.822,64.41-22.822,64.41-29.382,19.268-45.345,95.99-45.345,95.99" transform="translate(30.749 59.196)" fill="none" stroke="#0d2933" stroke-linecap="round" stroke-linejoin="round" stroke-width="0.75"/>
          <path id="Trazado_909905" data-name="Trazado 909905" d="M251.548,473.065c13.785-5.021,29.215-14.855,24.081-33.165-8.816-31.444-50.077,13.407-50.077,13.407" transform="translate(45.921 65.309)" fill="none" stroke="#0d2933" stroke-linecap="round" stroke-linejoin="round" stroke-width="0.75"/>
          <path id="Trazado_909906" data-name="Trazado 909906" d="M217.944,533.3c8.475-23.488,15.628-45.2,16.246-62.077" transform="translate(44.35 71.877)" fill="none" stroke="#0d2933" stroke-linecap="round" stroke-linejoin="round" stroke-width="0.75"/>
          <path id="Trazado_909907" data-name="Trazado 909907" d="M176.737,445.958c20.215,20.395,35.322,58.649,44.964,93.242l-83.941,3.89s-29.186-40.021-29.475-72.761c0,0-51.819-18.492-35.32-50.519s53.4,17.262,53.4,17.262a47.811,47.811,0,0,1,8.553-3.887S132.362,362.074,172.9,372s3.834,73.96,3.834,73.96" transform="translate(13.732 56.398)" fill="#3a848e"/>
          <path id="Trazado_909908" data-name="Trazado 909908" d="M91.061,456.667c-13.33-8.4-27.985-22.738-18.1-41.935,16.5-32.025,53.4,17.261,53.4,17.261" transform="translate(13.732 61.476)" fill="none" stroke="#0d2933" stroke-linecap="round" stroke-linejoin="round" stroke-width="0.75"/>
          <path id="Trazado_909909" data-name="Trazado 909909" d="M170.426,411.278a148.419,148.419,0,0,1-12.011,28.464c20.215,20.394,35.324,58.648,44.964,93.242" transform="translate(32.053 62.614)" fill="none" stroke="#0d2933" stroke-linecap="round" stroke-linejoin="round" stroke-width="0.75"/>
          <path id="Trazado_909910" data-name="Trazado 909910" d="M123.759,433.185S121.206,362.074,161.747,372" transform="translate(24.888 56.397)" fill="none" stroke="#0d2933" stroke-linecap="round" stroke-linejoin="round" stroke-width="0.75"/>
          <path id="Trazado_909911" data-name="Trazado 909911" d="M158.416,435.932s21.844,23.814,32.77,56.3" transform="translate(32.053 66.424)" fill="none" stroke="#0d2933" stroke-linecap="round" stroke-linejoin="round" stroke-width="0.75"/>
          <path id="Trazado_909912" data-name="Trazado 909912" d="M149.089,443.293a3.231,3.231,0,1,1-3.228-3.088,3.161,3.161,0,0,1,3.228,3.088" transform="translate(28.793 67.084)" fill="#78ba90"/>
          <path id="Trazado_909913" data-name="Trazado 909913" d="M198.622,460.643a2.746,2.746,0,1,1-2.744-2.625,2.686,2.686,0,0,1,2.744,2.625" transform="translate(39.225 69.837)" fill="#badc9f"/>
          <path id="Trazado_909914" data-name="Trazado 909914" d="M242.538,450.919a2.746,2.746,0,1,1-2.744-2.625,2.686,2.686,0,0,1,2.744,2.625" transform="translate(48.297 68.334)" fill="#badc9f"/>
          <path id="Trazado_909915" data-name="Trazado 909915" d="M225.879,408a2.746,2.746,0,1,1-2.744-2.624A2.687,2.687,0,0,1,225.879,408" transform="translate(44.856 61.703)" fill="#badc9f"/>
          <path id="Trazado_909916" data-name="Trazado 909916" d="M200.9,428.416a2.746,2.746,0,1,1-2.744-2.624,2.686,2.686,0,0,1,2.744,2.624" transform="translate(39.695 64.857)" fill="#badc9f"/>
          <path id="Trazado_909917" data-name="Trazado 909917" d="M154.439,388.968a3.231,3.231,0,1,1-3.228-3.088,3.161,3.161,0,0,1,3.228,3.088" transform="translate(29.899 58.69)" fill="#78ba90"/>
          <path id="Trazado_909918" data-name="Trazado 909918" d="M127.453,492.227a3.231,3.231,0,1,1-3.228-3.088,3.161,3.161,0,0,1,3.228,3.088" transform="translate(24.324 74.646)" fill="#78ba90"/>
          <path id="Trazado_909919" data-name="Trazado 909919" d="M124.779,443.293a3.231,3.231,0,1,1-3.228-3.088,3.161,3.161,0,0,1,3.228,3.088" transform="translate(23.772 67.084)" fill="#78ba90"/>
          <path id="Trazado_909920" data-name="Trazado 909920" d="M183.262,480.417a2.746,2.746,0,1,1-2.744-2.624,2.687,2.687,0,0,1,2.744,2.624" transform="translate(36.052 72.892)" fill="#78ba90"/>
          <path id="Trazado_909921" data-name="Trazado 909921" d="M92.492,416.924a3.231,3.231,0,1,1-3.228-3.088,3.161,3.161,0,0,1,3.228,3.088" transform="translate(17.102 63.009)" fill="#78ba90"/>
          <path id="Trazado_909922" data-name="Trazado 909922" d="M136.776,468.981a5.769,5.769,0,1,1-5.764-5.514,5.643,5.643,0,0,1,5.764,5.514" transform="translate(25.202 70.679)" fill="#78ba90"/>
          <path id="Trazado_909923" data-name="Trazado 909923" d="M213.779,496.616a4.9,4.9,0,1,1-4.9-4.687,4.8,4.8,0,0,1,4.9,4.687" transform="translate(41.466 75.077)" fill="#badc9f"/>
          <path id="Trazado_909924" data-name="Trazado 909924" d="M160.083,419.924a5.769,5.769,0,1,1-5.763-5.514,5.642,5.642,0,0,1,5.763,5.514" transform="translate(30.017 63.098)" fill="#78ba90"/>
          <path id="Trazado_909925" data-name="Trazado 909925" d="M168.569,498.732a5.769,5.769,0,1,1-5.763-5.514,5.643,5.643,0,0,1,5.763,5.514" transform="translate(31.77 75.276)" fill="#78ba90"/>
          <path id="Trazado_909926" data-name="Trazado 909926" d="M217.839,438.5a4.9,4.9,0,1,1-4.9-4.687,4.8,4.8,0,0,1,4.9,4.687" transform="translate(42.304 66.097)" fill="#badc9f"/>
          <path id="Trazado_909927" data-name="Trazado 909927" d="M263.255,452.981a4.9,4.9,0,1,1-4.9-4.687,4.8,4.8,0,0,1,4.9,4.687" transform="translate(51.686 68.334)" fill="#badc9f"/>
          <path id="Trazado_909928" data-name="Trazado 909928" d="M145.312,405.136a5.769,5.769,0,1,1-5.764-5.514,5.644,5.644,0,0,1,5.764,5.514" transform="translate(26.966 60.813)" fill="#78ba90"/>
          <path id="Trazado_909929" data-name="Trazado 909929" d="M164.809,469.361a8.739,8.739,0,1,1-8.731-8.354,8.549,8.549,0,0,1,8.731,8.354" transform="translate(29.767 70.299)" fill="#78ba90"/>
          <path id="Trazado_909930" data-name="Trazado 909930" d="M206.375,408.6a7.43,7.43,0,1,1-7.422-7.1,7.267,7.267,0,0,1,7.422,7.1" transform="translate(38.894 61.104)" fill="#badc9f"/>
          <path id="Trazado_909931" data-name="Trazado 909931" d="M220.793,471.941a7.429,7.429,0,1,1-7.422-7.1,7.267,7.267,0,0,1,7.422,7.1" transform="translate(41.872 70.891)" fill="#badc9f"/>
          <path id="Trazado_909932" data-name="Trazado 909932" d="M108.848,444a8.739,8.739,0,1,1-8.731-8.354A8.549,8.549,0,0,1,108.848,444" transform="translate(18.207 66.379)" fill="#78ba90"/>
          <path id="Trazado_909933" data-name="Trazado 909933" d="M131.158,532.815s-29.185-40.021-29.475-72.76a40.359,40.359,0,0,1,9.187-22.526" transform="translate(20.334 66.671)" fill="none" stroke="#0d2933" stroke-linecap="round" stroke-linejoin="round" stroke-width="0.75"/>
          <path id="Trazado_909934" data-name="Trazado 909934" d="M121,425.94s18.438-6.308,31.792,2.778" transform="translate(24.324 64.55)" fill="none" stroke="#0d2933" stroke-linecap="round" stroke-linejoin="round" stroke-width="0.75"/>
          <path id="Trazado_909935" data-name="Trazado 909935" d="M278.521,551.347s-.042-42.259,20.282-67.46l9.923,1.185-5.193-8.918s9.581-14.829,16.8-19.243l8.824,1.357-2.407-8.505s22.317-25.726,34.69-34.035c0,0,2.355,13.107,2.757,17.527l-6.283,4.652,6.515,1.363s.187,16.723.875,22.557l-9.931,5.8,10.314,4.071s-.918,23.934-4.311,43.617l-9.571,3.218,7.624,6.112s-2.716,25.215-13.353,42.6-35.812,17.776-51.155,10.789c-8.013-3.649-14.5-14.415-16.4-26.694" transform="translate(56.863 63.302)" fill="#78ba90"/>
          <path id="Trazado_909936" data-name="Trazado 909936" d="M357.091,415.726S320.81,519.475,299.57,581.09" transform="translate(61.211 63.301)" fill="none" stroke="#0d2933" stroke-linecap="round" stroke-linejoin="round" stroke-width="0.75"/>
          <path id="Trazado_909937" data-name="Trazado 909937" d="M365.605,535.818c26.439-62.8,61.7-116.5,115.373-145.46,0,0-58.493,57.032-70.611,136.682Z" transform="translate(74.852 59.381)" fill="#578d73"/>
          <path id="Trazado_909938" data-name="Trazado 909938" d="M477.892,390.358s-61.867,41.51-97.347,145.495" transform="translate(77.938 59.381)" fill="none" stroke="#0d2933" stroke-linecap="round" stroke-linejoin="round" stroke-width="0.75"/>
          <path id="Trazado_909939" data-name="Trazado 909939" d="M375.844,600.562S334.557,560,337.488,516.7l14.591-8.183-15.731-3.69s-1.494-23.246,3.97-34.264l13.27-6.985-11.557-5.91s5.116-45.678,13.762-65.284c0,0,15.975,10.382,20.833,14.252L372.657,417l10.152-4.81s16.567,15.892,23.19,20.851l-7.782,14.906,17.936-5.777s22.107,23.859,36.716,45.956l-9.818,12.08,16.285-1.287S480.258,525.7,482.822,552.4s-31.144,50.714-58.733,58.411c-14.409,4.02-33.7-.23-48.245-10.245" transform="translate(68.77 59.694)" fill="#3a848e"/>
          <path id="Trazado_909940" data-name="Trazado 909940" d="M352.431,392.383s52.1,133.756,83.453,212.9" transform="translate(72.131 59.694)" fill="none" stroke="#0d2933" stroke-linecap="round" stroke-linejoin="round" stroke-width="0.75"/>
        </g>
      </g>
    </g>
  </g>
</svg>
