<svg xmlns="http://www.w3.org/2000/svg" xmlns:xlink="http://www.w3.org/1999/xlink" width="136" height="136" viewBox="0 0 136 136">
  <defs>
    <filter id="Elipse_12733" x="0" y="0" width="136" height="136" filterUnits="userSpaceOnUse">
      <feOffset dy="3" input="SourceAlpha"/>
      <feGaussianBlur stdDeviation="3" result="blur"/>
      <feFlood flood-opacity="0.161"/>
      <feComposite operator="in" in2="blur"/>
      <feComposite in="SourceGraphic"/>
    </filter>
  </defs>
  <g id="Grupo_1113546" data-name="Grupo 1113546" transform="translate(-415.623 -6310.564)">
    <g transform="matrix(1, 0, 0, 1, 415.62, 6310.56)" filter="url(#Elipse_12733)">
      <circle id="Elipse_12733-2" data-name="Elipse 12733" cx="59" cy="59" r="59" transform="translate(9 6)" fill="#fff"/>
    </g>
    <g id="cultivos_1_" data-name="cultivos (1)" transform="translate(452.854 6344.564)">
      <path id="Trazado_910954" data-name="Trazado 910954" d="M305.806,46.709V63.581a3.969,3.969,0,0,1-3.97,3.97H283.97a3.969,3.969,0,0,1-3.97-3.97V11.97A3.969,3.969,0,0,1,283.97,8h17.866a3.969,3.969,0,0,1,3.97,3.97Zm0,0" transform="translate(-245.262 -7.007)" fill="#dfb28b"/>
      <path id="Trazado_910955" data-name="Trazado 910955" d="M33.806,46.709V63.581a3.969,3.969,0,0,1-3.97,3.97H11.97A3.969,3.969,0,0,1,8,63.581V11.97A3.969,3.969,0,0,1,11.97,8H29.836a3.969,3.969,0,0,1,3.97,3.97Zm0,0" transform="translate(-7.007 -7.007)" fill="#dfb28b"/>
      <g id="Grupo_1113501" data-name="Grupo 1113501" transform="translate(5.955 8.933)">
        <path id="Trazado_910956" data-name="Trazado 910956" d="M327.94,349.955h-1.985A5.96,5.96,0,0,1,320,344h1.985A5.96,5.96,0,0,1,327.94,349.955Zm0,0" transform="translate(-286.254 -310.254)" fill="#8cc152"/>
        <path id="Trazado_910957" data-name="Trazado 910957" d="M389.955,344h1.985a5.963,5.963,0,0,1-5.955,5.955H384A5.96,5.96,0,0,1,389.955,344Zm0,0" transform="translate(-342.314 -310.254)" fill="#8cc152"/>
        <path id="Trazado_910958" data-name="Trazado 910958" d="M389.955,72h1.985a5.963,5.963,0,0,1-5.955,5.955H384A5.96,5.96,0,0,1,389.955,72Zm0,0" transform="translate(-342.314 -72)" fill="#8cc152"/>
        <path id="Trazado_910959" data-name="Trazado 910959" d="M327.94,77.955h-1.985A5.96,5.96,0,0,1,320,72h1.985A5.96,5.96,0,0,1,327.94,77.955Zm0,0" transform="translate(-286.254 -72)" fill="#8cc152"/>
        <path id="Trazado_910960" data-name="Trazado 910960" d="M117.955,208h1.985a5.963,5.963,0,0,1-5.955,5.955H112A5.96,5.96,0,0,1,117.955,208Zm0,0" transform="translate(-104.06 -191.127)" fill="#8cc152"/>
        <path id="Trazado_910961" data-name="Trazado 910961" d="M55.94,213.955H53.955A5.96,5.96,0,0,1,48,208h1.985A5.96,5.96,0,0,1,55.94,213.955Zm0,0" transform="translate(-48 -191.127)" fill="#8cc152"/>
      </g>
      <path id="Trazado_910962" data-name="Trazado 910962" d="M327.94,213.955h-1.985A5.96,5.96,0,0,1,320,208h1.985A5.96,5.96,0,0,1,327.94,213.955Zm0,0" transform="translate(-280.299 -182.194)" fill="#a0d468"/>
      <path id="Trazado_910963" data-name="Trazado 910963" d="M389.955,208h1.985a5.963,5.963,0,0,1-5.955,5.955H384A5.96,5.96,0,0,1,389.955,208Zm0,0" transform="translate(-336.359 -182.194)" fill="#a0d468"/>
      <path id="Trazado_910964" data-name="Trazado 910964" d="M117.955,72h1.985a5.963,5.963,0,0,1-5.955,5.955H112A5.96,5.96,0,0,1,117.955,72Zm0,0" transform="translate(-98.105 -63.067)" fill="#a0d468"/>
      <path id="Trazado_910965" data-name="Trazado 910965" d="M117.955,344h1.985a5.963,5.963,0,0,1-5.955,5.955H112A5.96,5.96,0,0,1,117.955,344Zm0,0" transform="translate(-98.105 -301.321)" fill="#a0d468"/>
      <path id="Trazado_910966" data-name="Trazado 910966" d="M55.94,77.955H53.955A5.96,5.96,0,0,1,48,72h1.985A5.96,5.96,0,0,1,55.94,77.955Zm0,0" transform="translate(-42.045 -63.067)" fill="#a0d468"/>
      <path id="Trazado_910967" data-name="Trazado 910967" d="M55.94,349.955H53.955A5.96,5.96,0,0,1,48,344h1.985A5.96,5.96,0,0,1,55.94,349.955Zm0,0" transform="translate(-42.045 -301.321)" fill="#a0d468"/>
      <path id="Trazado_910968" data-name="Trazado 910968" d="M50.918,71.94a6.955,6.955,0,0,0,6.948-6.948V64H54.888a6.946,6.946,0,0,0-5.956,3.387A6.943,6.943,0,0,0,42.978,64H40v.993a6.955,6.955,0,0,0,6.948,6.948h.993v1.985H45.955V75.91H51.91V73.925H49.925V71.94Zm-3.97-1.985a4.97,4.97,0,0,1-4.862-3.97h.892a4.97,4.97,0,0,1,4.862,3.97Zm7.94-3.97h.892a4.971,4.971,0,0,1-4.862,3.97h-.892A4.97,4.97,0,0,1,54.888,65.985Zm0,0" transform="translate(-35.037 -56.06)"/>
      <path id="Trazado_910969" data-name="Trazado 910969" d="M40,200.993a6.955,6.955,0,0,0,6.948,6.948h.993v1.985H45.955v1.985H51.91v-1.985H49.925V207.94h.993a6.955,6.955,0,0,0,6.948-6.948V200H54.888a6.946,6.946,0,0,0-5.956,3.387A6.943,6.943,0,0,0,42.978,200H40Zm14.888.993h.892a4.971,4.971,0,0,1-4.862,3.97h-.892A4.97,4.97,0,0,1,54.888,201.985Zm-11.91,0a4.97,4.97,0,0,1,4.862,3.97h-.892a4.97,4.97,0,0,1-4.862-3.97Zm0,0" transform="translate(-35.037 -175.187)"/>
      <path id="Trazado_910970" data-name="Trazado 910970" d="M40,336.993a6.956,6.956,0,0,0,6.948,6.948h.993v1.985H45.955v1.985H51.91v-1.985H49.925V343.94h.993a6.956,6.956,0,0,0,6.948-6.948V336H54.888a6.946,6.946,0,0,0-5.956,3.387A6.943,6.943,0,0,0,42.978,336H40Zm14.888.992h.892a4.971,4.971,0,0,1-4.862,3.97h-.892A4.97,4.97,0,0,1,54.888,337.985Zm-11.91,0a4.97,4.97,0,0,1,4.862,3.97h-.892a4.97,4.97,0,0,1-4.862-3.97Zm0,0" transform="translate(-35.037 -294.314)"/>
      <path id="Trazado_910971" data-name="Trazado 910971" d="M25.806,203.731a2.981,2.981,0,0,1-2.978,2.978H4.963a2.981,2.981,0,0,1-2.978-2.978V168H0v35.731a4.968,4.968,0,0,0,4.963,4.963H22.828a4.968,4.968,0,0,0,4.963-4.963V186.858H25.806Zm0,0" transform="translate(0 -147.157)"/>
      <path id="Trazado_910972" data-name="Trazado 910972" d="M22.828,0H4.963A4.968,4.968,0,0,0,0,4.963v13.9H1.985V4.963A2.981,2.981,0,0,1,4.963,1.985H22.828a2.981,2.981,0,0,1,2.978,2.978V37.716h1.985V4.963A4.968,4.968,0,0,0,22.828,0Zm0,0"/>
      <path id="Trazado_910973" data-name="Trazado 910973" d="M322.918,71.94a6.955,6.955,0,0,0,6.948-6.948V64h-2.978a6.946,6.946,0,0,0-5.956,3.387A6.943,6.943,0,0,0,314.978,64H312v.993a6.955,6.955,0,0,0,6.948,6.948h.993v1.985h-1.985V75.91h5.955V73.925h-1.985V71.94Zm-3.97-1.985a4.97,4.97,0,0,1-4.862-3.97h.892a4.97,4.97,0,0,1,4.862,3.97Zm7.94-3.97h.892a4.971,4.971,0,0,1-4.862,3.97h-.892A4.97,4.97,0,0,1,326.888,65.985Zm0,0" transform="translate(-273.291 -56.06)"/>
      <path id="Trazado_910974" data-name="Trazado 910974" d="M312,200.993a6.955,6.955,0,0,0,6.948,6.948h.993v1.985h-1.985v1.985h5.955v-1.985h-1.985V207.94h.993a6.955,6.955,0,0,0,6.948-6.948V200h-2.978a6.946,6.946,0,0,0-5.956,3.387A6.943,6.943,0,0,0,314.978,200H312Zm14.888.993h.892a4.971,4.971,0,0,1-4.862,3.97h-.892A4.97,4.97,0,0,1,326.888,201.985Zm-11.91,0a4.97,4.97,0,0,1,4.862,3.97h-.892a4.97,4.97,0,0,1-4.862-3.97Zm0,0" transform="translate(-273.291 -175.187)"/>
      <path id="Trazado_910975" data-name="Trazado 910975" d="M312,336.993a6.956,6.956,0,0,0,6.948,6.948h.993v1.985h-1.985v1.985h5.955v-1.985h-1.985V343.94h.993a6.956,6.956,0,0,0,6.948-6.948V336h-2.978a6.946,6.946,0,0,0-5.956,3.387A6.943,6.943,0,0,0,314.978,336H312Zm14.888.992h.892a4.971,4.971,0,0,1-4.862,3.97h-.892A4.97,4.97,0,0,1,326.888,337.985Zm-11.91,0a4.97,4.97,0,0,1,4.862,3.97h-.892a4.97,4.97,0,0,1-4.862-3.97Zm0,0" transform="translate(-273.291 -294.314)"/>
      <path id="Trazado_910976" data-name="Trazado 910976" d="M297.806,203.731a2.981,2.981,0,0,1-2.978,2.978H276.963a2.981,2.981,0,0,1-2.978-2.978V168H272v35.731a4.968,4.968,0,0,0,4.963,4.963h17.865a4.968,4.968,0,0,0,4.963-4.963V186.858h-1.985Zm0,0" transform="translate(-238.254 -147.157)"/>
      <path id="Trazado_910977" data-name="Trazado 910977" d="M294.828,0H276.963A4.969,4.969,0,0,0,272,4.963v13.9h1.985V4.963a2.981,2.981,0,0,1,2.978-2.978h17.865a2.981,2.981,0,0,1,2.978,2.978V37.716h1.985V4.963A4.968,4.968,0,0,0,294.828,0Zm0,0" transform="translate(-238.254)"/>
    </g>
  </g>
</svg>
