<svg xmlns="http://www.w3.org/2000/svg" width="56.401" height="59.642" viewBox="0 0 56.401 59.642">
  <g id="nota" transform="translate(-13.911)">
    <path id="Trazado_909307" data-name="Trazado 909307" d="M90.909,198.158a1.165,1.165,0,0,0,1.165,1.165H114.8a1.165,1.165,0,1,0,0-2.33H92.074A1.165,1.165,0,0,0,90.909,198.158Z" transform="translate(-68.029 -174.046)" fill="#7d9ffb"/>
    <path id="Trazado_909308" data-name="Trazado 909308" d="M112.44,268.216H92.074a1.165,1.165,0,0,0,0,2.33H112.44a1.165,1.165,0,0,0,0-2.33Z" transform="translate(-68.029 -236.972)" fill="#7d9ffb"/>
    <path id="Trazado_909309" data-name="Trazado 909309" d="M105.3,339.439H92.074a1.165,1.165,0,0,0,0,2.33H105.3a1.165,1.165,0,0,0,0-2.33Z" transform="translate(-68.029 -299.898)" fill="#7d9ffb"/>
    <path id="Trazado_909310" data-name="Trazado 909310" d="M102.972,410.663h-10.9a1.165,1.165,0,0,0,0,2.33h10.9a1.165,1.165,0,0,0,0-2.33Z" transform="translate(-68.029 -362.826)" fill="#7d9ffb"/>
    <path id="Trazado_909311" data-name="Trazado 909311" d="M23.431,0a3.427,3.427,0,0,0-3.423,3.423v1.17H17.633a3.725,3.725,0,0,0-3.722,3.721V55.92a3.726,3.726,0,0,0,3.722,3.722H53.409a3.725,3.725,0,0,0,3.721-3.722V38.256L68.942,26.444a4.685,4.685,0,1,0-6.626-6.626L57.129,25l0-16.69a3.725,3.725,0,0,0-3.722-3.721H51.034V3.423a3.423,3.423,0,0,0-6.846,0v1.17H38.944V3.423a3.423,3.423,0,1,0-6.846,0v1.17H26.854V3.423A3.427,3.427,0,0,0,23.431,0ZM22.338,3.423a1.093,1.093,0,0,1,2.186,0V8.095a1.107,1.107,0,0,1-1.093,1.093A1.094,1.094,0,0,1,22.338,8.1ZM43.387,42.914l2.459,2.459L41.81,46.949Zm11.755-5.965h0l-7.212,7.212L44.6,40.83l12.19-12.19,0,0,5-5,3.331,3.331Zm8.821-15.484A2.356,2.356,0,1,1,67.294,24.8l-.528.528-3.331-3.331ZM46.517,3.423a1.093,1.093,0,0,1,2.186,0V8.095a1.094,1.094,0,0,1-1.093,1.093,1.106,1.106,0,0,1-1.093-1.093Zm-11-1.093a1.094,1.094,0,0,1,1.093,1.093V8.095a1.093,1.093,0,1,1-2.185,0V3.423A1.094,1.094,0,0,1,35.521,2.33ZM32.1,6.923V8.1a3.423,3.423,0,1,0,6.846,0V6.923h5.244V8.095a3.423,3.423,0,1,0,6.846,0V6.923h2.375A1.393,1.393,0,0,1,54.8,8.314v5.93H40.6a1.183,1.183,0,0,0-.119.006,1.165,1.165,0,0,0,.118,2.324H54.8v10.76L42.127,40.006a1.222,1.222,0,0,0-.261.4l-3.193,8.172a1.165,1.165,0,0,0,1.509,1.509l8.172-3.193a1.22,1.22,0,0,0,.4-.261L54.8,40.586V55.92a1.393,1.393,0,0,1-1.391,1.392H17.633a1.394,1.394,0,0,1-1.392-1.392V16.574H30.363a1.189,1.189,0,0,0,.119-.006,1.165,1.165,0,0,0-.119-2.324H16.241V8.314a1.393,1.393,0,0,1,1.392-1.391h2.375V8.095a3.423,3.423,0,1,0,6.846,0V6.923Z" fill="#7d9ffb"/>
    <path id="Trazado_909312" data-name="Trazado 909312" d="M189.538,123.924a1.164,1.164,0,1,0,.5-1.459A1.173,1.173,0,0,0,189.538,123.924Z" transform="translate(-155.092 -108.069)" fill="#7d9ffb"/>
  </g>
</svg>
