<svg xmlns="http://www.w3.org/2000/svg" width="97.333" height="97.332" viewBox="0 0 97.333 97.332">
  <g id="libro-educativo" transform="translate(-46 -38.001)">
    <path id="Trazado_911029" data-name="Trazado 911029" d="M244.083,54.166a6.083,6.083,0,1,1,6.083-6.083A6.091,6.091,0,0,1,244.083,54.166Zm0-8.69a2.607,2.607,0,1,0,2.607,2.607A2.61,2.61,0,0,0,244.083,45.475Z" transform="translate(-108.571 -2.261)" fill="#4c241d"/>
    <circle id="Elipse_12751" data-name="Elipse 12751" cx="1.5" cy="1.5" r="1.5" transform="translate(48 54.001)" fill="#4c241d"/>
    <g id="Grupo_1113518" data-name="Grupo 1113518" transform="translate(46 72.762)">
      <path id="Trazado_911030" data-name="Trazado 911030" d="M50,122h93.857v59.1H50Z" transform="translate(-48.262 -120.261)" fill="#7d9ffb"/>
      <path id="Trazado_911031" data-name="Trazado 911031" d="M141.6,180.571H47.738A1.738,1.738,0,0,1,46,178.832v-59.1A1.738,1.738,0,0,1,47.738,118H141.6a1.738,1.738,0,0,1,1.738,1.738v59.1A1.738,1.738,0,0,1,141.6,180.571Zm-92.119-3.476h90.381V121.475H49.476Z" transform="translate(-46 -117.999)" fill="#4c241d"/>
    </g>
    <g id="Grupo_1113519" data-name="Grupo 1113519" transform="translate(70.948 38.002)">
      <path id="Trazado_911032" data-name="Trazado 911032" d="M122.44,57.642s-1.738,6.952-6.952,5.214S105.059,54.166,108.535,42c0,0,5.214,3.476,10.429,3.476S132.869,54.166,122.44,57.642Z" transform="translate(-105.674 -40.263)" fill="#d4f989"/>
      <path id="Trazado_911033" data-name="Trazado 911033" d="M114.838,62.611a6.828,6.828,0,0,1-2.159-.365c-6.438-2.146-11.711-10.254-8.073-22.984a1.739,1.739,0,0,1,2.634-.969c.048.031,4.858,3.185,9.466,3.185,3.922,0,9.322,3.754,10.033,8.135.239,1.471.174,5-5.154,7.108a9.565,9.565,0,0,1-3.947,5.175,5.77,5.77,0,0,1-2.8.715ZM107.412,42.39c-1.914,9.261,1.8,15.035,6.367,16.558a2.582,2.582,0,0,0,2.179-.1c1.467-.8,2.33-3.084,2.539-3.9a1.746,1.746,0,0,1,1.135-1.222c2.678-.893,3.914-2.091,3.675-3.564-.408-2.519-4.224-5.216-6.6-5.216a21.463,21.463,0,0,1-9.293-2.565Z" transform="translate(-103.415 -38.004)" fill="#4c241d"/>
    </g>
    <g id="Grupo_1113520" data-name="Grupo 1113520" transform="translate(95.284 38.001)">
      <path id="Trazado_911034" data-name="Trazado 911034" d="M168.305,57.642s1.738,6.952,6.952,5.214S185.686,54.166,182.21,42c0,0-5.214,3.476-10.429,3.476S157.876,54.166,168.305,57.642Z" transform="translate(-161.677 -40.262)" fill="#98e465"/>
      <path id="Trazado_911035" data-name="Trazado 911035" d="M171.392,62.609a5.766,5.766,0,0,1-2.8-.715,9.566,9.566,0,0,1-3.947-5.175c-5.328-2.11-5.392-5.638-5.154-7.108.711-4.381,6.111-8.135,10.033-8.135,4.635,0,9.417-3.153,9.464-3.184a1.738,1.738,0,0,1,2.635.968c3.637,12.73-1.636,20.838-8.073,22.984A6.832,6.832,0,0,1,171.392,62.609Zm-3.659-7.655c.209.813,1.072,3.1,2.539,3.9a2.592,2.592,0,0,0,2.179.1c4.57-1.523,8.281-7.3,6.367-16.558a21.463,21.463,0,0,1-9.293,2.565c-2.377,0-6.193,2.7-6.6,5.216-.239,1.473,1,2.671,3.675,3.564A1.738,1.738,0,0,1,167.734,54.954Z" transform="translate(-159.421 -38.001)" fill="#4c241d"/>
    </g>
    <g id="Grupo_1113521" data-name="Grupo 1113521" transform="translate(92.928 48.429)">
      <path id="Trazado_911036" data-name="Trazado 911036" d="M158,81.642c.9-2.974,8.85-13.6,12.167-15.643" transform="translate(-156.262 -64.261)" fill="#a9ba5a"/>
      <path id="Trazado_911037" data-name="Trazado 911037" d="M155.739,81.119a1.741,1.741,0,0,1-1.665-2.24c1.021-3.389,9.3-14.4,12.92-16.621a1.738,1.738,0,1,1,1.821,2.96C165.952,66.979,158.2,77.232,157.4,79.882A1.738,1.738,0,0,1,155.739,81.119Z" transform="translate(-153.999 -61.999)" fill="#4c241d"/>
    </g>
    <path id="Trazado_911038" data-name="Trazado 911038" d="M141.02,89.234a1.738,1.738,0,0,1-1.737-1.715A25.181,25.181,0,0,0,131.8,70.257l-5.3-5.291a1.738,1.738,0,0,1,2.458-2.458l5.214,5.214a28.219,28.219,0,0,1,8.578,19.75,1.739,1.739,0,0,1-1.715,1.761Z" transform="translate(-45.238 -13.571)" fill="#4c241d"/>
    <g id="Grupo_1113522" data-name="Grupo 1113522" transform="translate(54.69 117.953)">
      <path id="Trazado_911039" data-name="Trazado 911039" d="M70,226h76.476v8.69H70Z" transform="translate(-68.262 -224.261)" fill="#e4ebfe"/>
      <path id="Trazado_911040" data-name="Trazado 911040" d="M144.214,234.166H67.738A1.738,1.738,0,0,1,66,232.428v-8.69A1.738,1.738,0,0,1,67.738,222h76.476a1.738,1.738,0,0,1,1.738,1.738v8.69A1.738,1.738,0,0,1,144.214,234.166Zm-74.738-3.476h73v-5.214h-73Z" transform="translate(-66 -221.999)" fill="#4c241d"/>
    </g>
    <g id="Grupo_1113523" data-name="Grupo 1113523" transform="translate(92.929 62.081)">
      <path id="Trazado_911041" data-name="Trazado 911041" d="M158,161.445V104.286s13.488-10.242,38.215-5.669v57.159S173.735,150.014,158,161.445Z" transform="translate(-156.262 -95.694)" fill="#fff"/>
      <path id="Trazado_911042" data-name="Trazado 911042" d="M155.738,160.908A1.738,1.738,0,0,1,154,159.17V102.012a1.738,1.738,0,0,1,.687-1.384c.575-.438,14.393-10.652,39.583-5.994a1.739,1.739,0,0,1,1.422,1.709V153.5a1.739,1.739,0,0,1-2.168,1.684c-.217-.053-21.893-5.411-36.763,5.392A1.736,1.736,0,0,1,155.738,160.908Zm1.738-57.97v53.017c13.063-7.7,28.991-5.691,34.739-4.605V97.8C172.5,94.566,160.4,101.1,157.476,102.938Z" transform="translate(-154 -93.419)" fill="#4c241d"/>
    </g>
    <g id="Grupo_1113524" data-name="Grupo 1113524" transform="translate(54.69 62.081)">
      <path id="Trazado_911043" data-name="Trazado 911043" d="M108.238,161.445V104.286S94.742,94.045,70,98.617v57.159S92.493,150.014,108.238,161.445Z" transform="translate(-68.262 -95.694)" fill="#fff"/>
      <path id="Trazado_911044" data-name="Trazado 911044" d="M105.976,160.908a1.737,1.737,0,0,1-1.021-.332c-14.882-10.8-36.57-5.447-36.787-5.392A1.739,1.739,0,0,1,66,153.5V96.343a1.739,1.739,0,0,1,1.422-1.709c25.209-4.659,39.028,5.557,39.6,5.994a1.738,1.738,0,0,1,.687,1.384v57.159a1.737,1.737,0,0,1-1.738,1.738Zm-24.9-10.626c6.977,0,15.556,1.192,23.165,5.674V102.938c-2.919-1.832-15.034-8.372-34.762-5.135V151.35A63.85,63.85,0,0,1,81.073,150.282Z" transform="translate(-66 -93.419)" fill="#4c241d"/>
    </g>
    <g id="Grupo_1113525" data-name="Grupo 1113525" transform="translate(61.643 98.834)">
      <path id="Trazado_911045" data-name="Trazado 911045" d="M110.333,194.166H86a12.167,12.167,0,0,1,24.333,0Z" transform="translate(-84.262 -180.261)" fill="#e66353"/>
      <path id="Trazado_911046" data-name="Trazado 911046" d="M108.071,193.642H83.738A1.738,1.738,0,0,1,82,191.9a13.9,13.9,0,1,1,27.81,0A1.738,1.738,0,0,1,108.071,193.642Zm-22.45-3.476h20.567a10.429,10.429,0,0,0-20.567,0Z" transform="translate(-82 -177.999)" fill="#4c241d"/>
    </g>
    <g id="Grupo_1113526" data-name="Grupo 1113526" transform="translate(66.857 86.667)">
      <ellipse id="Elipse_12752" data-name="Elipse 12752" cx="7" cy="8" rx="7" ry="8" transform="translate(2.143 1.334)" fill="#ffded5"/>
      <path id="Trazado_911047" data-name="Trazado 911047" d="M102.69,169.118c-4.792,0-8.69-4.288-8.69-9.56s3.9-9.56,8.69-9.56,8.69,4.288,8.69,9.56S107.482,169.118,102.69,169.118Zm0-15.643c-2.875,0-5.214,2.729-5.214,6.083s2.339,6.083,5.214,6.083,5.214-2.729,5.214-6.083S105.566,153.475,102.69,153.475Z" transform="translate(-94 -149.999)" fill="#4c241d"/>
    </g>
    <g id="Grupo_1113527" data-name="Grupo 1113527" transform="translate(99.881 81.453)">
      <path id="Trazado_911048" data-name="Trazado 911048" d="M198.333,154.166H174a12.167,12.167,0,0,1,24.333,0Z" transform="translate(-172.262 -140.261)" fill="#26deeb"/>
      <path id="Trazado_911049" data-name="Trazado 911049" d="M196.071,153.642H171.738A1.738,1.738,0,0,1,170,151.9a13.9,13.9,0,1,1,27.81,0A1.738,1.738,0,0,1,196.071,153.642Zm-22.45-3.476h20.567a10.429,10.429,0,0,0-20.567,0Z" transform="translate(-170 -137.999)" fill="#4c241d"/>
    </g>
    <g id="Grupo_1113528" data-name="Grupo 1113528" transform="translate(105.095 69.286)">
      <ellipse id="Elipse_12753" data-name="Elipse 12753" cx="7" cy="8" rx="7" ry="8" transform="translate(1.905 1.715)" fill="#ffded5"/>
      <path id="Trazado_911050" data-name="Trazado 911050" d="M190.69,129.118c-4.792,0-8.69-4.288-8.69-9.56s3.9-9.56,8.69-9.56,8.69,4.288,8.69,9.56S195.482,129.118,190.69,129.118Zm0-15.643c-2.875,0-5.214,2.729-5.214,6.083s2.339,6.083,5.214,6.083,5.214-2.729,5.214-6.083S193.566,113.475,190.69,113.475Z" transform="translate(-182 -109.999)" fill="#4c241d"/>
    </g>
    <g id="Grupo_1113529" data-name="Grupo 1113529" transform="translate(66.857 71.024)">
      <path id="Trazado_911051" data-name="Trazado 911051" d="M199.738,190.689A1.738,1.738,0,0,1,198,188.951v-5.214a1.738,1.738,0,0,1,3.476,0v5.214A1.738,1.738,0,0,1,199.738,190.689Z" transform="translate(-152.809 -152.451)" fill="#4c241d"/>
      <path id="Trazado_911052" data-name="Trazado 911052" d="M197.643,200.951a1.738,1.738,0,0,1-1.738-1.738v-1.738H185.476v1.738a1.738,1.738,0,0,1-3.476,0v-3.476A1.738,1.738,0,0,1,183.738,194h13.9a1.738,1.738,0,0,1,1.738,1.738v3.476A1.738,1.738,0,0,1,197.643,200.951Z" transform="translate(-143.762 -159.237)" fill="#4c241d"/>
      <path id="Trazado_911053" data-name="Trazado 911053" d="M111.738,130.689A1.738,1.738,0,0,1,110,128.951v-5.214a1.738,1.738,0,0,1,3.476,0v5.214A1.738,1.738,0,0,1,111.738,130.689Z" transform="translate(-103.048 -118.523)" fill="#4c241d"/>
      <path id="Trazado_911054" data-name="Trazado 911054" d="M109.643,120.951h-13.9A1.738,1.738,0,0,1,94,119.213v-3.476a1.738,1.738,0,0,1,3.476,0v1.738H107.9v-1.738a1.738,1.738,0,0,1,3.476,0v3.476A1.738,1.738,0,0,1,109.643,120.951Z" transform="translate(-94 -113.999)" fill="#4c241d"/>
    </g>
  </g>
</svg>
