<svg xmlns="http://www.w3.org/2000/svg" xmlns:xlink="http://www.w3.org/1999/xlink" width="136" height="136" viewBox="0 0 136 136">
  <defs>
    <filter id="Elipse_12732" x="0" y="0" width="136" height="136" filterUnits="userSpaceOnUse">
      <feOffset dy="3" input="SourceAlpha"/>
      <feGaussianBlur stdDeviation="3" result="blur"/>
      <feFlood flood-opacity="0.161"/>
      <feComposite operator="in" in2="blur"/>
      <feComposite in="SourceGraphic"/>
    </filter>
  </defs>
  <g id="Grupo_1113547" data-name="Grupo 1113547" transform="translate(-730.5 -6310.564)">
    <g transform="matrix(1, 0, 0, 1, 730.5, 6310.56)" filter="url(#Elipse_12732)">
      <circle id="Elipse_12732-2" data-name="Elipse 12732" cx="59" cy="59" r="59" transform="translate(9 6)" fill="#fff"/>
    </g>
    <g id="Layer_32" data-name="Layer 32" transform="translate(756.961 6334.256)">
      <ellipse id="Elipse_12735" data-name="Elipse 12735" cx="15.845" cy="15.943" rx="15.845" ry="15.943" transform="translate(25.194 22.438)" fill="#e2e7f6"/>
      <path id="Trazado_910944" data-name="Trazado 910944" d="M49.126,32.562a15.857,15.857,0,0,0-7.508-13.479A15.87,15.87,0,0,0,27.511,47.366a15.858,15.858,0,0,0,21.614-14.8Z" transform="translate(5.151 4.505)" fill="#f2f2f2"/>
      <path id="Trazado_910945" data-name="Trazado 910945" d="M13.13,37.991A27.8,27.8,0,0,1,40.683,13.914v3.971l7.943-7.943L40.683,2V5.971A35.744,35.744,0,0,0,5.186,37.5v0l3.725-3.725Z" transform="translate(0.355 -0.676)" fill="#4d8c28"/>
      <path id="Trazado_910946" data-name="Trazado 910946" d="M37.991,61.5l-4.219,4.219L37.5,69.44h0a35.743,35.743,0,0,1-31.526-35.5H2L9.943,26l7.943,7.943H13.914A27.8,27.8,0,0,0,37.994,61.5Z" transform="translate(-0.676 7.095)" fill="#559b2d"/>
      <path id="Trazado_910947" data-name="Trazado 910947" d="M69.44,35.307l-3.725,3.725L61.5,34.813h0A27.8,27.8,0,0,1,33.943,58.889V54.918L26,62.861,33.943,70.8V66.832A35.744,35.744,0,0,0,69.44,35.3Z" transform="translate(7.095 9.949)" fill="#6bc13b"/>
      <path id="Trazado_910948" data-name="Trazado 910948" d="M35.307,5.186l3.725,3.725L34.813,13.13h0A27.8,27.8,0,0,1,58.889,40.683H54.918l7.943,7.943L70.8,40.683H66.832A35.744,35.744,0,0,0,35.3,5.186Z" transform="translate(9.949 0.355)" fill="#7bdf45"/>
      <path id="Trazado_910949" data-name="Trazado 910949" d="M33.453,57.2l3.724-3.724v3.971a27.741,27.741,0,0,0,21.163-9.771h0a6.586,6.586,0,0,0-7.85-5.989,6.655,6.655,0,0,0-3.226-2.415l.019-.015a15.886,15.886,0,0,1-20.192.015h0A6.655,6.655,0,0,0,23.864,41.7a6.586,6.586,0,0,0-7.85,5.989h0a27.753,27.753,0,0,0,17.439,9.524Z" transform="translate(3.862 11.389)" fill="#976947"/>
      <path id="Trazado_910950" data-name="Trazado 910950" d="M24,26h0A10.591,10.591,0,0,1,34.591,36.591v5.3h0A10.591,10.591,0,0,1,24,31.3Z" transform="translate(6.448 7.095)" fill="#559b2d"/>
      <path id="Trazado_910951" data-name="Trazado 910951" d="M10.591,0h0V5.3A10.591,10.591,0,0,1,0,15.886H0v-5.3A10.591,10.591,0,0,1,10.591,0Z" transform="translate(51.629 48.981) rotate(180)" fill="#6bc13b"/>
      <path id="Trazado_910952" data-name="Trazado 910952" d="M82.977,41.532a1.324,1.324,0,0,0-1.223-.817H79.082a37.046,37.046,0,0,0-32.2-35.423l-3.9-3.9a1.324,1.324,0,0,0-2.26.936V5A37.046,37.046,0,0,0,5.292,37.2l-3.9,3.9a1.324,1.324,0,0,0,.936,2.26H5A37.046,37.046,0,0,0,37.2,78.785l3.9,3.9a1.324,1.324,0,0,0,.936.388,1.307,1.307,0,0,0,.507-.1,1.324,1.324,0,0,0,.817-1.223V79.082a37.047,37.047,0,0,0,35.423-32.2l3.9-3.9a1.324,1.324,0,0,0,.287-1.443Zm-6.519.507a1.324,1.324,0,0,0,1.324,1.324h.776L73.81,48.11l-4.747-4.747h.776a1.324,1.324,0,0,0,1.324-1.324,29.218,29.218,0,0,0-22.678-28.4L50.918,11.2a1.324,1.324,0,0,0,0-1.872l-.736-.736A34.409,34.409,0,0,1,76.458,42.039ZM42.546,64.644a1.324,1.324,0,0,0-1.443.287l-3.237,3.235a26.344,26.344,0,0,1-15.575-8.541,5.234,5.234,0,0,1,6.188-4.247,1.34,1.34,0,0,0,1.324-.53,5.322,5.322,0,0,1,1.979-1.673,17.077,17.077,0,0,0,20.519,0,5.322,5.322,0,0,1,1.986,1.673,1.337,1.337,0,0,0,1.324.53A5.236,5.236,0,0,1,61.8,59.63a26.518,26.518,0,0,1-18.437,8.852V65.867a1.324,1.324,0,0,0-.817-1.223Zm-.507-10.691A14.562,14.562,0,1,1,56.6,39.391,14.562,14.562,0,0,1,42.039,53.953ZM63.749,57.13a7.89,7.89,0,0,0-7.842-4.471A7.984,7.984,0,0,0,54.4,51.336a17.21,17.21,0,1,0-24.726,0,7.984,7.984,0,0,0-1.509,1.324,7.883,7.883,0,0,0-7.837,4.459A26.38,26.38,0,0,1,15.6,43.362H18.21a1.324,1.324,0,0,0,.936-2.26L15.91,37.866A26.539,26.539,0,0,1,40.715,15.6V18.21a1.324,1.324,0,0,0,2.26.936l3.237-3.235a26.539,26.539,0,0,1,22.271,24.8H65.867a1.324,1.324,0,0,0-.936,2.26l3.235,3.237A26.163,26.163,0,0,1,63.749,57.13ZM42.039,7.619A1.324,1.324,0,0,0,43.362,6.3V5.519l4.747,4.747-4.747,4.747v-.776a1.324,1.324,0,0,0-1.324-1.324,29.218,29.218,0,0,0-28.4,22.678L11.2,33.16a1.324,1.324,0,0,0-1.872,0l-.736.736A34.409,34.409,0,0,1,42.039,7.619ZM7.619,42.039A1.324,1.324,0,0,0,6.3,40.715H5.519l4.747-4.747,4.747,4.747h-.776a1.324,1.324,0,0,0-1.324,1.324,29.218,29.218,0,0,0,22.678,28.4L33.16,72.875a1.324,1.324,0,0,0,0,1.872l.736.736A34.409,34.409,0,0,1,7.619,42.039Zm34.42,34.42a1.324,1.324,0,0,0-1.324,1.324v.776L35.968,73.81l4.747-4.747v.776a1.324,1.324,0,0,0,1.324,1.324,29.218,29.218,0,0,0,28.4-22.678l2.433,2.433a1.324,1.324,0,0,0,1.872,0l.736-.736A34.419,34.419,0,0,1,42.039,76.458Z" transform="translate(-1 -1)"/>
      <path id="Trazado_910953" data-name="Trazado 910953" d="M45.505,25a11.914,11.914,0,0,0-10.591,6.487A11.914,11.914,0,0,0,24.324,25,1.324,1.324,0,0,0,23,26.324v5.3a11.914,11.914,0,0,0,23.829,0v-5.3A1.324,1.324,0,0,0,45.505,25ZM25.648,31.619V27.742a9.281,9.281,0,0,1,7.943,9.173v3.877a9.281,9.281,0,0,1-7.943-9.173Zm18.534,0a9.281,9.281,0,0,1-7.943,9.173V36.914a9.281,9.281,0,0,1,7.943-9.173Z" transform="translate(6.124 6.772)"/>
    </g>
  </g>
</svg>
