<svg xmlns="http://www.w3.org/2000/svg" width="121.573" height="112.074" viewBox="0 0 121.573 112.074">
  <g id="banana_4_" data-name="banana (4)" transform="translate(-9.99 -29.211)">
    <path id="Trazado_910776" data-name="Trazado 910776" d="M133.823,94.353c8.794,6.59,9.923,18.475,8.552,28.665-7.41,55.088-66.8,59.348-82.569,57.327-22.651-2.9-29.641-10.778-32.835-15.314l.069-.047s6.516-.069,6.99-3.892c11.69,9.137,73.242,15.883,90.57-37.592,3.378-10.42,1.767-22.151-2.955-33.55,5.1-1.292,6.464-4.322,6.775-6.39.015.309.363,7.18,4.811,10.358C133.43,94.061,133.63,94.207,133.823,94.353Z" transform="translate(-12.784 -40.92)" fill="#edc469"/>
    <path id="Trazado_910777" data-name="Trazado 910777" d="M62.164,174.135a101.848,101.848,0,0,1,12.609-.161c13.434.786,30.7-1.715,44.6-14.277,0,0,0,0,0,0,8.359-7.549,15.507-18.729,19.888-35.007a.13.13,0,0,0,.007-.03,16.1,16.1,0,0,0,.625-6.918,12.1,12.1,0,0,0-.568-2.263,16.29,16.29,0,0,0-1.752-3.585.343.343,0,0,0,.193-.067,16.248,16.248,0,0,1,5.379-2.4c4.722,11.4,6.333,23.13,2.955,33.55-17.328,53.475-78.88,46.729-90.57,37.592a21.225,21.225,0,0,0,.1-5.841C57.556,174.508,59.783,174.3,62.164,174.135Z" transform="translate(-34.295 -60.39)" fill="#ffd97b"/>
    <path id="Trazado_910778" data-name="Trazado 910778" d="M146.92,136.193a16.1,16.1,0,0,1-.625,6.918.13.13,0,0,1-.007.03c-1.912,6.288-7.017,11.929-11.072,15.631-33.616,16.785-68.767.605-68.767.605l-.015-.007c1.1-2.53-1.013-5.466-1.574-6.18,4.2-.734,12.5-1.142,27.743,1.441,37.661,6.377,48.963-15.159,53.747-20.7h0a12.1,12.1,0,0,1,.568,2.263Z" transform="translate(-41.312 -78.844)" fill="#f7d474"/>
    <path id="Trazado_910779" data-name="Trazado 910779" d="M371.659,55.939A14.9,14.9,0,0,0,367.132,54s-1.606-5.609,1.9-7.232c1.725-.8,1.428-2.824.682-4.68a3.891,3.891,0,0,1,2.367-5.13l4.626-1.559a3.873,3.873,0,0,1,4.057,1.016l2.355,2.5a4.111,4.111,0,0,1,1.119,2.8l.015,3.326a6.59,6.59,0,0,1,0,2.1c-.311,2.068-1.678,5.1-6.775,6.39a16.248,16.248,0,0,0-5.379,2.4.343.343,0,0,1-.193.067.381.381,0,0,1-.25-.069Z" transform="translate(-268.621 -4.508)" fill="#4ca987"/>
    <path id="Trazado_910780" data-name="Trazado 910780" d="M56.615,201.3c2.738.356,5.789.852,9.184,1.525,25.225,4.989,43.566-11.47,43.566-11.47a56.466,56.466,0,0,0,5.567-4.512c4.055-3.7,9.16-9.342,11.072-15.631-4.381,16.278-11.529,27.459-19.888,35.007,0,0,0,0,0,0C72.5,223,39.645,207.569,39.645,207.569l-.015-.007c1.258-2.9-1.71-6.34-1.71-6.34,3.244-.694,9.024-1.181,18.695.077Z" transform="translate(-21.029 -106.913)" fill="#ffd880"/>
    <path id="Trazado_910781" data-name="Trazado 910781" d="M126.3,234.47a56.469,56.469,0,0,1-5.567,4.512s-18.341,16.458-43.566,11.47c-3.395-.672-6.447-1.169-9.184-1.525-8.062-2.078-12.218-6.941-14.964-10.738,2.649-.736,3.961-1.88,4.5-3.121l.015.007s35.151,16.179,68.767-.605Z" transform="translate(-32.398 -154.542)" fill="#edc469"/>
    <path id="Trazado_910782" data-name="Trazado 910782" d="M97.475,312.9c-13.909,12.562-31.17,15.063-44.6,14.277a101.848,101.848,0,0,0-12.609.161c-8.013-2.063-11.356-6.358-13.812-9.96,2.681-.736,4-1.885,4.544-3.136l.015.007S63.862,329.68,97.475,312.9Z" transform="translate(-12.393 -213.593)" fill="#e8cc54"/>
    <g id="Grupo_1113432" data-name="Grupo 1113432" transform="translate(11.475 74.346)">
      <path id="Trazado_910783" data-name="Trazado 910783" d="M47.943,211.88c.561.714,2.671,3.65,1.574,6.18-.539,1.24-1.851,2.384-4.5,3.121-.578-.8-1.095-1.554-1.571-2.224C40.7,215.1,44.183,213,44.183,213A11.287,11.287,0,0,1,47.943,211.88Z" transform="translate(-35.871 -211.88)" fill="#6f6a84"/>
      <path id="Trazado_910784" data-name="Trazado 910784" d="M28.4,373.7a21.225,21.225,0,0,1-.1,5.841c-.472,3.822-6.99,3.892-6.99,3.892l-.069.047c-.511-.724-.924-1.364-1.29-1.883a3.26,3.26,0,0,1-.185-3.444l1.2-2.169a3.231,3.231,0,0,1,2.372-1.643C24.507,374.172,26.264,373.935,28.4,373.7Z" transform="translate(-18.531 -333.716)" fill="#6f6a84"/>
      <path id="Trazado_910785" data-name="Trazado 910785" d="M21.418,292.67s2.968,3.437,1.71,6.34c-.541,1.25-1.863,2.4-4.544,3.136-.539-.791-1.035-1.547-1.527-2.239-2.745-3.852.736-5.955.736-5.955A10.218,10.218,0,0,1,21.418,292.67Z" transform="translate(-16.002 -272.708)" fill="#6f6a84"/>
    </g>
    <path id="Trazado_910786" data-name="Trazado 910786" d="M93.838,158.584c36.323,6.151,48.126-13.662,53.21-20.05a14.636,14.636,0,0,0-.128-2.341,12.1,12.1,0,0,0-.568-2.263h0c-4.784,5.542-16.085,27.078-53.746,20.7-15.245-2.582-23.547-2.174-27.743-1.441a9.19,9.19,0,0,1,1.822,3.858C71.045,156.38,79.27,156.117,93.838,158.584Z" transform="translate(-41.312 -78.844)" fill="#ccac5c"/>
    <path id="Trazado_910787" data-name="Trazado 910787" d="M373.976,49.241c1.725-.8,1.428-2.824.682-4.68a3.891,3.891,0,0,1,2.367-5.13l4.625-1.559a3.945,3.945,0,0,1,.386-.106l-1.271-1.349a3.873,3.873,0,0,0-4.057-1.016l-4.625,1.559a3.891,3.891,0,0,0-2.367,5.13c.746,1.856,1.043,3.882-.682,4.68-3.509,1.623-1.9,7.232-1.9,7.232a14.9,14.9,0,0,1,4.527,1.937.381.381,0,0,0,.25.069.338.338,0,0,0,.052-.01C371.666,54.615,371.087,50.578,373.976,49.241Z" transform="translate(-268.62 -4.508)" fill="#387c60"/>
    <path id="Trazado_910788" data-name="Trazado 910788" d="M135.382,232.939a95.774,95.774,0,0,0,17.628,2.247h.048a1.483,1.483,0,1,0,.046-2.965,92.8,92.8,0,0,1-17.08-2.178,1.483,1.483,0,1,0-.642,2.895Z" transform="translate(-93.534 -151.182)"/>
    <path id="Trazado_910789" data-name="Trazado 910789" d="M106.285,225.326c.747.227,1.512.449,2.275.66a1.482,1.482,0,1,0,.791-2.858c-.739-.2-1.48-.42-2.2-.639a1.483,1.483,0,1,0-.862,2.837Z" transform="translate(-71.71 -145.473)"/>
    <path id="Trazado_910790" data-name="Trazado 910790" d="M121.928,52.246q-.305-.229-.622-.455c-3.851-2.753-4.182-9.032-4.19-9.211a8.8,8.8,0,0,0,0-2.152L117.1,37.2a5.58,5.58,0,0,0-1.521-3.813l-2.355-2.5a5.372,5.372,0,0,0-5.609-1.4l-4.624,1.559a5.372,5.372,0,0,0-3.27,7.089c.357.886.84,2.424.071,2.78-1.384.639-3.047,2.119-3.127,5.535a12.839,12.839,0,0,0,.42,3.45,1.483,1.483,0,0,0,1.094,1.038,13.229,13.229,0,0,1,4,1.7c.038.027.08.047.119.071a15.649,15.649,0,0,1,1.043,2.094c-.381.478-.791,1.019-1.241,1.615-2.881,3.805-7.234,9.558-15.027,13.794-9.427,5.124-21.384,6.508-35.54,4.109-10.644-1.8-19.273-2.4-25.65-1.784C21.16,73,19.36,73.984,19,74.209A5.524,5.524,0,0,0,16.614,77.6a5.892,5.892,0,0,0,1.229,4.682c.187.263.381.538.581.825a32.88,32.88,0,0,0,8.535,9.043C16.7,91.8,13.1,93.894,12.439,94.36a5.517,5.517,0,0,0-2.347,3.365,5.893,5.893,0,0,0,1.229,4.682c.318.446.64.924.98,1.43,1.888,2.8,4.3,6.372,9.112,8.994-2.23.243-4.084.491-5.344.672a4.744,4.744,0,0,0-3.457,2.393l-1.2,2.171a4.752,4.752,0,0,0,.282,5.028q.233.334.5.73c3.029,4.488,9.332,13.828,34.642,17.071a58.423,58.423,0,0,0,7.187.388,98.81,98.81,0,0,0,38.01-7.746,74.462,74.462,0,0,0,11.876-6.452,1.482,1.482,0,1,0-1.65-2.462,71.491,71.491,0,0,1-11.406,6.2c-17.917,7.773-36.38,8.067-43.641,7.137-18.964-2.431-26.554-8.311-30.278-12.705a7.967,7.967,0,0,0,5-2.832c4.094,2.4,10.971,4.293,18.617,5.07a81.505,81.505,0,0,0,8.215.413,78.415,78.415,0,0,0,22.88-3.349c14.242-4.361,33.016-15.1,41.575-41.515,3.122-9.635,2.29-21.039-2.394-33.068a10.38,10.38,0,0,0,4.162-2.68,13.051,13.051,0,0,0,4.588,6.915q.289.207.568.416a20.593,20.593,0,0,1,7.534,12.14,41.663,41.663,0,0,1,.436,15.141c-1.675,12.451-6.208,23.124-13.473,31.723q-1.273,1.507-2.661,2.93a1.483,1.483,0,0,0,2.123,2.067q1.46-1.5,2.8-3.083c7.635-9.037,12.4-20.221,14.147-33.241a44.611,44.611,0,0,0-.491-16.224,23.468,23.468,0,0,0-8.64-13.825ZM19.773,119.988c-.22,1.779-3.193,2.406-4.866,2.554l-.255-.378c-.193-.286-.372-.551-.541-.791a1.783,1.783,0,0,1-.1-1.875l1.2-2.171a1.764,1.764,0,0,1,1.285-.891c.89-.128,2.084-.29,3.5-.46a26.483,26.483,0,0,1-.218,4.012Zm6.941-44.545c4.179-.348,11.793-.318,24.329,1.8,14.825,2.511,27.427,1.021,37.451-4.428,8.129-4.418,12.863-10.5,15.738-14.3a15.088,15.088,0,0,1-.681,5.359l-.005.02c-1.795,5.863-6.62,11.222-10.515,14.8-16.92,8.374-34.236,8.092-45.8,6.37A91.921,91.921,0,0,1,26.875,79.66a7.477,7.477,0,0,0-.847-4.153c.221-.022.448-.044.685-.063ZM21.2,81.9l-.349-.5c-.205-.293-.4-.575-.593-.843a3.124,3.124,0,0,1-.745-2.339,2.6,2.6,0,0,1,1.042-1.488l.025-.014a9.621,9.621,0,0,1,2.315-.733c.627.992,1.328,2.519.948,3.731A4.068,4.068,0,0,1,21.2,81.9Zm1.818,2.452A7.426,7.426,0,0,0,25.7,82.388a93.491,93.491,0,0,0,20.993,5.6,91.864,91.864,0,0,0,13.572,1.022A79.224,79.224,0,0,0,84.954,85.2a55.865,55.865,0,0,1-9.647,5.538,50.171,50.171,0,0,1-30.25,3.719c-3.385-.67-6.438-1.168-9.189-1.531a23.431,23.431,0,0,1-12.85-8.571ZM20.256,95.3c4.177-.416,11.772-.4,24.226,2.069a50.407,50.407,0,0,0,9.8.96A54.675,54.675,0,0,0,76.622,93.4a53.8,53.8,0,0,0,12.629-7.788A61.167,61.167,0,0,0,98.8,77.127c.08-.088.156-.175.235-.263A61.714,61.714,0,0,1,84.221,98.077c-16.916,8.379-33.616,8.3-44.666,6.745a82.631,82.631,0,0,1-19.2-5.033,7.648,7.648,0,0,0-.966-4.4c.277-.035.566-.068.869-.1Zm-5.594,6.736c-.315-.467-.618-.914-.925-1.346a3.123,3.123,0,0,1-.744-2.339,2.6,2.6,0,0,1,1.041-1.488.719.719,0,0,0,.1-.068,8.479,8.479,0,0,1,2.15-.812c.645.984,1.43,2.6,1.033,3.865A4.083,4.083,0,0,1,14.662,102.032Zm1.74,2.491a7.5,7.5,0,0,0,2.775-2.007,84.323,84.323,0,0,0,19.861,5.227,86.364,86.364,0,0,0,12.092.856,79.156,79.156,0,0,0,23.022-3.351c-11.86,6.471-24.472,7.389-33.586,6.856a103.139,103.139,0,0,0-12.546.143A19.875,19.875,0,0,1,16.4,104.523Zm94-22.4c-3.483,10.746-9.026,19.68-16.476,26.554a59.368,59.368,0,0,1-23.149,13.039,77.761,77.761,0,0,1-29.927,2.821c-7.6-.772-14.529-2.73-18.04-5.063a27.62,27.62,0,0,0,.133-3.824,114.594,114.594,0,0,1,17.447-.585c9.552.559,23.688-.394,36.783-8.113,14.09-8.306,23.928-22.538,29.238-42.3l-.016,0a17.519,17.519,0,0,0,.678-7.5,16.434,16.434,0,0,0-1.761-5.122,15.542,15.542,0,0,1,2.674-1.189c4.5,11.462,5.342,22.256,2.415,31.288ZM108.5,47.594a18.413,18.413,0,0,0-5.245,2.208,16.372,16.372,0,0,0-3.479-1.5c-.226-1.317-.429-3.913,1.265-4.7,3.108-1.437,2.039-5.079,1.435-6.578a2.408,2.408,0,0,1,1.466-3.172l4.624-1.559a2.4,2.4,0,0,1,2.5.627l2.355,2.5a2.622,2.622,0,0,1,.715,1.793l.043,3.605c.1.521.77,5.132-5.686,6.77Z" transform="translate(0 0)"/>
  </g>
</svg>
