<svg xmlns="http://www.w3.org/2000/svg" width="108" height="108" viewBox="0 0 108 108">
  <g id="Fill_out_line" data-name="Fill out line" transform="translate(-16 -16)">
    <rect id="Rectángulo_405944" data-name="Rectángulo 405944" width="104" height="72" rx="32" transform="translate(18 29)" fill="#d4e4f0"/>
    <path id="Trazado_911110" data-name="Trazado 911110" d="M216,392h18v14.4H216Z" transform="translate(-155 -291.4)" fill="#4384c3"/>
    <path id="Trazado_911111" data-name="Trazado 911111" d="M151.2,456h36a7.2,7.2,0,0,1,7.2,7.2H144A7.2,7.2,0,0,1,151.2,456Z" transform="translate(-99.2 -341)" fill="#529ddf"/>
    <path id="Trazado_911112" data-name="Trazado 911112" d="M128.4,360a7.2,7.2,0,0,1-7.2,7.2h-90A7.2,7.2,0,0,1,24,360Z" transform="translate(-6.2 -266.6)" fill="#529ddf"/>
    <path id="Trazado_911113" data-name="Trazado 911113" d="M419.8,24v9a3.6,3.6,0,0,1-3.6,3.6H400v-9a3.6,3.6,0,0,1,3.6-3.6Z" transform="translate(-297.6 -6.2)" fill="#7ab355"/>
    <path id="Trazado_911114" data-name="Trazado 911114" d="M363.8,117.2V59.6a3.6,3.6,0,0,0-3.6-3.6H344v9a3.6,3.6,0,0,0,3.6,3.6h9v48.6Z" transform="translate(-254.2 -31)" fill="#7ab355"/>
    <path id="Trazado_911115" data-name="Trazado 911115" d="M83.083,257h-9l-6.363-6.363A9,9,0,0,1,83.083,257Z" transform="translate(-40.083 -179.799)" fill="#f0e168"/>
    <path id="Trazado_911116" data-name="Trazado 911116" d="M74,266.083a9,9,0,1,1-15.363-6.363L65,266.083Z" transform="translate(-30.999 -188.883)" fill="#529ddf"/>
    <path id="Trazado_911117" data-name="Trazado 911117" d="M0,0H7.2V18H0Z" transform="translate(71.8 34) rotate(90)" fill="#7ab355"/>
    <path id="Trazado_911118" data-name="Trazado 911118" d="M240,288h7.2v9H240Z" transform="translate(-173.6 -210.8)" fill="#fc6f35"/>
    <path id="Trazado_911119" data-name="Trazado 911119" d="M304,280h7.2v10.8H304Z" transform="translate(-223.2 -204.6)" fill="#f0e168"/>
    <path id="Trazado_911120" data-name="Trazado 911120" d="M368,256h7.2v16.2H368Z" transform="translate(-272.8 -186)" fill="#529ddf"/>
    <path id="Trazado_911121" data-name="Trazado 911121" d="M120.4,128.8H19.6V73A5.406,5.406,0,0,1,25,67.6H84.4V64H25a9.01,9.01,0,0,0-9,9v57.6a9.01,9.01,0,0,0,9,9H59.2v10.8H52a9.01,9.01,0,0,0-9,9,1.8,1.8,0,0,0,1.8,1.8H95.2a1.8,1.8,0,0,0,1.8-1.8,9.01,9.01,0,0,0-9-9H80.8V139.6H115a9.01,9.01,0,0,0,9-9V73h-3.6ZM93.091,157.6H46.908A5.409,5.409,0,0,1,52,154H88a5.409,5.409,0,0,1,5.091,3.6ZM77.2,150.4H62.8V139.6H77.2ZM115,136H25a5.409,5.409,0,0,1-5.09-3.6H120.09A5.409,5.409,0,0,1,115,136Z" transform="translate(0 -37.2)"/>
    <path id="Trazado_911122" data-name="Trazado 911122" d="M147,16H130.8a5.406,5.406,0,0,0-5.4,5.4v1.8H114.6a1.8,1.8,0,0,0-1.8,1.8v9a5.406,5.406,0,0,0,5.4,5.4h7.2V61h-18a1.8,1.8,0,0,0-1.273.527L100.2,67.454l-5.927-5.927a1.8,1.8,0,0,0-2.546,0L68.851,84.4H66.838A10.794,10.794,0,1,0,58.8,88H69.6a1.8,1.8,0,0,0,1.273-.527L93,65.346l5.927,5.927a1.8,1.8,0,0,0,2.546,0l6.673-6.673H127.2a1.8,1.8,0,0,0,1.8-1.8V39.4h1.8V35.8h-5.4a1.8,1.8,0,0,1-1.8-1.8V26.8h7.2a1.8,1.8,0,0,1,1.8,1.8V86.2h3.6v-54h7.2a5.406,5.406,0,0,0,5.4-5.4v-9A1.8,1.8,0,0,0,147,16ZM65.768,75.4H59.542l-4.4-4.4a7.195,7.195,0,0,1,10.627,4.4ZM51.6,77.2a7.154,7.154,0,0,1,1-3.654l4.927,4.927A1.8,1.8,0,0,0,58.8,79h6.972A7.2,7.2,0,0,1,51.6,77.2Zm68.71-41.4H118.2a1.8,1.8,0,0,1-1.8-1.8V26.8H120V34a5.374,5.374,0,0,0,.31,1.8ZM130.8,23.2H129V21.4a1.8,1.8,0,0,1,1.8-1.8H138v7.2a1.8,1.8,0,0,1-1.8,1.8A5.406,5.406,0,0,0,130.8,23.2Zm14.4,3.6a1.8,1.8,0,0,1-1.8,1.8h-2.11a5.374,5.374,0,0,0,.31-1.8V19.6h3.6Z" transform="translate(-24.796)"/>
    <path id="Trazado_911123" data-name="Trazado 911123" d="M195.8,98.8a1.8,1.8,0,0,0,1.8-1.8V89.8a1.8,1.8,0,0,0-1.8-1.8h-18a1.8,1.8,0,0,0-1.8,1.8V97a1.8,1.8,0,0,0,1.8,1.8Zm-16.2-7.2H194v3.6H179.6Z" transform="translate(-124 -55.8)"/>
    <path id="Trazado_911124" data-name="Trazado 911124" d="M241,292.6a1.8,1.8,0,0,0,1.8-1.8v-9A1.8,1.8,0,0,0,241,280h-7.2a1.8,1.8,0,0,0-1.8,1.8v9a1.8,1.8,0,0,0,1.8,1.8Zm-5.4-9h3.6V289h-3.6Z" transform="translate(-167.4 -204.6)"/>
    <path id="Trazado_911125" data-name="Trazado 911125" d="M305,286.4a1.8,1.8,0,0,0,1.8-1.8V273.8A1.8,1.8,0,0,0,305,272h-7.2a1.8,1.8,0,0,0-1.8,1.8v10.8a1.8,1.8,0,0,0,1.8,1.8Zm-5.4-10.8h3.6v7.2h-3.6Z" transform="translate(-217 -198.4)"/>
    <path id="Trazado_911126" data-name="Trazado 911126" d="M369,267.8a1.8,1.8,0,0,0,1.8-1.8V249.8A1.8,1.8,0,0,0,369,248h-7.2a1.8,1.8,0,0,0-1.8,1.8V266a1.8,1.8,0,0,0,1.8,1.8Zm-5.4-16.2h3.6v12.6h-3.6Z" transform="translate(-266.6 -179.8)"/>
    <path id="Trazado_911127" data-name="Trazado 911127" d="M88,152h7.2v3.6H88Z" transform="translate(-55.8 -105.4)"/>
    <path id="Trazado_911128" data-name="Trazado 911128" d="M136,152h14.4v3.6H136Z" transform="translate(-93 -105.4)"/>
    <path id="Trazado_911129" data-name="Trazado 911129" d="M72,184h7.2v3.6H72Z" transform="translate(-43.4 -130.2)"/>
    <path id="Trazado_911130" data-name="Trazado 911130" d="M120,184h7.2v3.6H120Z" transform="translate(-80.6 -130.2)"/>
    <path id="Trazado_911131" data-name="Trazado 911131" d="M168,184h3.6v3.6H168Z" transform="translate(-117.8 -130.2)"/>
    <path id="Trazado_911132" data-name="Trazado 911132" d="M216,152h18v3.6H216Z" transform="translate(-155 -105.4)"/>
    <path id="Trazado_911133" data-name="Trazado 911133" d="M312,152h14.4v3.6H312Z" transform="translate(-229.4 -105.4)"/>
    <path id="Trazado_911134" data-name="Trazado 911134" d="M200,184h10.8v3.6H200Z" transform="translate(-142.6 -130.2)"/>
    <path id="Trazado_911135" data-name="Trazado 911135" d="M264,184h18v3.6H264Z" transform="translate(-192.2 -130.2)"/>
  </g>
</svg>
