<svg xmlns="http://www.w3.org/2000/svg" width="86.123" height="46.853" viewBox="0 0 86.123 46.853">
  <g id="arriba" transform="translate(86.123 -116.737) rotate(90)">
    <path id="Trazado_910913" data-name="Trazado 910913" d="M285.812,98.619H272.157V161.1l5.046,5.046a2.523,2.523,0,0,0,4.307-1.784V107.972h7.564a2.523,2.523,0,0,0,1.784-4.307Z" transform="translate(-129.278 -82.031)" fill="#cbd8fe"/>
    <path id="Trazado_910914" data-name="Trazado 910914" d="M162.794,22.827,148.207,8.239a2.523,2.523,0,0,0-3.568,0L125.006,27.873a2.523,2.523,0,0,0,1.784,4.307h7.564V88.568a2.523,2.523,0,0,0,4.307,1.784l7.761-7.761,2.715,2.715a2.523,2.523,0,0,0,4.307-1.784V29.657a2.523,2.523,0,0,1,2.523-2.523h5.041a2.523,2.523,0,0,0,1.784-4.307Z" transform="translate(-6.26 -6.239)" fill="#7d9ffb"/>
    <path id="Trazado_910915" data-name="Trazado 910915" d="M128.1,67.522a1.262,1.262,0,0,1-1.262-1.262V27.2h-6.3a3.785,3.785,0,0,1-2.676-6.461L137.487,1.108a3.785,3.785,0,0,1,5.352,0l19.632,19.633A3.785,3.785,0,0,1,159.8,27.2h-6.3v8.831a1.261,1.261,0,1,1-2.523,0V25.941a1.262,1.262,0,0,1,1.262-1.262H159.8a1.262,1.262,0,0,0,.892-2.154L141.055,2.893a1.263,1.263,0,0,0-1.784,0L119.639,22.526a1.262,1.262,0,0,0,.892,2.154H128.1a1.262,1.262,0,0,1,1.262,1.262V66.26A1.262,1.262,0,0,1,128.1,67.522Z"/>
    <path id="Trazado_910916" data-name="Trazado 910916" d="M199.615,283.032a3.733,3.733,0,0,1-2.652-1.118l-6.869-6.869-6.869,6.869a3.785,3.785,0,0,1-6.461-2.676V268.214a1.262,1.262,0,1,1,2.523,0v11.023a1.262,1.262,0,0,0,2.153.892l7.761-7.761a1.261,1.261,0,0,1,1.784,0l7.761,7.761a1.262,1.262,0,0,0,2.153-.892v-41.25a1.262,1.262,0,1,1,2.523,0v41.25a3.726,3.726,0,0,1-2.336,3.5A3.841,3.841,0,0,1,199.615,283.032Z" transform="translate(-49.93 -196.908)"/>
  </g>
</svg>
