<svg xmlns="http://www.w3.org/2000/svg" width="109.45" height="109.447" viewBox="0 0 109.45 109.447">
  <g id="microorganismo" transform="translate(0 -0.5)">
    <path id="Trazado_910720" data-name="Trazado 910720" d="M96.363,53.682A43.182,43.182,0,1,1,53.182,10.5,43.181,43.181,0,0,1,96.363,53.682Zm0,0" transform="translate(-7.863 -7.863)" fill="#898998"/>
    <path id="Trazado_910721" data-name="Trazado 910721" d="M378.094,385.822l17.762,17.762a5.111,5.111,0,0,0,7.228-7.228l-17.762-17.762Zm0,0" transform="translate(-297.269 -297.269)" fill="#ff5d5d"/>
    <path id="Trazado_910722" data-name="Trazado 910722" d="M241.309,216.152A25.652,25.652,0,1,1,215.656,190.5,25.653,25.653,0,0,1,241.309,216.152Zm0,0" transform="translate(-149.387 -149.384)" fill="#fff"/>
    <path id="Trazado_910723" data-name="Trazado 910723" d="M265.352,249.174A16.674,16.674,0,1,1,248.678,232.5,16.674,16.674,0,0,1,265.352,249.174Zm0,0" transform="translate(-182.409 -182.406)" fill="#72d8ff"/>
    <path id="Trazado_910724" data-name="Trazado 910724" d="M228.488,83.328a7.66,7.66,0,1,1-7.66-7.66A7.66,7.66,0,0,1,228.488,83.328Zm0,0" transform="translate(-167.599 -59.1)" fill="#c9f3ff"/>
    <path id="Trazado_910725" data-name="Trazado 910725" d="M88.445,151.075a6.014,6.014,0,0,1-3.3,5.347,7.276,7.276,0,0,0-3.971,6.476,5.985,5.985,0,0,1-5.991,5.986,6.106,6.106,0,0,1-5.978-6.251,19.263,19.263,0,0,1,10.635-16.941,5.973,5.973,0,0,1,8.6,5.384Zm0,0" transform="translate(-54.414 -113.658)" fill="#ffb9b7"/>
    <path id="Trazado_910726" data-name="Trazado 910726" d="M248.226,356.005a2.137,2.137,0,0,0-3.031,3.014l.063.064a2.138,2.138,0,0,0,3.024-3.024Zm0,0" transform="translate(-192.291 -279.013)"/>
    <path id="Trazado_910727" data-name="Trazado 910727" d="M254.072,228.042a18.814,18.814,0,0,0-31.161,19.224,2.138,2.138,0,1,0,4.059-1.343,14.538,14.538,0,1,1,9.816,9.4,2.138,2.138,0,0,0-1.167,4.113,18.814,18.814,0,0,0,18.454-31.4Zm0,0" transform="translate(-174.501 -174.576)"/>
    <path id="Trazado_910728" data-name="Trazado 910728" d="M107.326,97.575,90.361,80.609a27.742,27.742,0,0,0-.221-28.056,45.889,45.889,0,0,0,.5-6.735A45.319,45.319,0,1,0,45.319,91.138a45.883,45.883,0,0,0,6.735-.5,27.74,27.74,0,0,0,28.055.221l16.966,16.966a7.249,7.249,0,1,0,10.251-10.251ZM45.319,86.863A41.044,41.044,0,1,1,86.363,45.819q0,.867-.037,1.734A27.776,27.776,0,1,0,47.054,86.825q-.868.036-1.735.038ZM42.755,66.768A23.515,23.515,0,1,1,66.269,90.283,23.542,23.542,0,0,1,42.755,66.768ZM104.3,104.8a2.976,2.976,0,0,1-4.2,0l-16.4-16.4a28.032,28.032,0,0,0,4.2-4.2l16.4,16.4a2.974,2.974,0,0,1,0,4.205Zm0,0"/>
    <path id="Trazado_910729" data-name="Trazado 910729" d="M307.485,275.123a2.138,2.138,0,0,0,4.275,0,9.629,9.629,0,0,0-9.619-9.619,2.138,2.138,0,0,0,0,4.275A5.35,5.35,0,0,1,307.485,275.123Zm0,0" transform="translate(-235.872 -208.354)"/>
    <path id="Trazado_910730" data-name="Trazado 910730" d="M191.726,67.4a2.136,2.136,0,0,0,2.92.782l1.891-1.091a9.8,9.8,0,0,0,5.069,2.93V72.2a2.138,2.138,0,0,0,4.275,0v-2.18a9.8,9.8,0,0,0,5.069-2.93l1.891,1.092a2.138,2.138,0,0,0,2.138-3.7l-1.886-1.089a9.812,9.812,0,0,0,0-5.859l1.886-1.089a2.138,2.138,0,0,0-2.138-3.7l-1.891,1.092a9.8,9.8,0,0,0-5.069-2.931V48.72a2.138,2.138,0,0,0-4.275,0V50.9a9.8,9.8,0,0,0-5.069,2.931l-1.891-1.092a2.138,2.138,0,0,0-2.138,3.7l1.886,1.089a9.792,9.792,0,0,0,0,5.859l-1.886,1.09a2.138,2.138,0,0,0-.782,2.92Zm12.018-12.461a5.522,5.522,0,1,1-5.522,5.522,5.528,5.528,0,0,1,5.522-5.522Zm0,0" transform="translate(-150.515 -36.231)"/>
    <path id="Trazado_910731" data-name="Trazado 910731" d="M68.819,138.437h-.554c.021-.239.035-.478.035-.721a8.1,8.1,0,0,0-3.878-6.939,7.987,7.987,0,0,0-6.322-.929L56.949,128.7a2.138,2.138,0,1,0-3.024,3.024l.175.175a21.409,21.409,0,0,0-3.618,3.114l-1.045-1.045a2.138,2.138,0,0,0-3.024,3.023l1.465,1.466A21.278,21.278,0,0,0,45,146.488H43a2.138,2.138,0,0,0,0,4.275h1.9a8.452,8.452,0,0,0,2.293,4.489,7.966,7.966,0,0,0,5.7,2.41h.007a8.06,8.06,0,0,0,4.612-1.436l1.305,1.305a2.138,2.138,0,1,0,3.023-3.024l-1.562-1.562a8.089,8.089,0,0,0,.746-3.406,5.192,5.192,0,0,1,.1-1l1.785.822a2.138,2.138,0,1,0,1.789-3.883l-.974-.448c.036-.019.07-.041.106-.059a8.211,8.211,0,0,0,2.736-2.254h2.245a2.138,2.138,0,1,0,0-4.275Zm-15.91,14.95h0a3.721,3.721,0,0,1-2.658-1.136,4.144,4.144,0,0,1-1.185-2.949,17.038,17.038,0,0,1,3.193-9.722,2.135,2.135,0,0,0,.2-.267,17.171,17.171,0,0,1,6.067-5.071,3.718,3.718,0,0,1,1.675-.4,3.759,3.759,0,0,1,1.982.578,3.854,3.854,0,0,1,1.848,3.3,3.813,3.813,0,0,1-.449,1.8l-.033.059a3.933,3.933,0,0,1-1.651,1.588,9.374,9.374,0,0,0-5.135,8.379,3.847,3.847,0,0,1-3.848,3.848Zm0,0" transform="translate(-32.131 -100.3)"/>
    <path id="Trazado_910732" data-name="Trazado 910732" d="M129.81,304.172a2.135,2.135,0,1,0,1.511.624A2.148,2.148,0,0,0,129.81,304.172Zm0,0" transform="translate(-100.38 -238.756)"/>
    <path id="Trazado_910733" data-name="Trazado 910733" d="M66.028,292.172a2.138,2.138,0,1,0,1.511.626A2.144,2.144,0,0,0,66.028,292.172Zm0,0" transform="translate(-50.233 -229.322)"/>
    <path id="Trazado_910734" data-name="Trazado 910734" d="M332.466,133.236a2.14,2.14,0,1,0-1.511-.626A2.15,2.15,0,0,0,332.466,133.236Zm0,0" transform="translate(-259.714 -101)"/>
    <path id="Trazado_910735" data-name="Trazado 910735" d="M129.81,78.314a2.138,2.138,0,1,0-1.511-.626A2.153,2.153,0,0,0,129.81,78.314Zm0,0" transform="translate(-100.38 -57.819)"/>
  </g>
</svg>
