<svg xmlns="http://www.w3.org/2000/svg" xmlns:xlink="http://www.w3.org/1999/xlink" width="136" height="136" viewBox="0 0 136 136">
  <defs>
    <filter id="Elipse_12718" x="0" y="0" width="136" height="136" filterUnits="userSpaceOnUse">
      <feOffset dy="3" input="SourceAlpha"/>
      <feGaussianBlur stdDeviation="3" result="blur"/>
      <feFlood flood-opacity="0.161"/>
      <feComposite operator="in" in2="blur"/>
      <feComposite in="SourceGraphic"/>
    </filter>
  </defs>
  <g id="Grupo_1113543" data-name="Grupo 1113543" transform="translate(-730.5 -2294.17)">
    <g transform="matrix(1, 0, 0, 1, 730.5, 2294.17)" filter="url(#Elipse_12718)">
      <circle id="Elipse_12718-2" data-name="Elipse 12718" cx="59" cy="59" r="59" transform="translate(9 6)" fill="#fff"/>
    </g>
    <g id="evaluar" transform="translate(774 2327.107)">
      <g id="Grupo_1113440" data-name="Grupo 1113440" transform="translate(1.002 1.002)">
        <g id="Grupo_1113437" data-name="Grupo 1113437">
          <path id="Trazado_910791" data-name="Trazado 910791" d="M112.732,64.067a2.706,2.706,0,0,1,2.7,2.7v49.7a2.706,2.706,0,0,1-2.7,2.7H71.138a2.706,2.706,0,0,1-2.7-2.7v-49.7a2.706,2.706,0,0,1,2.7-2.7Z" transform="translate(-68.437 -57.044)" fill="#eceff1" fill-rule="evenodd"/>
          <path id="Trazado_910792" data-name="Trazado 910792" d="M276.851,64.067a2.706,2.706,0,0,1,2.7,2.7v49.7a2.706,2.706,0,0,1-2.7,2.7h-20.8v-55.1Z" transform="translate(-232.556 -57.044)" fill="#e1e4e6" fill-rule="evenodd"/>
          <path id="Trazado_910793" data-name="Trazado 910793" d="M174.28,11.508h4.683a4.592,4.592,0,0,1,8.927,0h4.683a1.255,1.255,0,0,1,1.252,1.252v4.518a1.255,1.255,0,0,1-1.252,1.252H174.28a1.255,1.255,0,0,1-1.252-1.252V12.761A1.255,1.255,0,0,1,174.28,11.508Z" transform="translate(-159.928 -7.997)" fill="#685e68" fill-rule="evenodd"/>
          <path id="Trazado_910794" data-name="Trazado 910794" d="M256.054,8a4.593,4.593,0,0,1,4.463,3.511H265.2a1.255,1.255,0,0,1,1.252,1.252v4.518a1.255,1.255,0,0,1-1.252,1.252h-9.146Z" transform="translate(-232.556 -7.998)" fill="#544854" fill-rule="evenodd"/>
        </g>
        <g id="Grupo_1113438" data-name="Grupo 1113438" transform="translate(5.765 17.724)">
          <path id="Trazado_910795" data-name="Trazado 910795" d="M123.989,150.687l5.139,8.9a2.347,2.347,0,0,1-2.032,3.52H116.818a2.347,2.347,0,0,1-2.032-3.52l5.139-8.9a2.347,2.347,0,0,1,4.065,0Z" transform="translate(-114.468 -149.514)" fill="#ffe177" fill-rule="evenodd"/>
          <path id="Trazado_910796" data-name="Trazado 910796" d="M176.291,150.687l5.139,8.9a2.347,2.347,0,0,1-2.032,3.52h-5.139V149.514A2.331,2.331,0,0,1,176.291,150.687Z" transform="translate(-166.771 -149.514)" fill="#ffd064" fill-rule="evenodd"/>
        </g>
        <g id="Grupo_1113439" data-name="Grupo 1113439" transform="translate(5.765 39.689)">
          <path id="Trazado_910797" data-name="Trazado 910797" d="M123.989,326.063l5.139,8.9a2.347,2.347,0,0,1-2.032,3.52H116.818a2.347,2.347,0,0,1-2.032-3.52l5.139-8.9a2.347,2.347,0,0,1,4.065,0Z" transform="translate(-114.468 -324.89)" fill="#ffe177" fill-rule="evenodd"/>
          <path id="Trazado_910798" data-name="Trazado 910798" d="M176.291,326.063l5.139,8.9a2.347,2.347,0,0,1-2.032,3.52h-5.139V324.89A2.331,2.331,0,0,1,176.291,326.063Z" transform="translate(-166.771 -324.89)" fill="#ffd064" fill-rule="evenodd"/>
        </g>
      </g>
      <path id="Trazado_910799" data-name="Trazado 910799" d="M75.758,29.037a1.065,1.065,0,1,1-1.065-1.065A1.066,1.066,0,0,1,75.758,29.037Zm-2.067-2.713V23.447a1,1,0,0,1,2,0v2.876a1,1,0,1,1-2,0ZM81,30.645A1.332,1.332,0,0,0,81,29.3l-5.139-8.9a1.346,1.346,0,0,0-2.329,0L68.39,29.3a1.345,1.345,0,0,0,1.165,2.017H79.832A1.333,1.333,0,0,0,81,30.645ZM77.594,19.4a3.351,3.351,0,0,0-5.8,0l-5.139,8.9a3.348,3.348,0,0,0,2.9,5.022H79.832a3.348,3.348,0,0,0,2.9-5.022ZM103.673,50.66a1,1,0,0,1-1,1H86.533a1,1,0,1,1,0-2H102.67a1,1,0,0,1,1,1Zm0-6.346a1,1,0,0,1-1,1H86.533a1,1,0,1,1,0-2H102.67a1,1,0,0,1,1,1Zm0-15.618a1,1,0,0,1-1,1H86.533a1,1,0,1,1,0-2H102.67a1,1,0,0,1,1,1Zm0-6.347a1,1,0,0,1-1,1H86.533a1,1,0,1,1,0-2H102.67a1,1,0,0,1,1,1ZM75.758,51a1.065,1.065,0,1,1-1.065-1.065A1.067,1.067,0,0,1,75.758,51ZM73.691,48.29V45.413a1,1,0,1,1,2,0V48.29a1,1,0,0,1-2,0ZM81,52.611a1.333,1.333,0,0,0,0-1.345l-5.139-8.9a1.344,1.344,0,0,0-2.329,0l-5.139,8.9a1.345,1.345,0,0,0,1.165,2.017H79.832A1.332,1.332,0,0,0,81,52.611Zm-3.4-11.249a3.35,3.35,0,0,0-5.8,0l-5.139,8.9a3.349,3.349,0,0,0,2.9,5.024H79.832a3.349,3.349,0,0,0,2.9-5.024Zm29.839,19.059v-49.7a1.7,1.7,0,0,0-1.7-1.7h-9.4v1.256a2.256,2.256,0,0,1-2.255,2.254H75.792a2.256,2.256,0,0,1-2.254-2.254V9.025h-9.4a1.7,1.7,0,0,0-1.7,1.7v49.7a1.7,1.7,0,0,0,1.7,1.7h41.6A1.7,1.7,0,0,0,107.434,60.421ZM75.541,5.764a.253.253,0,0,1,.25-.25h4.683a1,1,0,0,0,.973-.767,3.592,3.592,0,0,1,6.98,0,1,1,0,0,0,.973.767h4.683a.254.254,0,0,1,.251.25v4.518a.254.254,0,0,1-.251.25H75.792a.253.253,0,0,1-.25-.25Zm30.194,1.258h-9.4V5.764a2.257,2.257,0,0,0-2.255-2.254H90.131a5.6,5.6,0,0,0-10.387,0H75.792a2.257,2.257,0,0,0-2.254,2.254V7.022h-9.4a3.706,3.706,0,0,0-3.7,3.7v49.7a3.706,3.706,0,0,0,3.7,3.7h41.6a3.706,3.706,0,0,0,3.7-3.7v-49.7a3.706,3.706,0,0,0-3.7-3.7Z" transform="translate(-60.438 0.001)" fill-rule="evenodd"/>
    </g>
  </g>
</svg>
