<svg xmlns="http://www.w3.org/2000/svg" width="112.667" height="112.667" viewBox="0 0 112.667 112.667">
  <g id="sustancia-quimica-peligrosa_1_" data-name="sustancia-quimica-peligrosa (1)" transform="translate(-5 -5)">
    <g id="Grupo_1113406" data-name="Grupo 1113406" transform="translate(5.246 5)">
      <g id="Grupo_1113376" data-name="Grupo 1113376" transform="translate(0.88 0.88)">
        <circle id="Elipse_12716" data-name="Elipse 12716" cx="39.345" cy="39.345" r="39.345" fill="#343434"/>
      </g>
      <g id="Grupo_1113377" data-name="Grupo 1113377">
        <path id="Trazado_910736" data-name="Trazado 910736" d="M45.366,85.451A40.226,40.226,0,1,1,85.591,45.226,40.27,40.27,0,0,1,45.366,85.451Zm0-78.691A38.465,38.465,0,1,0,83.831,45.226,38.5,38.5,0,0,0,45.366,6.76Z" transform="translate(-5.14 -5)"/>
      </g>
      <g id="Grupo_1113378" data-name="Grupo 1113378" transform="translate(7.341 7.341)">
        <circle id="Elipse_12717" data-name="Elipse 12717" cx="32.885" cy="32.885" r="32.885" fill="#5cc1e6"/>
      </g>
      <g id="Grupo_1113379" data-name="Grupo 1113379" transform="translate(6.461 6.461)">
        <path id="Trazado_910737" data-name="Trazado 910737" d="M42.575,76.2A33.765,33.765,0,1,1,76.34,42.435,33.805,33.805,0,0,1,42.575,76.2Zm0-65.769a32,32,0,1,0,31.987,32A32.055,32.055,0,0,0,42.575,10.43Z" transform="translate(-8.81 -8.67)"/>
      </g>
      <g id="Grupo_1113382" data-name="Grupo 1113382" transform="translate(47.566 53.446)">
        <g id="Grupo_1113380" data-name="Grupo 1113380" transform="translate(0.88 0.88)">
          <path id="Trazado_910738" data-name="Trazado 910738" d="M41.779,40.419a4.559,4.559,0,1,1-4.559-4.559A4.56,4.56,0,0,1,41.779,40.419Z" transform="translate(-32.66 -35.86)" fill="#e6e6e6"/>
        </g>
        <g id="Grupo_1113381" data-name="Grupo 1113381">
          <path id="Trazado_910739" data-name="Trazado 910739" d="M37.6,46.239a5.44,5.44,0,1,1,5.44-5.44A5.443,5.443,0,0,1,37.6,46.239Zm0-9.119A3.679,3.679,0,1,0,41.279,40.8,3.689,3.689,0,0,0,37.6,37.12Z" transform="translate(-32.16 -35.36)"/>
        </g>
      </g>
      <g id="Grupo_1113385" data-name="Grupo 1113385" transform="translate(17.569 32.321)">
        <g id="Grupo_1113383" data-name="Grupo 1113383" transform="translate(0.88 0.898)">
          <path id="Trazado_910740" data-name="Trazado 910740" d="M24.739,28.429a4.559,4.559,0,1,1-4.559-4.559A4.56,4.56,0,0,1,24.739,28.429Z" transform="translate(-15.62 -23.87)" fill="#e6e6e6"/>
        </g>
        <g id="Grupo_1113384" data-name="Grupo 1113384" transform="translate(0)">
          <path id="Trazado_910741" data-name="Trazado 910741" d="M20.56,34.239A5.44,5.44,0,1,1,26,28.8,5.443,5.443,0,0,1,20.56,34.239Zm0-9.1a3.679,3.679,0,1,0,3.679,3.679A3.689,3.689,0,0,0,20.56,25.138Z" transform="translate(-15.12 -23.36)"/>
        </g>
      </g>
      <g id="Grupo_1113388" data-name="Grupo 1113388" transform="translate(42.25 28.536)">
        <g id="Grupo_1113386" data-name="Grupo 1113386" transform="translate(0.88 0.88)">
          <path id="Trazado_910742" data-name="Trazado 910742" d="M35.7,24.738a3.028,3.028,0,1,1-3.028-3.028A3.028,3.028,0,0,1,35.7,24.738Z" transform="translate(-29.64 -21.71)" fill="#e6e6e6"/>
        </g>
        <g id="Grupo_1113387" data-name="Grupo 1113387">
          <path id="Trazado_910743" data-name="Trazado 910743" d="M33.048,29.026a3.908,3.908,0,1,1,3.908-3.908,3.922,3.922,0,0,1-3.908,3.908Zm0-6.056A2.148,2.148,0,1,0,35.2,25.118a2.156,2.156,0,0,0-2.148-2.148Z" transform="translate(-29.14 -21.21)"/>
        </g>
      </g>
      <g id="Grupo_1113391" data-name="Grupo 1113391" transform="translate(27.85 15.14)">
        <g id="Grupo_1113389" data-name="Grupo 1113389" transform="translate(0.88 0.88)">
          <path id="Trazado_910744" data-name="Trazado 910744" d="M27.516,17.128A3.028,3.028,0,1,1,24.488,14.1a3.028,3.028,0,0,1,3.028,3.028Z" transform="translate(-21.46 -14.1)" fill="#e6e6e6"/>
        </g>
        <g id="Grupo_1113390" data-name="Grupo 1113390">
          <path id="Trazado_910745" data-name="Trazado 910745" d="M24.868,21.416a3.908,3.908,0,1,1,3.908-3.908A3.922,3.922,0,0,1,24.868,21.416Zm0-6.056a2.148,2.148,0,1,0,2.148,2.148A2.156,2.156,0,0,0,24.868,15.36Z" transform="translate(-20.96 -13.6)"/>
        </g>
      </g>
      <g id="Grupo_1113394" data-name="Grupo 1113394" transform="translate(25.755 55.083)">
        <g id="Grupo_1113392" data-name="Grupo 1113392" transform="translate(0.898 0.88)">
          <path id="Trazado_910746" data-name="Trazado 910746" d="M26.125,39.712A2.922,2.922,0,1,1,23.2,36.79,2.915,2.915,0,0,1,26.125,39.712Z" transform="translate(-20.28 -36.79)" fill="#e6e6e6"/>
        </g>
        <g id="Grupo_1113393" data-name="Grupo 1113393">
          <path id="Trazado_910747" data-name="Trazado 910747" d="M23.573,43.9a3.8,3.8,0,1,1,3.8-3.8A3.809,3.809,0,0,1,23.573,43.9Zm0-5.845a2.042,2.042,0,1,0,2.042,2.042A2.021,2.021,0,0,0,23.573,38.05Z" transform="translate(-19.77 -36.29)"/>
        </g>
      </g>
      <g id="Grupo_1113397" data-name="Grupo 1113397" transform="translate(58.657 33.976)">
        <g id="Grupo_1113395" data-name="Grupo 1113395" transform="translate(0.88 0.88)">
          <path id="Trazado_910748" data-name="Trazado 910748" d="M44.8,27.722A2.922,2.922,0,1,1,41.882,24.8,2.915,2.915,0,0,1,44.8,27.722Z" transform="translate(-38.96 -24.8)" fill="#e6e6e6"/>
        </g>
        <g id="Grupo_1113396" data-name="Grupo 1113396">
          <path id="Trazado_910749" data-name="Trazado 910749" d="M42.263,31.905a3.8,3.8,0,1,1,3.8-3.8A3.809,3.809,0,0,1,42.263,31.905Zm0-5.862A2.042,2.042,0,1,0,44.3,28.085,2.044,2.044,0,0,0,42.263,26.043Z" transform="translate(-38.46 -24.3)"/>
        </g>
      </g>
      <g id="Grupo_1113398" data-name="Grupo 1113398" transform="translate(41.008 59.693)">
        <path id="Trazado_910750" data-name="Trazado 910750" d="M29.518,48a.9.9,0,0,1-.863-.687,9.15,9.15,0,0,1,2.13-8.116.885.885,0,0,1,1.3,1.2,7.454,7.454,0,0,0-1.725,6.549A.886.886,0,0,1,29.694,48h-.176Z" transform="translate(-28.434 -38.908)"/>
      </g>
      <g id="Grupo_1113399" data-name="Grupo 1113399" transform="translate(57.427 46.772)">
        <path id="Trazado_910751" data-name="Trazado 910751" d="M38.639,34.617a.848.848,0,0,1-.739-.4A.871.871,0,0,1,38.182,33a9.49,9.49,0,0,1,6.725-1.267.877.877,0,1,1-.317,1.725,7.619,7.619,0,0,0-5.457,1.039,1.352,1.352,0,0,1-.493.123Z" transform="translate(-37.761 -31.569)"/>
      </g>
      <g id="Grupo_1113400" data-name="Grupo 1113400" transform="translate(40.702 44.342)">
        <path id="Trazado_910752" data-name="Trazado 910752" d="M29.738,36.141a.891.891,0,0,1-.827-.563,10.218,10.218,0,0,1-.6-4.595.885.885,0,1,1,1.76.176,8.484,8.484,0,0,0,.493,3.8.859.859,0,0,1-.511,1.127,1,1,0,0,1-.317.053Z" transform="translate(-28.261 -30.189)"/>
      </g>
      <g id="Grupo_1113401" data-name="Grupo 1113401" transform="translate(31.319 31.298)">
        <path id="Trazado_910753" data-name="Trazado 910753" d="M24.408,28.731a.891.891,0,0,1-.827-.563,10.218,10.218,0,0,1-.6-4.595.885.885,0,0,1,1.76.176,8.485,8.485,0,0,0,.493,3.8.859.859,0,0,1-.511,1.127,1.083,1.083,0,0,1-.317.053Z" transform="translate(-22.931 -22.779)"/>
      </g>
      <g id="Grupo_1113402" data-name="Grupo 1113402" transform="translate(54.008 24.904)">
        <path id="Trazado_910754" data-name="Trazado 910754" d="M36.7,24.663a.763.763,0,0,1-.334-.07.86.86,0,0,1-.475-1.144,7.542,7.542,0,0,1,4.542-4.26.874.874,0,0,1,1.109.563.861.861,0,0,1-.563,1.109,5.763,5.763,0,0,0-3.468,3.257.852.852,0,0,1-.81.546Z" transform="translate(-35.819 -19.147)"/>
      </g>
      <g id="Grupo_1113403" data-name="Grupo 1113403" transform="translate(40.066 17.433)">
        <path id="Trazado_910755" data-name="Trazado 910755" d="M28.781,20.426a.763.763,0,0,1-.334-.07.86.86,0,0,1-.475-1.144,7.542,7.542,0,0,1,4.542-4.26.88.88,0,0,1,.546,1.672,5.763,5.763,0,0,0-3.468,3.257.878.878,0,0,1-.81.546Z" transform="translate(-27.899 -14.903)"/>
      </g>
      <g id="Grupo_1113404" data-name="Grupo 1113404" transform="translate(17.585 50.293)">
        <path id="Trazado_910756" data-name="Trazado 910756" d="M17.736,36.088a.788.788,0,0,1-.352-.07l-1.725-.757a.883.883,0,1,1,.7-1.62l1.725.757a.881.881,0,0,1-.352,1.69Z" transform="translate(-15.129 -33.569)"/>
      </g>
      <g id="Grupo_1113405" data-name="Grupo 1113405" transform="translate(17.585 24.521)">
        <path id="Trazado_910757" data-name="Trazado 910757" d="M17.736,21.448a.788.788,0,0,1-.352-.07l-1.725-.757a.883.883,0,1,1,.7-1.62l1.725.757a.881.881,0,0,1-.352,1.69Z" transform="translate(-15.129 -18.929)"/>
      </g>
    </g>
    <g id="Grupo_1113419" data-name="Grupo 1113419" transform="translate(61.685 29.751)">
      <g id="Grupo_1113407" data-name="Grupo 1113407" transform="translate(0.88 0.88)">
        <path id="Trazado_910758" data-name="Trazado 910758" d="M91.921,46.67A27.11,27.11,0,1,1,64.81,19.56,27.111,27.111,0,0,1,91.921,46.67Z" transform="translate(-37.7 -19.56)" fill="#ffe200"/>
      </g>
      <g id="Grupo_1113408" data-name="Grupo 1113408">
        <path id="Trazado_910759" data-name="Trazado 910759" d="M65.191,75.041A27.991,27.991,0,1,1,93.181,47.051,28.028,28.028,0,0,1,65.191,75.041Zm0-54.2a26.23,26.23,0,1,0,26.23,26.23,26.262,26.262,0,0,0-26.23-26.23Z" transform="translate(-37.2 -19.06)"/>
      </g>
      <g id="Grupo_1113413" data-name="Grupo 1113413" transform="translate(10.034 12.429)">
        <g id="Grupo_1113409" data-name="Grupo 1113409">
          <path id="Trazado_910760" data-name="Trazado 910760" d="M58.18,37.035A5.342,5.342,0,0,0,55.5,41.682H42.9a17.941,17.941,0,0,1,9-15.562Z" transform="translate(-42.9 -26.12)" fill="#343434"/>
        </g>
        <g id="Grupo_1113410" data-name="Grupo 1113410" transform="translate(20.667)">
          <path id="Trazado_910761" data-name="Trazado 910761" d="M69.92,41.682h-12.6a5.363,5.363,0,0,0-2.676-4.647l6.3-10.915A18.036,18.036,0,0,1,69.92,41.682Z" transform="translate(-54.64 -26.12)" fill="#343434"/>
        </g>
        <g id="Grupo_1113411" data-name="Grupo 1113411" transform="translate(8.978 20.21)">
          <path id="Trazado_910762" data-name="Trazado 910762" d="M65.956,48.515a17.917,17.917,0,0,1-17.956,0L54.3,37.6a5.321,5.321,0,0,0,5.352,0Z" transform="translate(-48 -37.6)" fill="#343434"/>
        </g>
        <g id="Grupo_1113412" data-name="Grupo 1113412" transform="translate(12.605 10.21)">
          <path id="Trazado_910763" data-name="Trazado 910763" d="M60.763,37.272a5.352,5.352,0,1,1-5.352-5.352A5.349,5.349,0,0,1,60.763,37.272Z" transform="translate(-50.06 -31.92)" fill="#343434"/>
        </g>
      </g>
      <g id="Grupo_1113418" data-name="Grupo 1113418" transform="translate(9.154 11.548)">
        <g id="Grupo_1113414" data-name="Grupo 1113414" transform="translate(0 0.008)">
          <path id="Trazado_910764" data-name="Trazado 910764" d="M55.885,42.939H43.28a.872.872,0,0,1-.88-.88A18.889,18.889,0,0,1,51.836,25.74a.881.881,0,0,1,.669-.088.825.825,0,0,1,.528.4l6.3,10.915a.891.891,0,0,1,.088.669.8.8,0,0,1-.423.528,4.459,4.459,0,0,0-2.236,3.873A.876.876,0,0,1,55.885,42.939Zm-11.707-1.76h10.9A6.2,6.2,0,0,1,57.4,37.148l-5.44-9.418a17.133,17.133,0,0,0-7.781,13.45Z" transform="translate(-42.4 -25.624)"/>
        </g>
        <g id="Grupo_1113415" data-name="Grupo 1113415" transform="translate(20.652)">
          <path id="Trazado_910765" data-name="Trazado 910765" d="M70.29,42.943h-12.6a.872.872,0,0,1-.88-.88,4.493,4.493,0,0,0-2.236-3.891.869.869,0,0,1-.317-1.2l6.3-10.915a.924.924,0,0,1,.528-.4.817.817,0,0,1,.669.088,18.933,18.933,0,0,1,9.436,16.319A.9.9,0,0,1,70.29,42.943Zm-11.795-1.76h10.9a17.16,17.16,0,0,0-7.781-13.45l-5.44,9.418a6.288,6.288,0,0,1,2.324,4.031Z" transform="translate(-54.131 -25.62)"/>
        </g>
        <g id="Grupo_1113416" data-name="Grupo 1113416" transform="translate(8.98 20.212)">
          <path id="Trazado_910766" data-name="Trazado 910766" d="M57.357,52.186a18.791,18.791,0,0,1-9.418-2.535.869.869,0,0,1-.317-1.2l6.3-10.915a.869.869,0,0,1,1.2-.317,4.537,4.537,0,0,0,4.489,0,.869.869,0,0,1,1.2.317l6.3,10.915a.869.869,0,0,1-.317,1.2A18.9,18.9,0,0,1,57.357,52.186Zm-7.746-3.626a17.227,17.227,0,0,0,15.527,0L59.7,39.141a6.239,6.239,0,0,1-4.647,0Z" transform="translate(-47.501 -37.101)"/>
        </g>
        <g id="Grupo_1113417" data-name="Grupo 1113417" transform="translate(12.605 10.211)">
          <path id="Trazado_910767" data-name="Trazado 910767" d="M55.792,43.884a6.232,6.232,0,1,1,6.232-6.232A6.243,6.243,0,0,1,55.792,43.884Zm0-10.7a4.471,4.471,0,1,0,4.471,4.471A4.478,4.478,0,0,0,55.792,33.18Z" transform="translate(-49.56 -31.42)"/>
        </g>
      </g>
    </g>
    <g id="Grupo_1113431" data-name="Grupo 1113431" transform="translate(5 36.881)">
      <g id="Grupo_1113420" data-name="Grupo 1113420" transform="translate(0.875 0.871)">
        <path id="Trazado_910768" data-name="Trazado 910768" d="M87.485,102.639h-74.5A7.474,7.474,0,0,1,6.523,91.407l37.25-64.079a7.467,7.467,0,0,1,12.921,0l37.25,64.079A7.469,7.469,0,0,1,87.485,102.639Z" transform="translate(-5.497 -23.605)" fill="#ff003b"/>
      </g>
      <g id="Grupo_1113421" data-name="Grupo 1113421">
        <path id="Trazado_910769" data-name="Trazado 910769" d="M87.863,103.9h-74.5A8.356,8.356,0,0,1,6.144,91.344l37.25-64.079a8.347,8.347,0,0,1,14.435,0l37.25,64.079A8.356,8.356,0,0,1,87.863,103.9ZM50.612,24.87a6.556,6.556,0,0,0-5.7,3.274L7.658,92.224a6.6,6.6,0,0,0,5.7,9.911h74.5a6.6,6.6,0,0,0,5.7-9.911L56.316,28.145A6.556,6.556,0,0,0,50.612,24.87Z" transform="translate(-5 -23.11)"/>
      </g>
      <g id="Grupo_1113422" data-name="Grupo 1113422" transform="translate(9.33 9.471)">
        <path id="Trazado_910770" data-name="Trazado 910770" d="M10.3,90.9,46.582,28.49,82.864,90.9Z" transform="translate(-10.3 -28.49)" fill="#e6e6e6"/>
      </g>
      <g id="Grupo_1113423" data-name="Grupo 1113423" transform="translate(8.454 8.591)">
        <path id="Trazado_910771" data-name="Trazado 910771" d="M83.243,92.157H10.678a.888.888,0,0,1-.757-.44.874.874,0,0,1,0-.88L46.2,28.43a.888.888,0,0,1,.757-.44.851.851,0,0,1,.757.44L84,90.837a.88.88,0,0,1-.757,1.32ZM12.21,90.4h69.5L46.961,30.613Z" transform="translate(-9.802 -27.99)"/>
      </g>
      <g id="Grupo_1113430" data-name="Grupo 1113430" transform="translate(39.572 30.156)">
        <g id="Grupo_1113426" data-name="Grupo 1113426" transform="translate(0.865 0.88)">
          <g id="Grupo_1113424" data-name="Grupo 1113424">
            <path id="Trazado_910772" data-name="Trazado 910772" d="M27.97,40.74l2.271,25.051h5.827L38.321,40.74Z" transform="translate(-27.97 -40.74)" fill="#ff003b"/>
          </g>
          <g id="Grupo_1113425" data-name="Grupo 1113425" transform="translate(2.271 29.593)">
            <path id="Trazado_910773" data-name="Trazado 910773" d="M29.26,57.55h5.827v5.827H29.26Z" transform="translate(-29.26 -57.55)" fill="#ff003b"/>
          </g>
        </g>
        <g id="Grupo_1113429" data-name="Grupo 1113429">
          <g id="Grupo_1113427" data-name="Grupo 1113427">
            <path id="Trazado_910774" data-name="Trazado 910774" d="M36.442,67.051H30.615a.9.9,0,0,1-.88-.81L27.481,41.191a.847.847,0,0,1,.229-.669.891.891,0,0,1,.651-.282H38.713a.875.875,0,0,1,.88.951L37.322,66.241A.9.9,0,0,1,36.442,67.051Zm-5.017-1.76h4.207L37.727,42H29.312Z" transform="translate(-27.479 -40.24)"/>
          </g>
          <g id="Grupo_1113428" data-name="Grupo 1113428" transform="translate(2.256 29.593)">
            <path id="Trazado_910775" data-name="Trazado 910775" d="M35.467,64.637H29.64a.872.872,0,0,1-.88-.88V57.93a.872.872,0,0,1,.88-.88h5.827a.872.872,0,0,1,.88.88v5.827A.894.894,0,0,1,35.467,64.637Zm-4.947-1.76h4.067V58.81H30.52Z" transform="translate(-28.76 -57.05)"/>
          </g>
        </g>
      </g>
    </g>
  </g>
</svg>
