<svg xmlns="http://www.w3.org/2000/svg" xmlns:xlink="http://www.w3.org/1999/xlink" width="136" height="136" viewBox="0 0 136 136">
  <defs>
    <filter id="Elipse_12618" x="0" y="0" width="136" height="136" filterUnits="userSpaceOnUse">
      <feOffset dy="3" input="SourceAlpha"/>
      <feGaussianBlur stdDeviation="3" result="blur"/>
      <feFlood flood-opacity="0.161"/>
      <feComposite operator="in" in2="blur"/>
      <feComposite in="SourceGraphic"/>
    </filter>
  </defs>
  <g id="Grupo_1113542" data-name="Grupo 1113542" transform="translate(-415.623 -2294.17)">
    <g transform="matrix(1, 0, 0, 1, 415.62, 2294.17)" filter="url(#Elipse_12618)">
      <circle id="Elipse_12618-2" data-name="Elipse 12618" cx="59" cy="59" r="59" transform="translate(9 6)" fill="#fff"/>
    </g>
    <g id="Layer_1" data-name="Layer 1" transform="translate(454.073 2333.461)">
      <path id="Trazado_910819" data-name="Trazado 910819" d="M313.986,311.469l-2.421,2.421-6.443-6.443,2.421-2.421Z" transform="translate(-268.979 -268.905)" fill="#bfbfbf"/>
      <path id="Trazado_910820" data-name="Trazado 910820" d="M312.8,321.382l-1.23,1.23-6.443-6.443,1.23-1.23Z" transform="translate(-268.982 -277.627)" fill="#8c8c8c"/>
      <path id="Trazado_910821" data-name="Trazado 910821" d="M54.231,32.857A21.473,21.473,0,1,1,32.758,11.384,21.473,21.473,0,0,1,54.231,32.857Z" transform="translate(-10.446 -10.543)" fill="#6cf"/>
      <path id="Trazado_910822" data-name="Trazado 910822" d="M34.032,54.291c-.422.025-.846.039-1.274.039a21.473,21.473,0,1,1,0-42.946c.428,0,.853.014,1.274.039a21.472,21.472,0,0,0,0,42.868Z" transform="translate(-10.446 -10.543)" fill="#4da6ff"/>
      <path id="Trazado_910823" data-name="Trazado 910823" d="M83.023,66.2A16.919,16.919,0,1,1,66.1,49.283,16.919,16.919,0,0,1,83.023,66.2Z" transform="translate(-43.791 -43.889)" fill="#f5f5f5"/>
      <path id="Trazado_910824" data-name="Trazado 910824" d="M67.455,83.068q-.669.053-1.352.054a16.919,16.919,0,0,1,0-33.839q.683,0,1.352.054a16.92,16.92,0,0,0,0,33.731Z" transform="translate(-43.791 -43.889)" fill="#e6e6e6"/>
      <path id="Trazado_910825" data-name="Trazado 910825" d="M360.5,365.378l-11.66-11.66a.769.769,0,0,1,0-1.087l.231-.231,3.429-3.429.231-.231a.769.769,0,0,1,1.087,0l11.66,11.66C369.368,364.291,364.389,369.269,360.5,365.378Z" transform="translate(-307.245 -307.169)" fill="#393939"/>
      <path id="Trazado_910826" data-name="Trazado 910826" d="M365.867,385.616c-1.251,1.212-3.443,1.46-5.369-.466l-11.66-11.66a.769.769,0,0,1,0-1.087l.231-.231,1.185-1.185a.769.769,0,0,0,0,1.087l11.66,11.66a6.415,6.415,0,0,0,3.953,1.882Z" transform="translate(-307.245 -326.941)" fill="#343434"/>
      <path id="Trazado_910827" data-name="Trazado 910827" d="M39.951,166.653l14.982,25.205a3.563,3.563,0,0,1-3.062,5.383H21.906a3.563,3.563,0,0,1-3.062-5.383l14.982-25.205a3.563,3.563,0,0,1,6.125,0Z" transform="translate(-16.656 -145.624)" fill="#ffdf40"/>
      <path id="Trazado_910828" data-name="Trazado 910828" d="M23.481,197.223H21.906a3.563,3.563,0,0,1-3.062-5.383l14.982-25.205a3.562,3.562,0,0,1,4.473-1.454,3.515,3.515,0,0,0-1.971,1.574L21.345,191.961a3.566,3.566,0,0,0,2.136,5.262Z" transform="translate(-16.656 -145.606)" fill="#ffbe40"/>
      <path id="Trazado_910829" data-name="Trazado 910829" d="M156.153,229.282a1.777,1.777,0,1,1-1.777-1.777,1.777,1.777,0,0,1,1.777,1.777Zm.724-20.29a2.5,2.5,0,0,0-5,0c0,.087.725,14.078.725,14.078a1.777,1.777,0,1,0,3.553,0S156.877,209.079,156.877,208.991Z" transform="translate(-134.144 -182.208)" fill="#ff5959"/>
      <path id="Trazado_910830" data-name="Trazado 910830" d="M152.6,223.069s-.724-13.99-.724-14.077a2.5,2.5,0,0,1,2.5-2.5v18.355A1.777,1.777,0,0,1,152.6,223.069Zm1.777,4.436a1.777,1.777,0,1,0,0,3.553Z" transform="translate(-134.144 -182.208)" fill="#e63a57"/>
      <path id="Trazado_910831" data-name="Trazado 910831" d="M63.127,57.02l-11.66-11.66a1.61,1.61,0,0,0-2.276,0l-.14.14L44.1,40.551a22.312,22.312,0,1,0-33.568,1.616L5.765,50.188a4.4,4.4,0,0,0,3.786,6.654H39.515A4.4,4.4,0,0,0,43.3,50.188l-3.336-5.612q.269-.2.531-.409l4.944,4.944-.14.14a1.61,1.61,0,0,0,0,2.277l11.66,11.66A5.18,5.18,0,0,0,60.5,64.845h.09a4.157,4.157,0,0,0,2.962-1.229c1.533-1.532,1.877-4.29-.429-6.6ZM41.881,53.784a2.691,2.691,0,0,1-2.366,1.376H9.551a2.722,2.722,0,0,1-2.34-4.112l14.982-25.2a2.721,2.721,0,0,1,4.679,0l14.982,25.2A2.691,2.691,0,0,1,41.881,53.784Zm-13.563-28.8a4.4,4.4,0,0,0-7.571,0L13.855,36.578a16.143,16.143,0,1,1,22.928,2.647Zm9.333,15.7a17.827,17.827,0,1,0-24.71-2.561l-1.515,2.542A20.633,20.633,0,1,1,39.1,43.121Zm4.123,2.383q.641-.594,1.231-1.233l4.856,4.856-1.232,1.232ZM62.366,62.428a2.48,2.48,0,0,1-1.829.735A3.543,3.543,0,0,1,58.148,62L46.54,50.39,50.329,46.6,61.937,58.21A3.548,3.548,0,0,1,63.1,60.6a2.492,2.492,0,0,1-.736,1.828ZM24.533,48.84a2.618,2.618,0,1,0,2.618,2.618A2.618,2.618,0,0,0,24.533,48.84Zm0,3.553a.936.936,0,1,1,.936-.936.936.936,0,0,1-.936.936ZM21.191,31.168c0,.03,0,.11.725,14.1a2.618,2.618,0,1,0,5.235,0c.725-13.991.725-14.071.725-14.1a3.342,3.342,0,0,0-6.685,0Zm5-.015c-.02.447-.48,9.35-.723,14.049,0,.014,0,.029,0,.043a.936.936,0,1,1-1.871,0c0-.015,0-.029,0-.043-.243-4.7-.7-13.6-.723-14.048a1.66,1.66,0,1,1,3.32,0Z" transform="translate(-4.299 -4.384)"/>
    </g>
  </g>
</svg>
