<svg xmlns="http://www.w3.org/2000/svg" width="70.001" height="70" viewBox="0 0 70.001 70">
  <g id="batido-de-platano" transform="translate(0 0)">
    <path id="Trazado_911136" data-name="Trazado 911136" d="M240.757,58.065h-4.516a3.387,3.387,0,0,0,0-6.774h-3.387a10.8,10.8,0,0,0-1.174-4.9l.045-.023a11.291,11.291,0,1,1,10.161,16.213V59.194a1.133,1.133,0,0,0-1.129-1.129Zm0,0" transform="translate(-198.983 -34.355)" fill="#ffeaa7"/>
    <path id="Trazado_911137" data-name="Trazado 911137" d="M18.161,237.316v4.652h-.214A9.977,9.977,0,0,1,8.8,235.939a9.936,9.936,0,0,1-.8-3.918V218.089a2.093,2.093,0,0,1,3.963-.937l.553,1.106h5.645v4.516H12.516v7.689a6.948,6.948,0,0,0,2.551,5.4,6.879,6.879,0,0,0,3.094,1.457Zm0,0" transform="translate(-6.871 -185.516)" fill="#e6e9ed"/>
    <path id="Trazado_911138" data-name="Trazado 911138" d="M111.614,200.211v.012a15.008,15.008,0,0,1-3.9.519,35.247,35.247,0,0,1-7.914-.9l-10.771-2.484-2.258,2.258.587,2.044a15.874,15.874,0,0,0,15.253,11.5h-18.1A4.515,4.515,0,0,1,80,208.645V169.129A1.133,1.133,0,0,1,81.129,168H93.549v13.549a2.265,2.265,0,0,0,2.258,2.258,2.274,2.274,0,0,0,2.258-2.258v-6.774a2.265,2.265,0,0,1,2.258-2.258,2.274,2.274,0,0,1,2.258,2.258v14.678a2.265,2.265,0,0,0,2.258,2.258,2.274,2.274,0,0,0,2.258-2.258V168h3.387a1.133,1.133,0,0,1,1.129,1.129Zm0,0" transform="translate(-68.71 -144.29)" fill="#ffeaa7"/>
    <path id="Trazado_911139" data-name="Trazado 911139" d="M189.548,168v21.452a2.274,2.274,0,0,1-2.258,2.258,2.265,2.265,0,0,1-2.258-2.258V174.774a2.274,2.274,0,0,0-2.258-2.258,2.265,2.265,0,0,0-2.258,2.258v6.774a2.274,2.274,0,0,1-2.258,2.258A2.265,2.265,0,0,1,176,181.549V168Zm0,0" transform="translate(-151.161 -144.291)" fill="#ffc729"/>
    <path id="Trazado_911140" data-name="Trazado 911140" d="M116.323,65.032h3.387a3.387,3.387,0,1,1,0,6.774H99.387a3.387,3.387,0,0,1,0-6.774h2.258a5.214,5.214,0,0,1,4.471-5.16l1.129-.158a5.13,5.13,0,0,0,3.591-2.27L111.807,56l1.321,1.321a10.646,10.646,0,0,1,2.021,2.812,10.8,10.8,0,0,1,1.174,4.9Zm0,0" transform="translate(-82.452 -48.097)" fill="#ffc729"/>
    <path id="Trazado_911141" data-name="Trazado 911141" d="M391.807,201.863a1.849,1.849,0,0,1-1.5,1.818l-2.473.5a3.351,3.351,0,0,0-.926.339h-6.391l-3.1-.779A1.849,1.849,0,0,1,376,201.93v-.068A1.865,1.865,0,0,1,377.863,200h12.081A1.865,1.865,0,0,1,391.807,201.863Zm0,0" transform="translate(-322.935 -171.774)" fill="#a0d468"/>
    <path id="Trazado_911142" data-name="Trazado 911142" d="M172.033,235.082a9.227,9.227,0,0,0,1.31,4.742.608.608,0,0,0,.056.09,14.793,14.793,0,0,1,2.1,7.881v.09a14.56,14.56,0,0,1-2.619,8.073l-.5.711a26.87,26.87,0,0,1-22.016,11.46H143.84a15.843,15.843,0,0,1-15.253-11.5L128,254.581l2.258-2.258,10.771,2.484a35.248,35.248,0,0,0,7.914.9,15.009,15.009,0,0,0,3.9-.519v-.012a14.487,14.487,0,0,0,1.8-.6,14.937,14.937,0,0,0,4.81-3.218,19.341,19.341,0,0,0,4.934-8.388,12.363,12.363,0,0,1,3.139-5.329V232h6.391a3.49,3.49,0,0,0-1.874,3.082Zm0,0" transform="translate(-109.935 -199.258)" fill="#fcd770"/>
    <path id="Trazado_911143" data-name="Trazado 911143" d="M305.032,70.774h-6.774V64H296v9.032h9.032Zm0,0" transform="translate(-254.226 -54.968)"/>
    <path id="Trazado_911144" data-name="Trazado 911144" d="M328,80h2.258v2.258H328Zm0,0" transform="translate(-281.709 -68.71)"/>
    <path id="Trazado_911145" data-name="Trazado 911145" d="M328,144h2.258v2.258H328Zm0,0" transform="translate(-281.709 -123.678)"/>
    <path id="Trazado_911146" data-name="Trazado 911146" d="M67.011,27.1H54.925A3.031,3.031,0,0,0,54.2,33.06l2.251.563v4.308a13.474,13.474,0,0,0-3.091,5.474,18.316,18.316,0,0,1-4.648,7.9,13.689,13.689,0,0,1-4.68,3.064V29.3A12.416,12.416,0,1,0,32.695,9.872a12.186,12.186,0,0,0-1.219-1.445l-2.3-2.3-1.731,2.6A4.079,4.079,0,0,1,24.632,10.5l-1.128.162a6.341,6.341,0,0,0-4.711,3.388L16.785,0H7.9V2.257h6.924l1.939,13.566a4.513,4.513,0,0,0-4.347,4.5,4.467,4.467,0,0,0,.628,2.258h-.628a2.26,2.26,0,0,0-2.258,2.258v6.774H6.343L6.1,31.135A3.223,3.223,0,0,0,0,32.577v13.93A11.032,11.032,0,0,0,10.161,57.514v6.841A5.652,5.652,0,0,0,15.806,70h24.62A28,28,0,0,0,63.368,58.056l.5-.707A15.7,15.7,0,0,0,66.7,48.558a16,16,0,0,0-2.32-8.567,8.113,8.113,0,0,1-1.149-4.169,2.363,2.363,0,0,1,.249-1.052,2.337,2.337,0,0,1,1.642-1.254l2.48-.5a2.991,2.991,0,0,0-.586-5.923Zm-56.85,23.16a5.864,5.864,0,0,1-3.387-5.312V38.387h3.387ZM2.97,49.98a8.764,8.764,0,0,1-.712-3.473V32.577a.964.964,0,0,1,1.827-.431l.862,1.725h5.214v2.258H4.516v8.816a8.116,8.116,0,0,0,5.645,7.729v2.581A8.791,8.791,0,0,1,2.97,49.98ZM42.9,6.774A10.159,10.159,0,0,1,44.032,27.03V24.838a2.26,2.26,0,0,0-2.258-2.258h-.628a4.467,4.467,0,0,0,.628-2.258,4.521,4.521,0,0,0-4.516-4.516H34.945a11.941,11.941,0,0,0-.96-3.7A10.077,10.077,0,0,1,42.9,6.774ZM14.677,20.322a2.26,2.26,0,0,1,2.258-2.258h4.516V15.806H20.5A4.089,4.089,0,0,1,23.824,12.9l1.128-.162a6.338,6.338,0,0,0,4.375-2.757l.2-.3.349.349a9.7,9.7,0,0,1,2.792,5.783H23.71v2.258H37.258a2.258,2.258,0,1,1,0,4.516H28.226v2.258h9.032V45.161a1.129,1.129,0,0,1-2.258,0V30.484a3.387,3.387,0,1,0-6.774,0v6.774a1.129,1.129,0,0,1-2.258,0V22.58H16.935a2.26,2.26,0,0,1-2.258-2.258Zm1.129,47.42a3.392,3.392,0,0,1-3.387-3.387V24.838H23.71V37.258a3.387,3.387,0,1,0,6.774,0V30.484a1.129,1.129,0,1,1,2.258,0V45.161a3.387,3.387,0,0,0,6.774,0V24.838h2.258v30.2a13.861,13.861,0,0,1-2.764.28,34.134,34.134,0,0,1-7.665-.873l-11.38-2.626-3.17,3.17.765,2.677a16.974,16.974,0,0,0,7.335,9.745c.18.112.362.22.545.326ZM67.154,30.805l-2.479.5a4.578,4.578,0,0,0-3.22,2.459,4.626,4.626,0,0,0-.487,2.062,10.457,10.457,0,0,0,1.525,5.42,13.73,13.73,0,0,1,1.942,7.364,13.364,13.364,0,0,1-2.422,7.447l-.5.707A25.744,25.744,0,0,1,40.426,67.742H33.906A14.742,14.742,0,0,1,19.732,57.051l-.4-1.4,1.346-1.346,10.16,2.345a36.381,36.381,0,0,0,8.172.931,15.875,15.875,0,0,0,11.3-4.68,20.572,20.572,0,0,0,5.222-8.875,11.209,11.209,0,0,1,2.847-4.84l.332-.331V31.86l-3.962-.991a.756.756,0,0,1-.555-.783.733.733,0,0,1,.732-.732H67.01a.733.733,0,0,1,.144,1.451Zm0,0"/>
    <path id="Trazado_911147" data-name="Trazado 911147" d="M304.344,373.176l-.495.706a21.228,21.228,0,0,1-17.393,9.056V385.2A23.493,23.493,0,0,0,305.7,375.176l.495-.706a11.1,11.1,0,0,0,.713-1.165l-2-1.06a9.1,9.1,0,0,1-.569.929Zm0,0" transform="translate(-246.029 -319.711)"/>
    <path id="Trazado_911148" data-name="Trazado 911148" d="M422.966,343.287a8.779,8.779,0,0,1-.263,1.98l2.189.551a11.059,11.059,0,0,0,.332-2.491l0-.116-2.258-.043Zm0,0" transform="translate(-363.047 -294.737)"/>
  </g>
</svg>
