<svg xmlns="http://www.w3.org/2000/svg" xmlns:xlink="http://www.w3.org/1999/xlink" width="136" height="136" viewBox="0 0 136 136">
  <defs>
    <filter id="Elipse_12731" x="0" y="0" width="136" height="136" filterUnits="userSpaceOnUse">
      <feOffset dy="3" input="SourceAlpha"/>
      <feGaussianBlur stdDeviation="3" result="blur"/>
      <feFlood flood-opacity="0.161"/>
      <feComposite operator="in" in2="blur"/>
      <feComposite in="SourceGraphic"/>
    </filter>
  </defs>
  <g id="Grupo_1113548" data-name="Grupo 1113548" transform="translate(-1046.5 -6310.564)">
    <g id="Grupo_1113505" data-name="Grupo 1113505">
      <g transform="matrix(1, 0, 0, 1, 1046.5, 6310.56)" filter="url(#Elipse_12731)">
        <circle id="Elipse_12731-2" data-name="Elipse 12731" cx="59" cy="59" r="59" transform="translate(9 6)" fill="#fff"/>
      </g>
      <g id="ahorrar-agua" transform="translate(537.653 5934.573)">
        <g id="Grupo_1113495" data-name="Grupo 1113495" transform="translate(542.523 445.296)">
          <path id="Trazado_910935" data-name="Trazado 910935" d="M644.009,2153.031l11.125-11.125a4.37,4.37,0,0,1,6.18,6.18l-17.923,17.923c-8.2,6.965-22.424,6.8-40.173,2.472h-9.271v-16.069h6.8c9.271-9.271,18.85-8.344,25.958-1.236l9.889-1.854c9.271-3.09,9.271,6.181,3.09,7.417l-14.833,4.326Z" transform="translate(-593.948 -2140.626)" fill="#fff"/>
        </g>
        <g id="Grupo_1113496" data-name="Grupo 1113496" transform="translate(541.287 444.06)">
          <path id="Trazado_910936" data-name="Trazado 910936" d="M573.425,2320.01a1.236,1.236,0,0,1-.345-2.423l14.833-4.326c.034-.01.069-.019.1-.025a4.017,4.017,0,0,0,3.2-2.685,2.164,2.164,0,0,0-.449-2.213c-.916-.883-2.813-.931-5.2-.134a1.214,1.214,0,0,1-.163.042l-9.889,1.854a1.237,1.237,0,0,1-1.1-.341c-7.3-7.3-16.124-6.849-24.21,1.236a1.237,1.237,0,0,1-.874.362h-6.8a1.236,1.236,0,0,1,0-2.472h6.292a26.519,26.519,0,0,1,6.941-4.983,17.322,17.322,0,0,1,7.345-1.777c4.462-.039,8.8,1.835,12.581,5.427l9.177-1.721a11.029,11.029,0,0,1,4.456-.627,5.222,5.222,0,0,1,3.164,1.353,4.3,4.3,0,0,1,1.22,2.215,5.078,5.078,0,0,1-.114,2.472,6.057,6.057,0,0,1-1.758,2.771,6.951,6.951,0,0,1-3.271,1.633l-14.784,4.312A1.246,1.246,0,0,1,573.425,2320.01Z" transform="translate(-541.287 -2297.098)" fill="#310e33"/>
          <path id="Trazado_910937" data-name="Trazado 910937" d="M573.332,2121.343a70.768,70.768,0,0,1-9.083-.634,119.188,119.188,0,0,1-12.6-2.411h-9.122a1.236,1.236,0,0,1,0-2.472H551.8a1.235,1.235,0,0,1,.293.035c9.291,2.268,16.92,3.239,23.321,2.966,6.724-.286,12.013-2.018,15.721-5.148l17.887-17.887a3.134,3.134,0,1,0-4.432-4.432l-11.125,11.125a1.236,1.236,0,0,1-1.748-1.748l11.125-11.125a5.606,5.606,0,0,1,7.928,7.928l-17.923,17.923c-.024.024-.048.046-.074.068a22.419,22.419,0,0,1-7.66,4.167,36.232,36.232,0,0,1-9.594,1.6Q574.451,2121.344,573.332,2121.343Z" transform="translate(-541.291 -2087.971)" fill="#310e33"/>
        </g>
        <g id="Grupo_1113500" data-name="Grupo 1113500" transform="translate(550.614 404.549)">
          <g id="Grupo_1113497" data-name="Grupo 1113497" transform="translate(25.901 5.562)">
            <path id="Trazado_910938" data-name="Trazado 910938" d="M2115.925,720.168a10.507,10.507,0,0,1-21.013,0c0-5.8,10.507-25.958,10.507-25.958S2115.925,714.365,2115.925,720.168Z" transform="translate(-2093.676 -692.974)" fill="#5ed1ff"/>
            <path id="Trazado_910939" data-name="Trazado 910939" d="M2053.983,680.484a11.734,11.734,0,0,1-11.743-11.743,22.888,22.888,0,0,1,1.716-6.927c.882-2.424,2.11-5.365,3.648-8.741,2.61-5.728,5.256-10.811,5.282-10.862a1.236,1.236,0,0,1,2.192,0c.026.051,2.672,5.134,5.282,10.862,1.538,3.376,2.766,6.317,3.648,8.741a22.893,22.893,0,0,1,1.716,6.927,11.734,11.734,0,0,1-11.743,11.743Zm0-34.978c-1.008,2-2.577,5.188-4.133,8.6-4.47,9.811-5.138,13.379-5.138,14.633a9.271,9.271,0,1,0,18.541,0c0-1.254-.667-4.822-5.138-14.633C2056.56,650.693,2054.99,647.509,2053.983,645.505Z" transform="translate(-2042.24 -641.547)" fill="#310e33"/>
          </g>
          <g id="Grupo_1113498" data-name="Grupo 1113498" transform="translate(14.159 0)">
            <path id="Trazado_910940" data-name="Trazado 910940" d="M1604.477,469.58a4.944,4.944,0,0,1-9.889,0c0-2.731,4.944-12.361,4.944-12.361S1604.477,466.849,1604.477,469.58Z" transform="translate(-1593.352 -455.983)" fill="#5ed1ff"/>
            <path id="Trazado_910941" data-name="Trazado 910941" d="M1548.105,424.326a6.181,6.181,0,0,1-6.18-6.18,11.344,11.344,0,0,1,.846-3.5c.421-1.168,1-2.584,1.735-4.209,1.235-2.746,2.487-5.19,2.5-5.214a1.236,1.236,0,0,1,2.2,0c.013.024,1.265,2.468,2.5,5.214.731,1.625,1.314,3.041,1.735,4.209a11.34,11.34,0,0,1,.846,3.5,6.18,6.18,0,0,1-6.18,6.18Zm0-15.756c-.4.836-.878,1.839-1.349,2.887-2.13,4.737-2.359,6.255-2.359,6.688a3.708,3.708,0,0,0,7.417,0c0-.433-.23-1.951-2.359-6.688C1548.983,410.409,1548.509,409.406,1548.105,408.57Z" transform="translate(-1541.925 -404.549)" fill="#310e33"/>
          </g>
          <g id="Grupo_1113499" data-name="Grupo 1113499" transform="translate(0 16.687)">
            <path id="Trazado_910942" data-name="Trazado 910942" d="M1004.825,1183.709a6.742,6.742,0,1,1-13.484,0c0-3.724,6.742-15.507,6.742-15.507S1004.825,1179.986,1004.825,1183.709Z" transform="translate(-990.105 -1166.966)" fill="#5ed1ff"/>
            <path id="Trazado_910943" data-name="Trazado 910943" d="M946.648,1140.249a7.973,7.973,0,0,1-7.978-7.978,13.524,13.524,0,0,1,1.137-4.441c.572-1.475,1.367-3.243,2.362-5.256,1.683-3.406,3.389-6.394,3.406-6.423a1.236,1.236,0,0,1,2.146,0c.017.03,1.724,3.018,3.406,6.423.995,2.013,1.789,3.782,2.362,5.256a13.525,13.525,0,0,1,1.137,4.441,7.973,7.973,0,0,1-7.978,7.978Zm0-20.935c-.625,1.152-1.45,2.708-2.268,4.365-2.817,5.7-3.238,7.831-3.238,8.592a5.506,5.506,0,1,0,11.012,0c0-.761-.421-2.888-3.238-8.592C948.1,1122.021,947.273,1120.465,946.648,1119.313Z" transform="translate(-938.67 -1115.527)" fill="#310e33"/>
          </g>
        </g>
      </g>
    </g>
  </g>
</svg>
