<svg xmlns="http://www.w3.org/2000/svg" xmlns:xlink="http://www.w3.org/1999/xlink" width="295" height="270.061" viewBox="0 0 295 270.061">
  <defs>
    <clipPath id="clip-path">
      <rect id="Rectángulo_405826" data-name="Rectángulo 405826" width="192.659" height="213.565" fill="none"/>
    </clipPath>
    <clipPath id="clip-path-3">
      <rect id="Rectángulo_405793" data-name="Rectángulo 405793" width="191.308" height="213.125" fill="none"/>
    </clipPath>
    <clipPath id="clip-path-4">
      <rect id="Rectángulo_405794" data-name="Rectángulo 405794" width="143.231" height="187.685" fill="none"/>
    </clipPath>
    <clipPath id="clip-path-5">
      <rect id="Rectángulo_405806" data-name="Rectángulo 405806" width="113.368" height="168.766" fill="none"/>
    </clipPath>
  </defs>
  <g id="Grupo_1113181" data-name="Grupo 1113181" transform="translate(-285 -5969.417)">
    <rect id="Rectángulo_405691" data-name="Rectángulo 405691" width="295" height="270.061" rx="14" transform="translate(285 5969.417)" fill="#fef6f2"/>
    <g id="Grupo_1113180" data-name="Grupo 1113180" transform="translate(329.969 6007)">
      <g id="Grupo_1113179" data-name="Grupo 1113179" clip-path="url(#clip-path)">
        <g id="Grupo_1113178" data-name="Grupo 1113178">
          <g id="Grupo_1113177" data-name="Grupo 1113177" clip-path="url(#clip-path)">
            <g id="Grupo_1113170" data-name="Grupo 1113170" transform="translate(1.35 0.44)" opacity="0.25" style="mix-blend-mode: multiply;isolation: isolate">
              <g id="Grupo_1113169" data-name="Grupo 1113169">
                <g id="Grupo_1113168" data-name="Grupo 1113168" clip-path="url(#clip-path-3)">
                  <path id="Trazado_910217" data-name="Trazado 910217" d="M191.593,1.565H48.144a4.521,4.521,0,0,0-4.522,4.522v29.42L4.807,39.974,24.916,214.69,156.2,199.58l-.925-8.037,1.712.2,7.4.874.173-1.492.226-1.877h15.346a4.526,4.526,0,0,0,4.522-4.522V81.46a4.516,4.516,0,0,1,4.522-4.522h2.412a4.521,4.521,0,0,0,4.522-4.522V6.087a4.517,4.517,0,0,0-4.522-4.522" transform="translate(-4.807 -1.565)"/>
                </g>
              </g>
            </g>
            <path id="Trazado_910218" data-name="Trazado 910218" d="M290.674,4.521V70.849a4.521,4.521,0,0,1-4.522,4.522h-2.412a4.516,4.516,0,0,0-4.522,4.522V183.162a4.526,4.526,0,0,1-4.522,4.522H142.7a4.448,4.448,0,0,1-2.322-.648,4.505,4.505,0,0,1-2.2-3.874V4.521A4.521,4.521,0,0,1,142.7,0H286.151a4.517,4.517,0,0,1,4.522,4.522" transform="translate(-99.366 0.001)" fill="#f3ae57"/>
            <g id="Grupo_1113173" data-name="Grupo 1113173" transform="translate(38.815)" opacity="0.25" style="mix-blend-mode: multiply;isolation: isolate">
              <g id="Grupo_1113172" data-name="Grupo 1113172">
                <g id="Grupo_1113171" data-name="Grupo 1113171" clip-path="url(#clip-path-4)">
                  <path id="Trazado_910219" data-name="Trazado 910219" d="M281.41,15.1l-20.4,172.58H243.242L138.18,175.256V100.991L150,1.07,150.119,0h3.618Z" transform="translate(-138.18 0)"/>
                </g>
              </g>
            </g>
            <path id="Trazado_910220" data-name="Trazado 910220" d="M252.808,18.639l-20.26,171.284-.226,1.877-.173,1.492-7.4-.874-21.074-2.495L111.38,179l-10.469-1.236,10.469-88.5,6.572-55.557L121.57,3.113l1.628.2Z" transform="translate(-72.565 -2.238)" fill="#f2f2f2"/>
            <path id="Trazado_910221" data-name="Trazado 910221" d="M517.486,130.972l-20.22-2.392,2.392-20.22,20.22,2.392Zm-18.744-3.556,17.579,2.079,2.08-17.579-17.579-2.079Z" transform="translate(-357.585 -77.922)" fill="#b3b3b3"/>
            <path id="Trazado_910222" data-name="Trazado 910222" d="M503.855,246.22l-20.221-2.392,2.392-20.22L506.246,226Zm-18.744-3.556,17.579,2.079,2.08-17.579-17.579-2.079Z" transform="translate(-347.782 -160.797)" fill="#b3b3b3"/>
            <path id="Trazado_910223" data-name="Trazado 910223" d="M490.222,361.468,470,359.076l2.392-20.22,20.221,2.392Zm-18.744-3.556,17.579,2.079,2.079-17.579-17.579-2.079Z" transform="translate(-337.979 -243.672)" fill="#b3b3b3"/>
            <path id="Trazado_910224" data-name="Trazado 910224" d="M476.589,476.716l-20.221-2.392,2.392-20.22,20.22,2.392Zm-18.744-3.556,17.579,2.079,2.08-17.579-17.579-2.079Z" transform="translate(-328.176 -326.547)" fill="#b3b3b3"/>
            <path id="Trazado_910225" data-name="Trazado 910225" d="M462.957,591.964l-20.22-2.391,2.392-20.22,20.22,2.391Zm-18.744-3.556,17.579,2.079,2.08-17.579-17.579-2.079Z" transform="translate(-318.373 -409.422)" fill="#b3b3b3"/>
            <rect id="Rectángulo_405795" data-name="Rectángulo 405795" width="1.507" height="49.997" transform="matrix(0.117, -0.993, 0.993, 0.117, 88.099, 17.576)" fill="#b3b3b3"/>
            <rect id="Rectángulo_405796" data-name="Rectángulo 405796" width="1.33" height="63.816" transform="matrix(0.117, -0.993, 0.993, 0.117, 60.055, 25.807)" fill="#b3b3b3"/>
            <rect id="Rectángulo_405797" data-name="Rectángulo 405797" width="1.33" height="37.247" transform="translate(59.052 34.29) rotate(-83.254)" fill="#b3b3b3"/>
            <rect id="Rectángulo_405798" data-name="Rectángulo 405798" width="1.33" height="63.816" transform="matrix(0.117, -0.993, 0.993, 0.117, 56.278, 57.743)" fill="#b3b3b3"/>
            <rect id="Rectángulo_405799" data-name="Rectángulo 405799" width="1.33" height="52.698" transform="matrix(0.117, -0.993, 0.993, 0.117, 55.274, 66.227)" fill="#b3b3b3"/>
            <rect id="Rectángulo_405800" data-name="Rectángulo 405800" width="1.33" height="63.816" transform="translate(52.5 89.68) rotate(-83.254)" fill="#b3b3b3"/>
            <rect id="Rectángulo_405801" data-name="Rectángulo 405801" width="1.33" height="34.043" transform="translate(51.497 98.163) rotate(-83.254)" fill="#b3b3b3"/>
            <rect id="Rectángulo_405802" data-name="Rectángulo 405802" width="1.33" height="63.816" transform="translate(48.722 121.616) rotate(-83.254)" fill="#b3b3b3"/>
            <rect id="Rectángulo_405803" data-name="Rectángulo 405803" width="1.33" height="49.683" transform="translate(47.719 130.099) rotate(-83.254)" fill="#b3b3b3"/>
            <rect id="Rectángulo_405804" data-name="Rectángulo 405804" width="1.33" height="63.816" transform="translate(44.945 153.553) rotate(-83.254)" fill="#b3b3b3"/>
            <rect id="Rectángulo_405805" data-name="Rectángulo 405805" width="1.33" height="33.101" transform="translate(43.941 162.036) rotate(-83.254)" fill="#b3b3b3"/>
            <path id="Trazado_910226" data-name="Trazado 910226" d="M516.208,135.685l-5.416-6.87,1.184-.933,4.483,5.686,16.5-13.008.933,1.184Z" transform="translate(-367.311 -86.695)" fill="#b33f3f"/>
            <path id="Trazado_910227" data-name="Trazado 910227" d="M502.5,251.6l-5.416-6.87,1.184-.933,4.483,5.686,16.5-13.008.933,1.184Z" transform="translate(-357.451 -170.049)" fill="#b33f3f"/>
            <g id="Grupo_1113176" data-name="Grupo 1113176" transform="translate(38.815 21.413)" opacity="0.25" style="mix-blend-mode: multiply;isolation: isolate">
              <g id="Grupo_1113175" data-name="Grupo 1113175">
                <g id="Grupo_1113174" data-name="Grupo 1113174" clip-path="url(#clip-path-5)">
                  <path id="Trazado_910228" data-name="Trazado 910228" d="M251.548,245,230.474,242.5H142.7a4.445,4.445,0,0,1-2.321-.648,4.505,4.505,0,0,1-2.2-3.874V87.048l6.572-.761,34.574-3.979,49.851-5.736,2.947-.339.083.7,5.366,46.648,1.621,14.072,1.59,13.846,2.238,19.431,1.6,13.846,2.231,19.438,4.41,38.289Z" transform="translate(-138.18 -76.232)"/>
                </g>
              </g>
            </g>
            <rect id="Rectángulo_405807" data-name="Rectángulo 405807" width="132.153" height="175.869" transform="matrix(0.993, -0.114, 0.114, 0.993, 0, 38.409)" fill="#f2f2f2"/>
            <rect id="Rectángulo_405808" data-name="Rectángulo 405808" width="41.957" height="3.015" transform="translate(45.61 42.827) rotate(-6.564)" fill="#b3b3b3"/>
            <rect id="Rectángulo_405809" data-name="Rectángulo 405809" width="51.859" height="1.508" transform="matrix(0.993, -0.114, 0.114, 0.993, 69.442, 49.381)" fill="#b3b3b3"/>
            <rect id="Rectángulo_405810" data-name="Rectángulo 405810" width="51.859" height="1.508" transform="matrix(0.993, -0.114, 0.114, 0.993, 70.411, 57.804)" fill="#b3b3b3"/>
            <rect id="Rectángulo_405811" data-name="Rectángulo 405811" width="51.859" height="1.508" transform="matrix(0.993, -0.114, 0.114, 0.993, 71.381, 66.228)" fill="#b3b3b3"/>
            <rect id="Rectángulo_405812" data-name="Rectángulo 405812" width="107.029" height="1.508" transform="matrix(0.993, -0.114, 0.114, 0.993, 17.543, 80.962)" fill="#b3b3b3"/>
            <rect id="Rectángulo_405813" data-name="Rectángulo 405813" width="107.029" height="1.508" transform="matrix(0.993, -0.114, 0.114, 0.993, 18.512, 89.385)" fill="#b3b3b3"/>
            <rect id="Rectángulo_405814" data-name="Rectángulo 405814" width="53.703" height="1.508" transform="matrix(0.993, -0.114, 0.114, 0.993, 19.481, 97.808)" fill="#b3b3b3"/>
            <rect id="Rectángulo_405815" data-name="Rectángulo 405815" width="107.029" height="1.508" transform="matrix(0.993, -0.114, 0.114, 0.993, 21.421, 114.657)" fill="#b3b3b3"/>
            <rect id="Rectángulo_405816" data-name="Rectángulo 405816" width="107.029" height="1.508" transform="matrix(0.993, -0.114, 0.114, 0.993, 22.39, 123.081)" fill="#b3b3b3"/>
            <rect id="Rectángulo_405817" data-name="Rectángulo 405817" width="89.464" height="1.378" transform="translate(23.368 131.575) rotate(-6.578)" fill="#b3b3b3"/>
            <rect id="Rectángulo_405818" data-name="Rectángulo 405818" width="107.029" height="1.508" transform="matrix(0.993, -0.114, 0.114, 0.993, 24.329, 139.928)" fill="#b3b3b3"/>
            <rect id="Rectángulo_405819" data-name="Rectángulo 405819" width="74.202" height="1.255" transform="translate(25.313 148.476) rotate(-6.568)" fill="#b3b3b3"/>
            <rect id="Rectángulo_405820" data-name="Rectángulo 405820" width="56.781" height="3.015" transform="matrix(0.993, -0.114, 0.114, 0.993, 77.07, 158.702)" fill="#b3b3b3"/>
            <rect id="Rectángulo_405821" data-name="Rectángulo 405821" width="56.781" height="1.508" transform="matrix(0.993, -0.114, 0.114, 0.993, 78.126, 167.877)" fill="#b3b3b3"/>
            <rect id="Rectángulo_405822" data-name="Rectángulo 405822" width="44.178" height="1.33" transform="translate(79.106 176.386) rotate(-6.562)" fill="#b3b3b3"/>
            <rect id="Rectángulo_405823" data-name="Rectángulo 405823" width="56.781" height="1.508" transform="translate(80.065 184.724) rotate(-6.569)" fill="#b3b3b3"/>
            <rect id="Rectángulo_405824" data-name="Rectángulo 405824" width="44.178" height="1.33" transform="translate(81.045 193.234) rotate(-6.562)" fill="#b3b3b3"/>
            <path id="Trazado_910229" data-name="Trazado 910229" d="M148.973,587.745a12.436,12.436,0,1,0-3.113,17.31,12.452,12.452,0,0,0,3.113-17.31M128.9,601.7a12.015,12.015,0,1,1,16.723,3.007A12.031,12.031,0,0,1,128.9,601.7" transform="translate(-90.845 -418.813)" fill="#5e89e6"/>
            <path id="Trazado_910230" data-name="Trazado 910230" d="M153.906,604.127l-.411-.1a9.834,9.834,0,0,1-18.905-4.853l-.408-.107a10.253,10.253,0,0,0,19.724,5.064m-1.139-9.564A10.273,10.273,0,0,0,138.486,592a10.166,10.166,0,0,0-3.581,4.42l.408.107a9.832,9.832,0,0,1,18.818,4.832l.408.106a10.2,10.2,0,0,0-1.773-6.9" transform="translate(-96.424 -424.389)" fill="#5e89e6"/>
            <path id="Trazado_910231" data-name="Trazado 910231" d="M156.424,601.161a8.085,8.085,0,0,0-3.522-2.851l-.108.414a7.646,7.646,0,0,1,3.283,2.677,7.724,7.724,0,0,1-6.635,12.133l-.111.416a8.145,8.145,0,0,0,7.092-12.79m-13.04,9.065a7.721,7.721,0,0,1,6.633-12.128l.109-.42a8.146,8.146,0,0,0-3.57,15.641l.108-.413a7.682,7.682,0,0,1-3.28-2.68" transform="translate(-101.813 -429.785)" fill="#5e89e6"/>
            <path id="Trazado_910232" data-name="Trazado 910232" d="M161.109,609.519a5.489,5.489,0,0,0-7.628-1.372,5.428,5.428,0,0,0-1.839,2.192l.414.108a5.007,5.007,0,0,1,1.666-1.954,5.063,5.063,0,0,1,7.924,3.651l.431.111a5.456,5.456,0,0,0-.968-2.737m.472,5.443-.416-.111A4.975,4.975,0,0,1,159.5,616.8a5.057,5.057,0,0,1-7.919-3.644l-.428-.113a5.38,5.38,0,0,0,.96,2.732,5.486,5.486,0,0,0,9.472-.813" transform="translate(-108.692 -436.616)" fill="#5e89e6"/>
          </g>
        </g>
      </g>
    </g>
  </g>
</svg>
